<svg xmlns="http://www.w3.org/2000/svg" width="620" height="318" viewBox="0 0 620 318" fill="none"><line y1="313.027" x2="620" y2="313.027" stroke="#032100"></line><path d="M52.8091 190.519C52.823 190.503 52.8307 190.483 52.8307 190.462C52.8307 190.441 52.823 190.421 52.8091 190.405C52.7875 190.396 52.7632 190.396 52.7414 190.404C52.7195 190.412 52.7018 190.428 52.692 190.449C50.1257 196.418 48.095 202.59 46.6222 208.897C45.1326 215.203 44.0112 221.587 43.2631 228.016L42.7858 232.846C42.7138 233.656 42.6237 234.458 42.5697 235.269L42.4256 237.693C42.3536 239.306 42.2545 240.927 42.2095 242.549V247.405L42.2635 249.829C42.2635 250.639 42.3626 251.45 42.4166 252.252C42.5427 253.865 42.6417 255.487 42.7948 257.091C43.119 260.317 43.6143 263.516 44.1367 266.681C44.1389 266.7 44.1484 266.718 44.1634 266.731C44.1783 266.744 44.1977 266.751 44.2177 266.751C44.2299 266.752 44.2422 266.751 44.2538 266.747C44.2654 266.743 44.2759 266.737 44.2846 266.728C44.2933 266.72 44.2999 266.71 44.3039 266.698C44.3079 266.687 44.3092 266.675 44.3078 266.664C44.3078 265.042 44.2267 263.429 44.1907 261.816C44.1547 260.203 44.0016 258.608 44.0196 256.995C44.0376 255.382 44.0196 253.787 43.9656 252.174V249.768V247.361V242.549L44.1006 237.736L44.1547 235.33C44.1547 234.528 44.2537 233.726 44.2988 232.933L44.596 228.12C45.1654 221.718 46.1065 215.353 47.4147 209.053C48.6578 202.736 50.4626 196.535 52.8091 190.519Z" fill="#2CA700"></path><path d="M53.5206 215.689C53.5248 215.678 53.5268 215.667 53.5263 215.656C53.5258 215.645 53.5229 215.635 53.5178 215.625C53.5127 215.615 53.5055 215.606 53.4967 215.599C53.4878 215.592 53.4776 215.587 53.4666 215.584C53.456 215.58 53.4446 215.578 53.4332 215.579C53.4218 215.579 53.4107 215.582 53.4005 215.587C53.3903 215.592 53.3813 215.599 53.374 215.607C53.3668 215.616 53.3615 215.626 53.3585 215.636C50.5173 223.665 48.629 231.98 47.73 240.422C47.2888 244.633 46.8295 248.844 46.7394 253.081C46.6299 257.321 46.7863 261.563 47.2077 265.784C47.2097 265.801 47.2179 265.818 47.231 265.831C47.2441 265.843 47.2613 265.851 47.2797 265.853C47.2911 265.856 47.3028 265.856 47.3142 265.854C47.3256 265.852 47.3363 265.847 47.3457 265.84C47.3551 265.834 47.3629 265.825 47.3686 265.815C47.3744 265.806 47.3778 265.795 47.3788 265.784C47.8831 261.564 48.1983 257.362 48.4955 253.151C48.7927 248.94 48.8467 244.738 49.1259 240.536C49.3965 236.338 49.9106 232.158 50.6659 228.016C51.384 223.86 52.337 219.744 53.5206 215.689Z" fill="#2CA700"></path><path d="M67.9397 224.538C67.9219 224.523 67.8996 224.516 67.8766 224.516C67.8536 224.516 67.8313 224.523 67.8136 224.538C64.2107 226.782 60.9647 229.522 58.1776 232.672C56.7796 234.259 55.5205 235.956 54.4133 237.746L53.6388 239.106L53.0264 240.579C52.8215 241.065 52.6471 241.563 52.5041 242.07C52.342 242.567 52.1709 243.073 52.0358 243.569C50.9285 247.594 50.2585 251.72 50.0365 255.88C49.8261 260.018 49.9858 264.166 50.5138 268.277C50.5189 268.295 50.5292 268.311 50.5436 268.323C50.558 268.336 50.5758 268.344 50.5949 268.347C50.6069 268.349 50.6194 268.349 50.6315 268.347C50.6435 268.344 50.6547 268.338 50.6642 268.331C50.6738 268.323 50.6814 268.314 50.6866 268.303C50.6917 268.292 50.6943 268.28 50.6939 268.268L51.7926 256.002C52.082 251.951 52.6082 247.92 53.3686 243.927C53.4857 243.43 53.6298 242.95 53.7559 242.462C53.8786 241.972 54.0289 241.489 54.2061 241.015L54.7195 239.603L55.3769 238.26C56.3816 236.478 57.5383 234.781 58.835 233.186C61.4074 229.933 64.4564 227.06 67.8856 224.66C67.9092 224.65 67.9279 224.632 67.938 224.609C67.9481 224.586 67.9487 224.561 67.9397 224.538Z" fill="#2CA700"></path><path d="M60.9601 240.3C59.0882 241.626 57.582 243.378 56.5743 245.4C55.5233 247.391 54.7019 249.487 54.1248 251.651C53.9537 252.183 53.8186 252.724 53.6926 253.273L53.2963 254.903C53.0883 255.998 52.9469 257.105 52.873 258.216C52.873 259.332 52.873 260.439 52.873 261.555C52.9605 262.667 53.1108 263.772 53.3233 264.868C53.3291 264.884 53.3386 264.899 53.3511 264.911C53.3636 264.923 53.3787 264.932 53.3954 264.938C53.419 264.941 53.443 264.935 53.4629 264.922C53.4827 264.91 53.4971 264.89 53.5034 264.868C53.7683 263.793 53.9697 262.704 54.1068 261.607C54.2869 260.526 54.458 259.454 54.5931 258.373C54.7282 257.292 54.8993 256.237 54.9894 255.165C55.0794 254.092 55.2235 253.011 55.4667 251.956C55.853 249.831 56.4843 247.755 57.3488 245.766C58.1203 243.737 59.3797 241.914 61.0231 240.448C61.0371 240.432 61.0447 240.412 61.0447 240.392C61.0447 240.371 61.0371 240.351 61.0231 240.335C61.0157 240.325 61.0062 240.317 60.9954 240.311C60.9845 240.305 60.9725 240.301 60.9601 240.3Z" fill="#2CA700"></path><path d="M40.7603 252.593C40.283 247.144 39.3554 241.756 38.4819 236.368C37.6083 230.98 36.6267 225.601 35.6091 220.239C34.5914 214.878 33.4567 209.533 32.259 204.198C32.2531 204.18 32.2416 204.165 32.2263 204.154C32.2109 204.144 32.1924 204.138 32.1734 204.138C32.1545 204.138 32.136 204.144 32.1206 204.154C32.1053 204.165 32.0938 204.18 32.0879 204.198C33.0515 209.568 33.889 214.956 34.7896 220.344C35.6901 225.732 36.4286 231.12 37.131 236.525C37.8335 241.93 38.3558 247.344 39.0582 252.741L41.1115 268.957C41.1171 268.976 41.1288 268.993 41.145 269.006C41.1611 269.018 41.1809 269.026 41.2015 269.027C41.2234 269.025 41.2441 269.016 41.2604 269.002C41.2767 268.988 41.2877 268.969 41.2916 268.948C41.3546 267.579 41.3546 266.211 41.3907 264.842C41.4267 263.473 41.3366 262.113 41.3096 260.744C41.2016 258.042 40.9584 255.322 40.7603 252.593Z" fill="#2CA700"></path><path d="M37.3744 252.514C37.0772 250.361 36.6629 248.216 36.2397 246.08L35.4472 242.898C35.186 241.834 34.9429 240.771 34.6277 239.725C33.5051 235.499 32.0664 231.359 30.323 227.336L29.6476 225.836L28.9001 224.372C28.4228 223.387 27.8465 222.445 27.2971 221.495C26.1954 219.58 24.8289 217.82 23.2356 216.264C23.2193 216.25 23.1985 216.243 23.177 216.243C23.1556 216.243 23.1348 216.25 23.1185 216.264C23.102 216.28 23.0928 216.302 23.0928 216.325C23.0928 216.348 23.102 216.37 23.1185 216.386C24.5952 217.993 25.843 219.785 26.8288 221.713C27.3151 222.68 27.8374 223.639 28.2517 224.633L28.9181 226.115L29.5035 227.632C31.061 231.668 32.3131 235.809 33.2498 240.021C33.7631 242.122 34.1504 244.258 34.5196 246.368L35.0509 249.559C35.24 250.622 35.4742 251.677 35.6273 252.741C35.9785 254.877 36.3838 256.995 36.771 259.131C37.1582 261.267 37.5095 263.395 37.9777 265.53C37.982 265.55 37.9933 265.568 38.0097 265.581C38.0262 265.594 38.0467 265.601 38.0678 265.6C38.0784 265.6 38.089 265.598 38.0988 265.594C38.1087 265.59 38.1176 265.585 38.1251 265.577C38.1326 265.57 38.1386 265.561 38.1427 265.552C38.1468 265.542 38.1489 265.532 38.1489 265.522C38.1489 263.342 38.0978 261.166 37.9958 258.992C37.8697 256.847 37.6085 254.685 37.3744 252.514Z" fill="#2CA700"></path><path d="M32.7176 252.793C31.6729 249.934 30.4662 247.135 29.1153 244.397C27.7824 241.658 26.2787 239 24.6125 236.438C24.5956 236.426 24.5751 236.419 24.554 236.419C24.533 236.419 24.5125 236.426 24.4955 236.438C24.479 236.454 24.4697 236.476 24.4697 236.499C24.4697 236.522 24.479 236.543 24.4955 236.56C25.9409 239.214 27.219 241.951 28.3228 244.755C29.4666 247.545 30.4932 250.369 31.3577 253.246C32.2223 256.123 32.8617 259.035 33.6542 261.921C34.4467 264.807 35.1581 267.71 36.0677 270.639C36.0731 270.656 36.0838 270.671 36.0983 270.682C36.1128 270.693 36.1304 270.699 36.1487 270.7C36.1601 270.702 36.1716 270.7 36.1825 270.697C36.1934 270.694 36.2034 270.688 36.2119 270.681C36.2204 270.673 36.2272 270.664 36.2319 270.654C36.2365 270.644 36.2388 270.633 36.2388 270.622C36.2683 267.577 35.9664 264.538 35.3382 261.555C34.7099 258.571 33.8335 255.641 32.7176 252.793Z" fill="#2CA700"></path><path d="M32.5282 262.314C31.9469 260.534 31.1134 258.841 30.0517 257.283C29.0575 255.681 27.8459 254.215 26.4495 252.924C25.7319 252.325 24.9638 251.786 24.153 251.311C23.3495 250.807 22.4721 250.422 21.5504 250.169C21.5392 250.165 21.5273 250.163 21.5153 250.164C21.5033 250.164 21.4916 250.167 21.4807 250.172C21.4587 250.182 21.4417 250.2 21.4334 250.222C21.425 250.244 21.426 250.268 21.4361 250.289C21.4463 250.31 21.4647 250.327 21.4874 250.335C23.1471 251.107 24.6177 252.212 25.8011 253.578C26.9996 254.912 28.0082 256.396 28.7999 257.99C29.7005 259.55 30.0967 261.276 30.8442 262.889C31.1684 263.717 31.4926 264.554 31.8708 265.374C32.2006 266.23 32.5856 267.066 33.0236 267.876C33.0313 267.891 33.0428 267.903 33.057 267.912C33.0712 267.922 33.0876 267.927 33.1046 267.928C33.1164 267.928 33.1281 267.926 33.1391 267.922C33.15 267.917 33.1599 267.911 33.1683 267.903C33.1766 267.895 33.1833 267.885 33.1878 267.874C33.1923 267.864 33.1947 267.853 33.1947 267.841C33.2263 266.913 33.1902 265.983 33.0866 265.06C32.9515 264.127 32.7534 263.22 32.5282 262.314Z" fill="#2CA700"></path><path d="M32.8707 212C30.0605 211.239 27.5183 209.75 25.5186 207.693C23.5188 205.635 22.1375 203.088 21.5236 200.327C19.3983 190.737 26.2516 194.834 20.1097 179.725C13.9679 164.617 15.3818 161.19 17.5071 156.84C19.6324 152.49 20.8122 153.867 22.7033 159.586C24.5945 165.305 31.4568 174.233 34.0504 190.972C36.644 207.711 32.8707 212 32.8707 212Z" fill="#56E22F"></path><path d="M51.0809 195.75C51.0809 195.75 44.93 193.693 44.6959 182.473C44.4617 171.252 49.1987 173.554 49.8921 159.587C50.5855 145.621 51.5492 135.786 54.1518 135.56C56.7544 135.333 63.6076 142.421 65.9761 158.027C68.3446 173.632 62.9052 183.894 58.1773 188.471C53.4493 193.048 51.0809 195.75 51.0809 195.75Z" fill="#56E22F"></path><path d="M29.5657 225.505C29.5657 225.505 28.1518 217.31 25.306 213.369C22.4602 209.429 16.3004 206.046 12.3019 198.496C8.30346 190.946 3.79165 187.284 4.03481 198.034C4.27796 208.784 9.23103 214.285 15.3819 217.946C21.5327 221.608 29.5657 225.505 29.5657 225.505Z" fill="#56E22F"></path><path d="M26.9629 239.69C26.9629 239.69 21.2893 229.167 13.0132 221.382C4.73705 213.597 -1.88207 209.708 0.486405 213.597C2.85488 217.485 5.68263 217.267 9.70814 224.128C13.7336 230.989 12.5449 236.029 18.2184 239.917C23.8919 243.805 26.9629 239.69 26.9629 239.69Z" fill="#56E22F"></path><path d="M26.2525 253.195C26.0183 252.506 25.7842 247.475 17.7422 243.352C9.70019 239.228 2.1445 240.832 3.09008 242.898C4.03567 244.965 8.99776 248.391 13.9598 250.448C18.9219 252.506 26.2525 253.195 26.2525 253.195Z" fill="#56E22F"></path><path d="M50.6027 225.958C50.6027 225.958 47.0545 221.599 48.9457 212.453C50.8368 203.308 55.0965 205.592 59.8244 200.78C64.5524 195.967 63.6068 195.287 68.3347 190.257C73.0627 185.226 77.3403 182.471 79.2045 184.538C81.0686 186.604 78.3039 193.003 75.4221 196.665C72.5403 200.326 68.1006 202.157 65.9662 206.734C63.8319 211.311 64.7865 218.635 59.3471 222.07C53.9078 225.505 50.6027 225.958 50.6027 225.958Z" fill="#56E22F"></path><path d="M62.4268 228.478C62.4268 228.478 70.937 219.097 77.0789 212.227C83.2207 205.357 85.5891 200.1 85.8233 204.677C86.0574 209.254 87.9576 212.916 82.9865 218.861C78.0154 224.807 62.4268 228.478 62.4268 228.478Z" fill="#56E22F"></path><path d="M57.9329 243.578C57.9329 243.578 57.6987 239.916 71.1711 231.451C84.6435 222.985 90.317 221.381 88.9031 224.816C87.4893 228.251 81.5726 231.678 75.1876 237.894C68.8026 244.11 57.9329 243.578 57.9329 243.578Z" fill="#56E22F"></path><path d="M33.438 211.024C33.438 211.024 30.268 194.643 26.9629 182.934C23.6579 171.226 21.5596 164.164 21.5596 164.164" stroke="#2CA700" stroke-width="0.7" stroke-linecap="round" stroke-linejoin="round"></path><path d="M50.5308 195.924C50.5308 195.924 56.2763 178.13 58.1675 167.372C60.0587 156.614 57.9334 148.602 56.9878 143.833" stroke="#2CA700" stroke-width="0.7" stroke-linecap="round" stroke-linejoin="round"></path><path d="M28.8181 225.156C26.2703 220.921 23.3571 216.903 20.1097 213.143C14.9045 207.188 10.888 203.989 8.51953 198.269" stroke="#2CA700" stroke-width="0.7" stroke-linecap="round" stroke-linejoin="round"></path><path d="M50.6021 225.958C50.6021 225.958 52.4932 214.973 56.987 209.254C61.4808 203.535 70.4954 194.607 74.0076 188.879" stroke="#2CA700" stroke-width="0.7" stroke-linecap="round" stroke-linejoin="round"></path><path d="M25.6938 252.941C25.6938 252.941 17.7419 247.928 12.0684 245.182" stroke="#2CA700" stroke-width="0.7" stroke-linecap="round" stroke-linejoin="round"></path><path d="M54.1334 313.316H31.8716L27.0986 262.148H58.9064L54.1334 313.316Z" fill="#032100"></path><path d="M416.906 0.527466H194.144V148.476H416.906V0.527466Z" fill="#032100" stroke="#032100" stroke-width="0.7" stroke-linecap="round" stroke-linejoin="round"></path><path d="M413.376 4.09338H197.683V144.901H413.376V4.09338Z" fill="white" stroke="#032100" stroke-width="0.7" stroke-linecap="round" stroke-linejoin="round"></path><path d="M306.623 39.76H274.923V64.3628H306.623V39.76Z" fill="#3BC90C"></path><path d="M339.413 64.7636H307.713V89.3665H339.413V64.7636Z" fill="#3BC90C"></path><path d="M306.623 113.969H274.923V138.572H306.623V113.969Z" fill="#3BC90C"></path><path d="M372.626 15.5485H340.926V40.1513H372.626V15.5485Z" fill="#3BC90C"></path><path d="M209.057 19.1234V138.58" stroke="#032100" stroke-width="0.7" stroke-linecap="round" stroke-linejoin="round"></path><path d="M241.712 19.1234V138.58" stroke="#032100" stroke-width="0.7" stroke-linecap="round" stroke-linejoin="round"></path><path d="M274.375 19.1234V138.58" stroke="#032100" stroke-width="0.7" stroke-linecap="round" stroke-linejoin="round"></path><path d="M307.03 19.1234V138.58" stroke="#032100" stroke-width="0.7" stroke-linecap="round" stroke-linejoin="round"></path><path d="M339.692 19.1234V138.58" stroke="#032100" stroke-width="0.7" stroke-linecap="round" stroke-linejoin="round"></path><path d="M372.347 19.1234V138.58" stroke="#032100" stroke-width="0.7" stroke-linecap="round" stroke-linejoin="round"></path><path d="M405.01 19.1234V138.58" stroke="#032100" stroke-width="0.7" stroke-linecap="round" stroke-linejoin="round"></path><path d="M209.875 39.76H405.423" stroke="#032100" stroke-width="0.7" stroke-linecap="round" stroke-linejoin="round"></path><path d="M209.875 64.3626H405.423" stroke="#032100" stroke-width="0.7" stroke-linecap="round" stroke-linejoin="round"></path><path d="M209.875 88.9731H405.423" stroke="#032100" stroke-width="0.7" stroke-linecap="round" stroke-linejoin="round"></path><path d="M209.875 113.577H405.423" stroke="#032100" stroke-width="0.7" stroke-linecap="round" stroke-linejoin="round"></path><path d="M279.562 44.127H299.24" stroke="#032100" stroke-width="0.7" stroke-linecap="round" stroke-linejoin="round"></path><path d="M279.562 47.3003H299.24" stroke="#032100" stroke-width="0.7" stroke-linecap="round" stroke-linejoin="round"></path><path d="M279.562 50.4736H299.24" stroke="#032100" stroke-width="0.7" stroke-linecap="round" stroke-linejoin="round"></path><path d="M279.562 53.6474H299.24" stroke="#032100" stroke-width="0.7" stroke-linecap="round" stroke-linejoin="round"></path><path d="M279.562 56.8212H299.24" stroke="#032100" stroke-width="0.7" stroke-linecap="round" stroke-linejoin="round"></path><path d="M313.999 70.7181H333.676" stroke="#032100" stroke-width="0.7" stroke-linecap="round" stroke-linejoin="round"></path><path d="M313.999 73.8914H333.676" stroke="#032100" stroke-width="0.7" stroke-linecap="round" stroke-linejoin="round"></path><path d="M313.999 77.0647H333.676" stroke="#032100" stroke-width="0.7" stroke-linecap="round" stroke-linejoin="round"></path><path d="M313.999 80.238H333.676" stroke="#032100" stroke-width="0.7" stroke-linecap="round" stroke-linejoin="round"></path><path d="M313.999 83.4118H333.676" stroke="#032100" stroke-width="0.7" stroke-linecap="round" stroke-linejoin="round"></path><path d="M280.382 119.531H300.059" stroke="#032100" stroke-width="0.7" stroke-linecap="round" stroke-linejoin="round"></path><path d="M280.382 122.704H300.059" stroke="#032100" stroke-width="0.7" stroke-linecap="round" stroke-linejoin="round"></path><path d="M280.382 125.878H300.059" stroke="#032100" stroke-width="0.7" stroke-linecap="round" stroke-linejoin="round"></path><path d="M280.382 129.051H300.059" stroke="#032100" stroke-width="0.7" stroke-linecap="round" stroke-linejoin="round"></path><path d="M280.382 132.226H300.059" stroke="#032100" stroke-width="0.7" stroke-linecap="round" stroke-linejoin="round"></path><path d="M345.564 22.2976H365.241" stroke="#032100" stroke-width="0.7" stroke-linecap="round" stroke-linejoin="round"></path><path d="M345.564 25.4704H365.241" stroke="#032100" stroke-width="0.7" stroke-linecap="round" stroke-linejoin="round"></path><path d="M345.564 28.6437H365.241" stroke="#032100" stroke-width="0.7" stroke-linecap="round" stroke-linejoin="round"></path><path d="M345.564 31.8175H365.241" stroke="#032100" stroke-width="0.7" stroke-linecap="round" stroke-linejoin="round"></path><path d="M345.564 34.9993H365.241" stroke="#032100" stroke-width="0.7" stroke-linecap="round" stroke-linejoin="round"></path><path d="M562.406 221.796H572.015V205.275H562.406V221.796Z" fill="#032100" stroke="#032100" stroke-width="0.7" stroke-linecap="round" stroke-linejoin="round"></path><path d="M558.083 210.306H577.814C585.588 210.306 591.89 204.205 591.89 196.679V153.018C591.89 145.492 585.588 139.391 577.814 139.391H558.083C550.309 139.391 544.007 145.492 544.007 153.018V196.679C544.007 204.205 550.309 210.306 558.083 210.306Z" fill="#2CA700"></path><path d="M582.309 308.36C582.307 307.58 582.544 306.817 582.991 306.167C583.437 305.518 584.073 305.012 584.817 304.712C585.561 304.413 586.381 304.334 587.171 304.486C587.961 304.638 588.688 305.013 589.257 305.565C589.827 306.116 590.215 306.819 590.372 307.585C590.529 308.35 590.447 309.143 590.138 309.863C589.829 310.584 589.306 311.199 588.635 311.631C587.964 312.064 587.176 312.294 586.37 312.292C585.293 312.292 584.26 311.878 583.498 311.14C582.737 310.403 582.309 309.403 582.309 308.36Z" fill="#032100" stroke="#032100" stroke-width="0.7" stroke-linecap="round" stroke-linejoin="round"></path><path d="M502.87 308.36C502.868 307.58 503.106 306.817 503.552 306.167C503.999 305.518 504.635 305.012 505.379 304.712C506.123 304.413 506.942 304.334 507.733 304.486C508.523 304.638 509.249 305.013 509.819 305.565C510.389 306.116 510.777 306.819 510.933 307.585C511.09 308.35 511.009 309.143 510.7 309.863C510.39 310.584 509.867 311.199 509.196 311.631C508.526 312.064 507.737 312.294 506.932 312.292C505.854 312.292 504.821 311.878 504.06 311.14C503.298 310.403 502.87 309.403 502.87 308.36Z" fill="#032100" stroke="#032100" stroke-width="0.7" stroke-linecap="round" stroke-linejoin="round"></path><path d="M544.675 308.36C544.675 306.18 545.521 304.419 546.566 304.419C547.611 304.419 548.457 306.163 548.457 308.36C548.457 310.557 547.611 312.292 546.566 312.292C545.521 312.292 544.675 310.531 544.675 308.36Z" fill="#032100" stroke="#032100" stroke-width="0.7" stroke-linecap="round" stroke-linejoin="round"></path><path d="M542.864 286.992V230.567H550.843V287.227L590.234 302.31V306.093H584.506V302.885L546.557 295.309L508.598 302.885V306.093H502.879V302.31L542.864 286.992Z" fill="#032100" stroke="#032100" stroke-width="0.7" stroke-linecap="round" stroke-linejoin="round"></path><path d="M548.565 306.085H544.566L543.711 287.768H549.421L548.565 306.085Z" fill="#032100" stroke="#032100" stroke-width="0.7" stroke-linecap="round" stroke-linejoin="round"></path><path d="M536.721 240.088H557.011V228.423H536.721V240.088Z" fill="#032100" stroke="#032100" stroke-width="0.7" stroke-linecap="round" stroke-linejoin="round"></path><path d="M516.677 232.712H578.959C581.899 232.712 584.282 230.405 584.282 227.559V222.825C584.282 219.98 581.899 217.673 578.959 217.673H516.677C513.737 217.673 511.354 219.98 511.354 222.825V227.559C511.354 230.405 513.737 232.712 516.677 232.712Z" fill="#2CA700"></path><path d="M494.388 292.587C492.064 295.691 489.141 298.329 485.779 300.355C480.691 303.189 472.874 304.331 472.874 305.839C472.874 307.347 473.459 310.006 479.322 310.765C485.185 311.523 510.616 311.898 513.94 311.14C517.263 310.381 514.138 294.479 514.138 294.479C514.138 294.479 498.684 295.238 494.388 292.587Z" fill="white" stroke="#032100" stroke-width="0.7" stroke-linecap="round" stroke-linejoin="round"></path><path d="M479.332 310.766C485.204 311.525 510.626 311.9 513.949 311.141C514.796 310.949 515.228 309.772 515.39 308.116C508.303 308.334 494.479 308.534 486.185 308.116C475.036 307.549 472.884 305.84 472.884 305.84C472.875 307.357 473.46 310.008 479.332 310.766Z" fill="white" stroke="#032100" stroke-width="0.7" stroke-linecap="round" stroke-linejoin="round"></path><path d="M476.783 144.535C476.783 144.535 478.35 166.88 479.719 176.348C481.087 185.816 486.176 224.429 489.499 234.464C492.822 244.499 496.343 287.645 496.343 287.645C496.343 287.645 492.624 288.97 492.822 290.479C493.02 291.987 493.209 294.271 493.209 294.271C493.209 294.271 500.837 298.246 505.339 298.246C509.842 298.246 515.507 296.389 515.507 296.389C515.507 296.389 514.336 279.537 513.706 266.285C513.075 253.034 507.456 196.609 507.456 196.609L506.348 140.377L476.783 144.535Z" fill="#032100" stroke="#032100" stroke-width="0.7" stroke-linecap="round" stroke-linejoin="round"></path><path d="M509.834 296.755C509.834 296.755 510.23 300.356 500.45 303.573C490.67 306.79 489.499 310.199 490.67 313.041C491.84 315.883 512.184 315.875 519.812 314.741C527.44 313.608 531.348 313.224 531.933 311.716C532.519 310.208 530.366 298.639 530.366 298.639L509.834 296.755Z" fill="white" stroke="#032100" stroke-width="0.7" stroke-linecap="round" stroke-linejoin="round"></path><path d="M531.933 311.716C532.061 311.046 532.079 310.36 531.987 309.685C529.285 310.164 525.683 310.818 520.982 311.716C510.536 313.677 496.757 312.518 490.363 311.786C490.417 312.216 490.529 312.639 490.696 313.041C491.867 315.874 512.211 315.874 519.839 314.741C527.466 313.608 531.348 313.224 531.933 311.716Z" fill="white" stroke="#032100" stroke-width="0.7" stroke-linecap="round" stroke-linejoin="round"></path><path d="M483.834 150.027L489.507 156.653C489.507 156.653 493.803 202.468 495.37 214.403C496.937 226.338 504.376 268.927 504.376 268.927L509.05 291.646L507.879 294.48C507.586 295.728 507.586 297.024 507.879 298.272C508.077 299.031 507.681 299.597 515.083 300.731C520.016 301.39 525.019 301.39 529.952 300.731C530.598 299.034 530.927 297.239 530.924 295.43C531.021 292.955 530.825 290.477 530.339 288.046C529.754 285.02 530.339 268.927 526.043 251.699C521.748 234.472 518.605 214.586 518.605 207.96C518.605 201.334 518.803 162.521 519.001 161.753C519.199 160.986 522.909 158.528 523.107 151.527C523.305 144.526 522.324 141.867 522.324 141.867H484.212" fill="#032100"></path><path d="M483.834 150.027L489.507 156.653C489.507 156.653 493.803 202.468 495.37 214.403C496.937 226.338 504.376 268.927 504.376 268.927L509.05 291.646L507.879 294.48C507.586 295.728 507.586 297.024 507.879 298.272C508.077 299.031 507.681 299.597 515.083 300.731C520.016 301.39 525.019 301.39 529.952 300.731C530.598 299.034 530.927 297.239 530.924 295.43C531.021 292.955 530.825 290.477 530.339 288.046C529.754 285.02 530.339 268.927 526.043 251.699C521.748 234.472 518.605 214.586 518.605 207.96C518.605 201.334 518.803 162.521 519.001 161.753C519.199 160.986 522.909 158.528 523.107 151.527C523.305 144.526 522.324 141.867 522.324 141.867H484.212" stroke="#032100" stroke-width="0.7" stroke-linecap="round" stroke-linejoin="round"></path><path d="M483.627 56.3159C483.627 56.3159 474.829 77.5622 474.243 91.5114C473.658 105.461 474.243 125.399 474.442 126.158C474.64 126.916 472.289 142.818 473.658 145.277C473.954 145.953 474.493 146.502 475.175 146.823C475.857 147.143 476.637 147.214 477.368 147.02C477.368 147.02 520.199 147.587 522.153 147.203C524.107 146.82 524.504 144.37 524.855 142.469C525.206 140.569 523.684 118.058 523.684 114.641C523.684 111.223 524.855 73.177 519.965 62.5756C515.075 51.9742 502.953 43.2647 501.386 42.8898C499.819 42.515 487.148 46.6561 483.627 56.3159Z" fill="#3BC90C" stroke="#032100" stroke-width="0.7" stroke-linecap="round" stroke-linejoin="round"></path><path d="M462.221 14.6163C462.221 14.6163 460.726 21.5909 461.167 22.1488C461.609 22.7068 463.113 25.4792 463.113 25.4792L459.222 35.7667L463.869 37.0657L470.452 48.0768L480.638 45.3044L483.636 58.4864C483.636 58.4864 483.186 63.264 485.437 61.9737C487.689 60.6834 489.625 59.2187 493.966 51.9739C498.306 44.729 502.638 43.5782 502.638 43.5782C502.638 43.5782 497.235 36.6036 496.208 34.4502C495.182 32.2968 495.758 28.6613 493.966 19.821C492.174 10.9808 486.032 9.10635 477.657 9.10635C469.281 9.10635 462.987 10.7018 462.221 14.6163Z" fill="white" stroke="#032100" stroke-width="0.7" stroke-linecap="round" stroke-linejoin="round"></path><path d="M466.426 6.36004C466.426 6.36004 459.69 7.80726 458.492 9.11499C457.295 10.4227 459.096 14.468 460.744 15.3398C462.392 16.2116 473.028 13.9187 472.856 14.6162C472.685 15.3137 471.055 17.2317 472.856 17.9466C474.658 18.6615 481.862 20.562 481.862 20.562L480.061 33.8922C480.061 33.8922 471.235 33.4563 469.137 33.8922C467.039 34.3281 463.905 37.0743 463.905 37.0743C463.905 37.0743 467.768 48.5127 468.525 49.6635C469.281 50.8143 471.361 50.5353 473.757 49.6635C476.152 48.7916 485.878 41.9827 486.923 41.1109C487.968 40.2391 485.725 31.6952 485.725 31.6952C485.725 31.6952 486.023 24.5986 486.023 23.1513C486.023 21.7041 487.968 21.7041 489.319 22.7154C490.669 23.7267 491.12 27.6412 490.814 29.0884C490.438 30.2039 489.767 31.2048 488.868 31.9916C488.868 31.9916 494.551 36.1851 495.749 36.1851C496.12 36.2178 496.492 36.1193 496.795 35.9079C497.098 35.6964 497.311 35.3862 497.397 35.0343C497.55 34.5984 497.244 22.14 497.244 22.14C497.244 22.14 497.55 10.2658 495.902 6.49952C494.254 2.73325 486.473 1.71322 481.538 2.43683C476.603 3.16045 466.426 6.36004 466.426 6.36004Z" fill="#032100" stroke="#032100" stroke-width="0.7" stroke-linecap="round" stroke-linejoin="round"></path><path d="M467.625 26.0634C467.769 26.8567 467.525 27.5542 467.075 27.6327C466.625 27.7111 466.175 27.127 466.004 26.3424C465.832 25.5577 466.112 24.8515 466.562 24.7818C467.012 24.7121 467.471 25.2526 467.625 26.0634Z" stroke="#032100" stroke-width="0.7" stroke-linecap="round" stroke-linejoin="round"></path><path d="M464.329 23.1609C464.859 22.6048 465.588 22.2655 466.368 22.212C467.148 22.1586 467.919 22.395 468.525 22.8732" stroke="#032100" stroke-width="0.7" stroke-linecap="round" stroke-linejoin="round"></path><path d="M468.669 39.097C468.669 39.097 472.109 38.0769 473.172 35.7666" stroke="white" stroke-width="0.7" stroke-linecap="round" stroke-linejoin="round"></path><path d="M508.862 104.588C508.862 104.588 500.451 140.751 499.667 142.643C498.884 144.535 495.542 152.111 495.542 152.111L504.737 159.87C504.737 159.87 506.106 157.786 507.277 152.895C508.005 149.717 508.463 146.486 508.646 143.236C508.646 143.236 521.947 115.791 524.09 111.998C526.234 108.206 524.685 105.372 524.685 104.431C524.685 103.489 508.862 104.588 508.862 104.588Z" fill="white" stroke="#032100" stroke-width="0.7" stroke-linecap="round" stroke-linejoin="round"></path><path d="M502.792 63.3159C502.792 63.3159 500.648 69.9417 500.838 73.1587C501.027 76.3757 505.529 95.6953 505.529 95.6953C505.529 95.6953 503.188 97.779 503.971 98.5288C504.699 99.3449 505.353 100.22 505.926 101.144C505.926 101.144 504.125 102.469 505.926 104.37C507.727 106.271 506.898 107.203 515.111 106.985C523.324 106.767 525.873 106.41 526.819 104.902C527.764 103.394 528.971 102.286 527.998 100.734L527.062 99.2872C527.674 98.1186 527.945 96.8103 527.845 95.5035C527.647 93.4199 526.278 90.9613 526.278 90.0111C526.278 89.0608 526.089 76.1927 523.577 66.158C521.064 56.1233 510.284 50.6308 508.321 50.4652" fill="#3BC90C"></path><path d="M502.792 63.3159C502.792 63.3159 500.648 69.9417 500.838 73.1587C501.027 76.3757 505.529 95.6953 505.529 95.6953C505.529 95.6953 503.188 97.779 503.971 98.5288C504.699 99.3449 505.353 100.22 505.926 101.144C505.926 101.144 504.125 102.469 505.926 104.37C507.727 106.271 506.898 107.203 515.111 106.985C523.324 106.767 525.873 106.41 526.819 104.902C527.764 103.394 528.971 102.286 527.998 100.734L527.062 99.2872C527.674 98.1186 527.945 96.8103 527.845 95.5035C527.647 93.4199 526.278 90.9613 526.278 90.0111C526.278 89.0608 526.089 76.1927 523.577 66.158C521.064 56.1233 510.284 50.6308 508.321 50.4652" stroke="#032100" stroke-width="0.7" stroke-linecap="round" stroke-linejoin="round"></path><path d="M387.558 160.755C387.558 160.755 387.873 172.629 387.873 173.074C387.873 173.518 386.333 181.984 387.099 185.994C387.864 190.004 394.006 195.497 394.006 195.497L394.618 159.752L387.558 160.755Z" fill="white" stroke="#032100" stroke-width="0.7" stroke-linecap="round" stroke-linejoin="round"></path><path d="M406.064 78.8645C406.064 78.8645 388.053 100.102 387.512 102.456C386.972 104.81 382.262 162.342 382.262 162.891C382.262 163.44 389.575 166.16 392.574 166.16H396.878C396.878 166.16 391.817 126.597 394.069 111.898C396.32 97.199 401.759 93.023 405.884 87.3997C410.008 81.7764 409.99 77.4173 406.064 78.8645Z" fill="#3BC90C"></path><path d="M407.01 295.548C407.01 295.548 402.318 302.078 399.698 303.534C397.077 304.99 388.45 308.433 388.071 309.34C387.693 310.247 387.702 312.426 388.45 312.609C389.197 312.792 402.129 312.426 410.009 312.426C417.889 312.426 423.13 312.784 424.067 311.877C425.003 310.97 424.256 299.175 423.31 296.821L422.41 294.458L408.352 294.092L407.01 295.548Z" fill="#032100" stroke="#032100" stroke-width="0.7" stroke-linecap="round" stroke-linejoin="round"></path><path d="M424.4 310.787H387.828C387.828 311.659 387.99 312.531 388.449 312.609C389.197 312.784 402.129 312.426 410.009 312.426C417.889 312.426 423.13 312.784 424.067 311.877C424.271 311.547 424.385 311.172 424.4 310.787Z" fill="white" stroke="#032100" stroke-width="0.7" stroke-linecap="round" stroke-linejoin="round"></path><path d="M389.008 158.715L391.448 169.787C391.448 169.787 391.07 198.645 394.069 211.164C395.921 219.273 396.926 227.542 397.068 235.845C397.068 235.845 401.192 255.627 402.696 261.25C404.2 266.873 405.884 290.648 405.884 290.648C405.884 290.648 404.38 291.738 404.569 292.462C404.758 293.185 405.317 297.692 405.317 297.692C405.317 297.692 406.064 297.692 412.071 298.233C415.117 298.577 418.19 298.638 421.248 298.416L423.31 296.786C423.425 294.852 423.425 292.913 423.31 290.979C423.13 287.71 422.004 285.164 422.004 282.993C422.004 280.823 420.689 232.907 420.689 232.907L421.248 157.774L388.449 155.96L389.008 158.715Z" fill="white" stroke="#032100" stroke-width="0.7" stroke-linecap="round" stroke-linejoin="round"></path><path d="M425.371 295.182C424.462 297.342 423.334 299.41 422.003 301.354C420.31 303.534 413.376 307.343 410.566 308.791C409.738 309.254 409.045 309.914 408.553 310.709C408.061 311.504 407.787 312.407 407.756 313.333C407.756 313.333 414.123 313.516 435.124 312.784L444.13 312.426C444.232 310.73 444.169 309.028 443.941 307.343C443.572 304.623 443.193 297.753 443.193 297.753L425.371 295.182Z" fill="#032100" stroke="#032100" stroke-width="0.7" stroke-linecap="round" stroke-linejoin="round"></path><path d="M435.124 312.784L444.13 312.426C444.189 311.448 444.189 310.467 444.13 309.488L408.252 311.232C407.955 311.888 407.787 312.591 407.756 313.307C407.756 313.307 414.123 313.516 435.124 312.784Z" fill="white" stroke="#032100" stroke-width="0.7" stroke-linecap="round" stroke-linejoin="round"></path><path d="M400.985 171.6L408.109 178.313C408.109 178.313 410.927 204.468 413.737 219.873C416.547 235.278 423.859 275.042 423.859 278.285C423.859 281.529 425.354 289.907 425.354 289.907C425.354 289.907 424.796 290.081 424.607 291.354C424.418 292.627 424.4 297.518 424.4 297.518C427.191 298.786 430.163 299.642 433.216 300.055C436.713 300.235 440.219 300.176 443.708 299.88C444.06 298.017 444.312 296.137 444.464 294.248C444.464 292.801 443.897 286.446 444.275 283.909C444.653 281.372 447.274 268.477 446.527 254.328C445.779 240.178 441.276 218.217 441.276 218.217L442.771 186.273C444.554 180.513 445.189 174.478 444.644 168.488C443.744 158.689 441.465 154.879 441.465 154.879L397.599 155.062" fill="white"></path><path d="M400.985 171.6L408.109 178.313C408.109 178.313 410.927 204.468 413.737 219.873C416.547 235.278 423.859 275.042 423.859 278.285C423.859 281.529 425.354 289.907 425.354 289.907C425.354 289.907 424.796 290.081 424.607 291.354C424.418 292.627 424.4 297.518 424.4 297.518C427.191 298.786 430.163 299.642 433.216 300.055C436.713 300.235 440.219 300.176 443.708 299.88C444.06 298.017 444.312 296.137 444.464 294.248C444.464 292.801 443.897 286.446 444.275 283.909C444.653 281.372 447.274 268.477 446.527 254.328C445.779 240.178 441.276 218.217 441.276 218.217L442.771 186.273C444.554 180.513 445.189 174.478 444.644 168.488C443.744 158.689 441.465 154.879 441.465 154.879L397.599 155.062" stroke="#032100" stroke-width="0.7" stroke-linecap="round" stroke-linejoin="round"></path><path d="M406.064 78.8641C406.064 78.8641 391.078 96.8324 389.574 104.844C388.07 112.856 385.972 158.026 385.972 159.83C385.972 161.635 388.971 162.367 392.537 162.917C397.624 163.651 402.769 163.943 407.91 163.788C414.088 163.605 420.464 161.609 421.418 160.519C422.373 159.429 420.518 127.311 423.67 109.709C426.822 92.1071 430.046 82.6827 428.172 79.1954C426.299 75.7081 412.44 75.2025 406.064 78.8641Z" fill="#032100" stroke="#032100" stroke-width="0.7" stroke-linecap="round" stroke-linejoin="round"></path><path d="M421.247 77.9586C421.247 77.9586 409.99 96.9992 407.946 110.443C405.902 123.886 407.379 168.698 407.379 168.698C407.379 168.698 407.379 170.511 416.006 170.328C424.633 170.145 436.251 167.974 439.421 166.335C442.59 164.696 446.166 163.432 446.355 162.525C446.544 161.619 444.662 158.358 444.662 155.629C444.662 152.9 443.356 141.68 443.356 141.68C443.356 141.68 442.978 92.1432 440.168 85.064C437.358 77.9848 426.308 75.9621 421.247 77.9586Z" fill="#3BC90C" stroke="#032100" stroke-width="0.7" stroke-linecap="round" stroke-linejoin="round"></path><path d="M393.879 44.0267C393.879 44.0267 392.384 49.833 392.979 51.6464C393.484 53.1046 393.677 54.6471 393.546 56.1799C393.357 56.9122 389.043 61.6288 389.944 62.5355C390.949 63.3934 392.014 64.1828 393.132 64.8981C393.132 64.8981 394.032 74.4882 395.761 75.0548C397.491 75.6215 403.632 74.5143 403.632 74.5143C403.632 74.5143 405.695 81.951 405.695 83.2325C405.695 84.5141 399.319 98.1145 402.885 97.0248C406.451 95.935 420.689 75.9703 420.689 75.9703C420.689 75.9703 420.5 50.3823 416.375 43.8523C412.251 37.3224 399.886 38.4034 393.879 44.0267Z" fill="white" stroke="#032100" stroke-width="0.7" stroke-linecap="round" stroke-linejoin="round"></path><path d="M398.193 56.0928C398.193 57.0431 397.815 57.8364 397.356 57.8364C396.897 57.8364 396.509 57.0605 396.509 56.0928C396.509 55.1251 396.888 54.3492 397.356 54.3492C397.824 54.3492 398.193 55.1512 398.193 56.0928Z" fill="#032100"></path><path d="M395.384 52.3699C395.666 52.1251 396.001 51.9433 396.363 51.8371C396.726 51.7309 397.109 51.703 397.484 51.7554C397.859 51.8078 398.218 51.9391 398.535 52.1402C398.852 52.3412 399.12 52.6071 399.319 52.9192" stroke="#032100" stroke-width="0.7" stroke-linecap="round" stroke-linejoin="round"></path><path d="M395.762 66.3453C397.693 66.1924 399.552 65.5685 401.166 64.5319" stroke="#032100" stroke-width="0.7" stroke-linecap="round" stroke-linejoin="round"></path><path d="M400.635 30.7399C400.635 30.7399 391.449 34.2272 390.512 37.4529C389.576 40.6787 388.819 44.5321 388.819 44.5321L397.068 46.1712L404.192 46.7117C404.192 46.7117 404.003 48.342 406.065 52.1519C407.173 54.1583 408.174 56.2185 409.064 58.3244C409.064 58.3244 408.506 69.0304 407.947 72.1166C407.477 74.3928 406.848 76.6356 406.065 78.8296C406.065 78.8296 410.757 79.7015 419.375 80.6517C427.994 81.602 438.683 79.562 438.683 79.562C438.683 79.562 440.935 75.9265 440.746 68.6729C440.557 61.4193 436.999 51.0708 436.621 46.8773C436.243 42.6839 437.377 39.7981 430.623 34.7154C423.869 29.6327 411.883 27.8716 400.635 30.7399Z" fill="#032100" stroke="#032100" stroke-width="0.7" stroke-linecap="round" stroke-linejoin="round"></path><path d="M384.027 138.506C383.554 138.51 383.081 138.478 382.613 138.41L383.037 135.795C383.937 135.926 385.972 135.917 386.594 135.063C387.44 133.894 386.774 127.417 385.918 126.344C385.594 125.978 384.054 125.978 382.947 126.231L382.325 123.676C382.992 123.528 386.396 122.866 387.972 124.644C389.548 126.423 390.493 134.234 388.8 136.588C387.638 138.21 385.477 138.506 384.027 138.506Z" fill="white" stroke="#032100" stroke-width="0.7" stroke-linecap="round" stroke-linejoin="round"></path><path d="M384.137 121.331H368.017V133.593C368.017 138.044 371.625 141.653 376.077 141.653C380.528 141.653 384.137 138.044 384.137 133.593V121.331Z" fill="white" stroke="#032100" stroke-width="0.7" stroke-linecap="round" stroke-linejoin="round"></path><path d="M426.309 89.3966C426.309 89.3966 423.13 96.2928 422.941 99.7364C422.752 103.18 426.876 126.641 426.876 126.641C426.876 126.641 413.368 129.902 409.631 129.902C407.562 129.918 405.495 129.799 403.444 129.544C403.444 129.544 398.383 126.275 396.879 125.368C395.375 124.461 394.258 125.002 391.637 123.005C389.017 121.009 386.946 120.835 386.756 121.924C386.567 123.014 386.576 123.738 388.449 124.644C389.654 125.245 390.784 125.976 391.818 126.824C391.818 126.824 387.315 127.696 386.009 127.914C384.703 128.132 384.325 129.902 385.108 130.817C385.892 131.732 387.171 132.988 387.171 132.988C387.171 132.988 386.982 137.347 389.422 138.219C391.863 139.091 398.608 138.942 398.608 138.942C398.608 138.942 405.731 139.492 406.857 139.492C407.983 139.492 422.229 142.935 432.352 142.935C442.474 142.935 445.473 143.485 446.031 141.305C446.59 139.125 445.653 107.007 443.78 97.2082C441.907 87.4089 437.593 81.96 434.594 81.6025" fill="#3BC90C"></path><path d="M426.309 89.3966C426.309 89.3966 423.13 96.2928 422.941 99.7364C422.752 103.18 426.876 126.641 426.876 126.641C426.876 126.641 413.368 129.902 409.631 129.902C407.562 129.918 405.495 129.799 403.444 129.544C403.444 129.544 398.383 126.275 396.879 125.368C395.375 124.461 394.258 125.002 391.637 123.005C389.017 121.009 386.946 120.835 386.756 121.924C386.567 123.014 386.576 123.738 388.449 124.644C389.654 125.245 390.784 125.976 391.818 126.824C391.818 126.824 387.315 127.696 386.009 127.914C384.703 128.132 384.325 129.902 385.108 130.817C385.892 131.732 387.171 132.988 387.171 132.988C387.171 132.988 386.982 137.347 389.422 138.219C391.863 139.091 398.608 138.942 398.608 138.942C398.608 138.942 405.731 139.492 406.857 139.492C407.983 139.492 422.229 142.935 432.352 142.935C442.474 142.935 445.473 143.485 446.031 141.305C446.59 139.125 445.653 107.007 443.78 97.2082C441.907 87.4089 437.593 81.96 434.594 81.6025" stroke="#032100" stroke-width="0.7" stroke-linecap="round" stroke-linejoin="round"></path><path d="M415.863 128.994C413.812 129.441 411.728 129.733 409.631 129.866C407.562 129.882 405.495 129.763 403.444 129.508C403.444 129.508 398.383 126.239 396.879 125.332C395.375 124.425 394.258 124.966 391.637 122.97C389.017 120.973 386.946 120.799 386.756 121.888C386.567 122.978 386.576 123.702 388.449 124.609C389.654 125.209 390.784 125.94 391.818 126.788C391.818 126.788 387.315 127.66 386.009 127.878C384.703 128.096 384.325 129.866 385.108 130.781C385.892 131.696 387.171 132.952 387.171 132.952C387.171 132.952 386.982 137.311 389.422 138.183C391.863 139.055 398.608 138.906 398.608 138.906C398.608 138.906 405.731 139.456 406.857 139.456C407.451 139.456 411.684 140.415 417.042 141.313C415.07 136.945 415.322 132.176 415.863 128.994Z" fill="white" stroke="#032100" stroke-width="0.7" stroke-linecap="round" stroke-linejoin="round"></path><path d="M201.592 297.584C200.881 301.424 199.671 305.162 197.99 308.708C195.288 314.262 195.117 316.354 201.223 317.217C207.329 318.08 210.373 316.694 211.633 313.573C212.894 310.452 213.434 302.972 213.786 301.237C214.137 299.502 209.319 294.105 201.592 297.584Z" fill="white" stroke="#032100" stroke-width="0.7" stroke-linecap="round" stroke-linejoin="round"></path><path d="M211.651 310.966C210.39 313.224 208.778 316.005 202.312 315.482C198.647 315.186 197.116 313.651 196.486 312.387C195.657 315.264 196.729 316.581 201.241 317.217C207.338 318.089 210.39 316.694 211.651 313.573C212.157 312.104 212.519 310.592 212.732 309.057C212.408 309.615 212.038 310.26 211.651 310.966Z" fill="white" stroke="#032100" stroke-width="0.7" stroke-linecap="round" stroke-linejoin="round"></path><path d="M252.391 296.023C255.224 298.459 258.432 300.45 261.901 301.925C267.647 304.358 271.807 305.752 271.807 306.964C271.599 308.189 271.173 309.369 270.546 310.452C266.569 311.521 262.47 312.106 258.344 312.195C252.238 312.195 247.213 311.672 242.728 311.498C238.243 311.323 233.029 311.846 232.678 308.725C232.327 305.604 233.029 299.685 233.029 299.685C233.029 299.685 248.789 294.977 252.391 296.023Z" fill="white" stroke="#032100" stroke-width="0.7" stroke-linecap="round" stroke-linejoin="round"></path><path d="M270.52 310.443C270.52 310.443 270.835 309.876 271.151 309.161C268.214 309.674 265.244 309.986 262.262 310.094C255.805 310.268 253.473 309.397 246.106 308.534C241.617 308.06 237.087 308.06 232.598 308.534C232.598 308.577 232.598 308.629 232.598 308.682C232.949 311.803 238.163 311.297 242.648 311.454C247.133 311.611 252.158 312.152 258.264 312.152C262.407 312.078 266.524 311.504 270.52 310.443Z" fill="white" stroke="#032100" stroke-width="0.7" stroke-linecap="round" stroke-linejoin="round"></path><path d="M253.481 159.757C253.481 159.757 254.381 186.042 252.742 209.285C251.103 232.528 248.861 266.677 249.788 271.507C250.716 276.337 251.491 291.89 251.491 291.89L253.157 293.861L254.057 297.078C254.057 297.078 253.157 297.95 247.411 299.58C241.665 301.21 233.371 301.55 233.371 301.55C233.371 301.55 233.002 296.18 233.002 294.75C233.002 293.32 233.371 290.103 233.371 290.103C233.371 290.103 230.237 252.379 230.787 244.69C231.336 237.001 230.237 206.243 230.237 206.243L229.337 195.162C229.337 195.162 221.952 223.932 221.583 227.524C221.214 231.116 216.035 267.575 216.035 269.72C216.035 271.865 213.82 292.248 213.82 292.248C214.585 293.447 215.088 294.785 215.297 296.18C215.486 298.15 214.009 303.154 214.009 303.154C212.392 302.131 210.563 301.462 208.651 301.193L201.077 300.652C201.077 300.652 199.6 290.278 199.6 288.133V277.052C199.6 277.052 198.862 251.481 200.159 241.647C201.455 231.813 200.708 201.421 199.969 188.545C199.231 175.668 197.385 164.229 198.682 161.37C199.556 159.286 200.234 157.129 200.708 154.927C210.148 156.827 219.715 158.083 229.337 158.685C244.646 159.556 252.427 156.897 252.427 156.897L253.481 159.757Z" fill="#032100" stroke="#032100" stroke-width="0.7" stroke-linecap="round" stroke-linejoin="round"></path><path d="M229.285 195.162L233.364 183.593" stroke="white" stroke-width="0.7" stroke-linecap="round" stroke-linejoin="round"></path><path d="M228.976 164.526C228.976 164.526 232.281 164.866 239.414 163.855C246.546 162.843 249.491 161.326 249.491 161.326C249.491 161.326 244.799 73.6473 244.799 72.8016C244.896 71.4358 244.444 70.0865 243.538 69.0355C242.632 67.9844 241.341 67.3128 239.936 67.1609C235.064 66.2891 228.634 68.3379 227.238 73.5601C225.842 78.7823 228.976 164.526 228.976 164.526Z" fill="white" stroke="#032100" stroke-width="0.7" stroke-linecap="round" stroke-linejoin="round"></path><path d="M249.294 169.104C249.294 169.104 248.772 174.335 249.294 174.657C249.816 174.98 254.86 173.149 258.165 171.798C261.47 170.446 260.371 170.987 261.434 167.944C262.496 164.901 262.163 164.901 258.858 165.738C255.553 166.575 249.294 169.104 249.294 169.104Z" fill="white"></path><path d="M242.395 83.2821L246.285 134.031L248.303 170.647C248.303 170.647 248.969 171.816 250.041 171.563C251.112 171.31 260.361 169.226 261.433 167.927C262.505 166.628 262.91 163.254 262.91 162.696C262.91 162.138 260.1 130.247 260.1 130.247L267.304 120.901C267.304 120.901 261.802 91.7039 260.46 85.8627C259.118 80.0215 259.127 76.9091 256.975 74.3111C254.823 71.713 242.494 65.8718 242.494 65.8718L242.395 83.2821Z" fill="#3BC90C" stroke="#032100" stroke-width="0.7" stroke-linecap="round" stroke-linejoin="round"></path><path d="M240.927 62.7404C240.927 62.7404 245.889 67.7969 245.754 70.395C245.619 72.993 242.395 83.2456 242.395 83.2456L240.387 68.1892C240.387 68.1892 239.315 64.484 240.927 62.7404Z" fill="white" stroke="#032100" stroke-width="0.7" stroke-linecap="round" stroke-linejoin="round"></path><path d="M224.582 51.9654L224.168 62.5842C224.168 62.5842 227.77 71.3024 230.067 73.9179C232.363 76.5333 236.497 80.8925 236.497 80.8925L241.062 71.6773L241.189 66.612L243.206 61.8082C240.031 61.104 237.054 59.7318 234.488 57.7891C230.202 54.546 225.771 50.6489 225.375 50.5181C224.978 50.3874 224.582 51.9654 224.582 51.9654Z" fill="white" stroke="#032100" stroke-width="0.7" stroke-linecap="round" stroke-linejoin="round"></path><path d="M227.283 55.7658C227.283 55.7658 228.445 59.8895 235.802 64.763C237.464 65.9004 239.283 66.8044 241.206 67.4482V66.6461L243.223 61.8424C240.048 61.1381 237.072 59.7659 234.506 57.8233C233.416 56.995 232.326 56.1319 231.282 55.3037L229.877 54.894L227.283 55.7658Z" fill="#032100" stroke="#032100" stroke-width="0.7" stroke-linecap="round" stroke-linejoin="round"></path><path d="M254.301 29.2627C254.301 29.2627 253.823 40.1431 253.499 43.8832C253.175 47.6233 253.013 50.8578 251.248 54.3015C249.483 57.7452 247.555 63.0197 244.503 63.4731C240.628 64.0456 236.667 63.3328 233.264 61.4504C229.562 59.2709 224.744 53.2117 224.582 51.965C224.508 51.2747 224.348 50.5955 224.105 49.9424C224.105 49.9424 222.178 38.7482 222.178 33.7701C222.178 28.792 222.655 24.5985 230.85 21.7999C239.045 19.0014 254.301 29.2627 254.301 29.2627Z" fill="white" stroke="#032100" stroke-width="0.7" stroke-linecap="round" stroke-linejoin="round"></path><path d="M227.473 29.2628C227.473 29.2628 232.454 30.5095 229.887 32.6803C227.32 34.8512 224.907 37.3446 224.907 37.3446C224.907 37.3446 225.708 40.457 225.393 41.7037C225.078 42.9504 223.466 43.8832 222.34 42.6365C221.215 41.3898 220.251 40.457 220.251 40.457C220.251 40.457 217.198 31.1285 216.559 28.4869C215.919 25.8452 215.271 23.038 219.26 20.3963C220.794 19.3054 222.404 18.3179 224.078 17.4409C228.921 14.6652 234.536 13.4161 240.144 13.8664C249.456 14.6423 253.653 19.7773 253.653 19.7773C253.653 19.7773 261.037 17.9116 260.56 23.038C260.083 28.1643 254.778 31.5905 251.888 31.2854C248.997 30.9803 233.732 23.5087 230.679 24.7554C227.627 26.0022 225.375 28.792 227.473 29.2628Z" fill="#032100" stroke="#032100" stroke-width="0.7" stroke-linecap="round" stroke-linejoin="round"></path><path d="M245.953 40.7716C245.953 40.7716 248.195 47.7462 247.556 48.3913C246.916 49.0365 244.341 49.4811 244.341 49.4811" stroke="#032100" stroke-width="0.7" stroke-linecap="round" stroke-linejoin="round"></path><path d="M247.394 52.4355C247.394 52.4355 242.252 53.8305 238.388 51.5027" stroke="#032100" stroke-width="0.7" stroke-linecap="round" stroke-linejoin="round"></path><path d="M243.891 36.412C243.891 36.412 237.118 35.793 233.579 35.793C230.04 35.793 228.761 35.4791 228.599 36.412C228.437 37.3448 228.122 42.3229 230.85 44.0317C233.579 45.7405 238.559 44.9646 240.649 44.5025C242.738 44.0404 243.35 40.6142 243.539 39.5244C243.728 38.4346 243.891 36.412 243.891 36.412Z" stroke="#032100" stroke-width="0.7" stroke-linecap="round" stroke-linejoin="round"></path><path d="M245.88 36.4296C245.88 36.4296 251.284 36.0983 254.066 36.2378C256.849 36.3773 257.885 36.1332 258.011 37.0399C258.137 37.9466 258.398 42.7503 256.21 44.2847C254.021 45.8191 250.095 44.8776 248.429 44.3457C246.763 43.8139 246.268 40.4923 246.142 39.4374C246.015 38.3825 245.88 36.4296 245.88 36.4296Z" stroke="#032100" stroke-width="0.7" stroke-linecap="round" stroke-linejoin="round"></path><path d="M228.599 36.4115L220.25 40.4568" stroke="#032100" stroke-width="0.7" stroke-linecap="round" stroke-linejoin="round"></path><path d="M243.891 36.4115H246.052" stroke="#032100" stroke-width="0.7" stroke-linecap="round" stroke-linejoin="round"></path><path d="M224.906 44.3456C224.906 44.3456 221.214 39.8383 218.602 40.4573C215.991 41.0763 218.287 47.6149 220.403 48.696C222.52 49.7771 224.735 48.3909 224.735 48.3909" fill="white"></path><path d="M224.906 44.3456C224.906 44.3456 221.214 39.8383 218.602 40.4573C215.991 41.0763 218.287 47.6149 220.403 48.696C222.52 49.7771 224.735 48.3909 224.735 48.3909" stroke="#032100" stroke-width="0.7" stroke-linecap="round" stroke-linejoin="round"></path><path d="M237.838 40.5799C237.838 41.4517 237.451 42.2015 236.938 42.2015C236.424 42.2015 236.037 41.4779 236.037 40.5799C236.037 39.6819 236.424 38.9583 236.938 38.9583C237.451 38.9583 237.838 39.6819 237.838 40.5799Z" fill="#032100"></path><path d="M249.843 42.2015C250.326 42.2015 250.717 41.4755 250.717 40.5799C250.717 39.6843 250.326 38.9583 249.843 38.9583C249.361 38.9583 248.97 39.6843 248.97 40.5799C248.97 41.4755 249.361 42.2015 249.843 42.2015Z" fill="#032100"></path><path d="M233.146 34.8437C235.843 34.1888 238.675 34.2764 241.324 35.0965" stroke="#032100" stroke-width="0.7" stroke-linecap="round" stroke-linejoin="round"></path><path d="M247.889 35.1914C249.441 34.5028 251.183 34.3222 252.851 34.677" stroke="#032100" stroke-width="0.7" stroke-linecap="round" stroke-linejoin="round"></path><path d="M233.28 172.773L233.47 175.973C233.47 175.973 225.824 177.481 215.215 175.101C204.607 172.721 195.052 166.383 194.007 165.005C192.962 163.628 194.908 157.935 194.908 157.935C194.908 157.935 193.512 157.604 195.952 158.441C198.393 159.278 207.948 167.359 220.979 169.548C234.01 171.736 233.479 170.925 233.28 172.773Z" fill="white"></path><path d="M223.357 59.3317C223.357 59.3317 229.931 68.1632 233.011 72.1823C236.091 76.2014 235.29 81.136 234.894 82.435C234.497 83.734 233.993 85.9223 233.993 85.9223V167.97C233.993 167.97 235.2 172.381 233.318 172.773C231.435 173.166 217.765 172.512 207.715 167.455C197.664 162.399 194.206 158.885 194.206 158.885L196.755 138.894L197.826 127.735L181.202 127.813C181.202 127.813 190.991 82.3042 192.063 79.8631C193.135 77.422 219.548 64.4144 219.548 64.4144C219.548 64.4144 219.872 60.1773 223.357 59.3317Z" fill="#3BC90C" stroke="#032100" stroke-width="0.7" stroke-linecap="round" stroke-linejoin="round"></path><path d="M260.1 130.263L256.957 99.3658" stroke="#032100" stroke-width="0.7" stroke-linecap="round" stroke-linejoin="round"></path><path d="M197.754 127.735L200.879 98.7473" stroke="#032100" stroke-width="0.7" stroke-linecap="round" stroke-linejoin="round"></path><path d="M193.252 121.728C190.923 121.3 188.531 121.3 186.201 121.728C182.139 122.426 180.23 129.714 179.987 132.26C179.744 134.806 181.419 139.234 184.49 140.472C187.561 141.71 189.155 141.623 192.379 139.775C195.603 137.927 195.252 129.365 195.08 126.471C195.026 124.739 194.383 123.072 193.252 121.728Z" fill="white"></path><path d="M201.188 113.358C201.188 113.358 202.376 105.599 202.502 103.062C202.629 100.525 202.259 97.3867 202.737 96.3492C203.214 95.3118 204.889 96.2359 205.483 96.9246C206.078 97.6134 206.564 101.205 206.447 102.591C206.371 103.438 206.371 104.29 206.447 105.137C206.447 105.137 215.642 98.5462 216.722 97.16C217.803 95.7738 219.946 94.7276 220.667 95.6518C221.387 96.5759 220.541 97.3954 219.703 98.1975C218.866 98.9996 214.57 103.751 213.849 104.3C213.394 104.705 213.063 105.224 212.895 105.8C213.506 105.853 214.121 105.772 214.696 105.564C215.777 105.224 223.179 101.632 223.9 101.632C224.086 101.66 224.264 101.726 224.421 101.825C224.579 101.924 224.713 102.055 224.814 102.209C224.916 102.362 224.982 102.535 225.009 102.715C225.036 102.895 225.023 103.079 224.971 103.254C224.737 103.952 215.651 109.27 215.299 109.357C214.948 109.444 214.579 110.29 215.173 110.403C215.768 110.516 223.179 109.357 224.134 109.819C224.309 109.898 224.46 110.019 224.574 110.17C224.687 110.321 224.76 110.497 224.784 110.683C224.808 110.868 224.784 111.056 224.712 111.23C224.641 111.404 224.526 111.557 224.377 111.676C223.9 112.025 215.056 113.524 215.056 113.524L219.118 114.335C220.315 114.57 222.342 114.57 222.342 115.259C222.342 115.948 221.864 116.305 221.027 116.305H214.813C213.498 116.305 210.878 117.343 208.725 118.267C206.573 119.191 205.618 119.54 205.618 119.54C205.618 119.54 199.756 129.836 197.612 133.541C196.791 135.062 195.578 136.351 194.09 137.283C192.601 138.215 190.889 138.758 189.12 138.859C186.013 139.095 182.816 133.628 183.393 131.013C183.969 128.397 189.003 122.452 193.425 120.255C197.847 118.058 199.152 115.922 201.188 113.358Z" fill="white" stroke="#032100" stroke-width="0.7" stroke-linecap="round" stroke-linejoin="round"></path><path d="M272.42 123.071C272.42 123.071 269.007 118.773 266.612 118.607C264.216 118.442 259.948 125.878 259.948 129.026C259.948 132.173 260.119 138.119 261.488 138.947C262.857 139.775 265.414 138.284 266.954 136.332C268.494 134.379 272.42 123.071 272.42 123.071Z" fill="white"></path><path d="M311.595 102.67C311.595 102.67 311.793 99.1308 311.1 99.3226C310.406 99.5144 309.92 99.9939 310.118 101.615C310.117 103.352 309.917 105.083 309.524 106.777L311.595 102.67Z" fill="white" stroke="#032100" stroke-width="0.7" stroke-linecap="round" stroke-linejoin="round"></path><path d="M268.927 121.885C268.927 121.885 263.523 131.476 263.694 134.03C263.866 136.584 266.162 137.517 270.314 136.323C274.465 135.128 303.4 119.88 304.778 118.634C306.156 117.387 310.902 107.832 312.487 106.105C314.072 104.379 313.865 100.09 313.865 99.3227C313.865 98.5555 312.487 98.8432 312.487 99.8022C312.487 100.761 309.128 106.969 308.632 107.16C308.137 107.352 303.697 109.453 303.697 109.453C303.697 109.453 305.967 105.155 306.759 103.717C307.552 102.278 308.236 100.657 306.561 101.232C304.886 101.807 302.211 106.201 301.221 108.599C300.23 110.996 298.519 114.144 298.852 115.669L299.149 117.204C299.149 117.204 289.171 119.401 283.246 119.688C277.32 119.976 269.224 120.926 268.927 121.885Z" fill="white" stroke="#032100" stroke-width="0.7" stroke-linecap="round" stroke-linejoin="round"></path><path d="M308.929 111.755C308.929 111.755 314.161 105.914 314.854 104.868C315.548 103.822 316.43 102.192 316.232 100.945C316.034 99.6982 315.152 101.233 314.431 102.288C313.711 103.342 312.36 104.293 311.567 106.01C311.299 106.539 310.921 107.008 310.456 107.388C309.991 107.767 309.449 108.049 308.866 108.216L308.929 111.755Z" fill="white" stroke="#032100" stroke-width="0.7" stroke-linecap="round" stroke-linejoin="round"></path><path d="M307.056 115.285C307.056 115.285 310.019 109.357 310.802 107.735C311.586 106.114 311.793 103.333 311.892 101.633C311.991 99.9326 310.505 101.057 310.307 102.504C310.109 103.952 308.929 108.241 308.929 108.241C308.929 108.241 302.508 112.6 302.508 113.786C302.528 114.681 302.594 115.574 302.706 116.462" fill="white"></path><path d="M307.056 115.285C307.056 115.285 310.019 109.357 310.802 107.735C311.586 106.114 311.793 103.333 311.892 101.633C311.991 99.9326 310.505 101.057 310.307 102.504C310.109 103.952 308.929 108.241 308.929 108.241C308.929 108.241 302.508 112.6 302.508 113.786C302.528 114.681 302.594 115.574 302.706 116.462" stroke="#032100" stroke-width="0.7" stroke-linecap="round" stroke-linejoin="round"></path><path d="M105.737 205.284H96.1279V221.805H105.737V205.284Z" fill="#032100" stroke="#032100" stroke-width="0.7" stroke-linecap="round" stroke-linejoin="round"></path><path d="M110.059 139.391H90.3277C82.5539 139.391 76.252 145.492 76.252 153.017V196.678C76.252 204.204 82.5539 210.305 90.3277 210.305H110.059C117.833 210.305 124.135 204.204 124.135 196.678V153.017C124.135 145.492 117.833 139.391 110.059 139.391Z" fill="#2CA700"></path><path d="M85.8432 308.36C85.845 307.58 85.6075 306.817 85.1609 306.167C84.7144 305.518 84.0787 305.012 83.3346 304.712C82.5904 304.413 81.7712 304.334 80.9808 304.486C80.1903 304.638 79.4642 305.013 78.8944 305.565C78.3246 306.116 77.9367 306.819 77.7799 307.585C77.6232 308.35 77.7045 309.143 78.0137 309.863C78.3229 310.584 78.8461 311.199 79.5168 311.631C80.1876 312.064 80.9758 312.294 81.7817 312.292C82.8589 312.292 83.8919 311.878 84.6536 311.14C85.4153 310.403 85.8432 309.403 85.8432 308.36Z" fill="#032100" stroke="#032100" stroke-width="0.7" stroke-linecap="round" stroke-linejoin="round"></path><path d="M165.283 308.36C165.284 307.58 165.047 306.817 164.6 306.167C164.154 305.518 163.518 305.012 162.774 304.712C162.03 304.413 161.211 304.334 160.42 304.486C159.63 304.638 158.904 305.013 158.334 305.565C157.764 306.116 157.376 306.819 157.219 307.585C157.063 308.35 157.144 309.143 157.453 309.863C157.762 310.584 158.286 311.199 158.956 311.631C159.627 312.064 160.415 312.294 161.221 312.292C162.298 312.292 163.331 311.878 164.093 311.14C164.855 310.403 165.283 309.403 165.283 308.36Z" fill="#032100" stroke="#032100" stroke-width="0.7" stroke-linecap="round" stroke-linejoin="round"></path><path d="M123.468 308.36C123.468 306.18 122.621 304.419 121.586 304.419C120.55 304.419 119.694 306.163 119.694 308.36C119.694 310.557 120.541 312.292 121.586 312.292C122.63 312.292 123.468 310.531 123.468 308.36Z" fill="#032100" stroke="#032100" stroke-width="0.7" stroke-linecap="round" stroke-linejoin="round"></path><path d="M125.279 286.991V230.567H117.3V287.227L77.9185 302.309V306.093H83.637V302.885L121.596 295.309L159.545 302.885V306.093H165.273V302.309L125.279 286.991Z" fill="#032100" stroke="#032100" stroke-width="0.7" stroke-linecap="round" stroke-linejoin="round"></path><path d="M119.587 306.084H123.577L124.432 287.767H118.732L119.587 306.084Z" fill="#032100" stroke="#032100" stroke-width="0.7" stroke-linecap="round" stroke-linejoin="round"></path><path d="M131.421 228.414H111.131V240.079H131.421V228.414Z" fill="#032100" stroke="#032100" stroke-width="0.7" stroke-linecap="round" stroke-linejoin="round"></path><path d="M151.468 217.673H89.1851C86.2457 217.673 83.8628 219.98 83.8628 222.825V227.559C83.8628 230.405 86.2457 232.712 89.1851 232.712H151.468C154.407 232.712 156.79 230.405 156.79 227.559V222.825C156.79 219.98 154.407 217.673 151.468 217.673Z" fill="#2CA700"></path><path d="M209.977 259.337L216.182 268.247L223.539 267.802C223.539 267.802 237.561 265.353 239.398 264.908C241.235 264.463 241.929 266.015 241.01 267.802C240.091 269.59 231.581 277.593 227.448 280.008C223.314 282.423 211.58 286.459 210.436 286.686C209.292 286.913 207.905 284.681 205.375 277.785C203.479 272.967 201.092 268.344 198.251 263.984L209.977 259.337Z" fill="white" stroke="#032100" stroke-width="0.7" stroke-linecap="round" stroke-linejoin="round"></path><path d="M241.01 267.802C241.911 266.058 241.244 264.463 239.398 264.908C237.552 265.352 223.575 267.802 223.575 267.802L216.218 268.247C216.256 270.297 216.645 272.327 217.371 274.254C217.371 274.254 207.023 276.703 205.411 277.819C207.942 284.715 209.32 286.939 210.472 286.721C211.625 286.503 223.341 282.492 227.484 280.042C231.626 277.593 240.092 269.581 241.01 267.802Z" fill="white" stroke="#032100" stroke-width="0.7" stroke-linecap="round" stroke-linejoin="round"></path><path d="M241.01 267.802C241.364 267.193 241.479 266.481 241.334 265.797C237.128 269.223 228.33 276.258 224.809 277.959C221.45 279.58 212.732 282.553 207.986 284.131C209.004 286.128 209.787 286.851 210.436 286.747C211.58 286.52 223.305 282.518 227.447 280.068C231.59 277.619 240.091 269.58 241.01 267.802Z" fill="white" stroke="#032100" stroke-width="0.7" stroke-linecap="round" stroke-linejoin="round"></path><path d="M187.067 185.817C187.067 185.817 197.189 214.587 203.079 233.967C205.912 243.26 209.452 252.338 213.669 261.125C213.669 261.125 208.842 263.792 205.618 265.353C202.394 266.914 196.883 268.91 196.883 268.91C196.883 268.91 192.515 262.232 187.922 253.557C183.329 244.883 175.503 223.732 171.82 217.272C168.137 210.812 163.085 201.021 163.085 201.021C163.085 201.021 160.788 189.897 169.524 187.002C178.259 184.108 184.545 182.704 187.067 185.817Z" fill="#3BC90C" stroke="#032100" stroke-width="0.7" stroke-linecap="round" stroke-linejoin="round"></path><path d="M152.178 181.004C152.178 181.004 156.141 183.558 156.249 183.977C156.357 184.395 156.141 184.727 155.258 185.049C154.375 185.372 150.314 186.113 150.314 186.113L152.178 181.004Z" fill="white" stroke="#032100" stroke-width="0.7" stroke-linecap="round" stroke-linejoin="round"></path><path d="M166.884 277.619C166.884 277.619 165.299 287.165 164.183 290.644C163.066 294.122 160.148 300.461 161.076 302.03C162.003 303.599 166.911 305.221 169.415 305.421C171.919 305.622 175.125 309.589 179.78 311.219C184.436 312.849 190.587 312.413 190.452 311.219C190.317 310.024 176.664 295.526 175.998 291.952C175.332 288.377 177.718 277.357 177.718 277.357L166.884 277.619Z" fill="white" stroke="#032100" stroke-width="0.7" stroke-linecap="round" stroke-linejoin="round"></path><path d="M174.332 294.314L173.963 295.317C170.36 294.92 166.799 294.226 163.318 293.242C162.049 296.651 160.392 300.801 161.121 302.03C162.022 303.608 166.957 305.221 169.46 305.421C171.964 305.622 175.17 309.589 179.826 311.219C184.482 312.849 190.632 312.413 190.497 311.219C190.362 310.025 176.71 295.526 176.043 291.952C175.349 292.648 174.772 293.445 174.332 294.314Z" fill="white" stroke="#032100" stroke-width="0.7" stroke-linecap="round" stroke-linejoin="round"></path><path d="M179.546 308.857C175.863 307.113 172.531 304.114 167.623 302.51C164.435 301.455 162.219 300.609 161.048 300.139C160.868 300.761 160.893 301.423 161.12 302.03C162.021 303.608 166.956 305.221 169.46 305.422C171.963 305.622 175.169 309.589 179.825 311.219C184.274 312.789 190.055 312.449 190.461 311.385C187.39 310.949 182.076 310.06 179.546 308.857Z" fill="white" stroke="#032100" stroke-width="0.7" stroke-linecap="round" stroke-linejoin="round"></path><path d="M164.444 205.92C164.444 205.92 182.609 207.925 183.996 216.827C185.382 225.728 182.149 281.15 182.149 281.15C179.46 281.267 176.766 281.118 174.107 280.705C170.424 280.042 164.201 278.709 164.201 278.709C164.201 278.709 163.301 259.79 162.13 252.214C160.959 244.638 160.059 222.615 160.059 222.615C160.059 222.615 129.71 220.166 126.954 218.387C124.198 216.609 164.444 205.92 164.444 205.92Z" fill="#3BC90C" stroke="#032100" stroke-width="0.7" stroke-linecap="round" stroke-linejoin="round"></path><path d="M184.221 201.466C184.221 201.466 143.525 216.827 133.177 220.166C123.838 223.028 113.826 223.107 104.44 220.393C97.317 218.161 93.8138 209.303 93.8138 209.303C93.8138 209.303 92.0127 207.255 92.9133 205.258C93.8138 203.262 108.556 190.559 117.517 188.336C126.477 186.113 142.732 187.081 142.732 187.081C142.732 187.081 177.782 179.234 182.609 179.879C187.436 180.524 191.281 197.185 191.966 199.408" fill="#3BC90C"></path><path d="M184.221 201.466C184.221 201.466 143.525 216.827 133.177 220.166C123.838 223.028 113.826 223.107 104.44 220.393C97.317 218.161 93.8138 209.303 93.8138 209.303C93.8138 209.303 92.0127 207.255 92.9133 205.258C93.8138 203.262 108.556 190.559 117.517 188.336C126.477 186.113 142.732 187.081 142.732 187.081C142.732 187.081 177.782 179.234 182.609 179.879C187.436 180.524 191.281 197.185 191.966 199.408" stroke="#032100" stroke-width="0.7" stroke-linecap="round" stroke-linejoin="round"></path><path d="M104.206 211.038C104.206 211.038 107.43 198.833 115.913 193.68" stroke="#032100" stroke-width="0.7" stroke-linecap="round" stroke-linejoin="round"></path><path d="M102.369 202.807C102.369 202.807 105.818 197.681 110.42 196.574" stroke="#032100" stroke-width="0.7" stroke-linecap="round" stroke-linejoin="round"></path><path d="M127.684 111.136C128.9 111.408 130.045 111.921 131.047 112.641C132.05 113.361 132.888 114.273 133.51 115.32C135.771 118.965 139.535 132.626 139.535 132.626C139.535 132.626 145.551 149.566 144.425 153.55C143.3 157.534 138.779 163.384 138.779 163.384C138.779 163.384 139.157 176.461 140.283 179.077C141.272 181.695 142.09 184.371 142.732 187.089C142.732 187.089 139.535 189.277 128.999 190.733C118.462 192.189 109.808 192.921 106.232 195.65C102.657 198.379 94.7594 208.727 93.8138 209.312C92.8682 209.896 91.3733 210.951 90.6168 209.495C89.8603 208.039 88.5455 204.944 90.2386 198.388C91.9316 191.831 94.9485 165.964 96.0742 153.759C97.1999 141.553 94.7594 129.174 96.2633 120.63C97.7672 112.086 111.123 106.977 114.13 106.428C117.138 105.878 127.684 111.136 127.684 111.136Z" fill="#032100" stroke="#032100" stroke-width="0.7" stroke-linecap="round" stroke-linejoin="round"></path><path d="M95.9292 198.354C95.9292 198.354 101.684 191.902 104.439 190.786C107.195 189.67 126.512 189.67 126.512 189.67" stroke="white" stroke-width="0.7" stroke-linecap="round" stroke-linejoin="round"></path><path d="M100.072 190.115C101.874 189.123 103.807 188.375 105.818 187.892C108.348 187.447 115.013 187.892 115.013 187.892" stroke="white" stroke-width="0.7" stroke-linecap="round" stroke-linejoin="round"></path><path d="M110.187 167.857C116.447 165.49 122.155 161.933 126.973 157.396" stroke="white" stroke-width="0.7" stroke-linecap="round" stroke-linejoin="round"></path><path d="M130.881 59.4106C130.881 59.4106 133.699 65.2431 134.645 67.0565C135.59 68.8699 135.203 71.9823 135.96 74.528C136.716 77.0737 141.039 78.7127 141.039 80.1774C141.039 81.6421 139.346 84.5365 139.346 84.5365C139.346 84.5365 138.4 95.8702 136.896 97.0995C135.392 98.3287 129.187 98.7385 129.187 98.7385L125.99 110.578L129.187 112.4C129.187 112.4 129.746 123.15 129.187 126.977C128.629 130.804 128.998 134.44 123.352 132.984C117.705 131.528 109.051 116.968 108.303 115.146C107.556 113.324 110.744 105.486 106.989 93.8301C103.233 82.1739 111.491 71.6161 116.958 66.699C122.424 61.7819 125.045 58.5039 130.881 59.4106Z" fill="white" stroke="#032100" stroke-width="0.7" stroke-linecap="round" stroke-linejoin="round"></path><path d="M130.88 59.4106C130.691 56.1326 130.312 54.8597 123.351 54.1274C116.39 53.3951 101.53 52.8545 95.6948 62.8456C89.8592 72.8367 89.8682 94.7194 89.8682 94.7194C89.8682 94.7194 77.4495 105.46 76.5039 112.043C75.5583 118.625 80.1061 124.797 87.2296 126.986L87.6528 127.09C88.2848 124.044 89.6176 121.174 91.5522 118.695C95.6228 113.969 99.153 114.492 104.304 113.176C109.455 111.859 112.733 111.528 113.499 105.835C114.264 100.142 115.381 93.9871 114.886 88.1895C114.697 86.0012 117.146 82.7232 117.146 82.7232C117.146 82.7232 122.973 84.1791 126.737 74.345C130.501 64.5108 131.069 62.6887 130.88 59.4106Z" fill="#032100" stroke="#032100" stroke-width="0.7" stroke-linecap="round" stroke-linejoin="round"></path><path d="M119.588 85.4522C119.588 85.4522 117.706 77.074 112.816 80.3521C107.926 83.6301 115.266 92.9237 116.418 93.1068C117.571 93.2899 119.426 92.1914 119.426 92.1914" fill="white"></path><path d="M119.588 85.4522C119.588 85.4522 117.706 77.074 112.816 80.3521C107.926 83.6301 115.266 92.9237 116.418 93.1068C117.571 93.2899 119.426 92.1914 119.426 92.1914" stroke="#032100" stroke-width="0.7" stroke-linecap="round" stroke-linejoin="round"></path><path d="M129.187 98.7467L123.352 98.0231L127.494 103.306L129.187 98.7467Z" fill="#032100" stroke="#032100" stroke-width="0.7" stroke-linecap="round" stroke-linejoin="round"></path><path d="M135.374 76.6112C135.617 77.8492 135.374 78.939 134.807 79.0436C134.239 79.1482 133.591 78.2241 133.339 76.9948C133.087 75.7656 133.339 74.6758 133.915 74.5712C134.492 74.4665 135.131 75.382 135.374 76.6112Z" fill="#032100"></path><path d="M147.253 175.886C147.735 175.889 148.217 175.857 148.694 175.79L148.262 173.175C147.361 173.305 145.272 173.297 144.659 172.434C143.804 171.239 144.479 164.648 145.353 163.532C145.677 163.166 147.244 163.166 148.37 163.419L149 160.804C148.325 160.647 144.866 159.932 143.254 161.78C141.642 163.628 140.688 171.544 142.417 173.933C143.579 175.581 145.785 175.886 147.253 175.886Z" fill="white" stroke="#032100" stroke-width="0.7" stroke-linecap="round" stroke-linejoin="round"></path><path d="M147.144 158.414V170.89C147.144 175.416 150.813 179.085 155.339 179.085C159.865 179.085 163.534 175.416 163.534 170.89V158.414H147.144Z" fill="white" stroke="#032100" stroke-width="0.7" stroke-linecap="round" stroke-linejoin="round"></path><path d="M99.6938 114.754C99.6938 114.754 91.0125 112.139 87.041 128.381C85.7262 133.786 80.3678 188.537 81.4845 188.903C85.537 190.289 128.233 177.43 128.233 177.43C128.233 177.43 141.444 176.558 142.642 176.288C143.839 176.017 145.613 174.012 145.532 172.887C145.451 171.763 145.532 169.487 145.532 169.487C145.532 169.487 147.523 167.273 146.829 165.808C146.411 164.929 145.664 164.234 144.74 163.864H142.038L140.426 163.219C140.426 163.219 142.434 161.196 142.101 159.331C141.768 157.465 140.147 156.436 139.463 157.796C138.778 159.156 138.643 160.124 137.364 161.345C135.887 162.619 134.547 164.036 133.366 165.573C132.465 166.959 130.007 170.525 130.007 170.525L99.2436 172.146L103.8 137.814" fill="#032100"></path><path d="M99.6938 114.754C99.6938 114.754 91.0124 112.139 87.041 128.381C85.7262 133.786 80.3678 188.537 81.4845 188.903C85.537 190.289 128.233 177.43 128.233 177.43C128.233 177.43 141.444 176.558 142.642 176.288C143.839 176.017 145.613 174.012 145.532 172.887C145.451 171.763 145.532 169.487 145.532 169.487C145.532 169.487 147.523 167.273 146.829 165.808C146.411 164.929 145.664 164.234 144.74 163.864H142.038L140.426 163.219C140.426 163.219 142.434 161.196 142.101 159.331C141.768 157.465 140.147 156.436 139.463 157.796C138.778 159.156 138.643 160.124 137.364 161.345C135.887 162.619 134.547 164.036 133.366 165.573C132.465 166.959 130.007 170.525 130.007 170.525L99.2436 172.146L103.8 137.814" stroke="#032100" stroke-width="0.7" stroke-linecap="round" stroke-linejoin="round"></path><path d="M146.739 165.807C146.321 164.927 145.574 164.233 144.65 163.863H141.948L140.336 163.218C140.336 163.218 142.344 161.195 142.011 159.329C141.678 157.464 140.057 156.435 139.373 157.795C138.688 159.155 138.553 160.123 137.274 161.343C135.797 162.618 134.457 164.035 133.276 165.572C132.375 166.958 129.917 170.524 129.917 170.524L99.1536 172.145L101.189 157.193L83.9162 156.81C82.3402 172.503 80.9083 188.701 81.5117 188.91C85.5642 190.297 128.26 177.437 128.26 177.437C128.26 177.437 141.471 176.565 142.669 176.295C143.866 176.025 145.64 174.02 145.559 172.895C145.478 171.77 145.559 169.495 145.559 169.495C145.559 169.495 147.433 167.272 146.739 165.807Z" fill="white" stroke="#032100" stroke-width="0.7" stroke-linecap="round" stroke-linejoin="round"></path><path d="M145.362 180.768C145.362 180.768 141.913 181.439 140.994 182.512C140.076 183.584 137.779 189.634 138.932 189.861C140.085 190.088 142.381 185.188 142.381 185.188C142.381 185.188 148.829 182.102 145.362 180.768Z" fill="white" stroke="#032100" stroke-width="0.7" stroke-linecap="round" stroke-linejoin="round"></path><path d="M146.901 180.786C146.108 180.736 145.314 180.883 144.596 181.213C143.605 181.745 141.516 186.322 141.192 187.604C140.867 188.885 141.192 190.15 142.092 189.836C142.993 189.522 146.055 184.936 146.928 184.404C147.802 183.872 148.441 180.804 146.901 180.786Z" fill="white" stroke="#032100" stroke-width="0.7" stroke-linecap="round" stroke-linejoin="round"></path><path d="M149.323 180.786C149.22 180.559 149.05 180.365 148.835 180.23C148.62 180.094 148.369 180.022 148.112 180.022C147.855 180.022 147.604 180.094 147.389 180.23C147.174 180.365 147.004 180.559 146.901 180.786C145.586 182.599 143.389 188.136 143.938 188.554C144.487 188.973 145.802 187.604 146.685 186.645C147.567 185.686 149.981 183.236 149.323 180.786Z" fill="white" stroke="#032100" stroke-width="0.7" stroke-linecap="round" stroke-linejoin="round"></path><path d="M152.179 181.004C152.179 181.004 150.206 179.827 149.324 180.786C148.441 181.745 147.784 186.889 148 187.386C148.216 187.883 149.981 186.645 150.314 186.113C150.648 185.581 152.179 181.004 152.179 181.004Z" fill="white" stroke="#032100" stroke-width="0.7" stroke-linecap="round" stroke-linejoin="round"></path></svg>