<svg xmlns="http://www.w3.org/2000/svg" width="622" height="337" viewBox="0 0 622 337" fill="none"><path d="M1 300L621 300" stroke="#032100" stroke-linecap="round" stroke-linejoin="round"></path><path d="M454.115 134.945L427.8 135.155C427.8 135.155 426.055 134.945 425.624 136.248C425.624 136.248 421.053 147.777 420.842 151.907C420.632 156.038 421.704 155.386 419.97 160.82C418.236 166.253 413.223 179.085 410.396 189.531C406.597 203.566 405.614 218.444 405.384 232.93C405.384 235.256 403.95 255.246 407.569 255.246C410.577 255.246 438.256 258.915 438.587 253.581C439.92 232.308 436.08 211.476 443.469 190.835C446.336 182.815 449.624 174.313 452.06 165.902C454.496 157.491 454.917 148.759 456.511 140.158C457.594 134.293 454.115 134.945 454.115 134.945Z" fill="#032100"></path><path d="M456.694 137.551C456.433 134.544 454.118 134.945 454.118 134.945L427.802 135.155C427.802 135.155 426.057 134.945 425.626 136.248C425.626 136.248 421.055 147.777 420.844 151.907C420.78 152.997 420.81 154.091 420.935 155.175L421.496 156.038C421.496 156.038 422.358 163.647 432.804 164.058C443.25 164.469 449.115 159.707 451.29 155.135C453.466 150.564 454.298 143.175 456.072 138.825C456.256 138.389 456.464 137.964 456.694 137.551Z" fill="#56E22F"></path><path d="M450.588 146.043C448.823 152.398 449.886 154.163 448.121 165.09C446.357 176.018 440.001 188.388 437.535 199.677C435.069 210.965 436.121 250.855 436.472 252.619C436.609 253.558 436.659 254.508 436.623 255.456C437.806 255.015 438.527 254.403 438.578 253.571C439.911 232.298 436.071 211.466 443.46 190.825C446.327 182.804 449.615 174.303 452.051 165.892C454.487 157.481 454.908 148.749 456.502 140.148C457.174 136.539 456.121 135.406 455.199 135.055C453.201 138.506 451.651 142.199 450.588 146.043Z" fill="#56E22F"></path><path d="M399.761 306.634L399.591 306.494V281.922H403.12V266.393H390.087V281.922H393.616V306.915L362.388 316.87V319.316C362.365 319.7 362.421 320.086 362.552 320.448C362.684 320.811 362.888 321.142 363.152 321.423C363.417 321.703 363.735 321.927 364.089 322.079C364.443 322.232 364.824 322.311 365.21 322.311C365.595 322.311 365.977 322.232 366.331 322.079C366.684 321.927 367.003 321.703 367.268 321.423C367.532 321.142 367.736 320.811 367.867 320.448C367.999 320.086 368.055 319.7 368.032 319.316V318.965L394.097 315.957V319.697C394.076 320.034 394.124 320.373 394.238 320.692C394.352 321.01 394.531 321.302 394.763 321.548C394.994 321.795 395.274 321.992 395.584 322.127C395.895 322.261 396.23 322.33 396.568 322.33C396.907 322.33 397.242 322.261 397.552 322.127C397.863 321.992 398.142 321.795 398.374 321.548C398.606 321.302 398.784 321.01 398.899 320.692C399.013 320.373 399.061 320.034 399.039 319.697V315.837L426.217 318.995V319.316C426.194 319.7 426.25 320.086 426.382 320.448C426.513 320.811 426.717 321.142 426.982 321.423C427.246 321.703 427.565 321.927 427.919 322.079C428.273 322.232 428.654 322.311 429.039 322.311C429.425 322.311 429.806 322.232 430.16 322.079C430.514 321.927 430.833 321.703 431.097 321.423C431.361 321.142 431.566 320.811 431.697 320.448C431.828 320.086 431.884 319.7 431.861 319.316V316.85L399.761 306.634Z" fill="#032100"></path><path d="M436.574 251.246H359.872C357.658 251.246 355.862 253.041 355.862 255.256V265.251C355.862 267.465 357.658 269.261 359.872 269.261H436.574C438.789 269.261 440.584 267.465 440.584 265.251V255.256C440.584 253.041 438.789 251.246 436.574 251.246Z" fill="#032100"></path><path d="M286.147 199.246H322.789V156.92H286.147V199.246Z" fill="#56E22F"></path><path d="M325.624 201.13H284.251V162.915H303.83L325.624 201.13Z" fill="#032100"></path><path d="M275.359 203.256H299.028C299.264 203.274 299.5 203.243 299.723 203.165C299.946 203.087 300.151 202.964 300.324 202.804C300.498 202.644 300.636 202.449 300.73 202.233C300.825 202.016 300.874 201.782 300.874 201.546C300.874 201.31 300.825 201.077 300.73 200.86C300.636 200.644 300.498 200.449 300.324 200.289C300.151 200.128 299.946 200.005 299.723 199.928C299.5 199.85 299.264 199.819 299.028 199.837H275.359C274.732 199.845 274.113 199.706 273.549 199.431C272.986 199.156 272.495 198.752 272.116 198.253C271.737 197.754 271.48 197.173 271.366 196.557C271.252 195.94 271.284 195.306 271.459 194.704L279.85 164.629C279.923 164.409 279.951 164.176 279.931 163.945C279.911 163.714 279.845 163.489 279.736 163.285C279.627 163.08 279.478 162.899 279.297 162.754C279.116 162.609 278.908 162.502 278.685 162.439C278.461 162.377 278.228 162.36 277.998 162.391C277.768 162.421 277.546 162.498 277.347 162.617C277.148 162.735 276.974 162.893 276.838 163.08C276.701 163.268 276.604 163.481 276.552 163.707L268.161 193.782C267.85 194.892 267.8 196.059 268.015 197.192C268.231 198.324 268.706 199.391 269.404 200.309C270.101 201.227 271.002 201.971 272.035 202.482C273.068 202.993 274.206 203.258 275.359 203.256Z" fill="#032100"></path><path d="M286.636 194.307L291.991 193.665L283.692 124.376L278.337 125.017L286.636 194.307Z" fill="#56E22F"></path><path d="M278.307 125.03C278.307 125.03 268.793 159.005 286.618 194.323L278.307 125.03Z" fill="#032100"></path><path d="M505.695 203.105H255.219V325.19H505.695V203.105Z" fill="#2CA700"></path><path d="M505.536 206.043H255.32V209.421H505.536V206.043Z" fill="#032100"></path><path d="M507.269 201.11H250.487V206.444H507.269V201.11Z" fill="#2CA700"></path><path d="M370.097 337C389.298 337 404.864 335.465 404.864 333.571C404.864 331.678 389.298 330.143 370.097 330.143C350.896 330.143 335.33 331.678 335.33 333.571C335.33 335.465 350.896 337 370.097 337Z" fill="#032100"></path><path d="M369.596 72.3684C369.596 72.3684 375.711 72.3684 377.095 76.7995C378.478 81.2306 374.609 87.0952 369.596 88.4185C364.584 89.7419 360.153 85.1704 360.443 80.7594C360.734 76.3484 366.809 72.2481 369.596 72.3684Z" fill="#032100" stroke="#032100" stroke-width="0.7" stroke-linecap="round" stroke-linejoin="round"></path><path d="M405.555 274.393C405.555 274.393 407.35 273.712 407.63 270.975C407.911 268.238 404.412 261.852 404.422 258.403C404.432 254.955 404.182 248.9 403.42 247.787C402.658 246.674 398.167 246.905 395.34 249.2C392.512 251.496 399.961 256.398 401.976 261.952C403.991 267.506 402.718 268.238 403.5 270.734C403.88 272.102 404.585 273.357 405.555 274.393Z" fill="white" stroke="#032100" stroke-width="0.7" stroke-linecap="round" stroke-linejoin="round"></path><path d="M320.632 208.84C320.632 208.84 322.476 228.168 323.479 230.514C324.481 232.86 332.231 234.333 335.389 235.526C338.547 236.719 371.91 247.336 378.617 251.296C385.324 255.256 395.128 263.667 399.389 267.546C403.649 271.426 404.401 275.997 405.594 274.393C406.787 272.789 405.183 266.584 403.97 263.185C402.757 259.787 401.384 258.093 401.113 255.647C400.842 253.2 400.171 249.692 397.664 248.92C395.158 248.148 391.048 251.175 391.048 251.175C391.048 251.175 388.161 250.714 382.797 245.852C377.434 240.99 367.238 234.273 363.228 231.276C359.218 228.278 347.038 226.002 343.319 225.261C341.13 224.852 338.999 224.178 336.973 223.256L339.288 212.278C339.288 212.278 323.479 210.153 320.632 208.84Z" fill="white" stroke="#032100" stroke-width="0.7" stroke-linecap="round" stroke-linejoin="round"></path><path d="M401.075 255.647C400.814 253.211 400.132 249.692 397.626 248.92C395.862 248.378 393.325 249.702 391.962 250.544C394.521 252.991 396.725 255.785 398.508 258.845C401.165 263.516 401.185 266.404 400.744 268.97C403.802 272.439 404.503 275.797 405.556 274.394C406.749 272.79 405.145 266.584 403.932 263.186C402.719 259.787 401.345 258.093 401.075 255.647Z" fill="#3BC90C" stroke="#032100" stroke-width="0.7" stroke-linecap="round" stroke-linejoin="round"></path><path d="M346.728 316.88C347.606 317.506 348.626 317.905 349.696 318.043C350.766 318.182 351.854 318.054 352.863 317.672C356.101 316.278 360.161 310.313 361.535 308.719C362.908 307.125 369.444 303.837 370.246 300.99C371.048 298.143 366.437 294.393 366.437 294.393C365.001 297.086 363.119 299.516 360.873 301.581C357.264 304.84 357.795 306.444 353.625 310.163C349.454 313.882 346.728 316.88 346.728 316.88Z" fill="white" stroke="#032100" stroke-width="0.7" stroke-linecap="round" stroke-linejoin="round"></path><path d="M348.593 216.94C348.593 216.94 348.403 229.842 349.445 236.128C350.488 242.414 354.458 284.108 353.455 293.271C352.453 302.434 349.335 311.667 347.3 315.115C345.265 318.564 350.247 316.539 353.225 314.875C356.202 313.211 360.724 304.679 361.696 303.376C362.669 302.073 366.518 301.912 366.989 297.19C367.46 292.469 361.686 292.419 362.057 285.993C362.428 279.566 367.801 259.927 365.836 251.546C363.872 243.165 361.586 232.569 361.957 228.95C362.328 225.331 363.811 216.218 363.811 216.218L348.593 216.94Z" fill="white" stroke="#032100" stroke-width="0.7" stroke-linecap="round" stroke-linejoin="round"></path><path d="M363.31 290.724C361.619 295.08 359.422 299.222 356.764 303.065C354.017 306.744 351.942 306.704 350.839 306.243C349.989 309.325 348.809 312.306 347.32 315.135C345.315 318.584 350.268 316.559 353.245 314.895C356.222 313.23 360.744 304.699 361.716 303.396C362.689 302.093 366.538 301.932 367.009 297.21C367.33 294.062 364.884 292.98 363.31 290.724Z" fill="#3BC90C" stroke="#032100" stroke-width="0.7" stroke-linecap="round" stroke-linejoin="round"></path><path d="M418.768 180.128C417.766 177.321 416.763 173.591 412.443 171.175C408.122 168.759 406.317 167.476 406.317 167.476C406.317 167.476 394.969 143.877 392.192 139.286C389.415 134.694 387.35 131.747 387.35 131.747C387.35 131.747 379.711 110.905 378.798 107.376C377.886 103.847 378.528 101.201 374.337 99.6867C370.147 98.1729 360.693 97.0401 357.295 96.5188C354.638 95.9591 352.057 95.0876 349.605 93.9223C349.605 93.9223 341.946 92.7895 339.32 91.9774C332.902 89.5472 326.612 86.7935 320.473 83.7268C316.884 81.7218 312.453 77.1303 312.453 77.1303C312.453 77.1303 302.558 55.3358 300.202 50.0627C298.257 45.6917 296.392 41.8221 295.791 40.599C295.293 39.236 294.881 37.8431 294.558 36.4286C294.478 33.8321 294.778 31.015 294.558 29.411C294.337 27.807 294.047 27.1053 293.816 25.2306C293.585 23.3559 291.811 24.5288 292.092 26.6241L291.911 27.8371L289.686 18.2431C289.686 18.2431 288.272 17.2406 288.052 18.3233L289.114 25.4211L288.713 25.5414L287.159 16.7895C287.159 16.7895 286.929 15.8772 285.656 16.0276C285.656 16.0276 284.974 16.2281 285.074 18.0326L286.488 26.193L285.676 26.2932L284.382 17.4211C284.382 17.4211 283.831 16.7895 283.38 17.3108C283.005 18.0471 282.902 18.892 283.089 19.6967C283.199 20.619 283.971 26.985 283.971 26.985L282.688 22.203C282.688 22.203 281.475 20.9499 281.686 23.2757C282.083 26.1862 282.755 29.0527 283.691 31.8371C284.545 33.9404 285.856 35.8273 287.53 37.3609C288.813 38.2632 289.445 38.6541 289.535 39.1153C289.535 39.2256 289.976 40.6591 290.658 42.8246H290.738C292.072 46.8947 302.438 78.6341 304.312 83.5564C306.317 88.8196 330.608 107.556 330.608 107.556C330.608 107.556 326.006 119.025 327.701 125.521C328.933 129.839 330.908 133.91 333.535 137.551C333.535 137.551 329.626 142.213 322.989 159.436C316.352 176.659 317.786 212.419 317.786 212.419C325.924 216.953 335.022 219.489 344.332 219.817C359.651 220.288 365.535 219.256 365.535 219.256C365.535 219.256 372.473 179.476 369.615 164.9C367.902 156.144 365.45 147.548 362.287 139.206L369.936 120.83C369.936 120.83 382.879 142.885 387.801 151.386C392.723 159.887 404.844 172.439 404.844 172.439C404.844 172.439 405.054 175.717 406.518 177.311C407.555 178.377 408.74 179.289 410.037 180.018C410.037 180.018 407.47 185.722 409.034 186.033C410.598 186.343 411.781 180.348 411.781 180.348C411.781 180.348 410.628 186.363 411.861 186.684C413.094 187.005 414.407 181.16 414.407 181.16C414.407 181.16 413.124 186.634 414.558 186.774C415.991 186.915 416.613 180.84 416.613 180.84C416.613 180.84 417.545 185.852 418.498 185.371C419.45 184.89 419.721 182.975 418.768 180.128Z" fill="white" stroke="#032100" stroke-width="0.7" stroke-linecap="round" stroke-linejoin="round"></path><path d="M291.94 27.7769C292.043 28.3039 291.97 28.8499 291.733 29.3315C291.496 29.8131 291.107 30.2037 290.627 30.4436C288.913 31.3559 289.965 33.4511 291.409 35.2256" stroke="#032100" stroke-width="0.7" stroke-linecap="round" stroke-linejoin="round"></path><path d="M408.783 174.393C409.437 175.342 410.212 176.202 411.089 176.95C412.099 177.383 413.172 177.65 414.267 177.742C414.267 177.742 415.129 182.955 416.843 182.193C418.558 181.431 416.252 176.549 415.45 175.296C415.099 174.663 414.592 174.132 413.976 173.752" fill="white"></path><path d="M408.783 174.393C409.437 175.342 410.212 176.202 411.089 176.95C412.099 177.383 413.172 177.65 414.267 177.742C414.267 177.742 415.129 182.955 416.843 182.193C418.558 181.431 416.252 176.549 415.45 175.296C415.099 174.663 414.592 174.132 413.976 173.752" stroke="#032100" stroke-width="0.7" stroke-linecap="round" stroke-linejoin="round"></path><path d="M344.242 219.737C359.56 220.208 365.445 219.175 365.445 219.175C365.445 219.175 372.382 179.396 369.525 164.82C369.345 163.887 369.154 162.965 368.954 162.063C353.612 165.214 337.72 164.403 322.778 159.707C316.292 177.05 317.695 212.338 317.695 212.338C325.833 216.873 334.932 219.408 344.242 219.737Z" fill="#032100" stroke="#032100" stroke-width="0.7" stroke-linecap="round" stroke-linejoin="round"></path><path d="M335.57 173.722C335.57 173.722 341.746 184.549 348.703 189.952" stroke="white" stroke-width="0.7" stroke-linecap="round" stroke-linejoin="round"></path><path d="M346.749 194.614C347.511 195.155 348.283 195.667 349.095 196.138" stroke="white" stroke-width="0.7" stroke-linecap="round" stroke-linejoin="round"></path><path d="M336.343 183.767C338.592 186.993 341.217 189.941 344.162 192.549" stroke="white" stroke-width="0.7" stroke-linecap="round" stroke-linejoin="round"></path><path d="M394.067 142.724C393.285 141.221 392.623 140.018 392.192 139.286C389.405 134.664 387.35 131.747 387.35 131.747C387.35 131.747 379.711 110.905 378.798 107.376C377.886 103.847 378.528 101.201 374.337 99.6867C370.147 98.1729 360.693 97.0401 357.295 96.5188C354.638 95.9591 352.057 95.0876 349.605 93.9223C349.605 93.9223 341.946 92.7895 339.32 91.9774C332.902 89.5472 326.612 86.7935 320.473 83.7268C316.884 81.7218 312.453 77.1303 312.453 77.1303C312.453 77.1303 309.726 71.1153 306.798 64.6591C304.055 65.4157 301.374 66.381 298.778 67.5464C301.214 74.8847 303.44 81.4912 304.212 83.5263C306.217 88.7895 330.508 107.526 330.508 107.526C330.508 107.526 325.906 118.995 327.6 125.491C328.833 129.809 330.807 133.88 333.435 137.521C333.435 137.521 329.525 142.183 322.889 159.406C322.266 161.067 321.733 162.76 321.295 164.479C331.159 168.81 348.362 173.501 369.956 168.098C369.846 166.925 369.706 165.842 369.515 164.87C367.801 156.114 365.35 147.518 362.187 139.175L369.836 120.799C369.836 120.799 380.282 138.634 385.976 148.388C388.794 146.679 391.496 144.787 394.067 142.724Z" fill="#3BC90C" stroke="#032100" stroke-width="0.7" stroke-linecap="round" stroke-linejoin="round"></path><path d="M325.524 92.99L330.516 107.526L320.501 88.3484" stroke="#032100" stroke-width="0.7" stroke-linecap="round" stroke-linejoin="round"></path><path d="M369.845 120.749L365.705 118.484" stroke="#032100" stroke-width="0.7" stroke-linecap="round" stroke-linejoin="round"></path><path d="M374.97 102.253C374.97 102.253 370.729 103.025 368.022 109.601" stroke="#032100" stroke-width="0.7" stroke-linecap="round" stroke-linejoin="round"></path><path d="M342.907 132.008C342.907 132.008 347.92 138.574 355.659 138.574" stroke="#032100" stroke-width="0.7" stroke-linecap="round" stroke-linejoin="round"></path><path d="M367.079 98.0025C363.26 97.3308 359.27 96.8196 357.305 96.5188C354.648 95.9591 352.067 95.0876 349.615 93.9223C349.615 93.9223 341.956 92.7895 339.33 91.9775C339.059 91.8872 338.648 91.7469 338.167 91.5664C337.916 96.0376 337.726 106.333 340.553 113.792C344.252 123.566 348.322 125.591 348.322 125.591C348.322 125.591 360.703 111.135 364.362 103.917C365.656 101.271 366.518 99.3659 367.079 98.0025Z" fill="#032100" stroke="#032100" stroke-width="0.7" stroke-linecap="round" stroke-linejoin="round"></path><path d="M352.974 52.208C352.974 52.208 346.257 52.8597 342.608 58.2231C338.959 63.5865 337.786 68.589 336.543 74.2632C335.3 79.9374 336.743 85.3709 338.718 85.5714L345.525 86.2632C345.525 86.2632 345.525 101.11 345.926 106.253C346.327 111.396 347.931 115.095 349.425 113.271C350.919 111.446 355.841 98.2331 355.841 98.2331L356.643 85.9023C356.643 85.9023 360.252 83.1654 365.585 78.604C370.919 74.0426 372.453 65.5714 368.543 58.2933C364.633 51.0151 352.974 52.208 352.974 52.208Z" fill="white" stroke="#032100" stroke-width="0.7" stroke-linecap="round" stroke-linejoin="round"></path><path d="M356.944 76.8697C356.944 76.8697 358.167 77.3709 358.258 76.4887C358.348 75.6065 361.035 74.1128 362.087 76.2481" stroke="#032100" stroke-width="0.7" stroke-linecap="round" stroke-linejoin="round"></path><path d="M358.257 76.4887C358.257 76.4887 361.375 77.0601 359.55 78.7844" stroke="#032100" stroke-width="0.7" stroke-linecap="round" stroke-linejoin="round"></path><path d="M342.577 65.391C342.256 66.3935 341.574 67.0652 341.123 66.9048C340.672 66.7444 340.512 65.822 340.832 64.8195C341.153 63.817 341.835 63.1454 342.296 63.3058C342.757 63.4662 342.897 64.3985 342.577 65.391Z" fill="#032100"></path><path d="M348.962 68.6892C348.631 69.6917 347.96 70.3634 347.498 70.203C347.037 70.0426 346.897 69.1103 347.218 68.1178C347.539 67.1253 348.22 66.4436 348.671 66.604C349.123 66.7644 349.283 67.6867 348.962 68.6892Z" fill="#032100"></path><path d="M340.452 72.2682C340.452 72.2682 340.452 73.3208 342.166 73.4912" stroke="#032100" stroke-width="0.7" stroke-linecap="round" stroke-linejoin="round"></path><path d="M339.99 76.8095C339.99 76.8095 344.852 78.0927 347.309 75.807" stroke="#032100" stroke-width="0.7" stroke-linecap="round" stroke-linejoin="round"></path><path d="M348.993 63.1554C350.237 63.0637 351.467 63.4658 352.416 64.2746C353.366 65.0833 353.958 66.2336 354.066 67.4762" stroke="#032100" stroke-width="0.7" stroke-linecap="round" stroke-linejoin="round"></path><path d="M341.886 60.7293C341.886 60.7293 343.44 58.3935 344.893 62.0827" stroke="#032100" stroke-width="0.7" stroke-linecap="round" stroke-linejoin="round"></path><path d="M342.809 77.4912C342.809 77.4912 344.964 80.8597 345.966 80.0476C346.969 79.2356 346.177 76.6591 346.177 76.6591C345.078 77.0255 343.952 77.3037 342.809 77.4912Z" fill="#032100" stroke="#032100" stroke-width="0.7" stroke-linecap="round" stroke-linejoin="round"></path><path d="M368.132 78.604C373.475 74.0426 374.147 66.0226 370.137 58.8045C364.934 49.4211 352.964 52.208 352.964 52.208C351.7 52.3764 350.462 52.6961 349.274 53.1604C351.781 53.5213 357.345 54.8948 359.68 60.178C362.748 67.1354 358.237 74.4336 358.237 74.4336C358.237 74.4336 364.051 71.7068 363.851 75.8973C363.748 77.3997 363.086 78.809 361.994 79.8466C360.903 80.8842 359.462 81.4747 357.956 81.5013C356.771 81.3173 355.615 80.9803 354.518 80.4988C354.489 81.4799 354.673 82.4556 355.058 83.3589C355.442 84.2621 356.017 85.0716 356.743 85.7319C357.355 85.2907 363.299 82.7243 368.132 78.604Z" fill="#032100" stroke="#032100" stroke-width="0.7" stroke-linecap="round" stroke-linejoin="round"></path><path d="M347.932 53.7919C347.932 53.7919 350.939 55.406 353.566 62.8145C356.192 70.223 361.425 69.4611 364.443 68.8295C367.46 68.198 369.686 68.0275 369.686 68.0275C367.369 65.8819 365.755 63.0864 365.054 60.0075C363.841 54.8045 355.781 42.7143 347.932 53.7919Z" fill="#032100" stroke="#032100" stroke-width="0.7" stroke-linecap="round" stroke-linejoin="round"></path><path d="M216.21 55.6566C216.21 55.6566 218.215 52.6491 214.666 50.8747C210.762 49.0927 206.378 48.6514 202.197 49.6197C198.016 50.5879 194.272 52.9112 191.549 56.2281C183.037 66.0526 189.904 75.5363 194.335 80.2882C198.767 85.0401 205.183 87.1854 205.183 88.0376C204.714 89.737 204.155 91.4102 203.508 93.0501L218.476 93.7118C218.476 93.7118 220.3 88.1278 221.934 86.2631C223.569 84.3985 226.526 87.2657 228.741 82.5438C230.957 77.822 228.24 71.5764 228.24 71.5764C228.24 71.5764 229.654 66.223 227.649 66.0225C225.644 65.822 224.16 63.3559 222.736 60.3183C221.313 57.2807 216.21 55.6566 216.21 55.6566Z" fill="white" stroke="#032100" stroke-width="0.7" stroke-linecap="round" stroke-linejoin="round"></path><path d="M222.817 61.8521C222.817 61.8521 220.812 58.7143 220.541 63.005" stroke="#032100" stroke-width="0.7" stroke-linecap="round" stroke-linejoin="round"></path><path d="M228.932 74.5037C228.932 74.5037 228.491 75.8471 226.186 74.223" stroke="#032100" stroke-width="0.7" stroke-linecap="round" stroke-linejoin="round"></path><path d="M224.491 65.6115C224.982 66.5538 225.142 67.436 224.842 67.6165C224.541 67.7969 223.899 67.1353 223.408 66.203C222.917 65.2706 222.756 64.3784 223.057 64.198C223.358 64.0175 224 64.6791 224.491 65.6115Z" fill="#032100"></path><path d="M212.802 78.5137C212.513 78.4639 212.237 78.3558 211.992 78.1959C211.746 78.036 211.536 77.8277 211.374 77.5837C211.211 77.3398 211.1 77.0653 211.048 76.777C210.995 76.4888 211.002 76.1928 211.067 75.9072C211.508 74.3734 215.017 75.015 215.017 75.015C215.017 75.015 213.483 76.0175 215.118 76.8897C216.752 77.7619 217.654 75.8872 217.654 75.8872" stroke="#032100" stroke-width="0.7" stroke-linecap="round" stroke-linejoin="round"></path><path d="M214.688 50.8546C210.783 49.0726 206.4 48.6314 202.218 49.5996C198.037 50.5678 194.294 52.8912 191.57 56.208C183.059 66.0326 189.926 75.5163 194.357 80.2682C197.866 84.0576 202.628 86.1629 204.382 87.2857C206.064 87.2598 207.73 86.9584 209.314 86.3935C211.723 85.5315 213.866 84.056 215.53 82.1128C215.53 82.1128 209.685 82.6742 209.064 77.411C208.442 72.1479 213.886 72.6992 216.171 72.9298C218.457 73.1604 217.004 70.4135 215.921 69.7218C214.838 69.0301 215.981 66.2631 216.593 63.1453C217.204 60.0276 213.585 61.6817 213.074 60.7594C212.562 59.8371 216.212 55.6566 216.212 55.6566C216.212 55.6566 218.267 52.6491 214.688 50.8546Z" fill="#032100" stroke="#032100" stroke-width="0.7" stroke-linecap="round" stroke-linejoin="round"></path><path d="M222.547 92.99C218.224 91.6168 213.75 90.7752 209.224 90.4837C201.755 90.0125 197.936 93.3809 197.936 93.3809C197.936 93.3809 203.409 93.6516 212.301 94.2631C221.194 94.8747 222.547 92.99 222.547 92.99Z" fill="#3BC90C" stroke="#032100" stroke-width="0.7" stroke-linecap="round" stroke-linejoin="round"></path><path d="M257.613 66.4937C257.613 66.4937 271.959 44.8295 271.999 41.6215C272.039 38.4135 270.836 33.1203 270.997 31.1152C271.157 29.1102 271.578 28.2882 271.809 25.9924C272.039 23.6967 274.215 25.0802 273.954 27.6566L274.205 29.1303L276.691 17.3408C276.691 17.3408 278.395 16.0777 278.696 17.401L277.363 25.3208L278.074 25.431L279.789 15.5564C279.789 15.5564 280.039 14.4335 281.603 14.5539C281.603 14.5539 282.445 14.7744 282.365 16.9198L281.022 26.203L281.734 26.5238L283.287 16.2982C283.287 16.2982 283.939 15.5062 284.45 16.1278C284.934 17.0152 285.084 18.0468 284.871 19.0351C284.761 20.1779 283.969 27.9774 283.969 27.9774L285.423 22.1027C285.423 22.1027 286.876 20.5288 286.726 23.3859C286.311 26.9551 285.57 30.4787 284.51 33.9122C283.879 35.8471 281.503 39.6265 279.949 40.7594C278.395 41.8922 277.633 42.3834 277.573 42.9549C277.513 43.5263 269.553 71.3759 264.871 77.6315C264.871 77.6315 263.197 71.6165 259.408 70.7744C255.618 69.9323 256.23 71.025 256.23 71.025L257.613 66.4937Z" fill="white" stroke="#032100" stroke-width="0.7" stroke-linecap="round" stroke-linejoin="round"></path><path d="M252.17 74.614C252.17 74.614 251.919 71.406 254.095 69.8922C256.27 68.3784 255.929 66.0325 257.994 65.6616C260.06 65.2907 265.744 69.0501 266.275 72.2882C266.807 75.5263 265.954 75.4361 265.694 78.0125C265.433 80.5889 261.914 84.0275 258.907 82.233C255.899 80.4386 252.17 74.614 252.17 74.614Z" fill="#3BC90C" stroke="#032100" stroke-width="0.7" stroke-linecap="round" stroke-linejoin="round"></path><path d="M156.521 129.391C156.521 129.391 151.298 148.639 149.504 159.546C147.709 170.454 146.296 174.012 145.123 176.93C143.95 179.847 142.617 182.333 142.957 185.411C143.298 188.489 147.108 187.356 148.852 187.316C150.597 187.276 153.293 186.454 153.534 184.088C153.775 181.722 154.246 181.341 153.815 179.125C153.384 176.91 151.81 175.005 151.98 173.712C152.15 172.418 161.825 149.501 163.749 143.386C165.674 137.271 166.937 133.491 166.937 133.491C166.937 133.491 158.476 131.546 156.521 129.391Z" fill="white" stroke="#032100" stroke-width="0.7" stroke-linecap="round" stroke-linejoin="round"></path><path d="M183.961 158.915C179.721 172.84 180.412 165.932 179.721 172.84C179.029 179.747 176.322 195.536 176.322 195.536L165.776 237.291C165.776 237.291 152.663 247.476 146.026 257.271C139.39 267.065 121.876 288.138 121.876 288.138C121.876 288.138 125.736 288.799 127.159 290.143C128.583 291.486 131.881 294.875 131.881 294.875C134.119 293.263 136.112 291.335 137.796 289.15C144.362 280.689 154.277 273.481 161.946 265.992C169.615 258.504 178.919 250.875 185.094 241.932C188.222 236.819 204.061 196.469 204.061 196.469L207.33 196.368C207.33 196.368 223.67 221.722 225.946 225C228.222 228.278 235.41 240.96 235.41 240.96C235.41 240.96 223.109 250.794 219.881 259.005C216.653 267.215 200.603 296.83 199.59 298.243C198.924 299.264 198.442 300.394 198.167 301.581C198.167 301.581 204.081 303.266 207.069 303.787C208.78 304.059 210.419 304.669 211.891 305.581C211.891 305.581 212.733 303.707 213.615 301.411C214.482 299.45 215.128 297.399 215.54 295.296C215.701 293.792 231.911 277.611 240.863 262.213C249.816 246.814 254.127 242.905 254.678 239.697C255.229 236.489 247.189 212.85 243.4 200.94C239.61 189.03 229.475 175.396 229.154 174.273C228.833 173.15 227.841 161.531 227.841 161.531C227.841 161.531 221.274 161.952 207.58 161.862C199.618 161.827 191.688 160.838 183.961 158.915Z" fill="#032100" stroke="#032100" stroke-width="0.7" stroke-linecap="round" stroke-linejoin="round"></path><path d="M193.654 192.228L204.06 196.398" stroke="white" stroke-width="0.7" stroke-linecap="round" stroke-linejoin="round"></path><path d="M233.184 117.361C233.184 117.361 232.322 125.902 243.44 133.06C254.557 140.218 258.096 152.819 258.096 152.819L255.139 160.158L248.512 156.268C248.512 156.268 249.515 142.514 242.497 136.779C235.48 131.045 232.151 127.887 230.036 121.05C227.921 114.213 223.51 104.318 223.51 104.318C223.51 104.318 231.67 110.574 233.184 117.361Z" fill="#032100" stroke="#032100" stroke-width="0.7" stroke-linecap="round" stroke-linejoin="round"></path><path d="M203.459 93.0701C198.77 92.754 194.101 92.1851 189.474 91.3659C183.81 90.213 178.877 93.1804 178.135 97.7218C177.394 102.263 158.366 124.338 158.226 125.792C158.085 127.246 165.143 131.697 168.401 130.875C171.659 130.053 184.562 116.91 184.562 116.91C184.562 116.91 184.942 147.306 183.91 151.817C182.877 156.328 181.123 159.346 183.489 161.601C185.855 163.857 203.89 165.702 213.193 165.2C222.496 164.699 227.9 162.654 228.231 159.506C228.562 156.358 229.053 148.599 229.484 144.308C229.915 140.017 234.496 112.439 234.496 112.439C234.496 112.439 247.689 96.3984 253.795 90.3834C259.9 84.3684 262.196 81.6917 262.546 78.2631C262.897 74.8345 258.376 70.9047 255.369 72.0375C252.361 73.1704 244.13 83.0651 239.519 85.7518C234.907 88.4385 228.191 89.2205 225.354 91.5363C222.516 93.8521 219.278 94.3834 213.845 93.832C208.411 93.2806 203.459 93.0701 203.459 93.0701Z" fill="#3BC90C" stroke="#032100" stroke-width="0.7" stroke-linecap="round" stroke-linejoin="round"></path><path d="M180.811 102.714L184.57 116.88L176.69 105.892" stroke="#032100" stroke-width="0.7" stroke-linecap="round" stroke-linejoin="round"></path><path d="M234.446 112.408L227.77 121.752" stroke="#032100" stroke-width="0.7" stroke-linecap="round" stroke-linejoin="round"></path><path d="M221.563 135.165L220.471 136.99" stroke="#032100" stroke-width="0.7" stroke-linecap="round" stroke-linejoin="round"></path><path d="M229.995 121.05L223.629 131.707" stroke="#032100" stroke-width="0.7" stroke-linecap="round" stroke-linejoin="round"></path><path d="M201.092 128.068C204.801 136.86 210.616 149.341 215.718 154.434" stroke="#032100" stroke-width="0.7" stroke-linecap="round" stroke-linejoin="round"></path><path d="M197.314 118.584C197.314 118.584 197.946 120.308 199.029 123.035" stroke="#032100" stroke-width="0.7" stroke-linecap="round" stroke-linejoin="round"></path><path d="M200.17 136.038C200.17 136.038 207.468 149.07 211.268 154.083" stroke="#032100" stroke-width="0.7" stroke-linecap="round" stroke-linejoin="round"></path><path d="M159.197 124.439C160.771 125.895 162.556 127.105 164.491 128.028C167.197 129.17 171.739 127.236 171.508 129.391C171.355 130.917 170.698 132.349 169.642 133.462C168.586 134.574 167.19 135.304 165.674 135.536C161.453 136.408 156.651 132.659 155.308 130.524C153.964 128.388 154.937 121.401 159.197 124.439Z" fill="#3BC90C" stroke="#032100" stroke-width="0.7" stroke-linecap="round" stroke-linejoin="round"></path><path d="M150.045 180.038C150.045 180.038 144.321 182.935 146.616 183.817C148.912 184.699 152.631 184.218 153.253 182.754" fill="white"></path><path d="M150.045 180.038C150.045 180.038 144.321 182.935 146.616 183.817C148.912 184.699 152.631 184.218 153.253 182.754" stroke="#032100" stroke-width="0.7" stroke-linecap="round" stroke-linejoin="round"></path><path d="M146.636 183.817L144.421 184.248" stroke="#032100" stroke-width="0.7" stroke-linecap="round" stroke-linejoin="round"></path><path d="M211.889 305.461C211.889 305.461 217.413 314.283 221.413 317.491C225.413 320.699 226.025 320.499 225.894 321.872C225.764 323.246 222.325 324.068 216.481 323.476C210.636 322.885 205.754 318.654 200.34 315.737C194.927 312.82 193.453 311.887 194.536 309.05C195.615 306.473 196.826 303.953 198.165 301.501C198.165 301.501 205.894 301.271 211.889 305.461Z" fill="white" stroke="#032100" stroke-width="0.7" stroke-linecap="round" stroke-linejoin="round"></path><path d="M194.536 309.01C194.536 309.01 198.697 310.504 207.017 316.408C215.338 322.313 221.163 323.105 225.895 321.832" fill="white"></path><path d="M194.536 309.01C194.536 309.01 198.697 310.504 207.017 316.408C215.338 322.313 221.163 323.105 225.895 321.832" stroke="#032100" stroke-width="0.7" stroke-linecap="round" stroke-linejoin="round"></path><path d="M131.88 294.835C131.88 294.835 131.95 302.033 133.053 306.013C134.155 309.992 136.912 313.842 135.649 314.694C134.386 315.546 133.093 315.797 130.637 314.474C128.181 313.15 125.083 310.464 121.885 306.674C119.422 304.054 117.536 300.946 116.351 297.551C114.827 293.652 115.659 291.446 118.216 290.343C119.557 289.819 120.8 289.073 121.895 288.138C121.895 288.138 129.323 287.747 131.88 294.835Z" fill="white" stroke="#032100" stroke-width="0.7" stroke-linecap="round" stroke-linejoin="round"></path><path d="M116.602 292.248C119.946 295.084 122.676 298.574 124.622 302.504C128.301 309.521 132.17 313.411 135.649 314.724" fill="white"></path><path d="M116.602 292.248C119.946 295.084 122.676 298.574 124.622 302.504C128.301 309.521 132.17 313.411 135.649 314.724" stroke="#032100" stroke-width="0.7" stroke-linecap="round" stroke-linejoin="round"></path><path d="M190.696 337C209.897 337 225.463 335.465 225.463 333.571C225.463 331.678 209.897 330.143 190.696 330.143C171.494 330.143 155.929 331.678 155.929 333.571C155.929 335.465 171.494 337 190.696 337Z" fill="#032100"></path><path d="M282.267 1V10.0927" stroke="#032100" stroke-linecap="round" stroke-linejoin="round"></path><path d="M290.988 11.5463L295.72 5.72177" stroke="#032100" stroke-linecap="round" stroke-linejoin="round"></path><path d="M268.441 8.6391L272.802 12.2682" stroke="#032100" stroke-linecap="round" stroke-linejoin="round"></path><path d="M263.349 20.6391H270.988" stroke="#032100" stroke-linecap="round" stroke-linejoin="round"></path><path d="M294.265 20.2782H300.089" stroke="#032100" stroke-linecap="round" stroke-linejoin="round"></path></svg>