<svg xmlns="http://www.w3.org/2000/svg" width="376" height="200" viewBox="0 0 376 200" fill="none"><rect width="376" height="200" fill="#3BC90C"></rect><path d="M222.764 74.5142L221.034 83.915L206.929 92.4857L208.879 96.0661C208.879 96.0661 225.186 91.0933 225.583 89.93C225.981 88.7668 229.739 76.4471 229.739 76.4471L222.764 74.5142Z" fill="#032100"></path><path d="M228.944 58.6182L228.001 70.0168L227.504 75.9972C224.784 77.3205 222.124 75.3313 221.96 75.2016C222.699 73.0308 223.56 60.7803 228.944 58.6182Z" fill="#3BC90C" stroke="#032100" stroke-width="0.5" stroke-linecap="round" stroke-linejoin="round"></path><path d="M227.983 70.0167L227.486 75.9971C224.766 77.3203 222.107 75.3311 221.942 75.2014C222.059 75.2533 223.49 75.8587 224.42 75.2014C224.095 74.8503 223.805 74.4679 223.555 74.0598C223.499 73.835 224.42 73.7744 224.42 73.7744C224.42 73.7744 223.815 68.927 225.428 66.8557C226.059 66.0687 227.045 67.7119 227.983 70.0167Z" fill="#032100"></path><path d="M238.712 164.177L239.145 165.448C238.489 166.53 237.755 167.562 236.948 168.536C236.948 168.536 236.515 168.397 235.806 169.024C235.369 169.46 235.1 170.036 235.045 170.65C235.045 170.65 231.742 174.611 227.551 174.667C223.361 174.724 224.624 172.613 224.624 172.613L238.712 164.177Z" fill="#3BC90C" stroke="#032100" stroke-width="0.5" stroke-linecap="round" stroke-linejoin="round"></path><path d="M234.772 154.097C234.772 154.097 229.15 152.026 228.052 156.168C228.052 156.168 229.055 160.73 228.454 163.225C227.853 165.72 224.826 170.486 224.64 171.39C224.272 173.162 224.549 173.284 224.549 173.284C224.549 173.284 226.75 174.555 229.708 173.193C232.666 171.831 237.786 165.967 238.586 164.76C239.386 163.554 236.078 158.797 236.078 158.797L234.772 154.097Z" fill="white"></path><path d="M234.772 154.097C234.772 154.097 229.15 152.026 228.052 156.168C228.052 156.168 229.055 160.73 228.454 163.225C227.853 165.72 224.826 170.486 224.64 171.39C224.272 173.162 224.549 173.284 224.549 173.284C224.549 173.284 226.75 174.555 229.708 173.193C232.666 171.831 237.786 165.967 238.586 164.76C239.386 163.554 236.078 158.797 236.078 158.797L234.772 154.097Z" stroke="#032100" stroke-width="0.5" stroke-linecap="round" stroke-linejoin="round"></path><path d="M231.897 159.956C232.386 162.747 231.889 165.621 230.491 168.086" stroke="#032100" stroke-width="0.5" stroke-linecap="round" stroke-linejoin="round"></path><path d="M230.491 169.176C230.281 169.702 229.957 170.175 229.541 170.56C229.125 170.945 228.628 171.231 228.086 171.398C226.953 171.702 225.76 171.702 224.627 171.398L225.976 168.666C227.408 169.236 228.967 169.412 230.491 169.176Z" fill="#3BC90C" stroke="#032100" stroke-width="0.5" stroke-linecap="round" stroke-linejoin="round"></path><path d="M231.287 167.519C231.287 167.519 228.347 167.697 226.812 167.087" stroke="#032100" stroke-width="0.5" stroke-linecap="round" stroke-linejoin="round"></path><path d="M231.831 165.898C231.831 165.898 229.081 166.33 227.546 165.465" stroke="#032100" stroke-width="0.5" stroke-linecap="round" stroke-linejoin="round"></path><path d="M232.299 164.095C232.299 164.095 229.89 164.445 228.316 163.701" stroke="#032100" stroke-width="0.5" stroke-linecap="round" stroke-linejoin="round"></path><path d="M232.567 162.054C232.567 162.054 229.886 162.893 228.619 162.054" stroke="#032100" stroke-width="0.5" stroke-linecap="round" stroke-linejoin="round"></path><path d="M232.968 157.012L233.436 159.957C233.436 159.957 229.89 162.292 227.546 159.373V156.298C227.546 156.298 228.428 158.365 232.968 157.012Z" fill="#3BC90C" stroke="#032100" stroke-width="0.5" stroke-linecap="round" stroke-linejoin="round"></path><path d="M229.89 90.9067C226.297 102.292 215.145 120.554 216.273 125.228C216.892 127.779 220.571 142.235 223.451 148.579C224.545 151.005 226.911 152.626 226.911 152.626L228.619 156.289C232.783 158.101 234.275 154.417 234.275 154.417L233.436 150.265C235.667 146.209 234.733 146.209 231.832 125.185C231.49 122.707 237.237 115.049 237.237 115.049L240.186 134.318L240.666 150.101L242.197 154.979C242.197 154.979 242.577 159.558 242.543 159.835H249.388L250.132 154.802C250.132 154.802 253.31 151.805 253.31 148.345C253.31 144.886 252.627 127.265 253.31 122.132C253.993 116.999 251.71 93.0689 251.71 93.0689L229.89 90.9067Z" fill="#032100"></path><path d="M183.356 80.7621L192.869 81.6183C193.085 81.6377 193.284 81.742 193.423 81.9082C193.561 82.0743 193.628 82.2888 193.609 82.5044L192.998 89.2935L181.859 88.291L182.47 81.5019C182.489 81.2863 182.593 81.0872 182.76 80.9485C182.926 80.8098 183.14 80.7427 183.356 80.7621Z" fill="#3BC90C"></path><mask id="mask0_1656_4153" style="mask-type:luminance" maskUnits="userSpaceOnUse" x="181" y="80" width="13" height="10"><path d="M183.357 80.7621L192.87 81.6183C193.086 81.6377 193.285 81.742 193.424 81.9082C193.562 82.0743 193.629 82.2888 193.61 82.5044L192.999 89.2935L181.86 88.291L182.471 81.5019C182.49 81.2863 182.594 81.0872 182.761 80.9485C182.927 80.8098 183.141 80.7427 183.357 80.7621Z" fill="white"></path></mask><g mask="url(#mask0_1656_4153)"><path opacity="0.3" d="M183.357 80.7621L192.87 81.6183C193.086 81.6377 193.285 81.742 193.424 81.9082C193.562 82.0743 193.629 82.2888 193.61 82.5044L192.999 89.2935L181.86 88.291L182.471 81.5019C182.49 81.2863 182.594 81.0872 182.761 80.9485C182.927 80.8098 183.141 80.7427 183.357 80.7621Z" fill="#3BC90C"></path></g><path d="M183.356 80.7621L192.869 81.6183C193.085 81.6377 193.284 81.742 193.423 81.9082C193.561 82.0743 193.628 82.2888 193.609 82.5044L192.998 89.2935L181.859 88.291L182.47 81.5019C182.489 81.2863 182.593 81.0872 182.76 80.9485C182.926 80.8098 183.14 80.7427 183.356 80.7621Z" stroke="#032100" stroke-width="0.5" stroke-linecap="round" stroke-linejoin="round"></path><path d="M199.776 81.363L209.254 82.1773C209.469 82.1957 209.668 82.2988 209.807 82.4637C209.945 82.6287 210.013 82.842 209.995 83.0568L209.414 89.821L198.315 88.8676L198.896 82.1034C198.915 81.8886 199.018 81.6899 199.183 81.5511C199.348 81.4122 199.561 81.3446 199.776 81.363Z" fill="#3BC90C"></path><mask id="mask1_1656_4153" style="mask-type:luminance" maskUnits="userSpaceOnUse" x="198" y="81" width="12" height="9"><path d="M199.775 81.363L209.253 82.1773C209.468 82.1957 209.667 82.2988 209.806 82.4637C209.944 82.6287 210.012 82.842 209.994 83.0568L209.413 89.821L198.314 88.8676L198.895 82.1034C198.914 81.8886 199.017 81.6899 199.182 81.5511C199.347 81.4122 199.56 81.3446 199.775 81.363Z" fill="white"></path></mask><g mask="url(#mask1_1656_4153)"><path opacity="0.3" d="M199.775 81.363L209.253 82.1773C209.468 82.1957 209.667 82.2988 209.806 82.4637C209.944 82.6287 210.012 82.842 209.994 83.0568L209.413 89.821L198.314 88.8676L198.895 82.1034C198.914 81.8886 199.017 81.6899 199.182 81.5511C199.347 81.4122 199.56 81.3446 199.775 81.363Z" fill="#3BC90C"></path></g><path d="M199.776 81.363L209.254 82.1773C209.469 82.1957 209.668 82.2988 209.807 82.4637C209.945 82.6287 210.013 82.842 209.995 83.0568L209.414 89.821L198.315 88.8676L198.896 82.1034C198.915 81.8886 199.018 81.6899 199.183 81.5511C199.348 81.4122 199.561 81.3446 199.776 81.363Z" stroke="#032100" stroke-width="0.5" stroke-linecap="round" stroke-linejoin="round"></path><path d="M196.333 81.0647L205.812 81.8789C206.027 81.8974 206.225 82.0004 206.364 82.1654C206.503 82.3303 206.571 82.5437 206.552 82.7585L205.971 89.5226L194.873 88.5692L195.454 81.8051C195.472 81.5903 195.575 81.3916 195.74 81.2527C195.905 81.1139 196.119 81.0462 196.333 81.0647Z" fill="#3BC90C" stroke="#032100" stroke-width="0.5" stroke-linecap="round" stroke-linejoin="round"></path><path d="M212.702 82.4734L222.18 83.2876C222.395 83.3061 222.593 83.4091 222.732 83.5741C222.871 83.739 222.939 83.9524 222.92 84.1672L222.34 90.927L211.241 89.9736L211.822 83.2095C211.842 82.9955 211.945 82.798 212.11 82.66C212.275 82.5221 212.488 82.455 212.702 82.4734Z" fill="#3BC90C" stroke="#032100" stroke-width="0.5" stroke-linecap="round" stroke-linejoin="round"></path><path d="M227.296 89.7783L224.619 120.882L174.506 116.558L177.183 85.4584C177.204 85.201 177.277 84.9504 177.395 84.7211C177.514 84.4917 177.677 84.288 177.875 84.1217C178.072 83.9554 178.301 83.8297 178.547 83.7519C178.794 83.6741 179.053 83.6456 179.31 83.6681L225.501 87.6378C225.76 87.659 226.013 87.7313 226.243 87.8507C226.474 87.9701 226.679 88.134 226.846 88.3332C227.013 88.5323 227.139 88.7625 227.216 89.0106C227.293 89.2587 227.32 89.5196 227.296 89.7783Z" fill="#3BC90C"></path><mask id="mask2_1656_4153" style="mask-type:luminance" maskUnits="userSpaceOnUse" x="174" y="83" width="54" height="38"><path d="M227.294 89.7783L224.617 120.882L174.504 116.558L177.181 85.4584C177.202 85.201 177.275 84.9504 177.394 84.7211C177.512 84.4917 177.675 84.288 177.873 84.1217C178.07 83.9554 178.299 83.8297 178.545 83.7519C178.792 83.6741 179.051 83.6456 179.308 83.6681L225.5 87.6378C225.759 87.659 226.011 87.7313 226.241 87.8507C226.472 87.9701 226.677 88.134 226.844 88.3332C227.011 88.5323 227.137 88.7625 227.214 89.0106C227.291 89.2587 227.318 89.5196 227.294 89.7783Z" fill="white"></path></mask><g mask="url(#mask2_1656_4153)"><path opacity="0.3" d="M227.294 89.7783L224.617 120.882L174.504 116.558L177.181 85.4584C177.202 85.201 177.275 84.9504 177.394 84.7211C177.512 84.4917 177.675 84.288 177.873 84.1217C178.07 83.9554 178.299 83.8297 178.545 83.7519C178.792 83.6741 179.051 83.6456 179.308 83.6681L225.5 87.6378C225.759 87.659 226.011 87.7313 226.241 87.8507C226.472 87.9701 226.677 88.134 226.844 88.3332C227.011 88.5323 227.137 88.7625 227.214 89.0106C227.291 89.2587 227.318 89.5196 227.294 89.7783Z" fill="#3BC90C"></path></g><path d="M227.296 89.7783L224.619 120.882L174.506 116.558L177.183 85.4584C177.204 85.201 177.277 84.9504 177.395 84.7211C177.514 84.4917 177.677 84.288 177.875 84.1217C178.072 83.9554 178.301 83.8297 178.547 83.7519C178.794 83.6741 179.053 83.6456 179.31 83.6681L225.501 87.6378C225.76 87.659 226.013 87.7313 226.243 87.8507C226.474 87.9701 226.679 88.134 226.846 88.3332C227.013 88.5323 227.139 88.7625 227.216 89.0106C227.293 89.2587 227.32 89.5196 227.296 89.7783Z" stroke="#032100" stroke-width="0.5" stroke-linecap="round" stroke-linejoin="round"></path><path d="M227.296 89.779L224.619 120.883L187.431 117.683L190.112 86.5834C190.133 86.326 190.206 86.0754 190.325 85.846C190.443 85.6167 190.606 85.413 190.804 85.2467C191.002 85.0804 191.23 84.9547 191.476 84.8769C191.723 84.7991 191.982 84.7706 192.239 84.7931L225.506 87.6514C225.763 87.6732 226.013 87.7456 226.243 87.8644C226.472 87.9831 226.676 88.146 226.842 88.3437C227.008 88.5413 227.134 88.7698 227.212 89.0161C227.29 89.2624 227.318 89.5217 227.296 89.779Z" fill="#3BC90C" stroke="#032100" stroke-width="0.5" stroke-linecap="round" stroke-linejoin="round"></path><path d="M249.613 160.013C249.613 160.013 247.218 158.305 242.262 158.646C242.262 158.646 241.899 164.592 241.224 166.322C240.55 168.051 236.995 171.048 236.333 171.563C235.672 172.077 235.672 173.872 235.672 173.872H250.729C250.536 171.298 250.135 168.744 249.531 166.235L249.613 160.013Z" fill="white"></path><path d="M249.613 160.013C249.613 160.013 247.218 158.305 242.262 158.646C242.262 158.646 241.899 164.592 241.224 166.322C240.55 168.051 236.995 171.048 236.333 171.563C235.672 172.077 235.672 173.872 235.672 173.872H250.729C250.536 171.298 250.135 168.744 249.531 166.235L249.613 160.013Z" stroke="#032100" stroke-width="0.5" stroke-linecap="round" stroke-linejoin="round"></path><path d="M246.504 160.782C246.504 160.782 246.149 166.256 245.297 167.701C244.842 168.494 244.281 169.222 243.628 169.863" stroke="#032100" stroke-width="0.5" stroke-linecap="round" stroke-linejoin="round"></path><path d="M243.214 170.62C243.214 170.62 242.457 171.562 241.618 171.688C240.779 171.813 236.347 171.562 236.347 171.562L238.154 169.997C238.154 169.997 241.83 169.378 243.214 170.62Z" fill="#3BC90C" stroke="#032100" stroke-width="0.5" stroke-linecap="round" stroke-linejoin="round"></path><path d="M244.778 169.335C244.778 169.335 241.57 167.493 239.282 168.903" stroke="#032100" stroke-width="0.5" stroke-linecap="round" stroke-linejoin="round"></path><path d="M245.553 168.086C245.553 168.086 243.313 166.335 240.671 167.295" stroke="#032100" stroke-width="0.5" stroke-linecap="round" stroke-linejoin="round"></path><path d="M246.503 166.179C246.503 166.179 244.09 164.302 241.548 165.495" stroke="#032100" stroke-width="0.5" stroke-linecap="round" stroke-linejoin="round"></path><path d="M246.833 163.796C246.833 163.796 243.906 162.222 241.778 163.416" stroke="#032100" stroke-width="0.5" stroke-linecap="round" stroke-linejoin="round"></path><path d="M250.724 173.872V174.983H248.994C248.994 174.983 247.511 174.118 246.101 174.983H237.98C237.122 174.98 236.275 174.79 235.498 174.425L235.667 173.872H250.724Z" fill="#3BC90C" stroke="#032100" stroke-width="0.5" stroke-linecap="round" stroke-linejoin="round"></path><path d="M248.567 159.662L248.182 162.088C248.182 162.088 243.663 160.622 241.168 161.573V158.59C241.168 158.59 245.808 156.964 248.567 159.662Z" fill="#3BC90C" stroke="#032100" stroke-width="0.5" stroke-linecap="round" stroke-linejoin="round"></path><path d="M253.453 99.2223C253.453 99.2223 243.849 101.103 234.426 98.0504C232.281 97.3668 230.228 96.4198 228.316 95.2311C228.316 95.2311 228.342 94.6257 228.359 93.6354C228.437 89.7696 228.416 80.0444 226.379 77.6358C225.082 76.118 224.065 66.7344 226.569 61.9907L234.227 55.833C244.83 57.9043 247.07 60.7107 248.822 66.7647C249.146 67.8717 249.449 69.0868 249.786 70.4273C250.153 71.8889 250.499 73.6748 250.828 75.6164C252.419 85.2853 253.453 99.2223 253.453 99.2223Z" fill="#3BC90C"></path><path d="M253.453 99.2223C253.453 99.2223 243.849 101.103 234.426 98.0504C232.281 97.3668 230.228 96.4198 228.316 95.2311C228.316 95.2311 228.342 94.6257 228.359 93.6354C228.437 89.7696 228.416 80.0444 226.379 77.6358C225.082 76.118 224.065 66.7344 226.569 61.9907L234.227 55.833C244.83 57.9043 247.07 60.7107 248.822 66.7647C249.146 67.8717 249.449 69.0868 249.786 70.4273C250.153 71.8889 250.499 73.6748 250.828 75.6164C252.419 85.2853 253.453 99.2223 253.453 99.2223Z" stroke="#032100" stroke-width="0.5" stroke-linecap="round" stroke-linejoin="round"></path><path d="M234.564 47.7515C234.564 47.7515 231.183 52.5946 235.68 56.374C235.68 56.374 230.223 62.4971 228.428 61.6539C227.671 61.2993 228.428 59.0896 228.428 59.0896L225.263 53.2346L234.564 47.7515Z" fill="white" stroke="#032100" stroke-width="0.5" stroke-linecap="round" stroke-linejoin="round"></path><path d="M233.462 50.2591C234.517 45.6451 234.011 38.7739 227.546 39.3837C223.015 39.8161 219.784 42.3241 221.06 48.404C221.592 50.9683 222.029 54.6006 224.381 57.8784C225.034 58.7865 231.866 55.5736 231.451 52.9747" fill="white"></path><path d="M233.462 50.2591C234.517 45.6451 234.011 38.7739 227.546 39.3837C223.015 39.8161 219.784 42.3241 221.06 48.404C221.592 50.9683 222.029 54.6006 224.381 57.8784C225.034 58.7865 231.866 55.5736 231.451 52.9747" stroke="#032100" stroke-width="0.5" stroke-linecap="round" stroke-linejoin="round"></path><path d="M224.213 47.3753C224.669 47.1988 225.16 47.1314 225.646 47.1788C226.133 47.2261 226.602 47.3867 227.015 47.6477" stroke="#032100" stroke-width="0.5" stroke-linecap="round" stroke-linejoin="round"></path><path d="M220.961 47.9414C221.044 47.7643 221.188 47.6231 221.367 47.5437C221.545 47.4643 221.747 47.4519 221.934 47.5089" stroke="#032100" stroke-width="0.5" stroke-linecap="round" stroke-linejoin="round"></path><path d="M222.578 48.9014C222.578 48.9014 221.247 51.3273 221.242 51.6732C221.238 52.0191 222.881 52.1359 222.881 52.1359" fill="white"></path><path d="M222.578 48.9014C222.578 48.9014 221.247 51.3273 221.242 51.6732C221.238 52.0191 222.881 52.1359 222.881 52.1359" stroke="#032100" stroke-width="0.5" stroke-linecap="round" stroke-linejoin="round"></path><path d="M225.44 49.3943C225.44 49.6581 225.324 49.8743 225.159 49.883C224.995 49.8916 224.857 49.6754 224.848 49.4116C224.839 49.1478 224.965 48.9316 225.129 48.9273C225.293 48.923 225.432 49.1392 225.44 49.3943Z" fill="#032100"></path><path d="M223.56 53.8999C223.56 53.8999 226.115 53.4199 226.587 52.5205" stroke="#032100" stroke-width="0.5" stroke-linecap="round" stroke-linejoin="round"></path><path d="M220.943 44.2051L222.932 43.6257C222.932 43.6257 225.721 42.3284 226.313 42.5101C226.906 42.6917 228.108 44.5381 228.069 45.5932C228.069 45.5932 229.946 47.2451 230.184 49.6407L230.754 49.3813C230.754 49.3813 230.724 47.2191 231.952 47.2754C233.18 47.3316 233.734 48.8018 233.652 49.2645C233.569 49.7272 232.225 51.6471 232.225 51.6471C232.225 51.6471 235.303 51.1888 235.403 45.1608C235.502 39.1328 228.895 38.1512 225.682 38.3977C224.055 38.5536 222.421 38.6142 220.787 38.5793L220.969 40.309L219.671 40.6506L220.649 41.8484L219.576 42.3371L220.943 44.2051Z" fill="#032100"></path><path d="M232.083 109.934C232.083 109.934 239.91 112.005 242.029 117.834" stroke="white" stroke-width="0.5" stroke-linecap="round" stroke-linejoin="round"></path><path d="M235.667 113.068C235.667 113.068 231.438 120.113 224.965 123.771" stroke="white" stroke-width="0.5" stroke-linecap="round" stroke-linejoin="round"></path><path d="M229.722 152.683C229.722 152.683 232.126 152.143 232.783 151.208" stroke="white" stroke-width="0.5" stroke-linecap="round" stroke-linejoin="round"></path><path d="M243.11 153.578C243.11 153.578 245.463 152.358 247.806 153.578" stroke="white" stroke-width="0.5" stroke-linecap="round" stroke-linejoin="round"></path><path d="M250.724 120.783C250.724 120.783 246.776 131.01 244.778 131.957" stroke="white" stroke-width="0.5" stroke-linecap="round" stroke-linejoin="round"></path><path d="M233.436 104.766C233.544 105.877 238.192 111.028 242.028 113.069" stroke="white" stroke-width="0.5" stroke-linecap="round" stroke-linejoin="round"></path><path d="M237.401 100.42C237.961 101.799 238.077 103.318 237.734 104.766C237.361 106.016 237.361 107.347 237.734 108.597" stroke="white" stroke-width="0.5" stroke-linecap="round" stroke-linejoin="round"></path><path d="M228.944 79.1538C228.944 79.1538 236.222 88.572 244.045 91.6638" stroke="#032100" stroke-width="0.5" stroke-linecap="round" stroke-linejoin="round"></path><path d="M236.477 63.9282C236.477 63.9282 236.451 70.3324 241.069 73.221" stroke="#032100" stroke-width="0.5" stroke-linecap="round" stroke-linejoin="round"></path><path d="M239.076 73.2731C238.099 74.2331 239.162 86.2804 239.162 86.2804C239.162 86.2804 233.485 88.503 231.707 89.9343C229.93 91.3657 221.511 94.6521 221.511 94.6521C221.511 94.6521 220.214 99.0714 221.831 99.2228C223.448 99.3741 240.196 93.6661 244.027 91.664C244.027 91.664 246.522 76.9616 246.505 73.2212" fill="white"></path><path d="M239.076 73.2731C238.099 74.2331 239.162 86.2804 239.162 86.2804C239.162 86.2804 233.485 88.503 231.707 89.9343C229.93 91.3657 221.511 94.6521 221.511 94.6521C221.511 94.6521 220.214 99.0714 221.831 99.2228C223.448 99.3741 240.196 93.6661 244.027 91.664C244.027 91.664 246.522 76.9616 246.505 73.2212" stroke="#032100" stroke-width="0.5" stroke-linecap="round" stroke-linejoin="round"></path><path d="M222.176 94.3881C221.397 94.2411 220.014 93.7309 219.287 93.8995C218.561 94.0681 217.233 94.8681 215.867 95.1968C214.5 95.5254 215.067 96.0616 215.867 96.2216C216.452 96.3191 217.05 96.3191 217.635 96.2216L216.524 97.307C215.888 97.6514 215.231 97.9562 214.557 98.2194C214.154 98.2194 212.732 98.6043 212.827 99.2097C212.922 99.815 213.739 99.7458 214.652 99.7804C214.652 99.7804 213.199 100.07 213.354 100.896C213.45 101.463 215.084 100.952 215.919 100.952C215.919 100.952 215.235 101.696 215.746 101.925C216.256 102.154 217.389 101.584 217.389 101.584C217.389 101.584 217.346 102.198 217.856 102.258C218.366 102.319 219.65 101.826 220.524 101.298C221.384 100.744 222.207 100.134 222.989 99.4734C223.319 99.1711 223.698 98.9257 224.109 98.747" fill="white"></path><path d="M222.176 94.3881C221.397 94.2411 220.014 93.7309 219.287 93.8995C218.561 94.0681 217.233 94.8681 215.867 95.1968C214.5 95.5254 215.067 96.0616 215.867 96.2216C216.452 96.3191 217.05 96.3191 217.635 96.2216L216.524 97.307C215.888 97.6514 215.231 97.9562 214.557 98.2194C214.154 98.2194 212.732 98.6043 212.827 99.2097C212.922 99.815 213.739 99.7458 214.652 99.7804C214.652 99.7804 213.199 100.07 213.354 100.896C213.45 101.463 215.084 100.952 215.919 100.952C215.919 100.952 215.235 101.696 215.746 101.925C216.256 102.154 217.389 101.584 217.389 101.584C217.389 101.584 217.346 102.198 217.856 102.258C218.366 102.319 219.65 101.826 220.524 101.298C221.384 100.744 222.207 100.134 222.989 99.4734C223.319 99.1711 223.698 98.9257 224.109 98.747" stroke="#032100" stroke-width="0.5" stroke-linecap="round" stroke-linejoin="round"></path><path d="M214.673 99.7973C215.075 99.7755 215.475 99.7293 215.871 99.6589C216.212 99.5724 216.554 99.46 216.554 99.46" stroke="#032100" stroke-width="0.5" stroke-linecap="round" stroke-linejoin="round"></path><path d="M215.923 100.97C216.445 100.896 216.949 100.723 217.406 100.459" stroke="#032100" stroke-width="0.5" stroke-linecap="round" stroke-linejoin="round"></path><path d="M217.393 101.601C217.779 101.552 218.149 101.415 218.474 101.199" stroke="#032100" stroke-width="0.5" stroke-linecap="round" stroke-linejoin="round"></path><path d="M216.662 97.6357C216.662 97.6357 216.35 98.3492 216.662 98.7471C216.973 99.1449 217.349 99.1795 217.406 99.6119C217.462 100.044 218.206 100.044 218.474 100.325C218.742 100.606 218.945 101.147 219.801 101.19" stroke="#032100" stroke-width="0.5" stroke-linecap="round" stroke-linejoin="round"></path><path d="M238.712 60.7803C235.767 67.4439 238.712 76.6891 238.712 76.6891C238.712 76.6891 245.838 79.1107 246.496 78.0685C247.153 77.0264 248.355 71.9152 248.558 69.5541" fill="#3BC90C"></path><path d="M238.712 60.7803C235.767 67.4439 238.712 76.6891 238.712 76.6891C238.712 76.6891 245.838 79.1107 246.496 78.0685C247.153 77.0264 248.355 71.9152 248.558 69.5541" stroke="#032100" stroke-width="0.5" stroke-linecap="round" stroke-linejoin="round"></path><path d="M246.503 70.2935C246.503 70.2935 243.476 74.4577 241.067 74.5139" stroke="#032100" stroke-width="0.5" stroke-linecap="round" stroke-linejoin="round"></path><path d="M138.313 174.983C138.313 174.983 137.574 172.159 138.438 171.112C139.986 169.236 138.248 167.653 139.805 167.009L140.458 167.766C140.583 167 140.22 164.661 143.109 164.358C146.603 163.99 146.667 166.52 146.858 167.385L146.797 166.213C148.289 166.213 147.515 167.701 149.772 170.131C150.364 170.787 150.814 171.558 151.096 172.395C151.377 173.233 151.483 174.12 151.407 175L138.313 174.983Z" fill="#032100"></path><path d="M164.945 174.983C163.54 174.356 164.828 169.055 164.828 169.055C164.828 169.055 162.938 167.788 164.828 166.46C165.559 167.079 166.445 167.487 167.391 167.64C168.337 167.792 169.306 167.683 170.195 167.325C170.195 167.325 170.562 163.779 172.789 164.233C172.789 164.233 173.36 166.482 174.661 167.766C178.186 171.225 182.739 171.658 183.5 173.318C183.729 173.82 183.453 174.966 183.453 174.966L164.945 174.983Z" fill="#032100"></path><path d="M158.939 90.435L160.669 94.102C160.669 94.102 167.821 108.882 172.202 125.807C172.306 126.209 174.571 134.226 172.755 154.191L173.793 157.694L172.66 163.48C172.66 163.48 174.364 165.94 174.303 166.745C174.303 166.745 170.1 167.527 168.682 168.28C167.592 168.868 164.319 172.098 164.319 172.098C163.389 171.908 163.307 168.154 163.307 168.154C163.307 168.154 161.365 134.828 160.807 133.392C160.25 131.956 156.842 125.764 151.523 111.593C151.523 111.593 151.402 131.385 149.984 136.393C148.717 140.847 150.217 153.314 150.217 153.314L149.353 167.19C149.353 167.19 152.345 170.299 149.919 171.134C149.919 171.134 148.297 168.016 143.679 167.307C141.331 166.944 138.408 171.112 138.408 171.112C137.379 170.784 138.84 165.547 138.84 165.547C135.567 140.847 137.976 145.318 137.327 133.245C136.894 125.496 134.711 92.3463 137.288 89.6523L158.939 90.435Z" fill="white"></path><path d="M158.939 90.435L160.669 94.102C160.669 94.102 167.821 108.882 172.202 125.807C172.306 126.209 174.571 134.226 172.755 154.191L173.793 157.694L172.66 163.48C172.66 163.48 174.364 165.94 174.303 166.745C174.303 166.745 170.1 167.527 168.682 168.28C167.592 168.868 164.319 172.098 164.319 172.098C163.389 171.908 163.307 168.154 163.307 168.154C163.307 168.154 161.365 134.828 160.807 133.392C160.25 131.956 156.842 125.764 151.523 111.593C151.523 111.593 151.402 131.385 149.984 136.393C148.717 140.847 150.217 153.314 150.217 153.314L149.353 167.19C149.353 167.19 152.345 170.299 149.919 171.134C149.919 171.134 148.297 168.016 143.679 167.307C141.331 166.944 138.408 171.112 138.408 171.112C137.379 170.784 138.84 165.547 138.84 165.547C135.567 140.847 137.976 145.318 137.327 133.245C136.894 125.496 134.711 92.3463 137.288 89.6523L158.939 90.435Z" stroke="#032100" stroke-width="0.5" stroke-linecap="round" stroke-linejoin="round"></path><path d="M151.54 111.594C151.54 111.594 154.182 106.496 156.435 105.073" stroke="#032100" stroke-width="0.5" stroke-linecap="round" stroke-linejoin="round"></path><path d="M157.43 103.421C157.43 103.421 149.404 105.864 146.619 106.335" stroke="#032100" stroke-width="0.5" stroke-linecap="round" stroke-linejoin="round"></path><path d="M153.322 95.231C153.668 101.912 156.025 103.049 153.755 104.506C153.755 104.506 153.819 107.633 152.687 109.613" stroke="#032100" stroke-width="0.5" stroke-linecap="round" stroke-linejoin="round"></path><path d="M139.26 92.6758C139.26 92.6758 140.207 102.946 137.046 104.879" stroke="#032100" stroke-width="0.5" stroke-linecap="round" stroke-linejoin="round"></path><path d="M137.046 95.9878C137.046 95.9878 136.808 102.824 137.046 108.333C137.046 108.333 137.837 131.619 138.629 134.543C139.42 137.466 137.409 141.894 137.582 154.529" stroke="#032100" stroke-width="0.5" stroke-linecap="round" stroke-linejoin="round"></path><path d="M144.622 164.418C143.873 164.255 143.092 164.36 142.412 164.712" stroke="#032100" stroke-width="0.5" stroke-linecap="round" stroke-linejoin="round"></path><path d="M149.378 167.191C148.387 166.226 147.237 165.437 145.979 164.86" stroke="#032100" stroke-width="0.5" stroke-linecap="round" stroke-linejoin="round"></path><path d="M148.082 113.207C146.309 115.196 143.498 118.945 140.618 119.26" stroke="#032100" stroke-width="0.5" stroke-linecap="round" stroke-linejoin="round"></path><path d="M150.793 109.973C150.248 110.66 149.686 111.335 149.115 112.005" stroke="#032100" stroke-width="0.5" stroke-linecap="round" stroke-linejoin="round"></path><path d="M148.267 133.245C148.267 133.245 144.237 138.733 142.027 139.048" stroke="#032100" stroke-width="0.5" stroke-linecap="round" stroke-linejoin="round"></path><path d="M153.008 110.604C153.008 110.604 160.186 130.595 162.681 132.567C162.681 132.567 162.962 147.269 163.044 152.402C163.127 157.535 164.307 164.358 164.307 164.358" stroke="#032100" stroke-width="0.5" stroke-linecap="round" stroke-linejoin="round"></path><path d="M171.969 164.211C171.969 164.211 169.206 165.167 167.861 165.776C167.035 166.179 166.388 166.874 166.045 167.727" stroke="#032100" stroke-width="0.5" stroke-linecap="round" stroke-linejoin="round"></path><path d="M164.976 125.358C161.123 122.941 156.042 119.918 153.992 115.659" stroke="#032100" stroke-width="0.5" stroke-linecap="round" stroke-linejoin="round"></path><path d="M168.335 127.351C167.604 126.949 166.886 126.53 166.173 126.097" stroke="#032100" stroke-width="0.5" stroke-linecap="round" stroke-linejoin="round"></path><path d="M156.193 97.934C154.122 97.9038 151.869 97.6313 150.083 96.4595" stroke="#032100" stroke-width="0.5" stroke-linecap="round" stroke-linejoin="round"></path><path d="M159.485 97.7388C158.893 97.8209 158.296 97.8728 157.699 97.9031" stroke="#032100" stroke-width="0.5" stroke-linecap="round" stroke-linejoin="round"></path><path d="M163.328 51.8332C161.746 49.4376 153.681 48.8279 148.505 48.8279C143.329 48.8279 137.046 47.9631 134.209 53.8008C132.047 58.259 137.028 81.8347 137.028 81.8347L135.809 92.014C145.184 94.9544 161.244 94.3058 161.244 94.3058L159.082 85.1039C159.082 85.1039 164.911 54.2245 163.328 51.8332Z" fill="#032100"></path><path d="M145.431 42.9082C145.431 42.9082 146.127 48.4562 144.017 49.654C144.017 49.654 145.072 53.7231 148.773 53.9782C152.475 54.2334 154.109 50.2594 154.109 50.2594L145.431 42.9082Z" fill="white" stroke="#032100" stroke-width="0.5" stroke-linecap="round" stroke-linejoin="round"></path><path d="M165.046 28.6632L174.519 27.7895C174.734 27.7697 174.948 27.8359 175.114 27.9738C175.279 28.1116 175.384 28.3096 175.403 28.5243L176.027 35.2846L164.952 36.3062L164.329 29.5458C164.309 29.3341 164.373 29.1231 164.507 28.9581C164.641 28.7931 164.835 28.6873 165.046 28.6632Z" fill="#3BC90C"></path><mask id="mask3_1656_4153" style="mask-type:luminance" maskUnits="userSpaceOnUse" x="164" y="27" width="13" height="10"><path d="M165.048 28.6628L174.521 27.789C174.736 27.7692 174.95 27.8355 175.116 27.9733C175.281 28.1111 175.386 28.3091 175.405 28.5238L176.029 35.2842L164.954 36.3057L164.331 29.5454C164.311 29.3336 164.375 29.1226 164.509 28.9576C164.643 28.7927 164.837 28.6868 165.048 28.6628Z" fill="white"></path></mask><g mask="url(#mask3_1656_4153)"><path opacity="0.3" d="M165.048 28.6628L174.521 27.789C174.736 27.7692 174.95 27.8355 175.116 27.9733C175.281 28.1111 175.386 28.3091 175.405 28.5238L176.029 35.2842L164.954 36.3057L164.331 29.5454C164.311 29.3336 164.375 29.1226 164.509 28.9576C164.643 28.7927 164.837 28.6868 165.048 28.6628Z" fill="#3BC90C"></path></g><path d="M165.046 28.6632L174.519 27.7895C174.734 27.7697 174.948 27.8359 175.114 27.9738C175.279 28.1116 175.384 28.3096 175.403 28.5243L176.027 35.2846L164.952 36.3062L164.329 29.5458C164.309 29.3341 164.373 29.1231 164.507 28.9581C164.641 28.7931 164.835 28.6873 165.046 28.6632Z" stroke="#032100" stroke-width="0.5" stroke-linecap="round" stroke-linejoin="round"></path><path d="M181.425 27.1431L190.898 26.2693C191.113 26.2495 191.326 26.3158 191.492 26.4536C191.658 26.5914 191.762 26.7895 191.782 27.0042L192.406 33.7645L181.313 34.7876L180.69 28.0273C180.67 27.8126 180.736 27.5988 180.874 27.433C181.012 27.2672 181.21 27.1629 181.425 27.1431Z" fill="#3BC90C"></path><mask id="mask4_1656_4153" style="mask-type:luminance" maskUnits="userSpaceOnUse" x="180" y="26" width="13" height="9"><path d="M181.428 27.1426L190.901 26.2688C191.115 26.249 191.329 26.3153 191.495 26.4531C191.661 26.5909 191.765 26.789 191.785 27.0037L192.409 33.764L181.316 34.7871L180.693 28.0268C180.673 27.8121 180.739 27.5983 180.877 27.4325C181.015 27.2667 181.213 27.1624 181.428 27.1426Z" fill="white"></path></mask><g mask="url(#mask4_1656_4153)"><path opacity="0.3" d="M181.428 27.1426L190.901 26.2688C191.115 26.249 191.329 26.3153 191.495 26.4531C191.661 26.5909 191.765 26.789 191.785 27.0037L192.409 33.764L181.316 34.7871L180.693 28.0268C180.673 27.8121 180.739 27.5983 180.877 27.4325C181.015 27.2667 181.213 27.1624 181.428 27.1426Z" fill="#3BC90C"></path></g><path d="M181.425 27.1431L190.898 26.2693C191.113 26.2495 191.326 26.3158 191.492 26.4536C191.658 26.5914 191.762 26.7895 191.782 27.0042L192.406 33.7645L181.313 34.7876L180.69 28.0273C180.67 27.8126 180.736 27.5988 180.874 27.433C181.012 27.2672 181.21 27.1629 181.425 27.1431Z" stroke="#032100" stroke-width="0.5" stroke-linecap="round" stroke-linejoin="round"></path><path d="M177.984 27.4581L187.457 26.5843C187.672 26.5645 187.886 26.6308 188.051 26.7686C188.217 26.9064 188.321 27.1045 188.341 27.3192L188.965 34.0795L177.855 35.1042L177.232 28.3439C177.222 28.2361 177.234 28.1274 177.266 28.0242C177.299 27.921 177.352 27.8254 177.422 27.7429C177.492 27.6604 177.578 27.5927 177.674 27.5438C177.771 27.4949 177.876 27.4658 177.984 27.4581Z" fill="#3BC90C" stroke="#032100" stroke-width="0.5" stroke-linecap="round" stroke-linejoin="round"></path><path d="M194.348 25.9483L203.821 25.0745C204.035 25.0547 204.249 25.121 204.415 25.2588C204.581 25.3966 204.685 25.5946 204.705 25.8093L205.328 32.5697L194.236 33.5928L193.613 26.8325C193.593 26.6178 193.659 26.404 193.797 26.2382C193.935 26.0724 194.133 25.9681 194.348 25.9483Z" fill="#3BC90C" stroke="#032100" stroke-width="0.5" stroke-linecap="round" stroke-linejoin="round"></path><path d="M210.009 30.5492L212.88 61.6317L162.784 66.2587L159.93 35.1675C159.882 34.648 160.042 34.1306 160.376 33.7292C160.709 33.3278 161.188 33.0752 161.708 33.027L207.873 28.7676C208.13 28.7438 208.39 28.7711 208.637 28.8478C208.883 28.9246 209.113 29.0493 209.311 29.2148C209.51 29.3803 209.673 29.5834 209.793 29.8124C209.913 30.0414 209.986 30.2918 210.009 30.5492Z" fill="#3BC90C"></path><mask id="mask5_1656_4153" style="mask-type:luminance" maskUnits="userSpaceOnUse" x="159" y="28" width="54" height="39"><path d="M210.008 30.5492L212.879 61.6317L162.783 66.2587L159.929 35.1675C159.881 34.648 160.041 34.1306 160.375 33.7292C160.708 33.3278 161.187 33.0752 161.707 33.027L207.872 28.7676C208.129 28.7438 208.389 28.7711 208.636 28.8478C208.882 28.9246 209.112 29.0493 209.31 29.2148C209.509 29.3803 209.672 29.5834 209.792 29.8124C209.912 30.0414 209.985 30.2918 210.008 30.5492Z" fill="white"></path></mask><g mask="url(#mask5_1656_4153)"><path opacity="0.3" d="M210.008 30.5492L212.879 61.6317L162.783 66.2587L159.929 35.1675C159.881 34.648 160.041 34.1306 160.375 33.7292C160.708 33.3278 161.187 33.0752 161.707 33.027L207.872 28.7676C208.129 28.7438 208.389 28.7711 208.636 28.8478C208.882 28.9246 209.112 29.0493 209.31 29.2148C209.509 29.3803 209.672 29.5834 209.792 29.8124C209.912 30.0414 209.985 30.2918 210.008 30.5492Z" fill="#3BC90C"></path></g><path d="M210.009 30.5492L212.88 61.6317L162.784 66.2587L159.93 35.1675C159.882 34.648 160.042 34.1306 160.376 33.7292C160.709 33.3278 161.188 33.0752 161.708 33.027L207.873 28.7676C208.13 28.7438 208.39 28.7711 208.637 28.8478C208.883 28.9246 209.113 29.0493 209.311 29.2148C209.51 29.3803 209.673 29.5834 209.793 29.8124C209.913 30.0414 209.986 30.2918 210.009 30.5492Z" stroke="#032100" stroke-width="0.5" stroke-linecap="round" stroke-linejoin="round"></path><path d="M210.008 30.5493L212.879 61.6319L175.691 65.061L172.824 33.9784C172.776 33.4589 172.936 32.9416 173.269 32.5402C173.602 32.1388 174.082 31.8862 174.601 31.838L207.85 28.7678C208.109 28.7409 208.371 28.7659 208.62 28.8413C208.869 28.9166 209.101 29.0408 209.302 29.2066C209.503 29.3725 209.669 29.5766 209.79 29.8071C209.911 30.0376 209.985 30.2899 210.008 30.5493Z" fill="#3BC90C" stroke="#032100" stroke-width="0.5" stroke-linecap="round" stroke-linejoin="round"></path><path d="M151.773 31.9067C151.773 31.9067 144.444 30.4365 143.622 35.1542C142.801 39.8719 145.486 41.8784 145.486 41.8784L151.773 31.9067Z" fill="#032100"></path><path d="M145.487 44.4688C144.65 42.1236 144.519 39.5841 145.111 37.1652C145.829 34.1382 149.435 29.974 154.905 33.7577C157.72 35.7079 157.893 39.9414 157.016 43.8159C156.808 44.7412 156.964 45.645 156.657 46.4969C155.576 49.4806 153.599 51.7768 152.518 51.8287C150.715 51.9195 147.109 49.7357 147.256 47.8331" fill="white"></path><path d="M145.487 44.4688C144.65 42.1236 144.519 39.5841 145.111 37.1652C145.829 34.1382 149.435 29.974 154.905 33.7577C157.72 35.7079 157.893 39.9414 157.016 43.8159C156.808 44.7412 156.964 45.645 156.657 46.4969C155.576 49.4806 153.599 51.7768 152.518 51.8287C150.715 51.9195 147.109 49.7357 147.256 47.8331" stroke="#032100" stroke-width="0.5" stroke-linecap="round" stroke-linejoin="round"></path><path d="M152.791 43.0982C152.791 43.0982 151.334 42.0431 149.933 42.908" stroke="#032100" stroke-width="0.5" stroke-linecap="round" stroke-linejoin="round"></path><path d="M155.541 42.9078C155.541 42.9078 156.644 41.8959 157.362 42.0429" stroke="#032100" stroke-width="0.5" stroke-linecap="round" stroke-linejoin="round"></path><path d="M150.731 44.7153C150.731 44.9834 150.865 45.2039 151.034 45.2039C151.203 45.2039 151.341 44.9834 151.341 44.7153C151.341 44.4472 151.203 44.231 151.034 44.231C150.865 44.231 150.731 44.4472 150.731 44.7153Z" fill="#032100"></path><path d="M155.541 44.9315C155.711 44.9315 155.848 44.7147 155.848 44.4472C155.848 44.1797 155.711 43.9629 155.541 43.9629C155.372 43.9629 155.234 44.1797 155.234 44.4472C155.234 44.7147 155.372 44.9315 155.541 44.9315Z" fill="#032100"></path><path d="M154.922 43.9282C154.385 44.6287 155.138 47.2968 154.922 47.4871C154.705 47.6773 153.33 47.1368 153.33 47.1368C153.33 47.1368 153.01 46.7303 153.681 46.5141" stroke="#032100" stroke-width="0.5" stroke-linecap="round" stroke-linejoin="round"></path><path d="M153.703 48.8274C153.703 48.8274 151.856 48.8274 151.363 48.1528" stroke="#032100" stroke-width="0.5" stroke-linecap="round" stroke-linejoin="round"></path><path d="M149.284 38.834L149.141 41.0653C149.141 41.0653 147.559 41.8826 147.161 42.7128C146.924 43.2566 146.838 43.8539 146.91 44.4425C146.91 44.4425 145.95 42.7647 145.431 42.9031C145.245 42.9507 145.245 43.6555 145.245 43.6555C145.245 43.6555 143.083 38.8297 145.038 36.2784C146.992 33.7271 149.284 38.834 149.284 38.834Z" fill="#3BC90C" stroke="#032100" stroke-width="0.5" stroke-linecap="round" stroke-linejoin="round"></path><path d="M146.234 43.9629C146.234 43.9629 145.802 42.3413 144.345 41.9132C142.887 41.4851 143.886 45.3726 145.127 45.8785C146.368 46.3845 146.68 46.7434 146.753 46.2807" fill="white"></path><path d="M146.234 43.9629C146.234 43.9629 145.802 42.3413 144.345 41.9132C142.887 41.4851 143.886 45.3726 145.127 45.8785C146.368 46.3845 146.68 46.7434 146.753 46.2807" stroke="#032100" stroke-width="0.5" stroke-linecap="round" stroke-linejoin="round"></path><path d="M144.25 38.5535C144.129 38.3892 143.592 34.2293 146.338 32.3612C149.084 30.4931 153.724 30.692 156.677 33.2779C159.631 35.8638 158.792 40.348 156.677 41.8788V40.0064C156.677 40.0064 155.705 41.8831 152.786 42.0388L153.676 40.6637C153.676 40.6637 152.241 41.5286 149.711 41.455C149.711 41.455 150.9 40.508 150.727 39.6648C150.732 39.6648 146.714 41.9264 144.25 38.5535Z" fill="#032100"></path><path d="M144.765 53.5494C142.741 53.7916 139.862 56.4337 141.738 61.1255C142.936 64.1005 152.778 62.3319 152.778 62.3319C156.428 60.8271 161.759 55.4132 165.673 52.9008C165.673 52.9008 164.847 47.7117 163.896 48.4468C159.472 51.8327 155.835 52.0662 149.665 55.0326C149.678 55.0153 146.037 53.3981 144.765 53.5494Z" fill="white" stroke="#032100" stroke-width="0.5" stroke-linecap="round" stroke-linejoin="round"></path><path d="M149.283 59.3096C149.223 61.2468 150.019 61.5884 151.359 62.0468Z" fill="white"></path><path d="M149.283 59.3096C149.223 61.2468 150.019 61.5884 151.359 62.0468" stroke="#032100" stroke-width="0.5" stroke-linecap="round" stroke-linejoin="round"></path><path d="M163.601 48.8273C163.691 48.5462 165.33 45.6662 165.793 44.9354C166.256 44.2047 168.323 43.543 169.123 43.102C169.923 42.6609 169.987 41.9906 170.42 42.4706C170.852 42.9506 170.42 44.0447 168.024 45.2079C168.875 45.2549 169.729 45.2549 170.58 45.2079C171.22 45.1127 171.791 44.5333 172.076 44.9354C172.361 45.3376 172.418 46.0597 170.991 46.5008C170.312 46.7468 169.601 46.8925 168.88 46.9332C169.579 47.0824 170.265 47.2818 170.934 47.53C171.164 47.6986 171.505 48.0921 171.847 48.1527C172.189 48.2132 172.56 48.5851 171.933 49.0175C171.711 49.1404 171.462 49.2071 171.208 49.2116C170.954 49.2161 170.703 49.1584 170.476 49.0435C170.476 49.0435 172.132 49.8434 171.618 50.3407C171.103 50.838 169.456 50.7386 169.456 50.7386C169.456 50.7386 167.012 53.718 164.945 53.0953" fill="white"></path><path d="M163.601 48.8273C163.691 48.5462 165.33 45.6662 165.793 44.9354C166.256 44.2047 168.323 43.543 169.123 43.102C169.923 42.6609 169.987 41.9906 170.42 42.4706C170.852 42.9506 170.42 44.0447 168.024 45.2079C168.875 45.2549 169.729 45.2549 170.58 45.2079C171.22 45.1127 171.791 44.5333 172.076 44.9354C172.361 45.3376 172.418 46.0597 170.991 46.5008C170.312 46.7468 169.601 46.8925 168.88 46.9332C169.579 47.0824 170.265 47.2818 170.934 47.53C171.164 47.6986 171.505 48.0921 171.847 48.1527C172.189 48.2132 172.56 48.5851 171.933 49.0175C171.711 49.1404 171.462 49.2071 171.208 49.2116C170.954 49.2161 170.703 49.1584 170.476 49.0435C170.476 49.0435 172.132 49.8434 171.618 50.3407C171.103 50.838 169.456 50.7386 169.456 50.7386C169.456 50.7386 167.012 53.718 164.945 53.0953" stroke="#032100" stroke-width="0.5" stroke-linecap="round" stroke-linejoin="round"></path><path d="M166.529 44.9316C166.669 44.9641 166.797 45.0346 166.9 45.1353C167.002 45.2361 167.074 45.3631 167.109 45.5024C167.251 46.0127 167.671 46.043 167.926 46.6138C168.181 47.1846 168.108 48.0667 168.358 48.3694C168.609 48.6721 168.358 49.9477 168.358 49.9477" stroke="#032100" stroke-width="0.5" stroke-linecap="round" stroke-linejoin="round"></path><path d="M145.189 53.1825C144.129 51.8334 141.751 52.4431 141.751 52.4431" stroke="white" stroke-width="0.5" stroke-linecap="round" stroke-linejoin="round"></path><path d="M140.454 49.9565C140.454 49.9565 142.902 50.3155 143.624 52.3522" stroke="white" stroke-width="0.5" stroke-linecap="round" stroke-linejoin="round"></path><path d="M144.764 62.8512C144.764 62.8512 142.377 64.6976 138.745 62.0469" stroke="white" stroke-width="0.5" stroke-linecap="round" stroke-linejoin="round"></path><path d="M141.751 63.4087C141.751 63.4087 140.54 65.0822 137.591 65.0605" stroke="white" stroke-width="0.5" stroke-linecap="round" stroke-linejoin="round"></path><path d="M156.919 84.4634C156.919 84.4634 150.675 89.4406 144.331 88.7876" stroke="white" stroke-width="0.5" stroke-linecap="round" stroke-linejoin="round"></path><path d="M140.042 73.5278C140.042 73.5278 149.733 80.6369 156.906 81.0909" stroke="white" stroke-width="0.5" stroke-linecap="round" stroke-linejoin="round"></path><path d="M140.297 126.154C141.964 125.229 143.924 124.984 145.767 125.471C148.928 126.266 157.14 138.011 158.281 139.157C159.423 140.303 161.559 140.886 163.527 142.958C166.64 146.205 171.168 149.077 171.626 149.077C172.084 149.077 172.452 148.791 173.023 148.679C173.593 148.566 178.013 148.164 178.013 148.164C178.013 148.164 179.496 148.493 178.013 149.128C176.53 149.764 176.642 150.331 176.642 150.331C176.642 150.331 176.344 150.811 176.94 151.269C177.537 151.727 177.887 151.477 178.739 152.683C179.591 153.889 177.537 153.206 177.537 153.206C177.537 153.206 177.991 154.503 177.079 154.374C176.166 154.244 176.966 155.641 175.483 155.45C174 155.26 170.826 153.258 170.03 151.161C170.03 151.161 157.084 144.973 155.146 143.377C153.209 141.782 145.054 133.224 144.496 133.112" fill="#032100"></path><path d="M174.169 137.743H183.683C183.898 137.743 184.105 137.828 184.258 137.981C184.41 138.133 184.496 138.34 184.496 138.556V145.345H173.356V138.556C173.356 138.34 173.442 138.133 173.595 137.981C173.747 137.828 173.954 137.743 174.169 137.743Z" fill="#3BC90C"></path><mask id="mask6_1656_4153" style="mask-type:luminance" maskUnits="userSpaceOnUse" x="173" y="137" width="12" height="9"><path d="M174.166 137.744H183.68C183.895 137.744 184.102 137.829 184.255 137.982C184.407 138.134 184.493 138.341 184.493 138.557V145.346H173.354V138.557C173.354 138.341 173.439 138.134 173.592 137.982C173.744 137.829 173.951 137.744 174.166 137.744Z" fill="white"></path></mask><g mask="url(#mask6_1656_4153)"><path opacity="0.3" d="M174.166 137.744H183.68C183.895 137.744 184.102 137.829 184.255 137.982C184.407 138.134 184.493 138.341 184.493 138.557V145.346H173.354V138.557C173.354 138.341 173.439 138.134 173.592 137.982C173.744 137.829 173.951 137.744 174.166 137.744Z" fill="#3BC90C"></path></g><path d="M174.169 137.743H183.683C183.898 137.743 184.105 137.828 184.258 137.981C184.41 138.133 184.496 138.34 184.496 138.556V145.345H173.356V138.556C173.356 138.34 173.442 138.133 173.595 137.981C173.747 137.828 173.954 137.743 174.169 137.743Z" stroke="#032100" stroke-width="0.5" stroke-linecap="round" stroke-linejoin="round"></path><path d="M190.601 137.743H200.114C200.33 137.743 200.537 137.828 200.689 137.981C200.842 138.133 200.927 138.34 200.927 138.556V145.345H189.788V138.556C189.788 138.449 189.809 138.343 189.85 138.245C189.891 138.146 189.951 138.056 190.026 137.981C190.102 137.905 190.191 137.845 190.29 137.805C190.389 137.764 190.494 137.743 190.601 137.743Z" fill="#3BC90C"></path><mask id="mask7_1656_4153" style="mask-type:luminance" maskUnits="userSpaceOnUse" x="189" y="137" width="12" height="9"><path d="M190.6 137.743H200.113C200.329 137.743 200.536 137.829 200.688 137.981C200.841 138.134 200.926 138.341 200.926 138.556V145.345H189.787V138.556C189.787 138.449 189.808 138.344 189.849 138.245C189.89 138.146 189.95 138.057 190.025 137.981C190.101 137.906 190.19 137.846 190.289 137.805C190.388 137.764 190.493 137.743 190.6 137.743Z" fill="white"></path></mask><g mask="url(#mask7_1656_4153)"><path opacity="0.3" d="M190.6 137.743H200.113C200.329 137.743 200.536 137.829 200.688 137.981C200.841 138.134 200.926 138.341 200.926 138.556V145.345H189.787V138.556C189.787 138.449 189.808 138.344 189.849 138.245C189.89 138.146 189.95 138.057 190.025 137.981C190.101 137.906 190.19 137.846 190.289 137.805C190.388 137.764 190.493 137.743 190.6 137.743Z" fill="#3BC90C"></path></g><path d="M190.601 137.743H200.114C200.33 137.743 200.537 137.828 200.689 137.981C200.842 138.133 200.927 138.34 200.927 138.556V145.345H189.788V138.556C189.788 138.449 189.809 138.343 189.85 138.245C189.891 138.146 189.951 138.056 190.026 137.981C190.102 137.905 190.191 137.845 190.29 137.805C190.389 137.764 190.494 137.743 190.601 137.743Z" stroke="#032100" stroke-width="0.5" stroke-linecap="round" stroke-linejoin="round"></path><path d="M187.141 137.743H196.654C196.87 137.743 197.077 137.828 197.229 137.981C197.382 138.133 197.467 138.34 197.467 138.556V145.345H186.328V138.556C186.328 138.449 186.349 138.343 186.39 138.245C186.431 138.146 186.491 138.056 186.566 137.981C186.642 137.905 186.731 137.845 186.83 137.805C186.929 137.764 187.034 137.743 187.141 137.743Z" fill="#3BC90C" stroke="#032100" stroke-width="0.5" stroke-linecap="round" stroke-linejoin="round"></path><path d="M203.573 137.743H213.086C213.302 137.743 213.508 137.828 213.661 137.981C213.813 138.133 213.899 138.34 213.899 138.556V145.345H202.76V138.556C202.76 138.34 202.845 138.133 202.998 137.981C203.15 137.828 203.357 137.743 203.573 137.743Z" fill="#3BC90C" stroke="#032100" stroke-width="0.5" stroke-linecap="round" stroke-linejoin="round"></path><path d="M218.747 143.763V174.98H168.452V143.763C168.452 143.241 168.659 142.741 169.028 142.372C169.397 142.003 169.898 141.795 170.42 141.795H216.78C217.302 141.795 217.802 142.003 218.171 142.372C218.54 142.741 218.747 143.241 218.747 143.763Z" fill="#3BC90C"></path><mask id="mask8_1656_4153" style="mask-type:luminance" maskUnits="userSpaceOnUse" x="168" y="141" width="51" height="34"><path d="M218.748 143.762V174.979H168.453V143.762C168.453 143.241 168.66 142.74 169.029 142.371C169.398 142.002 169.899 141.795 170.421 141.795H216.781C217.303 141.795 217.803 142.002 218.172 142.371C218.541 142.74 218.748 143.241 218.748 143.762Z" fill="white"></path></mask><g mask="url(#mask8_1656_4153)"><path opacity="0.3" d="M218.748 143.762V174.979H168.453V143.762C168.453 143.241 168.66 142.74 169.029 142.371C169.398 142.002 169.899 141.795 170.421 141.795H216.781C217.303 141.795 217.803 142.002 218.172 142.371C218.541 142.74 218.748 143.241 218.748 143.762Z" fill="#3BC90C"></path></g><path d="M218.747 143.763V174.98H168.452V143.763C168.452 143.241 168.659 142.741 169.028 142.372C169.397 142.003 169.898 141.795 170.42 141.795H216.78C217.302 141.795 217.802 142.003 218.171 142.372C218.54 142.741 218.747 143.241 218.747 143.763Z" stroke="#032100" stroke-width="0.5" stroke-linecap="round" stroke-linejoin="round"></path><path d="M218.747 143.763V174.98H181.425V143.763C181.425 143.241 181.632 142.741 182.001 142.372C182.37 142.003 182.871 141.795 183.392 141.795H216.78C217.302 141.795 217.802 142.003 218.171 142.372C218.54 142.741 218.747 143.241 218.747 143.763Z" fill="#3BC90C" stroke="#032100" stroke-width="0.5" stroke-linecap="round" stroke-linejoin="round"></path><path d="M157.161 174.979C154.567 174.979 150.922 173.31 146.723 171.545C142.368 169.712 137.408 167.775 132.375 167.485C130.498 167.377 131.635 174.979 131.635 174.979H127.527C127.527 174.979 123.471 169.565 123 164.717C123 164.717 126.312 162.672 127.108 162.555C127.382 162.527 127.658 162.514 127.934 162.516C128.825 162.516 130.014 162.555 130.014 162.555C129.824 162.443 126.792 160.618 125.119 158.763C123.739 157.232 123.108 154.815 123.061 153.371C123.114 152.414 123.219 151.462 123.376 150.517L144.963 150.876C144.963 150.876 145.196 151.04 145.611 151.347C148.115 153.172 157.265 159.969 161.84 165.094C163.319 166.75 164.318 168.229 164.465 169.31C165.153 174.296 161.075 174.979 157.161 174.979Z" fill="white" stroke="#032100" stroke-width="0.5" stroke-linecap="round" stroke-linejoin="round"></path><path d="M161.845 165.085L151.345 167.485C149.545 168.514 147.97 169.895 146.714 171.545C142.36 169.712 137.4 167.774 132.366 167.485C130.49 167.376 131.627 174.978 131.627 174.978H127.519C127.519 174.978 123.471 169.565 123 164.717C123 164.717 126.823 170.166 127.757 172.933C127.757 172.933 129.24 167.813 131.648 165.759C130.561 164.534 129.324 163.449 127.969 162.529C128.859 162.529 130.048 162.568 130.048 162.568C129.858 162.456 126.827 160.631 125.153 158.776C123.774 157.245 123.216 154.823 123.095 153.383C123.035 152.674 123.121 150.529 123.121 150.529C123.121 150.529 139.22 152.825 145.646 151.36C148.119 153.176 157.27 159.96 161.845 165.085Z" fill="#032100"></path><path d="M144.967 164.717C144.967 164.717 153.52 169.003 155.803 170.68C158.087 172.358 158.765 171.904 158.765 171.904" stroke="#032100" stroke-width="0.5" stroke-linecap="round" stroke-linejoin="round"></path><path d="M125.124 164.263C125.124 164.263 127.178 167.398 127.286 168.337" stroke="#032100" stroke-width="0.5" stroke-linecap="round" stroke-linejoin="round"></path><path d="M159.527 104.087C159.527 104.087 164.08 102.107 163.648 110.53C163.216 118.954 164.759 119.386 164.759 119.386C164.759 119.386 153.3 124.091 150.39 120.07C147.48 116.048 150.243 105.043 159.527 104.087Z" fill="#032100"></path><path d="M158.891 119.387C158.891 119.387 154.178 121.609 153.75 123.663C153.322 125.717 147.419 122.626 147.419 122.626L151.696 116.477L158.891 119.387Z" fill="white" stroke="#032100" stroke-width="0.5" stroke-linecap="round" stroke-linejoin="round"></path><path d="M127.985 141.933C117.175 155.701 125.949 162.343 138.204 161.245L135.747 165.137L141.914 166.205C141.914 166.205 146.64 163.117 153.083 159.818C164.05 154.197 168.482 154.534 167.353 148.908C166.225 143.282 152.785 139.633 139.311 145.561C139.298 145.557 131.981 136.865 127.985 141.933Z" fill="white" stroke="#032100" stroke-width="0.5" stroke-linecap="round" stroke-linejoin="round"></path><path d="M131.756 171.904C131.756 171.904 134.571 164.121 135.747 163.688C136.923 163.256 141.369 164.942 141.914 166.196C141.914 166.196 143.414 163.896 144.028 164.873C144.642 165.85 143.756 167.468 144.028 168.704C144.301 169.941 147.341 171.671 148.556 171.9C149.771 172.129 150.463 172.812 150.463 173.496V174.979H131.756C131.548 174.493 131.441 173.97 131.441 173.442C131.441 172.913 131.548 172.39 131.756 171.904Z" fill="white" stroke="#032100" stroke-width="0.5" stroke-linecap="round" stroke-linejoin="round"></path><path d="M144.028 167.485C144.028 167.485 141.551 168.709 140.647 168.35C139.743 167.991 141.109 170.404 141.451 170.633C141.793 170.862 144.046 169.833 144.046 169.833" stroke="#032100" stroke-width="0.5" stroke-linecap="round" stroke-linejoin="round"></path><path d="M134.097 166.201C134.097 166.201 137.461 166.266 138.486 167.498" stroke="#032100" stroke-width="0.5" stroke-linecap="round" stroke-linejoin="round"></path><path d="M131.757 171.905C131.757 171.905 137.119 173.159 137.573 173.159C138.31 173.012 139.034 172.803 139.735 172.532C139.735 172.532 141.205 173.271 142.183 173.73C143.16 174.188 149.534 173.73 149.534 173.73" stroke="#032100" stroke-width="0.5" stroke-linecap="round" stroke-linejoin="round"></path><path d="M138.204 161.253C143.324 160.7 153.27 154.391 156.729 152.199C160.188 150.006 161.053 150.581 161.053 150.581" stroke="#032100" stroke-width="0.5" stroke-linecap="round" stroke-linejoin="round"></path><path d="M123.09 150.508L123.907 144.303L125.879 142.815C129.075 135.062 143.552 120.58 147.5 120.628C153.429 120.697 154.475 126.919 155.206 133.73C155.937 140.541 146.7 139.516 146.7 139.516V141.224L141.446 143.944L144.629 143.844C144.629 143.844 135.474 152.744 123.09 150.508Z" fill="#3BC90C" stroke="#032100" stroke-width="0.5" stroke-linecap="round" stroke-linejoin="round"></path><path d="M148.751 108.636C149.992 104.744 155.67 103.707 157.711 104.342C159.386 104.996 160.759 106.249 161.564 107.858C162.083 108.978 160.997 110.958 161.771 112.113C162.878 113.769 162.783 117.263 162.385 119.464C162.169 120.632 157.313 121.323 153.343 118.599C149.08 115.65 147.549 112.381 148.751 108.636Z" fill="white" stroke="#032100" stroke-width="0.5" stroke-linecap="round" stroke-linejoin="round"></path><path d="M154.49 103.179C154.49 103.179 159.489 102.366 159.523 103.65C159.744 112.182 154.628 113.972 154.628 113.972C154.628 113.972 152.54 112.307 152.072 113.449C151.605 114.591 152.808 117.747 154.287 117.812C153.946 118.342 153.759 118.956 153.749 119.585C153.738 120.215 153.903 120.835 154.226 121.375C154.226 121.375 145.759 122.789 145.059 118.867C145.386 117.504 145.62 116.12 145.759 114.725C146.308 109.229 145.024 105.531 154.49 103.179Z" fill="#032100"></path><path d="M161.166 111.875C162.208 112.813 162.956 112.813 162.943 113.151C162.904 114.201 161.646 114.725 161.646 114.725" fill="white"></path><path d="M161.166 111.875C162.208 112.813 162.956 112.813 162.943 113.151C162.904 114.201 161.646 114.725 161.646 114.725" stroke="#032100" stroke-width="0.5" stroke-linecap="round" stroke-linejoin="round"></path><path d="M161.62 116.477C160.883 116.726 160.089 116.745 159.341 116.533" stroke="#032100" stroke-width="0.5" stroke-linecap="round" stroke-linejoin="round"></path><path d="M158.847 106.639C158.847 106.639 162.173 105.675 161.563 111.071C161.563 111.071 162.947 109.19 162.942 107.076C162.942 103.413 158.043 104.148 158.043 104.148L158.683 106.743" fill="#032100"></path><path d="M161.871 109.281C161.745 109.197 161.603 109.14 161.455 109.112C161.306 109.085 161.153 109.088 161.006 109.121" stroke="#032100" stroke-width="0.5" stroke-linecap="round" stroke-linejoin="round"></path><path d="M159.63 109.22C159.63 109.22 157.844 109.324 157.07 110.517" stroke="#032100" stroke-width="0.5" stroke-linecap="round" stroke-linejoin="round"></path><path d="M159.203 112.061C159.228 112.346 159.107 112.593 158.93 112.61C158.753 112.627 158.588 112.407 158.558 112.121C158.528 111.836 158.653 111.59 158.831 111.572C159.008 111.555 159.177 111.775 159.203 112.061Z" fill="#032100"></path><path d="M138.485 162.551C138.485 162.551 142.464 162.984 143.328 164.713" stroke="#032100" stroke-width="0.5" stroke-linecap="round" stroke-linejoin="round"></path><path d="M148.556 123.546C150.223 122.622 152.183 122.377 154.026 122.863C157.191 123.663 165.399 135.403 166.54 136.549C167.682 137.695 169.818 138.279 171.785 140.35C174.899 143.598 179.426 146.469 179.885 146.469C180.343 146.469 180.711 146.184 181.281 146.071C181.852 145.959 186.272 145.557 186.272 145.557C186.272 145.557 187.755 145.89 186.272 146.521C184.788 147.152 184.901 147.727 184.901 147.727C184.901 147.727 184.607 148.203 185.199 148.662C185.792 149.12 186.146 148.869 186.998 150.076C187.85 151.282 185.796 150.599 185.796 150.599C185.796 150.599 186.25 151.896 185.338 151.766C184.425 151.637 185.225 153.033 183.742 152.843C182.259 152.653 179.085 150.651 178.289 148.553C178.289 148.553 165.342 142.365 163.405 140.77C161.468 139.174 153.321 130.617 152.746 130.504" fill="white"></path><path d="M148.556 123.546C150.223 122.622 152.183 122.377 154.026 122.863C157.191 123.663 165.399 135.403 166.54 136.549C167.682 137.695 169.818 138.279 171.785 140.35C174.899 143.598 179.426 146.469 179.885 146.469C180.343 146.469 180.711 146.184 181.281 146.071C181.852 145.959 186.272 145.557 186.272 145.557C186.272 145.557 187.755 145.89 186.272 146.521C184.788 147.152 184.901 147.727 184.901 147.727C184.901 147.727 184.607 148.203 185.199 148.662C185.792 149.12 186.146 148.869 186.998 150.076C187.85 151.282 185.796 150.599 185.796 150.599C185.796 150.599 186.25 151.896 185.338 151.766C184.425 151.637 185.225 153.033 183.742 152.843C182.259 152.653 179.085 150.651 178.289 148.553C178.289 148.553 165.342 142.365 163.405 140.77C161.468 139.174 153.321 130.617 152.746 130.504" stroke="#032100" stroke-width="0.5" stroke-linecap="round" stroke-linejoin="round"></path><path d="M146.697 122.292C146.697 122.292 153.08 120.584 155.307 121.838C157.534 123.092 161.754 128.908 161.754 128.908C161.754 128.908 156.608 133.514 155.017 133.094C153.426 132.675 148.557 131.987 148.557 131.987" fill="#3BC90C"></path><path d="M146.697 122.292C146.697 122.292 153.08 120.584 155.307 121.838C157.534 123.092 161.754 128.908 161.754 128.908C161.754 128.908 156.608 133.514 155.017 133.094C153.426 132.675 148.557 131.987 148.557 131.987" stroke="#032100" stroke-width="0.5" stroke-linecap="round" stroke-linejoin="round"></path><path d="M152.233 132.549C152.233 132.549 149.919 133.821 149.067 133.821" stroke="#032100" stroke-width="0.5" stroke-linecap="round" stroke-linejoin="round"></path><path d="M148.556 126.171C148.75 126.513 148.685 130.253 152.746 131.416" stroke="#032100" stroke-width="0.5" stroke-linecap="round" stroke-linejoin="round"></path><path d="M126.853 142.937C126.853 142.937 135.501 144.42 138.485 141.795" stroke="#032100" stroke-width="0.5" stroke-linecap="round" stroke-linejoin="round"></path><path d="M141.443 143.944C141.443 143.944 139.281 143.563 138.485 144.675C137.689 145.786 133.356 146.837 133.356 146.837" stroke="#032100" stroke-width="0.5" stroke-linecap="round" stroke-linejoin="round"></path><path d="M124.06 152.199C124.06 152.199 122.81 157.587 128.142 159.982" stroke="#032100" stroke-width="0.5" stroke-linecap="round" stroke-linejoin="round"></path><path d="M126.853 152.571C126.853 152.571 126.883 155.226 127.717 156.679L130.368 157.544L133.335 155.892C133.335 155.892 132.703 152.497 132.647 151.81" stroke="#032100" stroke-width="0.5" stroke-linecap="round" stroke-linejoin="round"></path></svg>