<svg xmlns="http://www.w3.org/2000/svg" width="376" height="200" viewBox="0 0 376 200" fill="none"><rect width="376" height="200" fill="#3BC90C"></rect><path opacity="0.3" d="M251.387 82.7056L238.406 82.7123L242.274 86.6547L217.522 109.293L222.113 114.187L246.976 91.4443L251.138 95.6871L251.387 82.7056Z" fill="#032100"></path><path d="M213.303 170.883L208.479 165.742L208.608 165.628L233.231 143.107L229.201 139.003L242.759 138.996L242.496 152.551L238.166 148.137L229.369 156.183L229.143 155.937L238.179 147.671L242.176 151.741L242.415 139.334L230.004 139.34L233.717 143.121L233.585 143.239L208.962 165.763L213.32 170.41L227.878 157.095L228.104 157.344L213.303 170.883Z" fill="#032100"></path><path opacity="0.3" d="M143.714 65.562L133.578 65.5654L136.599 68.6471L117.271 86.3238L120.856 90.1446L140.271 72.387L143.522 75.6982L143.714 65.562Z" fill="#032100"></path><path d="M121.352 135.837C121.054 135.837 120.76 135.777 120.486 135.66C120.212 135.544 119.964 135.374 119.757 135.161C119.55 134.947 119.388 134.694 119.28 134.416C119.173 134.139 119.122 133.843 119.131 133.545C119.14 133.254 119.206 132.968 119.326 132.702C119.446 132.437 119.617 132.198 119.83 131.999L142.262 110.913L129.007 113.428C128.833 113.461 128.654 113.46 128.48 113.424C128.306 113.388 128.141 113.318 127.995 113.219C127.85 113.12 127.726 112.993 127.63 112.846C127.535 112.699 127.469 112.534 127.438 112.361C127.376 112.01 127.455 111.649 127.659 111.356C127.862 111.063 128.174 110.863 128.524 110.799L147.906 107.123C148.126 107.084 148.353 107.101 148.566 107.172C148.779 107.243 148.97 107.365 149.124 107.529C149.277 107.692 149.387 107.891 149.445 108.108C149.502 108.325 149.504 108.552 149.452 108.77L144.584 127.885C144.52 128.13 144.389 128.353 144.206 128.529C143.993 128.719 143.724 128.837 143.44 128.864C143.155 128.892 142.869 128.829 142.623 128.683C142.377 128.538 142.183 128.318 142.07 128.056C141.956 127.794 141.929 127.502 141.992 127.223L145.32 114.15L139.515 119.608L139.282 119.362L145.935 113.111L142.32 127.307C142.261 127.442 142.233 127.588 142.236 127.734C142.239 127.881 142.275 128.025 142.339 128.157C142.404 128.288 142.496 128.404 142.61 128.497C142.724 128.589 142.857 128.656 142.999 128.692C143.141 128.728 143.289 128.733 143.433 128.706C143.578 128.68 143.714 128.622 143.834 128.537C143.954 128.452 144.053 128.342 144.126 128.215C144.199 128.088 144.244 127.946 144.257 127.8L149.114 108.686C149.152 108.523 149.149 108.353 149.106 108.192C149.062 108.03 148.98 107.882 148.865 107.761C148.75 107.639 148.607 107.547 148.449 107.495C148.29 107.442 148.121 107.429 147.956 107.457L128.572 111.129C128.311 111.182 128.081 111.335 127.932 111.555C127.783 111.776 127.727 112.046 127.775 112.307C127.828 112.566 127.979 112.794 128.197 112.943C128.415 113.092 128.683 113.15 128.943 113.104L143.339 110.377L120.049 132.252C119.862 132.42 119.71 132.623 119.602 132.85C119.494 133.077 119.433 133.324 119.422 133.575C119.411 133.826 119.451 134.077 119.538 134.312C119.625 134.548 119.759 134.764 119.931 134.947C120.103 135.13 120.31 135.277 120.54 135.379C120.77 135.481 121.018 135.535 121.269 135.54C121.52 135.545 121.77 135.499 122.003 135.406C122.237 135.312 122.449 135.173 122.628 134.996L137.682 120.847L137.911 121.093L122.857 135.243C122.448 135.624 121.911 135.836 121.352 135.837Z" fill="#032100"></path><path d="M213.29 81.541C213.146 81.5398 213.004 81.5093 212.873 81.4512C212.742 81.3932 212.624 81.3088 212.527 81.2034C212.432 81.1031 212.359 80.9852 212.31 80.8564C212.261 80.7276 212.238 80.5904 212.243 80.4527C212.247 80.315 212.279 80.1796 212.335 80.0541C212.392 79.9287 212.473 79.8157 212.574 79.7216L221.937 70.9187L216.587 71.9314C216.413 71.9631 216.233 71.9249 216.087 71.8251C215.94 71.7254 215.839 71.572 215.804 71.398C215.773 71.2236 215.811 71.0438 215.91 70.8972C216.01 70.7507 216.164 70.6493 216.338 70.615L224.638 69.0421C224.748 69.0199 224.862 69.0267 224.969 69.0615C225.076 69.0964 225.172 69.1583 225.248 69.2412C225.325 69.3235 225.381 69.4237 225.409 69.5328C225.437 69.6419 225.438 69.7563 225.41 69.8656L223.328 78.0508C223.298 78.1798 223.231 78.2972 223.135 78.3884C223.062 78.4559 222.975 78.5062 222.879 78.5359C222.784 78.5655 222.684 78.5737 222.585 78.5598C222.486 78.5459 222.392 78.5103 222.308 78.4556C222.225 78.4009 222.155 78.3283 222.103 78.2432C222.011 78.0898 221.985 77.9066 222.028 77.7336L223.379 72.4545L214.009 81.254C213.815 81.4387 213.557 81.5414 213.29 81.541ZM223.014 70.3821L212.804 79.9782C212.734 80.0421 212.678 80.1193 212.639 80.2051C212.6 80.291 212.578 80.3838 212.575 80.4781C212.573 80.5724 212.589 80.6663 212.623 80.7544C212.657 80.8424 212.708 80.9228 212.773 80.9908C212.905 81.1269 213.084 81.2062 213.273 81.2119C213.462 81.2176 213.646 81.1491 213.786 81.0211L223.996 71.425L222.366 77.8382C222.345 77.9242 222.358 78.0151 222.403 78.0914C222.448 78.1663 222.521 78.2208 222.606 78.2432C222.66 78.2566 222.717 78.2561 222.771 78.242C222.825 78.2279 222.875 78.2004 222.916 78.1622C222.962 78.1182 222.995 78.0621 223.011 78.0002L225.093 69.815C225.107 69.7609 225.107 69.7042 225.094 69.65C225.08 69.5958 225.053 69.5458 225.016 69.5045C224.977 69.4644 224.929 69.4344 224.876 69.4174C224.823 69.4003 224.767 69.3966 224.712 69.4066L216.412 70.9795C216.326 70.9967 216.249 71.0469 216.2 71.1194C216.15 71.1919 216.13 71.281 216.145 71.3677C216.162 71.4539 216.212 71.5301 216.284 71.5803C216.357 71.6304 216.446 71.6497 216.533 71.6343L223.014 70.3821Z" fill="#032100"></path><path opacity="0.3" d="M194.216 149.436C194.158 149.374 194.086 149.328 194.006 149.302C193.925 149.276 193.84 149.271 193.757 149.288L185.457 150.861C185.392 150.873 185.331 150.898 185.276 150.934C185.221 150.969 185.174 151.016 185.137 151.07C185.1 151.124 185.074 151.185 185.06 151.25C185.047 151.314 185.046 151.38 185.059 151.445C185.071 151.509 185.095 151.571 185.131 151.625C185.167 151.68 185.214 151.728 185.268 151.765C185.322 151.802 185.383 151.828 185.447 151.841C185.512 151.854 185.578 151.855 185.642 151.843L191.563 150.722L181.774 159.92C181.605 160.08 181.506 160.301 181.499 160.533C181.492 160.766 181.578 160.992 181.737 161.162C181.897 161.332 182.117 161.431 182.35 161.439C182.583 161.446 182.809 161.361 182.979 161.203L192.768 152.001L191.279 157.841C191.246 157.97 191.266 158.106 191.334 158.221C191.401 158.335 191.512 158.418 191.64 158.452C191.723 158.471 191.808 158.471 191.89 158.449C191.972 158.428 192.047 158.387 192.11 158.33C192.18 158.265 192.229 158.18 192.251 158.087L194.344 149.909C194.365 149.826 194.364 149.738 194.342 149.656C194.319 149.573 194.276 149.497 194.216 149.436Z" fill="#032100"></path><path d="M210.779 96.0786L156.385 96.0989L172.597 112.625L134.661 148.214L153.894 168.713L192.292 132.691L209.732 150.462L210.779 96.0786Z" fill="#3BC90C"></path><path d="M153.884 168.953L134.422 148.204L172.357 112.618L155.984 95.9304H156.385L210.951 95.9102L209.895 150.867L192.289 132.928L153.884 168.953ZM134.898 148.221L153.901 168.473L192.299 132.455L209.571 150.057L210.607 96.2477L156.787 96.2679L172.84 112.645L134.898 148.221Z" fill="#032100"></path><path d="M168.725 55.2439C168.725 55.2439 168.05 56.9889 167.999 57.313C167.981 58.0597 168.118 58.8022 168.401 59.4934C168.739 60.1077 169.076 60.6174 168.739 60.6174C168.401 60.6174 168.195 60.6174 167.942 60.1078C167.788 59.8103 167.674 59.4936 167.604 59.166C167.604 59.166 165.319 61.9237 165.174 62.0688C165.029 62.214 164.702 62.2511 164.739 61.9237C164.776 61.5963 165.826 59.6723 165.826 59.6723L163.8 62.106C163.8 62.106 163.257 62.4671 163.402 61.9237C163.547 61.3803 164.891 59.2032 164.891 59.2032C164.891 59.2032 163.473 60.4352 163.112 60.6883C162.751 60.9415 162.167 61.3431 162.13 61.0528C162.092 60.7626 163.983 58.5112 164.016 58.3289C164.05 58.1467 162.666 59.2032 162.531 59.382C162.396 59.5609 161.66 60.29 161.478 60.29C161.296 60.29 161.188 60.074 161.549 59.4192C161.91 58.7644 163.22 57.6032 163.51 57.2421C163.8 56.8809 167.561 53.7925 167.561 53.7925L168.725 55.2439Z" fill="white"></path><path d="M163.487 62.3928C163.425 62.3948 163.364 62.3758 163.315 62.3388C163.2 62.2578 163.169 62.1025 163.227 61.8797C163.498 61.232 163.822 60.6077 164.195 60.0132C163.804 60.3507 163.379 60.6883 163.183 60.8266C162.633 61.2148 162.312 61.3937 162.096 61.2992C162.053 61.2785 162.015 61.2467 161.988 61.207C161.961 61.1673 161.944 61.1211 161.941 61.073C161.914 60.8739 162.164 60.4959 163.207 59.1322L163.416 58.8588C163.142 59.0497 162.882 59.2607 162.639 59.49C162.639 59.49 161.772 60.4587 161.455 60.4587C161.398 60.4586 161.343 60.4444 161.293 60.4172C161.244 60.3901 161.202 60.351 161.171 60.3035C161.056 60.1111 161.124 59.7938 161.38 59.3381C161.795 58.7418 162.275 58.1939 162.812 57.7044C163.055 57.458 163.264 57.2488 163.355 57.1374C163.649 56.7695 167.068 53.9814 167.446 53.6642L167.578 53.5562L168.907 55.2168L168.87 55.308C168.594 55.969 168.355 56.6451 168.155 57.3332C168.141 58.0448 168.271 58.7519 168.536 59.4124C168.594 59.5238 168.654 59.6284 168.708 59.7297C168.958 60.1786 169.11 60.4486 168.995 60.6477C168.965 60.6948 168.923 60.7327 168.873 60.7572C168.823 60.7816 168.767 60.7916 168.712 60.7861C168.3 60.7861 168.037 60.7591 167.763 60.1853C167.659 59.9746 167.572 59.7556 167.503 59.5305C166.913 60.2427 165.4 62.062 165.276 62.1869C165.208 62.2572 165.122 62.3062 165.027 62.3278C164.932 62.3494 164.833 62.3426 164.742 62.3084C164.67 62.2719 164.612 62.2121 164.578 62.1386C164.543 62.0652 164.535 61.9823 164.553 61.9034C164.647 61.5846 164.775 61.2768 164.935 60.9853L163.871 62.2443C163.758 62.3267 163.626 62.3779 163.487 62.3928ZM165.606 58.3424L165.022 59.2909C164.655 59.8917 163.672 61.5388 163.554 61.9675C163.546 61.9929 163.541 62.0188 163.537 62.0451C163.586 62.0269 163.634 62.0043 163.679 61.9776L165.704 59.5643L165.981 59.7533C165.57 60.4558 165.213 61.1881 164.911 61.9439C164.907 61.965 164.907 61.9868 164.911 62.008C164.965 62.0087 165.017 61.9881 165.056 61.9506C165.161 61.846 166.562 60.1651 167.48 59.058L167.713 58.7744L167.773 59.139C167.84 59.4492 167.945 59.7498 168.087 60.0334C168.29 60.4385 168.381 60.4486 168.708 60.4486C168.634 60.2562 168.543 60.071 168.435 59.895L168.256 59.5575C167.959 58.8369 167.817 58.0616 167.841 57.2825C168.033 56.5941 168.266 55.9178 168.54 55.2573L167.547 54.0152C166.035 55.254 163.834 57.08 163.639 57.3298C163.537 57.458 163.331 57.6673 163.071 57.9238C162.558 58.393 162.096 58.9158 161.694 59.4833C161.421 59.9761 161.482 60.1144 161.482 60.1144C161.815 59.8621 162.122 59.576 162.396 59.2605C162.396 59.2605 163.794 58.0082 164.084 58.1399L164.202 58.1972V58.3458C164.182 58.4436 164.054 58.6192 163.527 59.3212C163.11 59.8422 162.721 60.3853 162.363 60.9482C162.602 60.8342 162.828 60.6951 163.038 60.533C163.375 60.29 164.79 59.0715 164.803 59.058L165.606 58.3424Z" fill="#032100"></path><path d="M170.497 91.623C170.497 91.623 168.384 93.8035 167.891 95.2819C167.399 96.7603 167.682 99.0792 168.526 99.2209C169.37 99.3627 171.128 97.1114 171.621 95.2819C172.114 93.4525 172.398 92.5378 172.398 92.5378L170.497 91.623Z" fill="white"></path><path d="M168.604 99.3966C168.569 99.4001 168.534 99.4001 168.499 99.3966C168.371 99.3685 168.251 99.3121 168.148 99.2314C168.044 99.1508 167.96 99.0481 167.902 98.9308C167.423 98.1342 167.342 96.406 167.733 95.2381C168.233 93.7395 170.288 91.6063 170.376 91.5253L170.461 91.4375L172.6 92.4501L172.557 92.5885C172.557 92.5885 172.273 93.5235 171.787 95.3293C171.301 97.1351 169.63 99.3966 168.604 99.3966ZM170.535 91.8257C170.14 92.2476 168.472 94.0736 168.054 95.3326C167.696 96.406 167.76 98.0329 168.192 98.7451C168.227 98.8195 168.277 98.8856 168.34 98.9391C168.402 98.9927 168.475 99.0324 168.553 99.0556C169.249 99.1704 170.97 97.0541 171.46 95.2381C171.841 93.8239 172.098 92.9463 172.192 92.6256L170.535 91.8257Z" fill="#032100"></path><path d="M171.621 95.2819L170.497 96.6895L168.384 95.984L168.246 94.7891L168.138 94.7183C168.041 94.8995 167.959 95.088 167.891 95.2819C167.399 96.757 167.682 99.0792 168.526 99.221C169.37 99.3627 171.128 97.1181 171.621 95.2819Z" fill="white"></path><path d="M168.604 99.3964C168.569 99.3999 168.534 99.3999 168.499 99.3964C168.371 99.3683 168.251 99.3119 168.148 99.2313C168.044 99.1507 167.96 99.048 167.902 98.9306C167.423 98.1341 167.342 96.4059 167.733 95.238C167.802 95.0354 167.888 94.8389 167.99 94.6507L168.074 94.4819L168.412 94.7013L168.547 95.8692L170.444 96.5004L172.003 94.5562L171.794 95.3359C171.311 97.0877 169.63 99.3964 168.604 99.3964ZM168.118 95.157C168.094 95.2178 168.071 95.2785 168.054 95.3325C167.696 96.4059 167.76 98.0328 168.192 98.745C168.227 98.8193 168.277 98.8855 168.34 98.939C168.402 98.9925 168.475 99.0322 168.553 99.0555C169.124 99.15 170.4 97.7223 171.102 96.2L170.555 96.8751L168.229 96.0987L168.118 95.157Z" fill="#032100"></path><path d="M196.832 92.4736C196.832 92.4736 197.534 93.6685 198.239 94.1613C198.945 94.6541 201.615 95.7781 201.544 96.1865C201.473 96.5949 198.661 96.7806 197.605 96.7806C196.548 96.7806 195.141 96.1494 194.155 95.5857C193.17 95.022 192.468 95.022 192.748 94.0364C193.028 93.0508 194.098 91.856 194.098 91.856L196.832 92.4736Z" fill="white"></path><path d="M197.604 96.9329C196.342 96.9329 194.715 96.0823 194.074 95.7143C193.854 95.5895 193.645 95.4916 193.46 95.4038C192.828 95.1068 192.329 94.8705 192.585 93.9727C192.876 92.9601 193.915 91.7787 193.959 91.7281L194.027 91.6538L196.939 92.3289L196.977 92.3896C196.977 92.3896 197.669 93.5609 198.327 94.0267C198.727 94.2734 199.141 94.4988 199.566 94.7017C201.098 95.4882 201.763 95.8696 201.705 96.2308C201.594 96.9261 197.766 96.9329 197.604 96.9329ZM194.148 92.0285C193.919 92.3019 193.135 93.2672 192.913 94.0537C192.734 94.6747 192.97 94.7861 193.605 95.0865C193.794 95.1743 194.01 95.2756 194.239 95.4072C194.857 95.7616 196.423 96.5818 197.615 96.5818C199.127 96.5818 201.111 96.3894 201.378 96.1599C201.24 95.9169 200.109 95.3397 199.427 94.9886C198.989 94.7781 198.563 94.5437 198.151 94.2866C197.587 93.8083 197.107 93.2377 196.734 92.5989L194.148 92.0285Z" fill="#032100"></path><path d="M201.544 96.2C201.602 95.8625 199.83 95.0423 198.793 94.4854L198.098 95.3562C197.04 94.8821 196.012 94.3433 195.02 93.7428L193.467 92.6694C193.166 93.0815 192.93 93.5367 192.765 94.0196C192.485 95.0052 193.19 95.0052 194.173 95.5689C195.155 96.1325 196.566 96.7637 197.622 96.7637C198.679 96.7637 201.477 96.6253 201.544 96.2Z" fill="white"></path><path d="M197.604 96.9324C196.342 96.9324 194.715 96.0819 194.074 95.7139C193.854 95.5891 193.645 95.4912 193.46 95.4034C192.828 95.1064 192.329 94.8701 192.585 93.9723C192.753 93.4706 192.998 92.9981 193.311 92.5715L193.406 92.4331L193.544 92.5276L195.097 93.601C196.046 94.1793 197.031 94.6967 198.047 95.1503L198.749 94.2727L198.874 94.3368C199.083 94.4516 199.322 94.5731 199.569 94.7013C201.105 95.4878 201.77 95.8692 201.712 96.2304C201.594 96.9257 197.766 96.9324 197.604 96.9324ZM193.493 92.9023C193.243 93.2592 193.047 93.6518 192.913 94.0668C192.734 94.6878 192.97 94.7992 193.605 95.0996C193.794 95.1874 194.01 95.2886 194.239 95.4203C194.857 95.7747 196.423 96.5949 197.615 96.5949C199.127 96.5949 201.111 96.4025 201.378 96.173C201.24 95.93 200.109 95.3528 199.427 95.0017L198.847 94.7013L198.171 95.5654L198.05 95.5114C196.976 95.0331 195.933 94.4874 194.928 93.8778L193.493 92.9023Z" fill="#032100"></path><path d="M206.692 79.3739C204.94 70.7904 198.733 61.2281 198.52 60.7353C198.307 60.2425 196.832 56.3034 196.832 56.3034C196.832 56.3034 190.99 56.938 189.231 56.7253C187.472 56.5127 182.899 55.7397 182.899 55.7397V57.7109C182.899 57.7109 180.762 62.6423 179.989 64.6979C179.216 66.7535 178.977 73.6088 178.875 74.0375C178.774 74.4661 177.934 79.3503 177.934 79.3503L169.421 92.4162C169.421 92.4162 169.367 93.9149 170.822 93.9993C172.277 94.0836 172.391 93.9756 172.391 93.9756L184.144 81.1054C184.144 81.1054 184.742 79.4785 184.914 79.1343C185.086 78.79 189.849 67.5737 190.088 66.875L191.813 68.0395L200.7 80.0861C199.996 80.8804 199.426 81.7846 199.013 82.7627C198.378 84.3087 194.088 91.839 194.088 91.839C194.088 91.839 195.283 92.8955 195.985 93.0339C196.798 93.1479 197.616 93.2212 198.436 93.2533C198.436 93.2533 205.713 82.3948 205.922 81.6894C206.131 80.9839 206.898 80.3797 206.692 79.3739Z" fill="#032100"></path><path d="M171.75 94.2017C171.52 94.2017 171.213 94.2017 170.812 94.168C170.592 94.1591 170.377 94.1061 170.179 94.012C169.98 93.918 169.803 93.7849 169.658 93.6206C169.512 93.4564 169.401 93.2645 169.331 93.0564C169.262 92.8482 169.235 92.6282 169.252 92.4094V92.3621L177.775 79.2861C177.856 78.8169 178.629 74.4154 178.71 74.0037C178.71 73.9159 178.761 73.44 178.798 72.8358C178.939 70.6958 179.23 66.2437 179.831 64.6405C180.563 62.6895 182.531 58.1058 182.73 57.6771V55.5405L182.926 55.5743C182.973 55.5743 187.516 56.3506 189.251 56.5599C190.986 56.7691 196.755 56.1413 196.812 56.1346H196.944L196.987 56.2595C197.004 56.2966 198.466 60.2019 198.675 60.6845C198.699 60.7386 198.854 61.0018 199.053 61.3326C203.222 68.3365 205.848 74.3986 206.857 79.3536C207.005 80.0826 206.688 80.6193 206.411 81.0952C206.273 81.3006 206.16 81.5215 206.074 81.7534C205.861 82.4589 199.323 92.2474 198.567 93.3612L198.513 93.4389H198.419C197.591 93.4067 196.765 93.3323 195.944 93.2161C195.205 93.071 194.014 92.028 193.963 91.9807L193.862 91.893L193.929 91.7715C193.973 91.6972 198.223 84.2343 198.847 82.7154C199.25 81.7618 199.799 80.877 200.474 80.0928L191.698 68.1812L190.173 67.1483C189.498 68.836 185.248 78.8675 185.069 79.2287C184.89 79.5898 184.31 81.1661 184.306 81.1796L184.273 81.237L172.516 94.0802C172.476 94.1275 172.405 94.2017 171.75 94.2017ZM169.59 92.4668C169.583 92.637 169.609 92.807 169.667 92.9671C169.726 93.1271 169.815 93.274 169.931 93.3994C170.046 93.5248 170.185 93.6262 170.34 93.6979C170.494 93.7695 170.662 93.81 170.832 93.8169C171.318 93.8717 171.808 93.8717 172.293 93.8169L183.996 80.9906C184.083 80.7577 184.6 79.3603 184.762 79.0363C184.796 78.9722 189.649 67.6141 189.93 66.7939L190 66.5846L191.948 67.9145L200.92 80.0658L200.825 80.1704C200.135 80.9494 199.575 81.8351 199.168 82.793C198.574 84.2411 194.878 90.7589 194.301 91.7681C194.601 92.0212 195.482 92.7301 196.019 92.8347C196.609 92.9528 197.976 93.0271 198.348 93.0473C201.267 88.6898 205.611 82.1045 205.773 81.6083C205.862 81.3502 205.982 81.1041 206.131 80.8759C206.391 80.4337 206.658 79.978 206.536 79.3738C205.524 74.4559 202.921 68.4276 198.773 61.4609C198.513 61.0221 198.405 60.8432 198.375 60.7689C198.182 60.3234 196.984 57.1337 196.728 56.4519C195.836 56.5464 190.854 57.0561 189.221 56.8603C187.685 56.6746 183.975 56.057 183.078 55.9051V57.7446C183.054 57.7953 180.931 62.6963 180.171 64.7248C179.588 66.2809 179.297 70.6992 179.159 72.8257C179.112 73.5682 179.085 73.9328 179.064 74.0374C178.98 74.4593 178.133 79.2962 178.123 79.3434L178.099 79.4076L169.59 92.4668Z" fill="#032100"></path><path d="M188.333 36.9732L185.46 38.1951C185.46 38.1951 187.485 45.9584 187.354 46.6335C187.222 47.3085 184.475 57.3637 184.475 57.3637C184.475 57.3637 187.894 58.9535 191.192 58.4641C194.489 57.9746 195.529 57.1139 195.529 57.1139C195.529 57.1139 193.953 45.4049 193.953 44.9154C193.953 44.426 194.135 38.563 194.135 38.563C194.135 38.563 191.262 36.4231 188.333 36.9732Z" fill="white"></path><path d="M189.862 58.7171C187.981 58.6713 186.128 58.2609 184.404 57.5087L184.275 57.448L184.313 57.3096C184.34 57.2083 187.07 47.2477 187.188 46.5929C187.273 46.1305 186.074 41.2227 185.298 38.2355L185.261 38.0971L188.299 36.8078C191.266 36.2508 194.111 38.3368 194.233 38.4246L194.304 38.4786V38.5663C194.304 38.6237 194.121 44.4327 194.121 44.912C194.121 45.29 195.151 53.0398 195.698 57.0868V57.1813L195.627 57.2387C195.583 57.2758 194.513 58.1298 191.208 58.6192C190.762 58.6847 190.312 58.7174 189.862 58.7171ZM184.677 57.259C185.328 57.5357 188.319 58.7104 191.168 58.2716C193.895 57.8699 195.06 57.2083 195.35 57.0193C195.185 55.7941 193.784 45.3744 193.784 44.8985C193.784 44.4225 193.939 39.4034 193.963 38.6338C193.51 38.3165 190.948 36.6525 188.38 37.1217L185.663 38.2794C186 39.5418 187.641 45.9819 187.522 46.6401C187.404 47.2983 185.025 55.9865 184.677 57.259Z" fill="#032100"></path><path d="M196.562 45.7017L197.997 49.7521C199.51 49.882 201.015 50.0927 202.506 50.3833C204.15 50.7613 207.691 51.3959 207.691 51.3959L207.481 53.5865C207.481 53.5865 203.306 53.924 201.2 54.0489C199.094 54.1738 196.69 54.1771 196.69 54.1771L194.709 49.4517L196.562 45.7017Z" fill="#3BC90C"></path><path d="M196.707 54.3425H196.596L194.54 49.4448L196.606 45.2695L198.135 49.59C199.614 49.7164 201.085 49.9203 202.543 50.2009C204.167 50.5756 207.684 51.2135 207.721 51.2135L207.873 51.2405L207.636 53.7281H207.495C207.451 53.7281 203.296 54.0657 201.21 54.1906C199.124 54.3155 196.707 54.3425 196.707 54.3425ZM194.911 49.4583L196.818 54.0049C197.318 54.0049 199.384 53.988 201.206 53.8767C203.029 53.7653 206.607 53.4851 207.343 53.4244L207.525 51.5308C206.826 51.4025 203.92 50.876 202.486 50.5452C201.002 50.2567 199.505 50.046 198 49.914H197.892L196.542 46.1404L194.911 49.4583Z" fill="#032100"></path><path d="M192.728 40.3485C192.728 40.3485 192.772 46.5861 193.021 47.6392C193.271 48.6923 198.513 65.1404 198.513 65.3496C198.513 65.5589 199.104 65.434 199.948 65.056C200.791 64.678 202.476 62.7371 202.476 62.7371C202.476 62.7371 199.013 58.042 197.835 55.7671C196.657 53.4921 196.228 50.3665 196.147 49.9176C196.066 49.4687 196.987 47.2612 197.031 45.7423C197.075 44.2234 197.116 43.9736 197.116 43.7171C197.116 43.4605 197.662 40.5983 197.747 39.7949C197.831 38.9916 196.903 38.7823 195.765 38.2355C194.773 37.8169 193.747 37.4849 192.697 37.2432L192.728 40.3485Z" fill="#3BC90C"></path><path d="M198.692 65.6195C198.611 65.6226 198.53 65.6039 198.459 65.5655C198.423 65.5417 198.394 65.5095 198.374 65.4718C198.354 65.4342 198.344 65.3921 198.344 65.3495C198.303 65.1503 197.065 61.2046 195.866 57.3837C194.452 52.8843 192.991 48.2331 192.859 47.6796C192.602 46.6197 192.562 40.5913 192.559 40.3483L192.521 37.0371L192.731 37.0877C193.794 37.3312 194.834 37.6701 195.836 38.1003C196.052 38.205 196.258 38.2961 196.454 38.3839C197.314 38.7619 197.993 39.0589 197.912 39.8319C197.865 40.2606 197.693 41.263 197.537 42.1474C197.416 42.8427 197.281 43.6292 197.281 43.7338C197.281 43.8384 197.281 43.9194 197.264 44.0713C197.264 44.338 197.223 44.7869 197.196 45.759C197.109 46.7341 196.908 47.6958 196.599 48.6247C196.453 49.0362 196.356 49.4632 196.309 49.8972C196.309 49.941 196.325 50.0052 196.342 50.0929C196.727 52.4557 197.281 54.3459 197.983 55.6994C199.144 57.9372 202.577 62.5986 202.61 62.6458L202.691 62.7572L202.604 62.8585C202.533 62.9395 200.882 64.8297 200.015 65.2212C199.602 65.4341 199.153 65.5691 198.692 65.6195ZM198.692 65.282C199.115 65.2333 199.525 65.1038 199.9 64.9006C200.592 64.59 201.925 63.1251 202.283 62.7268C201.753 62.0045 198.779 57.9102 197.706 55.8445C196.633 53.7788 196.177 51.0313 196.018 50.1368C196.018 50.0524 195.995 49.9883 195.985 49.9444C195.944 49.7216 196.059 49.3031 196.285 48.52C196.586 47.6186 196.782 46.6853 196.869 45.7387C196.896 44.7633 196.923 44.311 196.94 44.0511C196.94 43.9059 196.94 43.8182 196.94 43.7135C196.94 43.6089 197.034 43.0385 197.203 42.0697C197.355 41.1888 197.541 40.1931 197.571 39.7745C197.625 39.275 197.176 39.0522 196.315 38.6708C196.116 38.583 195.904 38.4919 195.684 38.3872C194.772 37.9941 193.826 37.6823 192.859 37.4557L192.893 40.3382C192.893 40.4023 192.937 46.5691 193.183 47.5918C193.315 48.1352 194.84 52.9924 196.184 57.2757C198.057 63.2602 198.587 64.9411 198.668 65.282H198.692Z" fill="#032100"></path><path d="M188.093 40.4124C188.093 40.4124 189.534 44.7396 189.534 45.9952C189.534 47.2508 187.405 52.6244 186.527 53.88C185.649 55.1356 180.549 64.6609 180.549 64.6609C180.549 64.6609 177.727 63.4052 176.722 62.3386C176.081 61.6005 175.629 60.7179 175.405 59.7666L183.935 50.7949L182.446 45.4754L176.117 48.8035L168.401 56.5195L166.582 54.3256L172.968 45.5767C172.968 45.5767 179.506 39.7069 179.756 39.501C180.006 39.2951 186.655 36.9932 186.655 36.9932L188.093 40.4124Z" fill="#3BC90C"></path><path d="M180.624 64.8632L180.482 64.7991C180.364 64.7485 177.616 63.5198 176.6 62.4363C175.94 61.6758 175.476 60.7648 175.25 59.7833L175.233 59.6989L175.294 59.6348L183.756 50.7307L182.352 45.7216L176.222 48.9383L168.391 56.7658L166.366 54.3254L172.854 45.4482C173.12 45.2086 179.398 39.5718 179.652 39.3726C179.905 39.1735 185.484 37.2293 186.598 36.8411L186.747 36.7871L188.269 40.3447C188.33 40.5202 189.72 44.7124 189.72 45.9815C189.72 47.2507 187.59 52.6647 186.682 53.9642C185.818 55.1962 180.765 64.6303 180.715 64.7248L180.624 64.8632ZM175.591 59.8002C175.815 60.6898 176.245 61.5142 176.847 62.2068C177.687 63.1013 179.884 64.1544 180.475 64.4244C181.15 63.1958 185.562 54.9465 186.389 53.7651C187.253 52.5297 189.366 47.1933 189.366 45.9782C189.366 44.763 187.999 40.6485 187.931 40.4561L186.554 37.2225C183.931 38.1372 180.084 39.5043 179.844 39.6562C179.604 39.808 174.909 44.0441 173.093 45.6913L166.788 54.3186L168.405 56.2696L176.033 48.6548L182.554 45.2322L184.124 50.8285L175.591 59.8002Z" fill="#032100"></path><path d="M182.824 45.9346L179.719 43.8622L179.904 43.582L182.068 45.0233L181.538 43.7879L181.849 43.6563L182.824 45.9346Z" fill="#032100"></path><path d="M186.527 53.8667C186.527 53.8667 177.852 61.1338 177.977 61.6975C178.102 62.2612 179.233 63.7058 180.549 64.6475L186.527 53.8667Z" fill="#3BC90C"></path><path d="M180.607 64.8939L180.451 64.7825C179.138 63.8475 177.954 62.3759 177.812 61.7447C177.684 61.1675 183.148 56.4859 186.419 53.7485L187.114 53.1646L180.607 64.8939ZM178.143 61.6772C178.278 62.1835 179.283 63.483 180.488 64.3774L185.936 54.5889C182.763 57.2622 178.359 61.1169 178.143 61.6772Z" fill="#032100"></path><path d="M187.962 35.812C187.962 35.812 187.03 35.5149 186.736 35.7276C186.443 35.9402 186.102 36.7841 186.102 36.7841C186.102 36.7841 185.72 41.9787 185.764 42.1508C185.808 42.323 190.199 40.2067 190.199 40.2067C190.199 40.2067 194.213 42.107 194.25 41.7694C194.287 41.4319 192.687 37.2465 192.687 37.2465L187.962 35.812Z" fill="white"></path><path d="M185.76 42.3232C185.739 42.3286 185.717 42.3286 185.696 42.3232L185.625 42.2894L185.598 42.205C185.558 42.0329 185.791 38.7352 185.936 36.7842V36.7336C185.973 36.6425 186.304 35.8358 186.631 35.6029C186.959 35.37 187.833 35.6029 188.005 35.6636L192.815 37.1251L192.842 37.1994C193.223 38.1917 194.462 41.4523 194.418 41.8034C194.414 41.836 194.402 41.8671 194.383 41.8941C194.364 41.9211 194.339 41.9433 194.31 41.9586C193.996 42.1341 191.914 41.2194 190.192 40.406C186.621 42.1004 185.936 42.3232 185.76 42.3232ZM186.267 36.8214C186.135 38.6204 185.956 41.2397 185.929 41.9519C186.557 41.7359 188.748 40.7165 190.128 40.0549L190.199 40.0178L190.273 40.0549C191.829 40.7908 193.568 41.5333 194.071 41.6312C193.946 41.0979 193.24 39.1503 192.565 37.385L187.911 35.9708C187.499 35.8425 186.972 35.7649 186.834 35.8628C186.587 36.1442 186.394 36.4693 186.267 36.8214Z" fill="#032100"></path><path d="M193.869 26.8234C192.666 25.8626 191.157 25.3688 189.619 25.4328C187.594 25.5779 185.117 26.2361 184.354 29.2537C183.591 32.2712 186.021 34.634 187.054 35.0525C187.476 35.1967 187.883 35.3821 188.269 35.6061C188.269 35.6061 187.783 35.9436 187.435 36.163L187.098 36.3723C187.098 36.3723 187.513 39.0725 188.867 40.8513C189.442 41.5606 189.976 42.3022 190.466 43.0723C191.302 42.0249 191.82 40.7598 191.958 39.4269L193.14 36.7874C193.14 36.7874 194.807 36.8583 195.013 36.5106C195.219 36.163 195.951 33.1083 195.951 33.1083C195.951 33.1083 196.924 32.3083 196.819 31.8223C196.714 31.3362 195.989 31.0223 195.779 30.7793C195.439 30.4365 195.205 30.0029 195.104 29.5304C194.885 28.5521 194.464 27.6302 193.869 26.8234Z" fill="white"></path><path d="M190.433 43.3659L190.318 43.1533C189.831 42.3914 189.302 41.6567 188.735 40.9526C187.385 39.1704 186.949 36.5106 186.929 36.3958L186.912 36.2845L187.358 36.0246C187.55 35.9098 187.79 35.7478 187.958 35.6296C187.79 35.5486 187.496 35.4136 187 35.2145C185.883 34.7689 183.405 32.3286 184.192 29.2165C184.806 26.7727 186.581 25.48 189.619 25.264C191.198 25.1952 192.749 25.704 193.98 26.6951L193.997 26.7154C194.616 27.5409 195.054 28.4874 195.283 29.4933C195.365 29.917 195.565 30.3089 195.86 30.624L195.907 30.678C195.999 30.7658 196.098 30.8449 196.204 30.9143C196.515 31.1303 196.9 31.4003 196.984 31.7953C197.095 32.3151 196.346 33.0003 196.103 33.2062C195.985 33.7057 195.364 36.2608 195.158 36.6051C194.952 36.9494 193.808 36.9865 193.248 36.9663L192.124 39.4775C191.981 40.837 191.449 42.1264 190.591 43.1904L190.433 43.3659ZM187.283 36.4566C187.378 36.9798 187.844 39.2345 189.001 40.75C189.886 41.9044 190.298 42.5018 190.483 42.7752C191.209 41.7851 191.659 40.6206 191.789 39.3999V39.3493L193.018 36.6051H193.133C193.953 36.6389 194.773 36.5477 194.858 36.4094C195.22 35.3073 195.527 34.1875 195.776 33.0543V33.0003L195.816 32.9631C196.187 32.6593 196.684 32.1092 196.63 31.8459C196.576 31.5826 196.245 31.3531 195.985 31.1708C195.853 31.0888 195.732 30.9913 195.624 30.8805L195.577 30.8265C195.248 30.4724 195.024 30.0344 194.928 29.5608C194.712 28.6102 194.3 27.7149 193.72 26.9314C192.556 26.0075 191.101 25.5288 189.616 25.5813C187.783 25.7129 185.258 26.2361 184.492 29.2739C183.756 32.1834 186.058 34.4584 187.098 34.8736C187.535 35.0261 187.957 35.2206 188.357 35.4541L188.529 35.5959L188.35 35.7242C188.33 35.7242 187.854 36.0617 187.503 36.2878L187.283 36.4566Z" fill="#032100"></path><path d="M192.097 27.1676C192.893 26.7187 193.484 26.7187 193.876 26.8301C192.672 25.8654 191.16 25.369 189.619 25.4327C187.594 25.5778 185.117 26.236 184.354 29.2536C183.591 32.2711 186.021 34.6339 187.054 35.0524C187.476 35.1966 187.883 35.382 188.269 35.606C189.032 35.4338 189.866 34.2187 189.866 34.2187C189.438 34.2761 189.004 34.2647 188.58 34.185C188.06 34.0432 187.503 32.7606 188.094 31.8931C188.684 31.0256 189.518 31.7513 189.656 31.856C189.822 31.924 190.004 31.9395 190.179 31.9002C190.353 31.861 190.512 31.7689 190.632 31.6366C191.013 31.2991 191.118 30.2122 191.013 29.5506C190.909 28.8891 190.5 28.0722 192.097 27.1676Z" fill="#032100"></path><path d="M188.235 35.7917L188.171 35.7377C187.796 35.5283 187.404 35.3511 187 35.2077C185.883 34.7622 183.405 32.3218 184.192 29.2097C184.806 26.7727 186.581 25.48 189.619 25.264C191.198 25.1952 192.749 25.704 193.98 26.6951L194.007 26.7255L194.297 27.1238L193.828 26.9921C193.545 26.9368 193.253 26.9381 192.971 26.996C192.688 27.054 192.42 27.1674 192.181 27.3297C190.881 28.0655 191.013 28.6798 191.138 29.3009C191.158 29.3864 191.175 29.4708 191.189 29.554C191.293 30.2291 191.189 31.3801 190.753 31.7885C190.603 31.9442 190.407 32.0487 190.194 32.0875C189.981 32.1262 189.761 32.0972 189.565 32.0045L189.535 31.9809C189.313 31.7686 189.018 31.648 188.711 31.6434C188.613 31.6618 188.521 31.7017 188.44 31.76C188.36 31.8184 188.293 31.8938 188.245 31.9809C188.117 32.1895 188.04 32.4255 188.021 32.6696C188.001 32.9137 188.04 33.1588 188.134 33.385C188.169 33.5187 188.231 33.6436 188.317 33.7517C188.403 33.8598 188.511 33.9488 188.633 34.0129C189.035 34.0884 189.447 34.0987 189.852 34.0432L190.23 33.9926L190.014 34.3065C189.98 34.3605 189.133 35.579 188.326 35.7647L188.235 35.7917ZM190.007 25.588C189.886 25.588 189.768 25.588 189.643 25.588C187.81 25.7196 185.285 26.2428 184.519 29.2806C183.783 32.1902 186.085 34.4652 187.125 34.8803C187.529 35.0319 187.924 35.2089 188.306 35.4102C188.755 35.2719 189.238 34.7352 189.511 34.3976C189.188 34.42 188.862 34.3961 188.546 34.3268C188.37 34.2499 188.214 34.1349 188.088 33.9901C187.963 33.8453 187.871 33.6744 187.82 33.4897C187.707 33.2134 187.661 32.9141 187.686 32.6165C187.711 32.3189 187.807 32.0316 187.965 31.7784C188.041 31.6545 188.141 31.5479 188.26 31.4653C188.379 31.3827 188.515 31.3261 188.657 31.2991C189.055 31.281 189.444 31.4204 189.741 31.6872C189.874 31.7408 190.021 31.7527 190.161 31.7214C190.301 31.6901 190.429 31.617 190.527 31.5117C190.838 31.2282 190.959 30.2392 190.865 29.5777C190.865 29.5 190.834 29.4224 190.821 29.3414C190.689 28.7169 190.51 27.863 192.026 27.009C192.41 26.7774 192.841 26.6344 193.288 26.5905C192.31 25.9556 191.173 25.6082 190.007 25.588Z" fill="#032100"></path><path d="M194.662 30.4622C194.719 30.7458 194.662 30.9922 194.557 31.0158C194.452 31.0394 194.311 30.8268 194.253 30.5432C194.196 30.2597 194.253 30.0133 194.358 29.9931C194.462 29.9728 194.608 30.1821 194.662 30.4622Z" fill="#032100"></path><path d="M193.875 29.6517L193.585 29.4796C193.714 29.259 193.923 29.097 194.169 29.0273C194.275 29.0087 194.383 29.0133 194.487 29.0407C194.59 29.0681 194.687 29.1176 194.77 29.1859L194.567 29.4559C194.521 29.4165 194.467 29.3874 194.409 29.3705C194.351 29.3536 194.29 29.3494 194.23 29.3581C194.081 29.4114 193.955 29.5153 193.875 29.6517Z" fill="#032100"></path><path d="M195.08 33.9422C194.828 33.9447 194.582 33.8735 194.37 33.7374C194.158 33.6012 193.991 33.4061 193.889 33.176L194.196 33.0376C194.279 33.2209 194.418 33.3738 194.592 33.4748C194.766 33.5758 194.967 33.62 195.168 33.6013L195.208 33.9388L195.08 33.9422Z" fill="#032100"></path><path d="M193.139 36.7876L191.715 36.4771L192.515 37.9014L193.139 36.7876Z" fill="#032100"></path><path d="M192.515 38.2454L191.384 36.2202L193.409 36.6624L192.515 38.2454ZM192.045 36.7198L192.515 37.5535L192.879 36.9054L192.045 36.7198Z" fill="#032100"></path><path d="M184.839 27.863C184.839 27.863 182.814 26.3002 181.018 26.2327C179.223 26.1652 177.93 28.0723 177.373 29.608C176.816 31.1438 174.143 31.1708 172.026 30.2831C169.91 29.3954 168.172 31.856 168.354 34.1141C168.536 36.3722 173.218 38.0734 175.682 37.2059C178.146 36.3385 179.536 31.613 180.441 29.7397C181.346 27.8664 184.606 28.4874 184.606 28.4874L184.839 27.863Z" fill="#032100"></path><path d="M174.15 37.6009C172.606 37.5819 171.096 37.1394 169.786 36.3216C168.793 35.6769 168.236 34.9175 168.179 34.1276C168.064 32.6627 168.719 31.1168 169.765 30.3641C170.093 30.1145 170.483 29.9586 170.892 29.9128C171.302 29.867 171.716 29.9332 172.091 30.1042C173.593 30.7422 175.291 30.8738 176.314 30.4418C176.517 30.3659 176.703 30.2479 176.858 30.0956C177.014 29.9432 177.135 29.7598 177.215 29.5574C177.816 27.9069 179.176 26.0099 181.026 26.0774C182.875 26.1449 184.86 27.6773 184.944 27.7449L185.042 27.8225L184.705 28.6933L184.566 28.6697C184.533 28.6697 181.417 28.0891 180.583 29.8241C180.401 30.2021 180.202 30.6915 179.969 31.2552C179.041 33.5369 177.765 36.6558 175.73 37.3781C175.219 37.5387 174.685 37.6139 174.15 37.6009ZM171.143 30.2392C170.716 30.2454 170.303 30.386 169.961 30.6409C169.006 31.316 168.409 32.7505 168.513 34.1006C168.567 34.7757 169.084 35.4508 169.971 36.0381C171.659 37.1283 174.123 37.5705 175.615 37.0507C177.508 36.3756 178.801 33.2163 179.665 31.1202C179.898 30.5464 180.097 30.0536 180.283 29.6688C181.134 27.9069 183.841 28.2039 184.495 28.3187L184.644 27.944C184.219 27.6335 182.528 26.4791 181.022 26.4217C179.362 26.361 178.103 28.1364 177.539 29.6789C177.444 29.9247 177.298 30.1479 177.112 30.3339C176.925 30.52 176.701 30.6648 176.455 30.759C175.352 31.2383 173.546 31.0966 171.966 30.4215C171.707 30.305 171.427 30.243 171.143 30.2392Z" fill="#032100"></path><path d="M207.69 51.3925C207.69 51.3925 210.009 50.5892 210.853 50.1673C211.697 49.7454 213.422 50.2112 213.553 50.2517C213.685 50.2922 214.86 49.9141 214.86 50.2517C214.86 50.5892 214.735 50.6331 214.144 50.8862C213.433 51.2056 212.767 51.6164 212.163 52.1081C211.95 52.3613 211.825 52.4861 212.203 52.4861C212.581 52.4861 214.566 51.8111 214.522 52.3613C214.478 52.9114 213.722 53.0768 213.131 53.2456C212.541 53.4144 212.878 53.6236 211.025 53.7519C209.805 53.7951 208.592 53.5499 207.484 53.0363L207.69 51.3925Z" fill="white"></path><path d="M210.63 53.9342C209.514 53.9136 208.415 53.6583 207.403 53.1849L207.299 53.1309L207.538 51.2644L207.636 51.2306C207.66 51.2306 209.952 50.4306 210.775 50.0188C211.724 49.5463 213.587 50.0864 213.604 50.0931L213.867 50.0391C214.37 49.9412 214.741 49.8838 214.924 50.0391C214.955 50.0654 214.981 50.0985 214.998 50.1358C215.016 50.1731 215.025 50.2139 215.025 50.2551C215.025 50.6939 214.819 50.7817 214.266 51.0179L214.205 51.045C213.519 51.355 212.875 51.7496 212.288 52.2196L212.257 52.2567L212.203 52.3208C212.405 52.2946 212.604 52.2551 212.801 52.2027C213.678 52.0002 214.316 51.8652 214.576 52.0981C214.615 52.1329 214.645 52.1764 214.665 52.225C214.684 52.2736 214.692 52.3261 214.687 52.3782C214.64 53.0027 213.901 53.2085 213.31 53.3739L213.175 53.4111C213.056 53.4412 212.942 53.4902 212.838 53.5562C212.605 53.6912 212.362 53.833 211.022 53.9241C210.883 53.914 210.762 53.9342 210.63 53.9342ZM207.663 52.9216C208.715 53.3882 209.859 53.6098 211.008 53.5697C212.267 53.4853 212.477 53.3638 212.679 53.2322C212.804 53.1556 212.939 53.0965 213.081 53.0567L213.219 53.0195C213.736 52.8744 214.32 52.709 214.35 52.3208C214.218 52.1926 213.243 52.4187 212.878 52.5031C212.657 52.5648 212.432 52.6066 212.203 52.628C212.092 52.628 211.886 52.628 211.812 52.4727C211.737 52.3175 211.856 52.1824 212.001 52.0103L212.031 51.9732C212.653 51.4603 213.341 51.0334 214.077 50.704L214.137 50.677C214.657 50.4543 214.687 50.4306 214.691 50.2619C214.436 50.255 214.182 50.2822 213.935 50.3429C213.795 50.39 213.646 50.405 213.499 50.3868C213.283 50.3125 211.677 49.921 210.931 50.2923C210.185 50.6635 208.305 51.3285 207.849 51.4905L207.663 52.9216Z" fill="#032100"></path><path d="M211.353 51.1193L211.194 50.8222L211.657 50.5691C212.259 50.3396 212.885 50.1777 213.523 50.0864L213.577 50.424C212.976 50.5058 212.386 50.6552 211.819 50.8695L211.353 51.1193Z" fill="#032100"></path><path d="M210.725 50.5049C210.725 50.5049 211.231 50.3362 211.946 50.083Z" fill="white"></path><path d="M210.779 50.6669L210.671 50.3462C210.671 50.3462 211.177 50.1775 211.893 49.9243L212.004 50.245C211.285 50.4981 210.779 50.6669 210.779 50.6669Z" fill="#032100"></path></svg>