<svg xmlns="http://www.w3.org/2000/svg" width="376" height="200" viewBox="0 0 376 200" fill="none"><rect width="376" height="200" fill="#3BC90C"></rect><path d="M233.705 57.1557H234.592C235.484 57.1557 236.883 56.6277 235.738 56.142C234.592 55.6563 231.165 55.5032 230.785 55.8833C230.405 56.2635 227.227 57.4092 227.227 57.4092V57.4619C225.051 57.3352 219.376 56.9973 216.593 56.7545C214.271 56.5861 211.937 56.6374 209.624 56.9076L206.9 55.5454L203.558 61.6065C203.558 61.6065 205.379 63.5759 206.894 63.5759C208.41 63.5759 212.649 63.1218 216.889 62.6625C221.129 62.2031 228.557 60.0913 228.557 60.0913V60.0437C230.222 60.3505 231.907 60.527 233.599 60.5717C237.031 60.6984 237.031 60.1916 237.295 59.6794C237.436 59.4288 237.524 59.1522 237.554 58.8664L233.705 57.1557Z" fill="white" stroke="#032100" stroke-width="0.5" stroke-linecap="round" stroke-linejoin="round"></path><path d="M233.705 57.1558C233.705 57.1558 231.45 58.2751 230.991 58.5391C230.484 58.7238 229.947 58.815 229.407 58.8083" fill="white"></path><path d="M233.705 57.1558C233.705 57.1558 231.45 58.2751 230.991 58.5391C230.484 58.7238 229.947 58.815 229.407 58.8083" stroke="#032100" stroke-width="0.5" stroke-linecap="round" stroke-linejoin="round"></path><path d="M158.205 140.354L155.713 145.961C154.467 148.764 154.467 153.59 157.297 153.278C160.127 152.967 160.1 145.179 160.565 143.31C161.029 141.441 161.188 140.823 161.188 140.823L158.205 140.354Z" fill="#3BC90C" stroke="#032100" stroke-width="0.5" stroke-linecap="round" stroke-linejoin="round"></path><path d="M159.809 148.727C157.698 152.423 156.99 152.37 156.019 150.839C155.522 150.069 155.374 148.448 155.348 146.975C154.503 149.789 154.783 153.558 157.27 153.284C158.68 153.12 159.403 151.003 159.809 148.727Z" fill="white" stroke="#032100" stroke-width="0.5" stroke-linecap="round" stroke-linejoin="round"></path><path d="M183.737 140.354C183.737 140.354 181.404 143.622 181.715 145.179C182.027 146.737 183.584 146.272 185.295 147.518C187.005 148.764 187.005 149.387 188.874 150.628C190.743 151.869 193.547 151.874 192.612 149.54C191.678 147.207 188.246 143.796 188.098 143.157C187.923 142.575 187.715 142.004 187.475 141.446L183.737 140.354Z" fill="#3BC90C" stroke="#032100" stroke-width="0.5" stroke-linecap="round" stroke-linejoin="round"></path><path d="M185.305 146.03C184.227 145.206 183.08 144.475 181.879 143.844C181.717 144.269 181.661 144.728 181.715 145.18C182.027 146.737 183.584 146.272 185.295 147.518C187.005 148.764 187.005 149.387 188.874 150.628C190.743 151.869 193.547 151.874 192.612 149.541C189.724 151.452 188.072 148.068 185.305 146.03Z" fill="white" stroke="#032100" stroke-width="0.5" stroke-linecap="round" stroke-linejoin="round"></path><path d="M173.616 87.5721C173.616 87.5721 172.529 95.4917 170.813 101.273C169.097 107.054 167.703 112.176 167.08 113.886C166.457 115.597 162.566 121.362 161.8 125.718C161.035 130.074 158.532 139.731 158.22 140.354C157.909 140.977 159.804 143.157 161.335 143.157C162.867 143.157 173.79 122.915 175.348 120.269C176.905 117.624 183.378 101.194 184.624 99.4779C185.29 98.5045 186.245 97.7655 187.354 97.366C187.354 97.366 189.202 109.509 189.202 112.957C189.202 116.405 187.491 116.225 186.245 120.275C184.999 124.324 183.753 139.894 183.753 140.338C183.753 140.781 184.535 141.742 185.622 142.207C186.365 142.492 187.164 142.599 187.956 142.518C187.956 142.518 192.628 128.353 194.497 123.992C196.366 119.631 198.721 114.029 198.858 110.755C198.996 107.482 200.411 93.7864 196.989 85.2227C196.974 85.2385 184.519 90.6872 173.616 87.5721Z" fill="#032100" stroke="#032100" stroke-width="0.5" stroke-linecap="round" stroke-linejoin="round"></path><path d="M182.338 44.3315C182.338 44.3315 177.058 47.4993 173.854 50.6988C170.791 53.7611 171.124 58.724 171.583 62.2086C172.043 65.6933 173.695 79.7848 173.695 80.6877C173.695 81.5905 173.394 88.7181 173.394 88.7181C176.45 90.423 179.895 91.3104 183.394 91.2946C189.302 91.2946 197.649 86.5957 197.649 86.5957C197.649 86.5957 195.68 75.3868 195.68 72.2031C195.68 69.0195 197.042 54.6322 197.042 54.6322C197.042 54.6322 199.318 59.025 200.379 60.0862L203.409 63.1167L208.837 55.6935C208.837 55.6935 202.169 49.0304 198.985 46.3008C195.801 43.5712 194.835 42.2407 190.168 42.4519C187.459 42.554 184.798 43.1929 182.338 44.3315Z" fill="#3BC90C" stroke="#032100" stroke-width="0.5" stroke-linecap="round" stroke-linejoin="round"></path><path d="M196.958 49.1836L197.032 54.6375L198.79 50.6091" stroke="#032100" stroke-width="0.5" stroke-linecap="round" stroke-linejoin="round"></path><path d="M194.714 64.4575C194.714 64.4575 189.213 72.6041 186.567 74.4415" stroke="#032100" stroke-width="0.5" stroke-linecap="round" stroke-linejoin="round"></path><path d="M187.138 56.6807C190.369 57.4885 191.177 54.0409 191.177 49.8171C191.132 47.3371 190.756 44.8742 190.057 42.4941C187.387 42.607 184.765 43.2419 182.338 44.3632C182.338 44.3632 181.9 44.6271 181.208 45.0706C180.928 46.0311 180.952 47.0546 181.277 48.0009C182.286 51.2004 183.901 55.8466 187.138 56.6807Z" fill="white" stroke="#032100" stroke-width="0.5" stroke-linecap="round" stroke-linejoin="round"></path><path d="M177.983 70.3395C179.887 72.1733 181.652 74.1463 183.263 76.2422C185.433 79.1936 189.783 82.4934 189.783 82.4934C191.321 82.1566 192.881 81.9255 194.45 81.8018C195.85 81.8018 200.976 86.147 200.976 86.147C200.976 86.147 200.659 87.3613 199.572 87.3561C198.484 87.3508 193.975 86.6591 193.511 86.6591C193.046 86.6591 190.871 87.3455 189.155 86.6591C187.439 85.9728 185.586 84.0562 185.586 84.0562C185.586 84.0562 177.191 79.1883 174.551 76.7596C173.015 75.3909 171.843 73.6619 171.14 71.7281L170.987 69.4736L177.983 70.3395Z" fill="white" stroke="#032100" stroke-width="0.5" stroke-linecap="round" stroke-linejoin="round"></path><path d="M173.854 50.6987C173.078 51.095 172.395 51.6508 171.849 52.3296C171.303 53.0083 170.907 53.7948 170.686 54.6374C169.931 57.5149 170.538 61.1473 170.538 62.8157C170.538 64.4841 171.14 70.8461 171.14 70.8461C172.428 71.5898 173.878 72.0068 175.364 72.0605C176.92 71.9792 178.43 71.509 179.757 70.693L179.91 58.2698" fill="#3BC90C"></path><path d="M173.854 50.6987C173.078 51.095 172.395 51.6508 171.849 52.3296C171.303 53.0083 170.907 53.7948 170.686 54.6374C169.931 57.5149 170.538 61.1473 170.538 62.8157C170.538 64.4841 171.14 70.8461 171.14 70.8461C172.428 71.5898 173.878 72.0068 175.364 72.0605C176.92 71.9792 178.43 71.509 179.757 70.693L179.91 58.2698" stroke="#032100" stroke-width="0.5" stroke-linecap="round" stroke-linejoin="round"></path><path d="M182.381 45.4404C182.909 47.6207 183.615 49.7538 184.493 51.8183C185.871 54.9439 188.12 55.3188 188.87 53.5659C189.619 51.8131 189.746 48.3179 189.746 48.3179C189.746 48.3179 187.634 49.4425 185.744 48.0644C183.854 46.6864 182.381 45.4404 182.381 45.4404Z" fill="white" stroke="#032100" stroke-width="0.5" stroke-linecap="round" stroke-linejoin="round"></path><path d="M192.56 37.9113C192.56 37.9113 194.44 36.9081 194.814 35.5354C195.189 34.1627 194.44 33.5344 194.44 33.5344C194.44 33.5344 196.815 32.2831 195.939 30.1554C195.063 28.0277 189.302 24.6539 184.551 25.0288C179.799 25.4036 180.174 28.7827 180.174 28.7827C180.174 28.7827 177.798 29.4057 177.798 31.4225C177.798 33.4394 178.173 36.5491 179.551 38.4234C180.929 40.2977 182.191 38.0486 182.924 36.924C183.658 35.7994 183.801 34.5481 185.675 35.5513C187.549 36.5544 191.678 36.6758 191.678 36.6758L192.56 37.9113Z" fill="#032100" stroke="#032100" stroke-width="0.5" stroke-linecap="round" stroke-linejoin="round"></path><path d="M194.392 30.81C194.156 30.4794 193.873 30.1842 193.553 29.9336" stroke="white" stroke-width="0.5" stroke-linecap="round" stroke-linejoin="round"></path><path d="M181.752 30.2188C181.752 30.2188 187.85 34.8649 190.77 34.5956C192.818 34.4108 194.803 33.376 194.793 31.9558" stroke="white" stroke-width="0.5" stroke-linecap="round" stroke-linejoin="round"></path><path d="M180.955 30.8838C180.955 30.8838 183.209 32.4677 182.28 33.9355C181.351 35.4032 179.36 35.2607 179.36 35.2607" stroke="white" stroke-width="0.5" stroke-linecap="round" stroke-linejoin="round"></path><path d="M180.807 36.6602C180.807 36.6602 180.685 38.5345 180.31 38.2863C179.936 38.0382 179.059 36.2853 178.806 35.1608C178.552 34.0362 177.433 35.657 177.681 38.2863C177.755 39.0297 178.06 39.7311 178.554 40.2918C179.047 40.8525 179.704 41.2443 180.432 41.4119C180.432 41.4119 182.808 47.2883 185.184 49.0359C187.56 50.7834 189.312 49.5374 190.437 47.5364C191.562 45.5354 192.94 35.1608 192.94 35.1608C190.997 35.6562 188.951 35.568 187.058 34.9073C185.322 34.2275 183.715 33.2562 182.306 32.0352C182.306 32.0352 184.054 34.2843 182.802 35.2822C182.182 35.8036 181.514 36.265 180.807 36.6602Z" fill="white" stroke="#032100" stroke-width="0.5" stroke-linecap="round" stroke-linejoin="round"></path><path d="M188.684 39.9121C188.684 39.9121 189.687 43.0377 189.059 43.4126C188.431 43.7874 187.312 43.4126 187.312 43.4126" stroke="#032100" stroke-width="0.5" stroke-linecap="round" stroke-linejoin="round"></path><path d="M185.438 44.6587C185.438 44.6587 186.309 46.2848 188.811 45.5351" stroke="#032100" stroke-width="0.5" stroke-linecap="round" stroke-linejoin="round"></path><path d="M186.309 39.849C186.309 40.3769 186.113 40.7835 185.87 40.7835C185.628 40.7835 185.438 40.3664 185.438 39.849C185.438 39.3316 185.633 38.9092 185.87 38.9092C186.108 38.9092 186.309 39.3316 186.309 39.849Z" fill="#032100"></path><path d="M190.5 39.6586C190.5 40.1866 190.305 40.5984 190.062 40.5984C189.819 40.5984 189.624 40.176 189.624 39.6586C189.624 39.1412 189.819 38.7241 190.062 38.7241C190.305 38.7241 190.5 39.1412 190.5 39.6586Z" fill="#032100"></path><path d="M184.06 37.7847C184.346 37.4506 184.721 37.2033 185.141 37.0708C185.56 36.9383 186.009 36.9259 186.435 37.035" stroke="#032100" stroke-width="0.5" stroke-linecap="round" stroke-linejoin="round"></path><path d="M189.303 37.2829C189.303 37.2829 191.05 36.6599 191.304 38.5342" stroke="#032100" stroke-width="0.5" stroke-linecap="round" stroke-linejoin="round"></path><path d="M156.848 43.2913C156.806 44.0316 156.699 44.7666 156.526 45.4876C156.166 46.3637 155.729 47.2064 155.222 48.0061L159.445 53.2119C159.445 53.2119 160.665 50.7726 161.314 50.4453C161.942 50.2269 162.603 50.118 163.268 50.1232C162.626 48.2074 161.752 46.3775 160.665 44.6746C158.965 42.0717 157.503 42.0717 156.848 43.2913Z" fill="white" stroke="#032100" stroke-width="0.5" stroke-linecap="round" stroke-linejoin="round"></path><path d="M168.073 33.7775C168.073 33.7775 169.451 33.7775 170.755 31.4227C172.059 29.068 169.857 26.5443 164.657 25.8104C159.456 25.0765 153.042 26.7027 151.157 31.3383C149.272 35.9739 152.54 41.8977 154.573 43.3707C156.605 44.8438 158.068 44.0254 158.796 43.5344C159.525 43.0434 159.446 41.8291 159.689 41.7446C159.932 41.6601 160.745 42.9642 162.049 41.9927C163.353 41.0213 162.212 39.147 163.432 38.2494C164.652 37.3519 165.708 37.2727 165.628 35.8102C165.627 35.179 165.544 34.5507 165.38 33.9412L168.073 33.7775Z" fill="#032100" stroke="#032100" stroke-width="0.5" stroke-linecap="round" stroke-linejoin="round"></path><path d="M152.693 36.6704C152.426 37.0389 152.245 37.4631 152.165 37.9111" stroke="white" stroke-width="0.5" stroke-linecap="round" stroke-linejoin="round"></path><path d="M167.291 28.7616C167.291 28.7616 169.282 28.4976 167.819 30.3455C166.357 32.1934 164.124 32.3307 160.523 32.3307C158.131 32.3307 155.317 33.8723 153.659 35.5302" stroke="white" stroke-width="0.5" stroke-linecap="round" stroke-linejoin="round"></path><path d="M161.456 35.1289C161.456 35.1289 155.089 35.9262 153.099 38.9726" stroke="white" stroke-width="0.5" stroke-linecap="round" stroke-linejoin="round"></path><path d="M154.984 45.9736C154.984 45.9736 156.694 47.5998 158.885 49.8753C161.076 52.1509 163.848 55.1551 163.848 55.1551C163.848 55.1551 160.512 55.9681 160.269 56.0526C160.026 56.1371 152.629 47.8374 152.629 47.8374L154.984 45.9736Z" fill="white" stroke="#032100" stroke-width="0.5" stroke-linecap="round" stroke-linejoin="round"></path><path d="M118.433 153.3C118.433 153.3 113.966 154.577 113.206 155.676C112.445 156.774 114.05 161.241 113.881 163.944C113.712 166.647 113.353 167.64 114.135 168.41C114.916 169.181 118.015 170.945 119.789 170.438C121.563 169.931 119.621 167.909 119.536 166.811C119.452 165.712 121.12 158.363 121.257 157.946C121.394 157.529 119.436 154.118 118.433 153.3Z" fill="#3BC90C" stroke="#032100" stroke-width="0.5" stroke-linecap="round" stroke-linejoin="round"></path><path d="M117.931 167.645C117.678 166.969 119.114 159.968 118.015 157.012C117.611 155.821 116.769 154.828 115.661 154.234C114.605 154.662 113.549 155.179 113.206 155.665C112.451 156.758 114.05 161.23 113.881 163.933C113.712 166.636 113.353 167.629 114.135 168.4C114.916 169.171 118.015 170.934 119.789 170.427C119.986 170.379 120.167 170.283 120.317 170.147C119.642 169.551 118.126 168.168 117.931 167.645Z" fill="white" stroke="#032100" stroke-width="0.5" stroke-linecap="round" stroke-linejoin="round"></path><path d="M119.884 170.39C118.829 169.984 117.408 169.044 117.086 168.152C116.669 166.969 117.678 161.314 116.838 157.772C116.31 155.66 115.254 154.989 114.42 154.789C113.957 154.99 113.543 155.289 113.206 155.665C112.451 156.758 114.05 161.23 113.881 163.933C113.712 166.636 113.353 167.629 114.135 168.4C114.916 169.171 118.015 170.934 119.789 170.427L119.884 170.39Z" fill="white" stroke="#032100" stroke-width="0.5" stroke-linecap="round" stroke-linejoin="round"></path><path d="M147.492 100.756C147.492 100.756 147.001 114.81 145.993 120.264C144.984 125.718 141.864 130.866 140.856 132.682C139.847 134.499 125.703 152.075 124.288 154.097C122.873 156.119 121.257 157.935 121.257 157.935L118.433 153.289C118.433 153.289 124.087 142.381 125.903 137.529C127.72 132.677 133.987 120.766 133.987 120.766C133.987 120.766 133.876 109.515 134.282 108.095C134.689 106.674 133.068 101.833 134.082 97.9945C135.095 94.1562 139.145 92.3452 139.145 92.3452" fill="#032100"></path><path d="M147.492 100.756C147.492 100.756 147.001 114.81 145.993 120.264C144.984 125.718 141.864 130.866 140.856 132.682C139.847 134.499 125.703 152.075 124.288 154.097C122.873 156.119 121.257 157.935 121.257 157.935L118.433 153.289C118.433 153.289 124.087 142.381 125.903 137.529C127.72 132.677 133.987 120.766 133.987 120.766C133.987 120.766 133.876 109.515 134.282 108.095C134.689 106.674 133.068 101.833 134.082 97.9945C135.095 94.1562 139.145 92.3452 139.145 92.3452" stroke="#032100" stroke-width="0.5" stroke-linecap="round" stroke-linejoin="round"></path><path d="M153.299 166.679C153.299 166.679 153.732 166.964 158.051 167.254C162.37 167.545 163.811 166.246 163.669 167.539C163.526 168.833 160.644 171.283 158.342 172.291C156.04 173.299 151.863 173.59 150.132 174.45C148.4 175.311 146.679 175.316 146.679 173.299C146.679 171.283 148.405 167.397 148.405 167.397C148.405 167.397 152.148 168.263 153.299 166.679Z" fill="#3BC90C" stroke="#032100" stroke-width="0.5" stroke-linecap="round" stroke-linejoin="round"></path><path d="M161.219 169.271C158.775 170.997 155.031 171.573 151.43 172.866C149.902 173.468 148.199 173.457 146.679 172.834C146.679 172.998 146.679 173.157 146.679 173.299C146.679 175.316 148.405 175.316 150.132 174.45C151.858 173.584 156.04 173.299 158.342 172.307C160.644 171.314 163.526 168.854 163.669 167.555C163.706 167.206 163.627 167.027 163.415 166.995C162.85 167.898 162.102 168.674 161.219 169.271Z" fill="white" stroke="#032100" stroke-width="0.5" stroke-linecap="round" stroke-linejoin="round"></path><path d="M157.096 93.3539C157.096 93.3539 158.569 114.589 159.984 122.266C161.399 129.942 156.288 145.132 155.486 149.778C154.683 154.424 153.733 167.286 153.733 167.286C153.733 167.286 152.925 169.308 151.711 169.709C150.496 170.11 148.279 170.316 148.279 168.901C148.279 167.486 147.809 158.263 147.809 155.839C147.809 153.416 148.21 132.345 148.21 128.3C148.21 124.256 143.363 104.262 143.158 100.022C142.952 95.7826 143.158 92.752 145.38 91.9442C147.603 91.1364 157.096 93.3539 157.096 93.3539Z" fill="#032100" stroke="#032100" stroke-width="0.5" stroke-linecap="round" stroke-linejoin="round"></path><path d="M160.036 71.9444C160.036 71.9444 158.014 83.1533 157.925 86.4848C157.835 89.8163 158.632 94.2671 156.716 95.1752C155.07 95.9378 153.204 96.0802 151.462 95.5765C150.348 95.1752 149.54 95.4761 149.646 92.7518C149.752 90.0275 158.321 70.5295 160.036 71.9444Z" fill="white" stroke="#032100" stroke-width="0.5" stroke-linecap="round" stroke-linejoin="round"></path><path d="M147.065 51.2373C147.065 51.2373 135.249 59.8749 132.218 61.9921C129.188 64.1093 128.734 67.1451 129.188 68.9613C129.642 70.7775 135.851 85.4763 135.851 85.4763L139.335 79.7214C139.335 79.7214 136.759 69.5685 136.912 68.2063C137.065 66.8442 141.458 64.5686 141.458 64.5686L147.065 51.2373Z" fill="#3BC90C" stroke="#032100" stroke-width="0.5" stroke-linecap="round" stroke-linejoin="round"></path><path d="M189.989 83.2749L191.9 83.4332C191.9 83.4332 195.042 80.6825 196.124 79.7638C197.206 78.8452 202.259 81.7543 202.259 81.7543C202.259 81.7543 203.109 81.9444 202.185 82.3562C201.261 82.768 198.69 83.0531 198.568 83.3013C198.447 83.5494 195.248 86.8228 194.128 87.3825C193.009 87.9421 188.136 86.3741 188.136 86.3741L189.989 83.2749Z" fill="white" stroke="#032100" stroke-width="0.5" stroke-linecap="round" stroke-linejoin="round"></path><path d="M152.133 47.8423C152.133 47.8423 157.339 52.3987 160.506 55.2339C163.674 58.0691 175.601 72.4564 181.673 76.9864C187.744 81.5164 189.988 83.2639 189.988 83.2639L189.122 86.2681C189.122 86.2681 188.114 87.1287 182.491 84.869C176.868 82.6093 171.478 79.2355 167.481 76.4478C163.484 73.6601 160.617 71.2526 160.617 71.2526C160.617 71.2526 154.329 85.6557 152.872 91.4264C151.415 97.1971 149.862 104.436 149.213 106.062C148.564 107.688 147.344 108.908 145.797 108.908C144.25 108.908 141.895 107.772 137.503 104.684C133.11 101.595 130.512 99.6469 130.111 98.9922C129.71 98.3376 136.858 80.0486 138.4 71.997C139.942 63.9454 141.256 52.8844 152.133 47.8423Z" fill="#3BC90C" stroke="#032100" stroke-width="0.5" stroke-linecap="round" stroke-linejoin="round"></path><path d="M154.382 68.5337L160.591 71.2633L149.699 72.4037" stroke="#032100" stroke-width="0.5" stroke-linecap="round" stroke-linejoin="round"></path><path d="M159.477 55.2924C158.388 55.0304 157.248 55.0619 156.175 55.3838C155.102 55.7056 154.133 56.3062 153.368 57.1244" stroke="#032100" stroke-width="0.5" stroke-linecap="round" stroke-linejoin="round"></path><path d="M154.683 85.7827C154.683 85.7827 150.644 95.4763 147.915 99.0137C145.185 102.551 143.475 104.668 143.475 104.668C143.475 104.668 149.029 105.983 148.02 107.699C148.02 107.699 148.828 107.092 150.444 101.638C152.059 96.1838 154.683 85.7827 154.683 85.7827Z" fill="#3BC90C" stroke="#032100" stroke-width="0.5" stroke-linecap="round" stroke-linejoin="round"></path><path d="M160.591 40.6094C160.591 40.6094 160.264 37.9273 158.558 37.4416C156.853 36.9558 156.526 41.507 157.339 43.0539C157.586 43.5076 157.934 43.8977 158.358 44.1936C158.781 44.4895 159.267 44.6832 159.778 44.7593C159.778 44.7593 161.647 49.2312 163.194 50.4508C164.741 51.6704 165.306 50.5353 166.198 49.7222C167.09 48.9091 168.072 43.5396 168.072 43.5396C168.072 43.5396 170.348 43.0539 170.184 42.1564C170.021 41.2588 168.394 39.9653 168.637 39.1522C168.88 38.3391 169.45 37.6052 169.45 36.9558C169.262 35.6676 168.907 34.4094 168.394 33.2125C168.072 32.6476 164.413 32.6476 163.194 33.297C161.974 33.9464 164.25 34.5958 163.922 35.6517C163.595 36.7077 161.647 37.1195 161.483 37.7636C161.32 38.4078 162.217 41.7445 160.591 40.6094Z" fill="white" stroke="#032100" stroke-width="0.5" stroke-linecap="round" stroke-linejoin="round"></path><path d="M168.917 37.4677C168.917 37.4677 168.442 36.2005 167.18 37.6208Z" fill="white"></path><path d="M168.917 37.4677C168.917 37.4677 168.442 36.2005 167.18 37.6208" stroke="#032100" stroke-width="0.5" stroke-linecap="round" stroke-linejoin="round"></path><path d="M164.636 44.3843C164.811 44.7039 165.07 44.9704 165.384 45.1562C165.698 45.3419 166.056 45.44 166.42 45.4402" fill="white"></path><path d="M164.636 44.3843C164.811 44.7039 165.07 44.9704 165.384 45.1562C165.698 45.3419 166.056 45.44 166.42 45.4402" stroke="#032100" stroke-width="0.5" stroke-linecap="round" stroke-linejoin="round"></path><path d="M167.46 40.4826C167.702 40.4826 167.898 40.0547 167.898 39.5269C167.898 38.9991 167.702 38.5713 167.46 38.5713C167.218 38.5713 167.021 38.9991 167.021 39.5269C167.021 40.0547 167.218 40.4826 167.46 40.4826Z" fill="#032100"></path><path d="M146.061 119.055L140.845 109.531L136.985 108.168" stroke="white" stroke-width="0.5" stroke-linecap="round" stroke-linejoin="round"></path><path d="M219.398 30.6461C215.237 32.04 211.367 34.7801 210.016 38.3756C208.236 43.0799 217.059 44.5371 219.398 48.0745C221.736 51.6119 217.634 54.2517 217.93 59.542C218.225 64.8323 228.22 61.8968 232.924 67.1871C237.628 72.4773 233.22 74.2461 239.096 78.9503C244.973 83.6545 248.8 84.23 252.332 78.6546C255.865 73.0792 258.504 66.3054 253.214 60.7036C247.924 55.1018 238.51 53.6499 239.096 49.5317C239.682 45.4135 244.096 39.8275 238.806 35.1233C235.58 32.3745 231.677 30.5389 227.502 29.8066C225.131 29.379 222.191 29.7063 219.398 30.6461Z" fill="#032100" stroke="#032100" stroke-width="0.5" stroke-linecap="round" stroke-linejoin="round"></path><path d="M218.5 37.4623C218.5 37.4623 214.804 37.1772 214.936 34.6113C215.068 32.0453 223.769 31.0527 227.048 31.0527" stroke="white" stroke-width="0.5" stroke-linecap="round" stroke-linejoin="round"></path><path d="M217.645 35.7515C220.802 35.7475 223.848 36.9159 226.192 39.0302C230.179 42.5887 235.733 43.8717 239.439 42.726" stroke="white" stroke-width="0.5" stroke-linecap="round" stroke-linejoin="round"></path><path d="M217.217 39.0303C217.217 39.0303 210.665 39.4579 211.937 41.5909C213.21 43.7239 216.23 43.5867 216.23 43.5867" stroke="white" stroke-width="0.5" stroke-linecap="round" stroke-linejoin="round"></path><path d="M223.093 55.9941C223.093 55.9941 219.466 57.8368 218.838 58.9191C218.209 60.0015 213.257 71.5904 213.257 71.5904C213.257 71.5904 209.302 74.3781 205.253 77.8891C203.886 78.9738 202.33 79.7971 200.665 80.3178C200.665 80.3178 196.705 81.2154 195.718 81.5797C194.73 81.944 193.199 85.0854 192.93 86.3314C192.661 87.5774 193.827 88.1265 194.82 88.2163C195.813 88.306 198.685 84.8901 198.954 84.6208C199.07 84.5373 199.202 84.4784 199.342 84.4475C199.482 84.4167 199.627 84.4145 199.767 84.4413C199.767 84.4413 197.518 86.87 197.518 87.1392C197.518 87.4085 197.787 88.1265 198.505 87.588C199.223 87.0495 199.857 86.1466 201.114 84.9798C202.37 83.813 204.176 82.1024 204.809 81.4741C205.443 80.8458 211.018 78.3062 213.357 76.886C214.854 76.0357 216.217 74.9681 217.401 73.7182C217.929 73.0899 222.708 64.6318 222.708 64.6318L223.093 55.9941Z" fill="white" stroke="#032100" stroke-width="0.5" stroke-linecap="round" stroke-linejoin="round"></path><path d="M193.151 86.854C193.151 86.854 194.867 83.644 195.464 83.0474" stroke="#032100" stroke-width="0.5" stroke-linecap="round" stroke-linejoin="round"></path><path d="M193.675 87.8306C193.675 87.8306 196.135 83.6544 196.584 83.4326" stroke="#032100" stroke-width="0.5" stroke-linecap="round" stroke-linejoin="round"></path><path d="M194.419 88.1209C194.419 88.1209 197.106 83.8655 197.703 83.5698" stroke="#032100" stroke-width="0.5" stroke-linecap="round" stroke-linejoin="round"></path><path d="M214.466 68.7763C215.816 69.8223 217.226 70.7884 218.69 71.6696C220.274 68.977 222.697 64.674 222.697 64.674L223.093 55.9941C223.093 55.9941 219.466 57.8368 218.837 58.9191C218.404 59.653 215.971 65.2706 214.466 68.7763Z" fill="#3BC90C" stroke="#032100" stroke-width="0.5" stroke-linecap="round" stroke-linejoin="round"></path><path d="M235.115 120.565C235.115 120.565 240.87 140.538 242.671 145.031C244.471 149.524 244.65 156.726 244.471 158.885C244.291 161.045 242.581 164.556 242.042 165.902C241.504 167.248 243.658 167.254 244.83 166.43C246.002 165.606 249.418 164.36 250.226 161.678C251.034 158.996 250.226 155.739 250.405 154.477C250.585 153.215 252.026 153.22 250.585 151.061C249.143 148.901 246.989 146.922 246.72 145.781C246.451 144.641 245.099 139.393 245.817 134.266C246.535 129.139 244.65 123.469 244.202 121.853C244.056 121.162 243.813 120.496 243.478 119.874C243.478 119.874 237.634 121.093 235.115 120.565Z" fill="white" stroke="#032100" stroke-width="0.5" stroke-linecap="round" stroke-linejoin="round"></path><path d="M250.585 151.035C250.12 150.338 249.581 149.662 249.059 149.023V151.135C249.059 153.025 248.879 158.152 247.438 159.772C246.382 160.96 244.893 160.644 244.17 160.395C243.573 162.265 242.868 164.099 242.058 165.886C241.53 167.238 243.673 167.238 244.845 166.414C246.018 165.591 249.434 164.345 250.241 161.663C251.049 158.981 250.241 155.723 250.421 154.461C250.6 153.199 252.026 153.194 250.585 151.035Z" fill="#3BC90C" stroke="#032100" stroke-width="0.5" stroke-linecap="round" stroke-linejoin="round"></path><path d="M222.697 118.2C222.697 118.2 221.44 133.511 220.453 139.25C219.466 144.989 218.293 150.586 217.391 151.842C216.488 153.099 212.174 156.52 211.366 157.154C210.559 157.787 211.366 158.59 211.894 158.859C212.422 159.128 215.675 159.493 218.014 157.513C220.353 155.533 220.712 154.345 221.609 154.002C222.507 153.658 223.23 153.553 223.499 151.393C223.769 149.234 222.237 148.157 223.05 145.908C223.949 143.326 225.007 140.803 226.218 138.353C228.019 134.572 229.819 130.612 229.819 127.735C229.819 124.858 229.428 121.801 229.428 121.093C229.492 120.306 229.614 119.524 229.793 118.754L222.681 117.698L222.697 118.2Z" fill="white" stroke="#032100" stroke-width="0.5" stroke-linecap="round" stroke-linejoin="round"></path><path d="M223.273 149.297C223.066 149.568 222.889 149.86 222.745 150.169C222.132 151.51 219.086 155.163 217.502 155.042C216.59 154.93 215.7 154.681 214.862 154.303C213.416 155.549 211.832 156.795 211.378 157.154C210.565 157.782 211.378 158.59 211.906 158.859C212.434 159.128 215.686 159.493 218.025 157.513C220.364 155.533 220.723 154.345 221.62 154.002C222.518 153.658 223.241 153.553 223.51 151.393C223.584 150.686 223.503 149.971 223.273 149.297Z" fill="#3BC90C" stroke="#032100" stroke-width="0.5" stroke-linecap="round" stroke-linejoin="round"></path><path d="M226.926 54.2413C226.926 54.2413 224.482 55.387 223.405 55.8252C222.328 56.2635 221.699 58.9192 222.148 60.54C222.597 62.1609 221.979 67.995 222.608 70.2442C223.236 72.4933 227.285 74.922 228.188 75.9093C228.794 76.6548 229.251 77.5098 229.535 78.4277L224.049 87.9629C221.979 91.5637 213.162 111.532 213.162 111.532C213.162 111.532 215.686 118.1 229.086 120.887C242.486 123.675 256.614 118.997 258.594 117.719C260.104 116.677 261.517 115.502 262.818 114.208C262.818 114.208 257.058 100.085 252.918 92.2606C248.779 84.436 242.665 76.9494 242.665 76.9494L242.306 70.6507C242.306 70.6507 241.25 61.5643 240.416 59.7639C239.582 57.9635 235.379 55.7196 233.13 55.1758C230.881 54.632 228.727 54.1516 226.926 54.2413Z" fill="#032100" stroke="#032100" stroke-width="0.5" stroke-linecap="round" stroke-linejoin="round"></path><path d="M224.994 67.5674C224.994 67.5674 229.075 68.9296 232.254 68.7025" stroke="white" stroke-width="0.5" stroke-linecap="round" stroke-linejoin="round"></path><path d="M230.891 79.3833C230.891 79.3833 225.205 93.4221 223.858 97.5086" stroke="white" stroke-width="0.5" stroke-linecap="round" stroke-linejoin="round"></path><path d="M232.702 80.4971L231.345 87.9784" stroke="white" stroke-width="0.5" stroke-linecap="round" stroke-linejoin="round"></path><path d="M239.988 81.1782C239.988 81.1782 242.032 94.557 242.486 99.7734" stroke="white" stroke-width="0.5" stroke-linecap="round" stroke-linejoin="round"></path><path d="M241.324 81.627L246.541 92.9678" stroke="white" stroke-width="0.5" stroke-linecap="round" stroke-linejoin="round"></path><path d="M233.124 55.2287C230.875 54.7007 228.716 54.1728 226.915 54.2414C226.915 54.2414 225.574 54.8697 224.228 55.4821C223.977 56.3114 223.8 57.1612 223.7 58.0217C223.431 60.086 224.418 63.3278 224.418 63.3278L232.786 64.4946C232.786 64.4946 233.056 62.0659 233.594 59.4578C233.829 58.1848 234.307 56.9692 235.004 55.8781C234.396 55.6107 233.767 55.3935 233.124 55.2287Z" fill="#3BC90C" stroke="#032100" stroke-width="0.5" stroke-linecap="round" stroke-linejoin="round"></path><path d="M240.063 72.3243C240.436 72.4851 240.842 72.555 241.248 72.5284C241.653 72.5018 242.047 72.3794 242.396 72.1712L242.312 70.7034C242.312 70.7034 241.256 61.617 240.422 59.8166C239.941 58.7607 238.246 57.52 236.478 56.5854C235.708 58.8746 235.309 61.2718 235.295 63.6867C235.295 67.9157 237.275 71.0624 240.063 72.3243Z" fill="#3BC90C" stroke="#032100" stroke-width="0.5" stroke-linecap="round" stroke-linejoin="round"></path><path d="M225.849 54.0406C225.227 55.993 224.863 58.0182 224.767 60.0648C224.767 62.768 225.4 62.4037 226.298 61.9549C227.124 61.4226 227.88 60.7875 228.547 60.0648C228.547 60.0648 230.706 63.0373 231.245 62.7047C231.783 62.372 232.686 57.0342 232.237 54.7851C231.789 52.5359 230.258 51.8179 228.906 51.8179C227.554 51.8179 226.477 52.7101 225.849 54.0406Z" fill="white" stroke="#032100" stroke-width="0.5" stroke-linecap="round" stroke-linejoin="round"></path><path d="M224.497 53.7026C224.497 53.7026 226.118 56.2211 226.387 57.2981C226.656 58.3752 227.918 60.466 228.547 60.0858C229.175 59.7057 229.988 55.8621 229.988 54.1514C229.988 52.4408 228.547 48.9351 228.547 48.9351C228.547 48.9351 225.036 53.7924 224.497 53.7026Z" fill="white" stroke="#032100" stroke-width="0.5" stroke-linecap="round" stroke-linejoin="round"></path><path d="M216.853 43.6236C216.853 43.6236 216.325 41.9183 215.501 43.5339C214.677 45.1495 217.032 47.0449 217.032 47.0449L216.853 43.6236Z" fill="white" stroke="#032100" stroke-width="0.5" stroke-linecap="round" stroke-linejoin="round"></path><path d="M231.065 42.7262C230.635 42.7983 230.232 42.9802 229.893 43.2542C229.365 43.8297 228.906 44.3101 228.906 44.3101C227.205 42.6475 225.675 40.8186 224.339 38.8509C223.072 36.8446 221.171 36.739 219.011 37.003C218.042 37.5774 217.309 38.4774 216.942 39.5425C216.314 41.9712 216.852 47.0978 217.032 48.2646C217.211 49.4315 221.53 55.0121 223.959 54.6531C226.387 54.2941 228.995 48.4441 228.995 48.4441C228.995 48.4441 232.596 47.0978 232.955 45.7462C233.314 44.3946 232.327 42.5467 231.065 42.7262Z" fill="white" stroke="#032100" stroke-width="0.5" stroke-linecap="round" stroke-linejoin="round"></path><path d="M220.722 44.5371C220.722 44.5371 221.171 44.8064 220.722 45.4347C220.274 46.0629 219.191 46.876 219.64 47.235C219.99 47.4738 220.392 47.6275 220.812 47.6838" stroke="#032100" stroke-width="0.5" stroke-linecap="round" stroke-linejoin="round"></path><path d="M221.509 49.2889C221.509 49.2889 223.489 50.1865 224.745 48.6606" stroke="#032100" stroke-width="0.5" stroke-linecap="round" stroke-linejoin="round"></path><path d="M223.457 44.368C223.457 44.9646 223.236 45.4239 222.961 45.4239C222.687 45.4239 222.465 44.9435 222.465 44.368C222.465 43.7925 222.687 43.2856 222.961 43.2856C223.236 43.2856 223.457 43.7714 223.457 44.368Z" fill="#032100"></path><path d="M219.154 45.139C219.429 45.139 219.651 44.6568 219.651 44.0619C219.651 43.4671 219.429 42.9849 219.154 42.9849C218.88 42.9849 218.658 43.4671 218.658 44.0619C218.658 44.6568 218.88 45.139 219.154 45.139Z" fill="#032100"></path><path d="M222.518 41.8972C222.518 41.8972 223.69 40.7251 225.036 42.4252" stroke="#032100" stroke-width="0.5" stroke-linecap="round" stroke-linejoin="round"></path><path d="M220.358 41.8971C220.358 41.8971 219.102 40.2763 218.204 41.8971" stroke="#032100" stroke-width="0.5" stroke-linecap="round" stroke-linejoin="round"></path><path d="M236.915 57.2084C236.915 57.2084 239.344 56.9391 240.421 58.3805C241.498 59.8219 248.467 70.2863 248.467 70.2863L243.816 74.2513L237.813 67.8259" fill="#3BC90C"></path><path d="M236.915 57.2084C236.915 57.2084 239.344 56.9391 240.421 58.3805C241.498 59.8219 248.467 70.2863 248.467 70.2863L243.816 74.2513L237.813 67.8259" stroke="#032100" stroke-width="0.5" stroke-linecap="round" stroke-linejoin="round"></path><path d="M252.131 75.6503C252.231 75.0484 250.341 72.625 248.483 70.2861C247.442 70.515 246.473 70.9963 245.662 71.6878C244.851 72.3792 244.222 73.2595 243.831 74.2512C244.887 75.6767 245.743 76.8911 245.743 76.8911C245.743 76.8911 243.948 81.8382 243.045 85.4337C242.416 87.9521 240.252 91.3417 239.006 93.1579C238.599 93.6278 237.865 94.3881 237.337 94.5042C236.567 94.6784 236.392 94.3353 235.537 95.1061C234.682 95.8769 233.388 97.0807 232.786 97.5084C232.184 97.936 233.124 98.3162 233.652 98.3901C234.18 98.464 235.542 97.2708 235.542 97.2708H236.487L233.737 101.653C233.737 101.653 233.309 102.339 234.08 102.339C234.851 102.339 236.487 99.937 236.487 99.937H237.258C237.258 99.937 235.284 102.682 235.284 103.026C235.284 103.369 235.885 103.554 236.229 103.369C236.572 103.184 238.462 100.623 238.462 100.623L237.174 103.543C237.174 103.543 237.343 103.971 237.945 103.797C238.546 103.622 239.75 100.967 239.75 100.967C239.75 100.967 239.148 103.2 239.66 103.284C240.173 103.369 240.78 100.534 240.78 100.534L241.635 95.2962L242.485 94.1135C243.863 92.4346 246.909 88.7176 248.43 86.4368C250.405 83.4749 251.936 76.7432 252.131 75.6503Z" fill="white" stroke="#032100" stroke-width="0.5" stroke-linecap="round" stroke-linejoin="round"></path></svg>