<svg xmlns="http://www.w3.org/2000/svg" width="376" height="200" viewBox="0 0 376 200" fill="none"><rect width="376" height="200" fill="#3BC90C"></rect><path d="M216.686 56.2905C216.686 56.2905 205.732 58.7919 205.422 59.4783C205.111 60.1647 206.12 95.9841 206.12 97.4285C206.12 98.8729 208.275 100.233 208.995 100.233C209.715 100.233 231.213 99.7024 232.303 99.5508C233.394 99.3992 236.11 99.0203 236.265 97.5043C236.42 95.9883 235.489 89.0821 235.489 89.0821L237.041 74.5834C237.041 74.5834 253.9 85.3637 255.611 85.2879C257.323 85.2121 257.555 81.2622 257.555 81.2622L251.805 54.6229C251.805 54.6229 252.969 51.5867 253.124 50.4497C253.279 49.3127 248.852 46.7314 248.464 46.5798C248.076 46.4282 247.921 39.2904 247.684 38.6082C247.447 37.926 246.365 37.6986 245.96 38.2292C245.554 38.7598 245.804 46.7314 245.804 46.7314C245.804 46.7314 242.619 40.3558 242.308 39.901C241.998 39.4462 240.907 39.2146 241.145 40.659C241.382 42.1034 244.093 48.8537 244.093 48.8537C244.093 48.8537 242.929 51.3804 243.705 52.1173C244.481 52.8542 248.322 57.3517 248.322 57.3517L249.184 72.6842C249.184 72.6842 240.869 61.7354 239.782 60.7669C238.461 59.6764 236.965 58.8045 235.355 58.1855C234.342 57.8823 224.945 55.6588 224.945 55.6588L216.686 56.2905Z" fill="white" stroke="#032100" stroke-width="0.5" stroke-miterlimit="10"></path><path d="M249.161 72.6836L248.929 78.4696" stroke="#032100" stroke-width="0.5" stroke-miterlimit="10"></path><path d="M248.698 44.8285C248.698 44.8285 246.831 49.6881 247.374 50.1429C247.918 50.5977 248.543 51.2041 249.163 50.5219C249.784 49.8397 251.03 46.0413 250.948 45.3591C250.866 44.6769 249.185 44.2221 248.698 44.8285Z" fill="white" stroke="#032100" stroke-width="0.5" stroke-miterlimit="10"></path><path d="M250.946 45.3584C251.592 45.6288 252.194 45.9875 252.735 46.4238C253.279 46.9544 253.046 47.485 252.425 49.1526C251.804 50.8202 250.791 51.6792 250.171 51.1276C249.99 50.976 249.841 50.7907 249.735 50.5824C249.628 50.3741 249.565 50.1471 249.55 49.9148L250.946 45.3584Z" fill="white" stroke="#032100" stroke-width="0.5" stroke-miterlimit="10"></path><path d="M248.154 56.5935C248.154 56.5935 243.179 52.3403 243.102 51.4308C243.024 50.5212 247.766 46.4238 248.464 46.5754C249.162 46.727 249.085 47.864 248.542 48.622C247.998 49.38 246.908 51.355 246.908 51.355C246.908 51.355 248.697 51.6582 249.162 52.951C249.628 54.2438 249.395 56.5177 249.395 56.5177" fill="white"></path><path d="M248.154 56.5935C248.154 56.5935 243.179 52.3403 243.102 51.4308C243.024 50.5212 247.766 46.4238 248.464 46.5754C249.162 46.727 249.085 47.864 248.542 48.622C247.998 49.38 246.908 51.355 246.908 51.355C246.908 51.355 248.697 51.6582 249.162 52.951C249.628 54.2438 249.395 56.5177 249.395 56.5177" stroke="#032100" stroke-width="0.5" stroke-miterlimit="10"></path><path d="M209.18 103.176L205.516 97.9542C205.458 97.9481 205.401 97.9481 205.343 97.9542L198.787 79.3834L205.516 76.2883L205.421 59.4692C205.421 59.4692 202.942 62.7539 201.856 63.9119C201.347 64.4551 189.088 77.2568 188.79 78.8991C188.493 80.5414 199.283 95.8192 199.481 96.1098C199.627 96.3245 201.132 98.7712 202.227 100.098L202.153 100.169L203.339 104.132C203.195 104.129 203.052 104.155 202.919 104.207C202.785 104.26 202.664 104.338 202.563 104.438C202.461 104.537 202.381 104.656 202.328 104.787C202.275 104.917 202.249 105.057 202.253 105.197C202.253 106.258 203.438 106.646 204.132 107.13C204.386 107.345 204.692 107.494 205.02 107.562C205.349 107.629 205.69 107.614 206.012 107.518C206.54 107.252 207.011 106.891 207.4 106.452L208.089 106.162C208.555 105.909 208.908 105.496 209.081 105.004L209.378 104.519C209.676 104.043 209.18 103.176 209.18 103.176Z" fill="white" stroke="#032100" stroke-width="0.5" stroke-miterlimit="10"></path><path d="M242.929 167.256L244.313 168.519C244.313 168.519 250.197 172.486 250.494 172.873C250.792 173.261 250.693 173.745 250.395 174.225C250.142 174.564 249.801 174.831 249.408 175H236.937C236.937 175 236.441 174.613 236.64 173.164C236.838 171.715 237.071 169.585 237.071 169.585L242.929 167.256Z" fill="white" stroke="#032100" stroke-width="0.5" stroke-miterlimit="10"></path><path d="M250.396 174.217C250.474 174.097 250.539 173.968 250.59 173.834H236.593C236.593 174.731 236.938 174.992 236.938 174.992H249.409C249.802 174.823 250.142 174.556 250.396 174.217Z" fill="white" stroke="#032100" stroke-width="0.5" stroke-miterlimit="10"></path><path d="M206.806 97.3735L207.801 136.511L210.474 165.033L210.077 165.905L209.978 168.128C210.714 168.359 211.487 168.457 212.259 168.419C213.841 168.419 217.001 169.48 217.001 169.48C217.001 169.48 217.889 163.774 218.087 161.058C218.285 158.341 220.264 124.724 220.264 124.724L221.557 112.445L222.742 112.154L229.67 147.136L237.093 169.564L242.934 167.244C242.934 167.244 243.231 165.504 243.231 165.02C243.231 164.536 242.537 162.915 242.537 162.915L239.865 131.782L235.213 97.5757L206.806 97.3735Z" fill="#032100" stroke="#032100" stroke-width="0.5" stroke-miterlimit="10"></path><path d="M210.665 167.062L208.686 170.254C208.686 170.254 205.022 173.059 204.729 173.733C204.647 173.942 204.622 174.168 204.657 174.39C204.692 174.611 204.785 174.82 204.927 174.996H216.704L217.001 169.484C217.001 169.484 212.643 166.965 210.665 167.062Z" fill="white" stroke="#032100" stroke-width="0.5" stroke-miterlimit="10"></path><path d="M216.762 173.83H204.692C204.635 174.027 204.626 174.235 204.666 174.437C204.706 174.639 204.793 174.829 204.92 174.992H216.697L216.762 173.83Z" fill="white" stroke="#032100" stroke-width="0.5" stroke-miterlimit="10"></path><path d="M239.761 60.7662C238.439 59.6758 236.944 58.8039 235.334 58.1848C234.321 57.8817 224.923 55.6582 224.923 55.6582L216.686 56.2688C216.686 56.2688 205.732 58.7702 205.422 59.4566C205.111 60.143 206.12 95.9624 206.12 97.4068C206.12 98.8512 208.275 100.211 208.995 100.211C209.715 100.211 231.213 99.6808 232.303 99.5292C233.394 99.3776 236.11 98.9986 236.265 97.4826C236.42 95.9666 235.489 89.0604 235.489 89.0604L237.041 74.5617C237.041 74.5617 240.257 76.6167 244.015 78.9244L247.684 70.7338C245.248 67.5671 240.563 61.4905 239.761 60.7662Z" fill="#3BC90C" stroke="#032100" stroke-width="0.5" stroke-miterlimit="10"></path><path d="M201.856 63.9212C201.584 64.2118 198.028 67.9301 194.691 71.6106L200.235 78.7273L205.516 76.2975L205.421 59.4785C205.421 59.4785 202.942 62.7632 201.856 63.9212Z" fill="#3BC90C" stroke="#032100" stroke-width="0.5" stroke-miterlimit="10"></path><path d="M237.549 65.5879L237.04 74.5785L239.213 67.3481" stroke="#032100" stroke-width="0.5" stroke-miterlimit="10"></path><path d="M218.03 53.705C218.03 53.705 215.9 55.3599 215.775 55.9705C215.692 56.4986 215.65 57.0322 215.65 57.5665C215.65 57.5665 218.159 69.6313 218.534 69.3281C218.909 69.0249 222.108 64.3632 222.737 63.5084C223.367 62.6535 224.617 62.464 224.931 62.6661C225.246 62.8683 230.889 68.7301 231.199 67.7489C231.51 66.7677 229.695 57.5202 228.255 55.1915C226.815 52.8628 219.099 52.5427 218.03 53.705Z" fill="white" stroke="#032100" stroke-width="0.5" stroke-miterlimit="10"></path><path d="M216.715 50.7021L217.969 57.503C217.969 57.503 222.358 67.3654 224.366 66.6916C226.375 66.0178 227.815 56.0334 227.875 55.7891C227.936 55.5449 227.69 51.6833 227.69 51.6833C227.69 51.6833 228 52.7866 223.612 52.235C221.261 51.9831 218.946 51.4688 216.715 50.7021Z" fill="white" stroke="#032100" stroke-width="0.5" stroke-miterlimit="10"></path><path d="M217.905 57.1535C219.452 57.4272 222.392 57.6883 224.198 56.265C225.635 55.1156 226.783 53.659 227.552 52.0076C227.25 52.2813 226.341 52.5761 223.612 52.235C221.261 51.9831 218.946 51.4688 216.715 50.7021L217.905 57.1535Z" fill="#032100" stroke="#032100" stroke-width="0.5" stroke-miterlimit="10"></path><path d="M229.1 43.5597C229.1 43.5597 229.75 47.0843 228.979 48.9372C228.207 50.7901 226.789 53.5694 225.53 54.0831C224.272 54.5969 222.332 54.1968 220.319 53.3294C218.915 52.6801 217.587 51.8853 216.357 50.9585C215.881 50.9895 215.403 50.9236 214.954 50.7648C214.505 50.6061 214.095 50.358 213.749 50.0363C212.568 48.9372 211.322 47.8381 211.74 46.6253C212.158 45.4125 212.447 45.122 212.447 45.122V43.0375C212.447 43.0375 211.383 39.6686 211.266 38.2958C211.15 36.923 215.172 32.4593 218.129 31.7644C221.086 31.0696 224.108 33.2088 225.173 34.2911C226.237 35.3733 228.785 36.8935 228.845 37.4705C228.906 38.0474 229.1 43.5597 229.1 43.5597Z" fill="white" stroke="#032100" stroke-width="0.5" stroke-miterlimit="10"></path><path d="M229.1 43.5605C229.1 43.5605 229.807 42.6341 230.341 42.9836C230.876 43.3331 231.406 45.1776 230.578 46.2766C230.212 46.8104 229.778 47.2959 229.285 47.721C229.285 47.721 229.276 44.0237 229.1 43.5605Z" fill="white" stroke="#032100" stroke-width="0.5" stroke-miterlimit="10"></path><path d="M223.183 40.957C223.183 40.957 223.183 42.9826 223.359 43.2689C223.536 43.5553 225.252 44.2543 225.084 44.7133C224.915 45.1723 223.131 45.5808 223.131 45.5808" stroke="#032100" stroke-width="0.5" stroke-miterlimit="10"></path><path d="M219.332 47.6067C219.332 47.6067 221.699 48.4742 222.781 48.4742C223.863 48.4742 225.621 46.7392 225.919 46.335" stroke="#032100" stroke-width="0.5" stroke-miterlimit="10"></path><path d="M218.608 42.55C218.737 43.0638 218.638 43.527 218.388 43.5902C218.138 43.6533 217.819 43.287 217.69 42.7774C217.56 42.2679 217.659 41.8005 217.909 41.7373C218.159 41.6741 218.478 42.0573 218.608 42.55Z" fill="#032100"></path><path d="M225.28 41.6567C225.414 42.1705 225.315 42.6337 225.061 42.6969C224.806 42.76 224.496 42.3937 224.362 41.8841C224.229 41.3746 224.332 40.9072 224.586 40.844C224.841 40.7808 225.151 41.1472 225.28 41.6567Z" fill="#032100"></path><path d="M215.9 40.8986C216.308 40.514 216.79 40.2136 217.319 40.0153C217.848 39.8171 218.412 39.7251 218.978 39.7448" stroke="#032100" stroke-width="0.5" stroke-miterlimit="10"></path><path d="M223.534 39.3405C223.926 38.9901 224.432 38.7862 224.963 38.7646C225.493 38.743 226.015 38.9052 226.435 39.2226" stroke="#032100" stroke-width="0.5" stroke-miterlimit="10"></path><path d="M218.504 34.5986C218.504 34.5986 216.552 38.6455 215.19 39.9172L213.827 41.1805C213.827 41.1805 215.25 46.3265 215.069 46.6549C214.888 46.9834 214.599 47.1181 214.478 46.6549C214.358 46.1917 214.241 45.7874 213.888 45.6737C213.534 45.56 212.465 45.0968 212.465 45.0968L210.512 40.2372C210.512 40.2372 208.917 38.5528 209.331 37.1168C209.745 35.6809 211.163 33.2132 211.163 33.2132C211.163 33.2132 210.336 32.9268 210.689 32.2867C211.043 31.6467 214.715 31.6509 214.715 31.6509C214.715 31.6509 215.069 29.6885 216.194 29.3979C217.319 29.1074 217.319 29.5116 217.319 29.5116C217.319 29.5116 221.522 27.3724 223.949 27.4314C226.376 27.4903 233.713 33.7901 233.001 34.6576C232.29 35.5251 229.747 36.1062 229.747 36.1062C229.747 36.1062 229.686 43.3324 229.389 43.4461L229.096 43.564L227.971 37.2474C227.971 37.2474 220.518 36.102 218.504 34.5986Z" fill="#032100" stroke="#032100" stroke-width="0.5" stroke-miterlimit="10"></path><path d="M165.72 165.441L166.53 167.749C166.53 167.749 173.544 171.884 173.643 172.975C173.7 173.651 173.597 174.332 173.341 174.963H155.56C155.56 174.963 155.129 172.263 155.62 170.078C156.111 167.892 155.965 167.105 155.965 167.105L165.72 165.441Z" fill="white" stroke="#032100" stroke-width="0.5" stroke-miterlimit="10"></path><path d="M155.422 173.716C155.474 174.465 155.56 174.979 155.56 174.979H173.342C173.518 174.534 173.622 174.065 173.652 173.589L155.422 173.716Z" fill="white" stroke="#032100" stroke-width="0.5" stroke-miterlimit="10"></path><path d="M169.603 81.1144L165.659 97.0785L168.871 101.075C168.871 101.075 175.871 88.8627 176.423 87.7763C176.975 86.6898 178.889 85.0264 176.397 79.013C175.104 75.9432 174.164 75.0083 174.164 75.0083" fill="#3BC90C"></path><path d="M169.603 81.1144L165.659 97.0785L168.871 101.075C168.871 101.075 175.871 88.8627 176.423 87.7763C176.975 86.6898 178.889 85.0264 176.397 79.013C175.104 75.9432 174.164 75.0083 174.164 75.0083" stroke="#032100" stroke-width="0.5" stroke-miterlimit="10"></path><path d="M165.658 97.0791L163.667 98.4856C163.667 98.4856 161.011 103.025 161.343 103.674C161.557 104.071 161.911 104.379 162.339 104.541L163.891 106.099C163.891 106.099 165.438 106.701 166.322 106.272C167.206 105.842 168.87 101.08 168.87 101.08L165.658 97.0791Z" fill="white" stroke="#032100" stroke-width="0.5" stroke-miterlimit="10"></path><path d="M133.713 98.7509C133.713 98.7509 133.105 101.829 132.799 103.804C132.493 105.779 136.183 133.703 136.183 135.278C136.183 136.853 135.571 141.439 135.381 143.923C135.192 146.408 136.063 160.001 136.063 160.001L136.269 164.368C136.269 164.368 139.619 165.757 142.365 165.164C145.111 164.57 146.934 163.871 147.038 163.576C147.141 163.281 147.038 158.102 147.038 158.102C147.038 158.102 147.443 140.415 147.852 138.651C148.262 136.886 150.288 116.307 150.288 116.307C150.288 116.307 152.219 141.228 152.323 141.527C152.426 141.826 152.219 142.323 152.422 147.481C152.624 152.64 155.267 166.01 155.267 166.01C155.267 166.01 158.112 166.406 159.94 165.909C161.767 165.412 165.112 164.124 165.224 163.728C165.414 162.412 165.517 161.085 165.531 159.757C165.531 158.468 164.311 154.426 164.311 153.44C164.311 152.455 164.207 125.538 164.41 120.973C164.612 116.408 163.699 102.212 163.699 101.518C163.699 100.823 163.392 92.5227 163.392 92.5227C163.392 92.5227 160.72 98.1824 152.999 96.6917C145.279 95.201 134.989 91.9795 134.989 91.9795L133.713 98.7509Z" fill="#032100" stroke="#032100" stroke-width="0.5" stroke-miterlimit="10"></path><path d="M147.226 54.8964L139.303 56.8798L142.588 97.2471C146.386 98.5953 150.446 99.0919 154.468 98.6999C160.973 98.0051 163.563 94.5268 163.563 94.5268C163.563 94.5268 161.451 58.0715 160.74 56.6819C160.029 55.2922 155.761 54.5974 154.946 54.3026C154.132 54.0078 147.226 54.8964 147.226 54.8964Z" fill="white" stroke="#032100" stroke-width="0.5" stroke-miterlimit="10"></path><path d="M145.727 48.3438C145.727 48.3438 146.438 54.8962 146.438 56.2858C146.438 57.6755 146.132 59.6547 148.873 61.5455C151.615 63.4362 155.477 63.133 156.697 60.2569C157.917 57.3807 157.206 49.4386 157.206 49.4386C156.646 50.1093 155.923 50.6326 155.103 50.9613C154.283 51.29 153.393 51.4137 152.512 51.321C149.464 51.0262 145.727 48.3438 145.727 48.3438Z" fill="white" stroke="#032100" stroke-width="0.5" stroke-miterlimit="10"></path><path d="M152.512 51.3212C150.149 51.0896 147.369 49.4304 146.231 48.6977L145.727 48.584C145.852 49.7631 146.412 55.0522 146.412 56.286C146.412 56.4713 146.412 56.665 146.412 56.8672C148.614 56.7309 150.734 56.0022 152.537 54.7616C155.697 52.5424 156.361 50.719 156.361 50.719L154.236 51.2243C153.67 51.3446 153.088 51.3773 152.512 51.3212Z" fill="#032100" stroke="#032100" stroke-width="0.5" stroke-miterlimit="10"></path><path d="M159.724 38.8811C159.724 38.8811 161.758 38.0894 161.857 39.9717C161.957 41.8541 159.422 44.5407 159.422 44.5407L159.724 38.8811Z" fill="white" stroke="#032100" stroke-width="0.5" stroke-miterlimit="10"></path><path d="M147.02 25.8776C147.02 25.8776 142.446 27.9831 141.735 31.2383C141.024 34.4934 142.856 40.1742 142.856 40.1742C142.856 40.1742 141.024 39.0793 140.519 40.869C140.015 42.6587 141.33 44.541 142.144 44.8358C142.701 45.0119 143.294 45.0466 143.869 44.9369L145.727 49.0048C145.727 49.0048 151.619 52.9758 153.65 52.58C155.68 52.1841 158.12 49.4048 159.034 48.2131C159.948 47.0214 160.155 35.0114 160.254 33.4238C160.353 31.8362 159.646 28.3705 157.31 26.7745C154.973 25.1785 149.361 24.1931 147.02 25.8776Z" fill="white" stroke="#032100" stroke-width="0.5" stroke-miterlimit="10"></path><path d="M157.288 26.7749C154.947 25.1831 149.361 24.1935 147.024 25.8779C147.024 25.8779 142.451 27.9835 141.739 31.2386C141.028 34.4938 142.86 40.1745 142.86 40.1745C143.201 40.5577 143.584 40.8441 143.688 40.3809C143.89 39.4881 143.589 38.0985 143.485 36.5067C143.382 34.9149 144.093 35.117 144.196 33.0368C144.3 30.9565 143.994 29.5626 145.821 28.173C147.649 26.7833 150.089 28.8678 152.529 29.1626C154.969 29.4574 156.797 27.3771 157.913 28.173C159.03 28.9689 159.741 30.6533 159.637 32.5399C159.534 34.4264 159.435 34.4222 159.84 36.014C159.943 36.4351 160.034 36.7636 160.112 37.0457C160.176 35.2939 160.215 33.9043 160.245 33.4326C160.336 31.8366 159.624 28.3625 157.288 26.7749Z" fill="#032100" stroke="#032100" stroke-width="0.5" stroke-miterlimit="10"></path><path d="M149.254 39.3029C149.34 39.9556 149.142 40.5199 148.823 40.5662C148.504 40.6125 148.15 40.1114 148.064 39.4587C147.978 38.806 148.18 38.2417 148.495 38.1954C148.81 38.149 149.176 38.6502 149.254 39.3029Z" fill="#032100"></path><path d="M156.168 39.1555C156.198 39.8124 155.944 40.3556 155.607 40.3683C155.271 40.3809 154.978 39.8629 154.952 39.206C154.926 38.5491 155.172 38.0016 155.508 37.989C155.844 37.9764 156.142 38.4985 156.168 39.1555Z" fill="#032100"></path><path d="M152.003 43.7414C152.408 44.5373 154.645 43.9393 155.357 43.2445C156.068 42.5497 154.339 40.3683 154.236 39.1766C154.132 37.9849 155.658 36.6963 155.658 36.6963" stroke="#032100" stroke-width="0.5" stroke-miterlimit="10"></path><path d="M155.153 45.8467C155.153 45.8467 152.511 46.6426 150.377 45.2529" stroke="#032100" stroke-width="0.5" stroke-miterlimit="10"></path><path d="M146.718 37.2941C146.718 37.2941 148.343 35.9044 150.886 36.8982" stroke="#032100" stroke-width="0.5" stroke-miterlimit="10"></path><path d="M159.215 37.3958C158.921 37.0235 158.531 36.7349 158.084 36.5601C157.638 36.3853 157.151 36.3307 156.676 36.402" stroke="#032100" stroke-width="0.5" stroke-miterlimit="10"></path><path d="M146.11 54.6892C146.11 54.6892 149.464 82.1665 150.581 88.222C151.697 94.2775 153.12 96.063 152.736 98.3286C152.352 100.594 150.296 107.559 149.382 108.751C148.468 109.943 145.421 105.77 142.576 102.792C139.73 99.8151 137.088 100.114 135.463 100.013C133.838 99.9119 132.82 99.9162 132.82 99.9162C132.81 98.8866 132.878 97.8577 133.023 96.8379C133.226 96.0462 134.446 91.2792 134.549 90.9845C134.652 90.6897 132.605 57.8517 132.911 57.258C133.217 56.6642 139.73 55.2661 140.442 54.9714C141.153 54.6766 145.296 52.6132 146.11 54.6892Z" fill="#3BC90C" stroke="#032100" stroke-width="0.5" stroke-miterlimit="10"></path><path d="M136.394 96.9434C136.394 96.9434 143.493 96.4676 145.752 100.093" stroke="#032100" stroke-width="0.5" stroke-miterlimit="10"></path><path d="M144.627 100.688C145.08 101.284 145.458 101.932 145.752 102.616" stroke="#032100" stroke-width="0.5" stroke-miterlimit="10"></path><path d="M142.042 98.3584C142.774 98.7846 143.434 99.3187 143.999 99.9418" stroke="#032100" stroke-width="0.5" stroke-miterlimit="10"></path><path d="M146.11 52.2181C146.11 52.2181 145.092 51.2243 144.282 51.8181C143.472 52.4118 140.402 54.9974 140.402 54.9974C140.402 54.9974 141.924 67.997 142.739 67.0074C143.553 66.0178 145.381 63.0364 145.687 62.9353C145.993 62.8342 147.614 65.4156 147.614 65.4156L146.11 52.2181Z" fill="#3BC90C" stroke="#032100" stroke-width="0.5" stroke-miterlimit="10"></path><path d="M176.397 79.0133C176.143 78.376 175.855 77.752 175.535 77.1436C174.418 74.9623 166.84 57.8737 164.81 56.0882C162.78 54.3027 157.594 54.3027 157.594 54.3027C157.594 54.3027 160.542 74.0358 160.439 81.2831C160.335 88.5303 159.016 107.185 159.219 107.88C159.421 108.575 162.37 107.286 163.896 106.095C165.422 104.903 165.823 104.705 165.926 104.111C166.03 103.518 165.319 84.0624 165.319 83.3676C165.319 82.6727 165.319 74.4527 165.319 74.4527C165.319 74.4527 169.358 85.7089 169.866 85.7089" fill="#3BC90C"></path><path d="M176.397 79.0133C176.143 78.376 175.855 77.752 175.535 77.1436C174.418 74.9623 166.84 57.8737 164.81 56.0882C162.78 54.3027 157.594 54.3027 157.594 54.3027C157.594 54.3027 160.542 74.0358 160.439 81.2831C160.335 88.5303 159.016 107.185 159.219 107.88C159.421 108.575 162.37 107.286 163.896 106.095C165.422 104.903 165.823 104.705 165.926 104.111C166.03 103.518 165.319 84.0624 165.319 83.3676C165.319 82.6727 165.319 74.4527 165.319 74.4527C165.319 74.4527 169.358 85.7089 169.866 85.7089" stroke="#032100" stroke-width="0.5" stroke-miterlimit="10"></path><path d="M165.3 74.4527L164.774 67.7192" stroke="#032100" stroke-width="0.5" stroke-miterlimit="10"></path><path d="M157.49 52.0196C157.71 51.9085 157.964 51.8771 158.205 51.931C158.447 51.985 158.661 52.1208 158.809 52.3144C159.421 53.0092 160.965 55.0937 160.965 55.0937C160.965 55.0937 163.405 62.5389 163.301 63.5159C163.198 64.4928 161.271 62.5221 160.762 62.6231C160.253 62.7242 159.236 64.1096 159.236 64.1096L157.512 55.2664L157.49 52.0196Z" fill="#3BC90C" stroke="#032100" stroke-width="0.5" stroke-miterlimit="10"></path><path d="M136.144 56.3491C136.144 56.3491 131.669 57.284 130.755 58.1767C129.841 59.0695 119 85.4813 119 86.572C119 87.6627 131.678 104.507 131.678 104.507L136.967 99.7484L129.574 86.4751L135.751 72.5196" fill="#3BC90C"></path><path d="M136.144 56.3491C136.144 56.3491 131.669 57.284 130.755 58.1767C129.841 59.0695 119 85.4813 119 86.572C119 87.6627 131.678 104.507 131.678 104.507L136.967 99.7484L129.574 86.4751L135.751 72.5196" stroke="#032100" stroke-width="0.5" stroke-miterlimit="10"></path><path d="M136.967 99.748C136.967 99.748 138.488 100.641 139.2 101.138C139.911 101.635 141.23 103.917 141.739 104.212C142.247 104.507 142.553 105.601 141.437 105.703C140.32 105.804 139.101 104.212 138.794 103.917C138.488 103.622 133.316 107.513 133.316 107.513L132.419 103.883L136.967 99.748Z" fill="white" stroke="#032100" stroke-width="0.5" stroke-miterlimit="10"></path><path d="M154.442 162.548C154.442 162.548 154.766 166.418 154.968 167.012C155.171 167.605 158.417 167.433 159.926 167.509C161.737 167.636 163.554 167.361 165.241 166.704C165.631 166.541 165.967 166.274 166.209 165.932C166.45 165.591 166.589 165.19 166.607 164.776C166.659 163.596 166.685 161.891 166.43 161.15C166.025 159.958 165.314 160.055 164.603 160.653C163.891 161.251 161.758 162.017 158.305 162.118C154.852 162.219 154.947 161.853 154.442 162.548Z" fill="#3BC90C" stroke="#032100" stroke-width="0.5" stroke-miterlimit="10"></path><path d="M137.066 164.666L136.066 169.003C136.066 169.003 131.152 171.711 130.544 172.608C129.936 173.505 130.139 174.987 130.139 174.987H147.33C147.33 174.987 148.041 175.088 148.14 173.897C148.24 172.705 147.02 165.66 147.02 165.66L137.066 164.666Z" fill="white" stroke="#032100" stroke-width="0.5" stroke-miterlimit="10"></path><path d="M130.14 174.988H147.332C147.332 174.988 148.043 175.089 148.142 173.897C148.151 173.765 148.151 173.633 148.142 173.501H130.209C130.111 173.991 130.088 174.492 130.14 174.988Z" fill="white" stroke="#032100" stroke-width="0.5" stroke-miterlimit="10"></path><path d="M147.534 162.384C147.534 162.384 147.762 167.143 147.663 167.639C147.564 168.136 144.215 169.324 141.568 168.932C138.921 168.541 136.283 168.334 135.382 167.547C134.481 166.759 135.05 163.18 135.253 162.494C135.455 161.807 137.792 163.188 140.331 163.289C142.87 163.391 145.935 162.894 146.836 162.199C147.737 161.504 147.534 162.384 147.534 162.384Z" fill="#3BC90C" stroke="#032100" stroke-width="0.5" stroke-miterlimit="10"></path><path d="M201.381 48.192C203.07 48.9592 204.529 50.1365 205.619 51.6114C207.408 54.2306 208.309 58.6944 206.27 61.3221C204.231 63.9498 203.743 63.9498 204.153 64.5857C204.563 65.2215 206.679 64.2656 206.679 64.2656C206.679 64.2656 207.002 66.2575 205.537 66.8933C204.071 67.5292 199.502 69.121 196.657 66.9733C193.812 64.8257 194.536 59.7303 196.247 56.8668C197.958 54.0032 198.122 53.3632 198.286 52.8873C198.45 52.4115 199.67 47.9519 201.381 48.192Z" fill="#032100" stroke="#032100" stroke-width="0.5" stroke-miterlimit="10"></path><path d="M185.018 110.465C185.018 110.465 186.1 129.162 186.915 134.363C187.73 139.563 188.902 144.419 189.713 149.177C190.523 153.936 190.795 163.727 190.795 165.053C190.795 166.38 191.338 167.079 188.721 169.462C186.105 171.846 182.13 173.34 182.402 173.955C182.673 174.57 185.381 175.193 188.631 174.928C191.881 174.663 195.127 174.574 195.308 174.132C195.489 173.69 196.213 171.399 196.213 167.609C196.213 163.819 197.839 152.972 198.287 147.417C198.735 141.863 197.205 135.95 197.658 134.102C198.11 132.253 198.74 110.023 198.74 107.572C198.74 105.121 184.208 107.926 184.208 107.926L185.018 110.465Z" fill="#032100" stroke="#032100" stroke-width="0.5" stroke-miterlimit="10"></path><path d="M190.795 166.901L190.713 166.931C190.506 167.554 189.98 168.312 188.721 169.457C186.1 171.837 182.13 173.336 182.402 173.951C182.673 174.565 185.381 175.189 188.631 174.923C191.881 174.658 195.127 174.57 195.308 174.128C195.489 173.685 196.213 171.395 196.213 167.605C196.213 167.39 196.213 167.146 196.213 166.889C195.549 167.297 194.807 167.571 194.032 167.693C192.713 167.786 190.795 166.901 190.795 166.901Z" fill="#3BC90C" stroke="#032100" stroke-width="0.5" stroke-miterlimit="10"></path><path d="M195.299 174.133C195.479 173.659 195.623 173.174 195.73 172.68C192.661 173.349 187.005 174.158 185.574 173.943C184.707 173.818 183.862 173.574 183.065 173.219C182.595 173.53 182.336 173.77 182.414 173.943C182.686 174.562 185.393 175.181 188.643 174.916C191.893 174.65 195.126 174.575 195.299 174.133Z" fill="white" stroke="#032100" stroke-width="0.5" stroke-miterlimit="10"></path><path d="M169.762 104.556C169.762 104.556 163.623 129.953 163.085 132.863C162.546 135.773 162.451 137.099 162.722 137.714C162.994 138.329 194.954 163.162 194.954 163.162L197.299 159.018C197.299 159.018 188.177 147.501 184.565 143.963C180.952 140.426 174.456 133.558 174.456 133.558L184.655 109.395L169.762 104.556Z" fill="#032100" stroke="#032100" stroke-width="0.5" stroke-miterlimit="10"></path><path d="M194.955 163.163C194.955 163.163 194.864 168.637 194.683 169.686C194.433 170.94 193.943 172.137 193.239 173.215C192.605 174.095 190.89 174.979 192.786 174.979C194.432 174.976 196.07 174.768 197.662 174.36C199.106 174.006 200.097 169.597 201.813 167.572C203.529 165.546 204.792 163.516 204.792 162.455C204.792 161.394 197.3 159.019 197.3 159.019L194.955 163.163Z" fill="#3BC90C" stroke="#032100" stroke-width="0.5" stroke-miterlimit="10"></path><path d="M204.782 162.455C204.782 162.105 203.95 161.613 202.842 161.095C202.456 162.877 201.77 164.585 200.812 166.148C199.639 168.085 198.657 172.321 196.57 173.555C195.066 174.448 193.191 174.326 192.259 174.187C191.798 174.642 191.622 174.966 192.768 174.966C194.414 174.963 196.052 174.755 197.644 174.347C199.088 173.993 200.079 169.584 201.795 167.559C203.51 165.533 204.782 163.516 204.782 162.455Z" fill="white" stroke="#032100" stroke-width="0.5" stroke-miterlimit="10"></path><path d="M168.382 106.009L167.839 109.433C167.839 109.433 175.383 113.762 181.517 114.81C185.319 115.463 191.936 115.282 195.199 114.634C196.715 114.255 198.192 113.738 199.609 113.088L199.919 105.967C199.919 105.967 182.832 108.494 175.702 106.54C168.572 104.586 168.382 106.009 168.382 106.009Z" fill="#3BC90C" stroke="#032100" stroke-width="0.5" stroke-miterlimit="10"></path><path d="M187.109 54.424L185.919 60.3785C185.919 60.3785 182.85 60.1132 180.682 58.6182C178.514 57.1233 175.358 55.4431 171.655 55.0894C167.952 54.7356 160.103 53.7671 160.103 53.7671C160.103 53.7671 170.302 62.2313 170.573 62.5851C170.845 62.9388 174.608 82.1076 174.608 82.1076C174.608 82.1076 167.646 105.593 167.375 106.212C167.103 106.831 170.177 108.591 170.177 108.591C170.177 108.591 180.785 113.674 190.592 113.088C194.67 112.844 200.037 111.303 200.399 110.141C200.761 108.978 199.908 101.196 199.908 101.196L198.748 83.7457C198.748 83.7457 200.283 77.1343 200.373 76.7806C200.464 76.4269 209.4 89.7423 209.4 89.7423C209.4 89.7423 212.469 90.4497 214.185 89.477C215.9 88.5042 216.53 84.0995 215.991 82.5119C215.452 80.9243 204.434 66.1098 203.059 65.1412C201.684 64.1727 194.394 62.0545 194.394 62.0545L194.692 55.7168L187.109 54.424Z" fill="white"></path><path d="M171.27 93.335L170.585 95.6468C175.327 97.5924 183.086 100.085 191.768 100.085C194.459 100.091 197.145 99.8368 199.786 99.3273L199.626 96.9439C188.28 99.2305 177.154 95.7521 171.27 93.335Z" fill="#3BC90C"></path><path d="M188.885 93.9662C193.498 93.9662 196.679 93.5451 199.334 92.5934L199.166 90.1173C196.243 91.3427 192.579 91.7385 186.424 91.5743C182.216 91.4648 176.845 88.7908 173.25 86.6895C173.035 87.418 172.819 88.2054 172.552 89.035C176.362 91.2121 181.824 93.8104 186.346 93.9325C187.247 93.9536 188.088 93.9662 188.885 93.9662Z" fill="#3BC90C"></path><path d="M185.933 85.1272C180.626 84.5208 176.88 82.6005 174.294 80.5371C174.488 81.5141 174.604 82.1078 174.604 82.1078C174.604 82.1078 174.458 82.5921 174.212 83.4259C177.622 85.6753 181.55 87.0642 185.644 87.4685C187.901 87.7389 190.172 87.8796 192.446 87.8896C194.637 87.9229 196.825 87.7153 198.968 87.2706L198.809 84.8745C196.537 85.4556 192.563 85.8894 185.933 85.1272Z" fill="#3BC90C"></path><path d="M206.58 85.5773C207.063 86.2932 207.515 86.9585 207.908 87.5439C210.317 86.1711 214.775 85.1604 217.822 85.2194C217.922 84.3056 216.689 83.1138 216.529 82.5243C212.943 82.4822 209.257 84.0361 206.58 85.5773Z" fill="#3BC90C"></path><path d="M188.368 75.5298C189.605 75.7556 190.86 75.867 192.118 75.8625C195.882 75.8625 200.21 74.9613 205.051 73.1759C206.301 72.7126 207.456 72.2368 208.499 71.782C207.991 71.1124 207.495 70.4597 207.016 69.8365C202.18 71.9167 194.851 74.3423 188.847 73.2053C183.954 72.2873 180.135 66.8887 177.798 62.5555C176.616 60.3302 175.583 58.0316 174.707 55.6746C173.806 55.4063 172.881 55.2174 171.944 55.1104C173.535 59.852 179.048 73.778 188.368 75.5298Z" fill="#3BC90C"></path><path d="M182.531 79.7626C185.048 80.7311 187.736 81.2047 190.441 81.1565C193.538 81.111 196.617 80.6966 199.61 79.9226C199.852 78.8993 200.08 77.9182 200.218 77.3286C194.558 78.853 188.329 79.5563 183.432 77.5855C179.121 75.8547 174.987 71.391 171.427 66.3672C171.754 67.9169 172.138 69.795 172.522 71.7068C175.604 75.3241 178.988 78.3351 182.531 79.7626Z" fill="#3BC90C"></path><path d="M192.078 110.422C194.901 110.449 197.717 110.159 200.471 109.559C200.501 108.978 200.471 108.111 200.415 107.146C189.776 109.778 175.034 106.022 168.085 103.891C167.714 105.104 167.46 105.929 167.378 106.157C170.92 107.247 174.517 108.159 178.155 108.89C182.732 109.853 187.396 110.366 192.078 110.422Z" fill="#3BC90C"></path><path d="M169.456 99.4146L168.775 101.689C172.329 102.743 175.942 103.597 179.595 104.249C183.717 105.011 187.901 105.411 192.096 105.445C194.825 105.46 197.55 105.229 200.235 104.754C200.162 103.861 200.08 103.023 200.015 102.383C189.023 104.451 175.935 101.331 169.456 99.4146Z" fill="#3BC90C"></path><path d="M162.076 55.4048C163.507 56.5965 165.473 58.2346 167.154 59.6495C166.059 57.763 165.072 55.9354 164.214 54.2636L161.326 53.9141C161.559 54.3941 161.809 54.891 162.076 55.4048Z" fill="#3BC90C"></path><path d="M213.028 77.9893C209.894 78.9338 206.902 80.2805 204.131 81.994C204.562 82.6425 205.032 83.3078 205.48 83.9606C207.657 82.6551 211.062 80.8612 214.468 80.0569C214.046 79.4379 213.563 78.743 213.028 77.9893Z" fill="#3BC90C"></path><path d="M200.738 77.1887C201.066 77.6098 201.6 78.3342 202.213 79.2227C203.001 78.9911 203.803 78.7426 204.622 78.4689C207.209 77.6014 209.536 76.6455 211.446 75.7907C210.976 75.1506 210.493 74.4894 210.006 73.8325C207.002 75.1626 203.904 76.2841 200.738 77.1887Z" fill="#3BC90C"></path><path d="M187.109 54.424L185.919 60.3785C185.919 60.3785 182.85 60.1132 180.682 58.6182C178.514 57.1233 175.358 55.4431 171.655 55.0894C167.952 54.7356 160.103 53.7671 160.103 53.7671C160.103 53.7671 170.302 62.2313 170.573 62.5851C170.845 62.9388 174.608 82.1076 174.608 82.1076C174.608 82.1076 167.646 105.593 167.375 106.212C167.103 106.831 170.177 108.591 170.177 108.591C170.177 108.591 180.785 113.674 190.592 113.088C194.67 112.844 200.037 111.303 200.399 110.141C200.761 108.978 199.908 101.196 199.908 101.196L198.748 83.7457C198.748 83.7457 200.283 77.1343 200.373 76.7806C200.464 76.4269 209.4 89.7423 209.4 89.7423C209.4 89.7423 212.469 90.4497 214.185 89.477C215.9 88.5042 216.53 84.0995 215.991 82.5119C215.452 80.9243 204.434 66.1098 203.059 65.1412C201.684 64.1727 194.394 62.0545 194.394 62.0545L194.692 55.7168L187.109 54.424Z" stroke="#032100" stroke-width="0.5" stroke-miterlimit="10"></path><path d="M205.722 68.2193L205.606 68.312C203.373 69.9669 200.14 71.007 196.765 71.2218C195.903 71.279 195.039 71.279 194.178 71.2218C190.833 71.0197 187.557 69.9585 185.182 67.9077C184.68 67.4733 184.207 67.0092 183.763 66.518C183.034 65.7179 182.382 64.8538 181.815 63.9366C180.615 61.9997 179.742 59.8869 179.229 57.679C179.75 57.9864 180.242 58.3022 180.681 58.6054C181.732 59.2876 182.9 59.7797 184.13 60.0582L184.371 60.113C184.878 60.2302 185.392 60.316 185.91 60.3699L187.109 54.4238L194.7 55.7166L194.402 62.0543C194.402 62.0543 201.73 64.1598 203.071 65.141C203.425 65.3895 204.425 66.577 205.722 68.2193Z" fill="white" stroke="#032100" stroke-width="0.5" stroke-miterlimit="10"></path><path d="M194.631 57.3253L192.045 55.266L187.105 54.4238L186.001 59.9403C186.919 60.3235 188.268 60.7025 189.553 60.3614C191.346 59.8814 193.726 58.3865 194.597 57.8095L194.631 57.3253Z" fill="#032100" stroke="#032100" stroke-width="0.5" stroke-miterlimit="10"></path><path d="M184.142 60.0661L184.388 60.0956V60.1208L183.776 66.5259C183.046 65.7258 182.394 64.8616 181.827 63.9445L182.793 59.9019L184.142 60.0661Z" fill="#3BC90C" stroke="#032100" stroke-width="0.5" stroke-miterlimit="10"></path><path d="M197.804 63.2248L196.765 71.2258C195.904 71.2831 195.04 71.2831 194.179 71.2258L195.791 62.6353L197.804 63.2248Z" fill="#3BC90C" stroke="#032100" stroke-width="0.5" stroke-miterlimit="10"></path><path d="M185.902 43.0961C185.902 43.0961 184.759 50.895 185.169 52.4868C185.578 54.0786 188.997 58.7739 191.204 58.6939C193.411 58.6139 197.558 56.7063 198.291 55.3545C199.023 54.0028 201.386 48.1957 201.386 48.1957C201.386 48.1957 201.713 44.7721 201.222 42.9403C200.73 41.1085 199.023 39.2009 196.825 38.9608C194.626 38.7208 187.109 39.6725 185.902 43.0961Z" fill="white" stroke="#032100" stroke-width="0.5" stroke-miterlimit="10"></path><path d="M197.454 41.2643C197.454 41.2643 196.229 42.8561 190.125 43.7909C184.022 44.7258 183.039 41.1674 183.198 40.6874C183.358 40.2073 184.828 36.6279 190.289 35.4362C195.751 34.2444 199.984 36.8679 201.777 39.7315C203.571 42.595 202.997 45.9386 202.428 47.3746C202.078 48.2439 201.583 49.0507 200.963 49.7622C200.963 49.7622 200.717 49.6022 200.225 48.1705C199.734 46.7387 196.005 44.6079 197.454 41.2643Z" fill="#032100" stroke="#032100" stroke-width="0.5" stroke-miterlimit="10"></path><path d="M185.497 45.6444C185.497 45.6444 184.759 42.9367 183.703 45.4844C182.647 48.0321 185.251 49.3838 185.251 49.3838L185.497 45.6444Z" fill="white" stroke="#032100" stroke-width="0.5" stroke-miterlimit="10"></path><path d="M200.649 49.7833C200.649 49.7833 202.115 48.7473 202.524 50.2591C202.934 51.7709 200.403 53.2069 199.834 53.4427C199.553 53.5759 199.249 53.6573 198.938 53.6827L200.649 49.7833Z" fill="white" stroke="#032100" stroke-width="0.5" stroke-miterlimit="10"></path><path d="M188.755 45.9597C188.755 45.9597 190.626 45.008 191.686 46.5198" stroke="#032100" stroke-width="0.5" stroke-miterlimit="10"></path><path d="M195.272 47.4758C195.272 47.4758 196.82 46.5199 197.794 48.4275" stroke="#032100" stroke-width="0.5" stroke-miterlimit="10"></path><path d="M192.664 46.7559C192.548 47.4462 192.269 48.1007 191.849 48.6677C191.198 49.4636 191.358 49.931 191.849 50.1795C192.341 50.4279 193.315 50.0194 193.315 50.0194" stroke="#032100" stroke-width="0.5" stroke-miterlimit="10"></path><path d="M188.427 50.8989C188.427 50.8989 190.056 52.4107 191.358 52.7307C192.66 53.0508 195.432 52.7307 196.005 52.3096" stroke="#032100" stroke-width="0.5" stroke-miterlimit="10"></path><path d="M188.674 44.1325C189.143 43.777 189.68 43.5164 190.254 43.3661C190.828 43.2157 191.426 43.1784 192.015 43.2566" stroke="#032100" stroke-width="0.5" stroke-miterlimit="10" stroke-linecap="round"></path><path d="M195.679 44.3682C196.314 44.405 196.92 44.6426 197.405 45.0451C197.89 45.4477 198.229 45.9934 198.369 46.6" stroke="#032100" stroke-width="0.5" stroke-miterlimit="10" stroke-linecap="round"></path><path d="M172.814 57.7633C174.055 59.4183 174.538 61.1322 172.383 62.3955C171.478 62.9261 169.581 62.8166 167.055 61.6881C164.529 60.5595 160.464 56.1337 159.296 54.7229C158.127 53.3122 158.933 51.0214 160.11 50.1371C163.046 47.9305 167.102 51.2951 168.801 53.4765C169.602 54.525 171.59 56.1168 172.814 57.7633Z" fill="white"></path><path d="M171.492 56.2425C170.828 55.5603 170.139 54.916 169.587 54.356L169.371 54.4486C167.479 55.3371 165.755 57.1142 164.229 59.7377C164.836 60.2686 165.482 60.7569 166.16 61.199C168.35 57.2995 170.432 56.4152 171.492 56.2425Z" fill="#3BC90C"></path><path d="M165.18 50.3223C162.962 51.4677 161.06 53.1205 159.637 55.1397C160.068 55.6156 160.632 56.2557 161.305 56.9547C162.258 55.3966 164.034 53.409 167.34 51.9014C166.684 51.2964 165.959 50.7666 165.18 50.3223Z" fill="#3BC90C"></path><path d="M172.814 57.7633C174.055 59.4183 174.538 61.1322 172.383 62.3955C171.478 62.9261 169.581 62.8166 167.055 61.6881C164.529 60.5595 160.464 56.1337 159.296 54.7229C158.127 53.3122 158.933 51.0214 160.11 50.1371C163.046 47.9305 167.102 51.2951 168.801 53.4765C169.602 54.525 171.59 56.1168 172.814 57.7633Z" stroke="#032100" stroke-width="0.5" stroke-miterlimit="10"></path><path d="M173.374 59.2334C173.374 59.2334 171.568 59.764 170.576 60.7325C169.585 61.7011 169.313 61.9664 169.671 62.417C170.029 62.8676 170.667 64.2698 171.749 64.7078C172.831 65.1457 175.197 63.3855 175.538 62.6823C175.706 62.3974 175.786 62.0718 175.771 61.7436C175.756 61.4154 175.645 61.0982 175.452 60.8294C174.803 60.2454 174.108 59.7118 173.374 59.2334Z" fill="#3BC90C" stroke="#032100" stroke-width="0.5" stroke-miterlimit="10"></path><path d="M174.366 61.8774C174.366 61.8774 171.75 63.465 171.388 63.983C171.025 64.5009 172.383 68.1267 172.383 68.1267L172.922 69.6258C172.922 69.6258 172.112 68.8341 171.75 69.1837C171.388 69.5332 172.021 70.8681 172.181 71.125C172.34 71.3818 173.263 72.9778 173.905 72.8894C174.547 72.801 177.332 72.5357 177.966 72.0935C178.599 71.6513 179.953 69.988 180.121 69.3605C180.289 68.7331 177.867 64.9515 176.875 63.5408C175.884 62.1301 175.09 61.7006 174.366 61.8774Z" fill="white" stroke="#032100" stroke-width="0.5" stroke-miterlimit="10"></path><path d="M195.94 97.5918C195.94 97.5918 193.862 99.5331 193.504 100.325C193.147 101.116 194.043 102.704 194.224 103.765C194.347 104.288 194.612 104.769 194.992 105.156C195.371 105.544 195.851 105.824 196.38 105.968C197.462 106.321 199.988 107.555 200.802 106.675C201.617 105.795 202.695 104.203 202.527 103.146C202.359 102.089 200.802 101.121 200.802 101.121C200.386 100.762 199.993 100.378 199.626 99.9711C199.268 99.5499 198.272 99.3562 198.091 99.0909C197.91 98.8256 195.94 97.5918 195.94 97.5918Z" fill="white" stroke="#032100" stroke-width="0.5" stroke-miterlimit="10"></path><path d="M197.656 100.324C198.182 100.767 198.559 101.354 198.738 102.009C198.913 102.79 199.004 103.588 199.01 104.388C199.01 104.388 200.635 101.743 201.165 102.539C201.695 103.335 200.988 105.449 200.445 105.71L199.902 105.975" fill="white"></path><path d="M197.656 100.324C198.182 100.767 198.559 101.354 198.738 102.009C198.913 102.79 199.004 103.588 199.01 104.388C199.01 104.388 200.635 101.743 201.165 102.539C201.695 103.335 200.988 105.449 200.445 105.71L199.902 105.975" stroke="#032100" stroke-width="0.5" stroke-miterlimit="10"></path><path d="M197.929 96.0044C197.929 96.0044 196.032 96.8845 195.941 97.592C195.851 98.2994 196.842 100.325 197.666 100.325C198.489 100.325 200.916 98.6405 200.916 98.6405L197.929 96.0044Z" fill="#3BC90C" stroke="#032100" stroke-width="0.5" stroke-miterlimit="10"></path><path d="M210.388 87.3629C210.388 87.3629 198.201 94.5217 197.934 96.004C197.667 97.4863 199.106 98.8255 200.007 99.1792C200.908 99.5329 213.185 94.1512 216.073 92.9173C218.962 91.6835 219.686 89.919 218.966 87.2745C218.246 84.6299 215.69 81.5938 215.69 81.5938" fill="white"></path><path d="M206.446 89.7422C205.562 90.2896 204.61 90.8918 203.67 91.4982C205.644 91.7467 208.662 92.5889 210.817 95.1703C211.619 94.8334 212.39 94.5007 213.093 94.2017C211.429 92.0521 209.097 90.4874 206.446 89.7422Z" fill="#3BC90C"></path><path d="M202.826 98.4006C203.507 98.1521 204.275 97.8574 205.094 97.5331C204.152 95.8341 202.994 94.2591 201.645 92.8462C200.921 93.3431 200.248 93.819 199.684 94.2527C200.899 95.5062 201.954 96.899 202.826 98.4006Z" fill="#3BC90C"></path><path d="M219.206 89.2959C216.965 87.5441 214.193 86.605 211.598 86.1123L210.382 87.3756C210.382 87.3756 209.878 87.6704 209.089 88.1505C212.106 88.4705 215.706 89.3464 218.206 91.5741C218.815 90.9606 219.171 90.1496 219.206 89.2959Z" fill="#3BC90C"></path><path d="M214.731 82.6338L211.516 86.1289C213.56 85.541 215.678 85.2348 217.809 85.2194C217.814 84.8313 217.701 84.4506 217.486 84.1245C217.107 83.5054 216.727 82.958 216.408 82.5285C215.848 82.5257 215.287 82.5608 214.731 82.6338Z" fill="#3BC90C"></path><path d="M210.388 87.3629C210.388 87.3629 198.201 94.5217 197.934 96.004C197.667 97.4863 199.106 98.8255 200.007 99.1792C200.908 99.5329 213.185 94.1512 216.073 92.9173C218.962 91.6835 219.686 89.919 218.966 87.2745C218.246 84.6299 215.69 81.5938 215.69 81.5938" stroke="#032100" stroke-width="0.5" stroke-miterlimit="10"></path></svg>