<svg xmlns="http://www.w3.org/2000/svg" width="610" height="206" viewBox="0 0 610 206" fill="none"><g clip-path="url(#clip0_1654_1907)"><rect width="610" height="206" fill="#3BC90C"></rect><path d="M433.133 240.488C505.409 240.488 564.001 180.111 564.001 105.631C564.001 31.1522 505.409 -29.2251 433.133 -29.2251C360.856 -29.2251 302.265 31.1522 302.265 105.631C302.265 180.111 360.856 240.488 433.133 240.488Z" fill="#032100" stroke="#032100" stroke-width="0.5" stroke-miterlimit="10"></path><path d="M428.906 234.672C501.183 234.672 559.774 174.294 559.774 99.815C559.774 25.3358 501.183 -35.0415 428.906 -35.0415C356.63 -35.0415 298.038 25.3358 298.038 99.815C298.038 174.294 356.63 234.672 428.906 234.672Z" fill="white" stroke="#032100" stroke-width="0.5" stroke-miterlimit="10"></path><path d="M422.821 234.672C495.098 234.672 553.689 174.294 553.689 99.815C553.689 25.3358 495.098 -35.0415 422.821 -35.0415C350.545 -35.0415 291.953 25.3358 291.953 99.815C291.953 174.294 350.545 234.672 422.821 234.672Z" fill="white" stroke="#032100" stroke-width="0.5" stroke-miterlimit="10"></path><path d="M422.82 207.779C480.684 207.779 527.592 159.441 527.592 99.8134C527.592 40.1856 480.684 -8.15234 422.82 -8.15234C364.955 -8.15234 318.047 40.1856 318.047 99.8134C318.047 159.441 364.955 207.779 422.82 207.779Z" fill="#3BC90C" stroke="#032100" stroke-width="0.5" stroke-miterlimit="10"></path><path d="M483.392 162.24C516.846 127.766 516.846 71.8727 483.392 37.3987C449.937 2.92474 395.697 2.92473 362.243 37.3987C328.788 71.8727 328.788 127.766 362.243 162.24C395.697 196.714 449.937 196.714 483.392 162.24Z" fill="white" stroke="#032100" stroke-width="0.5" stroke-miterlimit="10"></path><path d="M422.821 163.921C457.178 163.921 485.03 135.22 485.03 99.8161C485.03 64.412 457.178 35.7114 422.821 35.7114C388.464 35.7114 360.612 64.412 360.612 99.8161C360.612 135.22 388.464 163.921 422.821 163.921Z" fill="#3BC90C" stroke="#032100" stroke-width="0.5" stroke-miterlimit="10"></path><path d="M422.825 145.942C447.547 145.942 467.588 125.29 467.588 99.8151C467.588 74.3398 447.547 53.688 422.825 53.688C398.104 53.688 378.062 74.3398 378.062 99.8151C378.062 125.29 398.104 145.942 422.825 145.942Z" fill="white" stroke="#032100" stroke-width="0.5" stroke-miterlimit="10"></path><path d="M422.822 118.876C433.037 118.876 441.318 110.343 441.318 99.816C441.318 89.2894 433.037 80.7559 422.822 80.7559C412.606 80.7559 404.325 89.2894 404.325 99.816C404.325 110.343 412.606 118.876 422.822 118.876Z" fill="#3BC90C" stroke="#032100" stroke-width="0.5" stroke-miterlimit="10"></path><path d="M114.39 254.477L139.695 260.602L143.207 243.534L143.981 259.162C147.773 259.441 151.58 259.269 155.339 258.648C159.983 257.622 177.667 248.153 177.667 248.153L163.317 196.022L154.967 119.042L124.78 120.813L135.289 199.449L114.39 254.477Z" fill="white" stroke="#032100" stroke-width="0.5" stroke-miterlimit="10"></path><path d="M247.508 99.5401C247.508 99.5401 277.621 95.6001 278.261 95.2855C278.901 94.971 279.749 107.702 279.898 109.208C280.047 110.715 278.305 112.006 278.305 112.006C275.853 112.925 273.325 113.574 270.759 113.943C267.781 114.191 257.674 111.311 257.674 111.311L249.488 112.436L247.508 99.5401Z" fill="white" stroke="#032100" stroke-width="0.5" stroke-miterlimit="10"></path><path d="M274.732 95.0551C274.732 95.0551 282.458 94.2108 283.083 94.8565C283.708 95.5021 284.393 97.6211 283.47 98.1674C282.875 98.5317 282.316 98.9645 281.803 99.4587C281.803 99.4587 283.023 109.855 282.815 110.65C282.606 111.444 279.093 112.934 276.771 113.414C274.449 113.894 272.187 111.511 272.559 110.683C272.803 110.095 272.988 109.479 273.11 108.845C272.41 107.814 272.024 106.561 272.008 105.269V103.184C271.885 101.034 271.885 98.8771 272.008 96.7272C272.231 95.0055 274.732 95.0551 274.732 95.0551Z" fill="white" stroke="#032100" stroke-width="0.5" stroke-miterlimit="10"></path><path d="M148.672 126.889L158.437 199.63L167.874 265.088C167.874 265.088 189.413 255.619 196.156 243.981L175.168 194.697L173.426 140.927L251.306 115.698L248.746 98.9111C248.746 98.9111 203.107 106.742 190.381 109.622C177.654 112.503 173.664 114.191 172.31 114.406C170.955 114.622 151.962 115.449 151.962 115.449L146.32 115.565L148.672 126.889Z" fill="#3BC90C" stroke="#032100" stroke-width="0.5" stroke-miterlimit="10"></path><path d="M173.422 140.927L175.029 124.571L179.852 138.527L173.422 140.927Z" fill="#032100" stroke="#032100" stroke-width="0.5" stroke-miterlimit="10"></path><path d="M152.333 91.0146L153.047 95.3685C153.047 95.3685 159.984 101.792 159.612 103.215C159.24 104.639 156.382 106.808 156.382 106.808C157.103 109.263 157.656 111.775 158.034 114.324C158.272 116.972 158.108 120.83 153.985 122.8C151.988 123.855 149.869 124.596 147.689 125.002L144.354 164.319L127.847 123.495L121.893 117.767C121.893 117.767 114.45 115.483 115.165 107.702C115.879 99.921 123.396 100.153 126.061 99.1596C128.725 98.1663 135.2 90.9815 132.878 83.1511C130.556 75.3207 137.671 76.7775 141.809 77.0589C145.947 77.3404 152.675 84.3927 152.333 91.0146Z" fill="white" stroke="#032100" stroke-width="0.5" stroke-linejoin="round"></path><path d="M147.689 125.02L136.525 126.741L146.082 144.289L147.689 125.02Z" fill="#032100" stroke="#032100" stroke-width="0.5" stroke-linejoin="round"></path><path d="M150.081 95.9809C148.723 95.9542 147.38 96.2996 146.17 96.9867C144.96 97.6738 143.921 98.6816 143.145 99.921" stroke="#032100" stroke-width="0.5" stroke-linejoin="round"></path><path d="M151.185 100.946C151.393 102.187 151.185 103.296 150.545 103.412C149.904 103.528 149.369 102.601 149.16 101.36C148.952 100.118 149.16 99.0088 149.785 98.8929C150.411 98.777 151.021 99.671 151.185 100.946Z" fill="#032100"></path><path d="M139.082 81.8589C139.082 81.8589 142.059 85.501 141.553 93.0334C141.046 100.566 131.728 105.615 131.49 106.559C131.252 107.502 132.532 110.399 131.49 111.293C131.198 111.596 130.854 111.83 130.479 111.981C130.104 112.133 129.705 112.199 129.307 112.176C128.908 112.153 128.518 112.041 128.159 111.846C127.8 111.652 127.48 111.38 127.218 111.045C125.878 109.224 123.512 105.913 121.026 108.049C118.54 110.184 118.049 112.253 119.865 114.356C121.111 115.788 122.477 117.085 123.943 118.23C123.943 118.23 115.399 121.541 105.56 111.012C95.7209 100.483 100.707 79.4419 107.049 71.6115C109.639 68.5311 112.793 66.1039 116.298 64.4933C119.803 62.8827 123.577 62.1262 127.367 62.2746C132.071 62.6554 140.153 69.9726 140.153 69.9726C140.153 69.9726 150.052 60.2881 156.274 67.3239C162.496 74.3596 159.415 87.3386 156.468 89.0603C155.171 89.9095 153.78 90.5663 152.329 91.0137C152.075 90.0833 151.646 89.2234 151.071 88.4902C150.497 87.757 149.789 87.167 148.995 86.7591C146.36 85.5341 139.082 81.8589 139.082 81.8589Z" fill="#032100" stroke="#032100" stroke-width="0.5" stroke-linejoin="round"></path><path d="M108.583 70.0061C108.583 70.0061 111.917 65.7185 99.518 60.1892C87.1186 54.6599 71.4146 72.8039 79.4676 88.233C87.5205 103.662 100.709 84.7399 100.709 84.7399C100.709 84.7399 106.112 73.5654 108.583 70.0061Z" fill="#032100" stroke="#032100" stroke-width="0.5" stroke-linejoin="round"></path><path d="M124.779 120.813C124.779 120.813 115.937 121.575 112.067 122.386C108.197 123.197 81.969 124.389 74.3626 125.432C66.7562 126.475 58.1824 131.656 59.2392 137.997C60.2961 144.337 60.3258 148.791 71.1474 148.658C81.969 148.526 100.203 152.631 100.203 152.631C100.203 152.631 113.392 197.329 114.716 199.696C116.041 202.064 96.4523 252.142 96.4523 252.142C99.9195 255.247 103.829 257.686 108.018 259.36C118.081 263.201 120.343 261.992 120.343 261.992C120.343 261.992 137.357 204.762 137.789 200.475C138.22 196.187 130.123 137.566 128.857 129.653C127.592 121.74 124.779 120.813 124.779 120.813Z" fill="#3BC90C" stroke="#032100" stroke-width="0.5" stroke-miterlimit="10"></path><path d="M100.212 152.614L125.413 135.944L78.0781 148.509L100.212 152.614Z" fill="#032100" stroke="#032100" stroke-width="0.5" stroke-linejoin="round"></path><path d="M270.713 73.5157C256.914 30.5891 231.803 11.4022 208.478 6.02189C205.403 5.05578 202.586 3.27548 200.266 0.833469C197.945 -1.60855 196.192 -4.63954 195.155 -8" stroke="#032100" stroke-width="0.5" stroke-linecap="round" stroke-linejoin="round"></path><path d="M280.237 130.564C280.025 120.967 279.109 111.406 277.499 101.974C275.917 92.3034 273.648 82.7876 270.711 73.5166" stroke="#032100" stroke-width="0.5" stroke-linecap="round" stroke-linejoin="round"></path><path d="M237.714 231.365C238.786 221.796 247.851 213.304 247.851 213.304C265.564 198.984 281.03 172.794 280.241 130.53" stroke="#032100" stroke-width="0.5" stroke-linecap="round" stroke-linejoin="round"></path><path d="M202.569 1.89941L154.906 119.041L241.851 224.28" stroke="#032100" stroke-width="0.5" stroke-miterlimit="10"></path><path d="M146.244 116.113L288.249 92.2739" stroke="#032100" stroke-width="0.5" stroke-miterlimit="10"></path><path d="M301.555 90.04L283.961 101.711L287.25 92.4404L281.653 84.6763L301.555 90.04Z" fill="#032100"></path><path d="M258.547 99.159C258.547 99.159 269.964 93.7621 271.289 93.4806C272.613 93.1992 283.197 101.493 283.197 101.493C283.197 101.493 283.018 102.47 280.384 103.016C277.749 103.563 273.611 101.361 272.852 100.963C272.092 100.566 270.366 104.506 267.255 105.35C264.144 106.195 259.589 104.456 259.589 104.456" fill="white"></path><path d="M258.547 99.159C258.547 99.159 269.964 93.7621 271.289 93.4806C272.613 93.1992 283.197 101.493 283.197 101.493C283.197 101.493 283.018 102.47 280.384 103.016C277.749 103.563 273.611 101.361 272.852 100.963C272.092 100.566 270.366 104.506 267.255 105.35C264.144 106.195 259.589 104.456 259.589 104.456" stroke="#032100" stroke-width="0.5" stroke-miterlimit="10"></path><path d="M141.834 117.003C141.834 117.003 147.788 112.649 148.309 112.037C148.83 111.424 154.725 112.285 156.407 112.467C158.089 112.649 159.012 111.143 159.384 112.368C159.66 113.363 159.756 114.41 159.667 115.447C159.667 115.447 162.257 115.447 162.242 116.755C162.242 117.96 162.046 119.154 161.662 120.281C161.334 121.142 158.297 122.814 158.297 122.814C158.297 122.814 157.36 128.525 156.02 130.363C155.305 131.381 154.352 132.162 153.265 132.62C152.179 133.078 151 133.197 149.858 132.962C147.178 132.449 137.265 128.211 137.265 128.211L124.94 132.051L122.9 120.662L141.834 117.003Z" fill="white" stroke="#032100" stroke-width="0.5" stroke-miterlimit="10"></path><path d="M159.731 115.416L150.011 115.067" stroke="#032100" stroke-width="0.5" stroke-miterlimit="10"></path><path d="M127.368 118.147L130.777 137.119C130.777 137.119 105.769 142.797 100.068 143.989C94.3673 145.181 71.9055 151.886 61.3667 149.602C50.828 147.317 48.104 140.794 51.2001 132.534C54.2962 124.273 70.1192 122.866 82.9056 121.806L127.368 118.147Z" fill="#3BC90C" stroke="#032100" stroke-width="0.5" stroke-miterlimit="10"></path></g><defs><clipPath id="clip0_1654_1907"><rect width="610" height="206" fill="white"></rect></clipPath></defs></svg>