<svg xmlns="http://www.w3.org/2000/svg" width="595" height="400" viewBox="0 0 595 400" fill="none"><g clip-path="url(#clip0_1252_5790)"><path d="M375.234 474.636L568.147 398.406L569.537 382.16L378.044 458.375L375.234 474.636Z" fill="#2CA700" stroke="#032100" stroke-linecap="round" stroke-linejoin="round"></path><path d="M342.752 205.164C339.363 205.137 336.086 203.878 333.476 201.6C330.197 198.751 328.042 194.718 327.433 190.287C327.357 189.496 327.572 188.704 328.035 188.074C328.497 187.445 329.171 187.027 329.918 186.907C330.664 186.786 331.427 186.973 332.047 187.427C332.667 187.881 333.097 188.569 333.25 189.348C333.644 192.254 335.049 194.903 337.193 196.779C338.125 197.626 339.221 198.249 340.404 198.606C341.588 198.964 342.831 199.046 344.048 198.848C345.265 198.65 346.426 198.176 347.452 197.459C348.477 196.741 349.343 195.798 349.989 194.694C350.434 194.045 351.101 193.602 351.849 193.458C352.597 193.314 353.369 193.48 354.004 193.922C354.638 194.364 355.086 195.047 355.252 195.829C355.419 196.611 355.293 197.43 354.899 198.115C353.796 199.937 352.338 201.49 350.622 202.673C348.905 203.855 346.969 204.639 344.943 204.973C344.219 205.101 343.486 205.165 342.752 205.164Z" fill="#032100"></path><path d="M314.909 214.218C307.461 214.218 300.798 207.98 299.544 199.356C299.484 198.955 299.5 198.545 299.59 198.15C299.681 197.756 299.844 197.383 300.072 197.055C300.299 196.727 300.586 196.449 300.915 196.238C301.245 196.027 301.61 195.886 301.992 195.824C302.762 195.717 303.542 195.927 304.17 196.41C304.797 196.893 305.224 197.612 305.361 198.418C306.237 204.48 311.087 208.744 316.148 207.964C317.363 207.756 318.522 207.278 319.548 206.562C320.574 205.846 321.444 204.908 322.1 203.812C322.545 203.162 323.212 202.719 323.96 202.575C324.708 202.431 325.48 202.597 326.115 203.039C326.749 203.481 327.197 204.165 327.364 204.946C327.531 205.728 327.404 206.547 327.01 207.232C325.908 209.054 324.45 210.607 322.733 211.79C321.016 212.972 319.081 213.756 317.054 214.09C316.344 214.195 315.626 214.237 314.909 214.218Z" fill="#032100"></path><path d="M289.436 224.512C286.049 224.488 282.773 223.235 280.16 220.964C276.884 218.112 274.731 214.081 274.117 209.651C274.041 208.86 274.256 208.068 274.719 207.439C275.181 206.81 275.855 206.392 276.602 206.271C277.348 206.151 278.111 206.337 278.731 206.791C279.351 207.246 279.781 207.933 279.934 208.713C280.328 211.619 281.733 214.267 283.877 216.143C284.819 216.974 285.916 217.588 287.098 217.944C288.279 218.301 289.519 218.392 290.736 218.212C291.949 218.003 293.105 217.525 294.129 216.809C295.153 216.093 296.02 215.155 296.673 214.059C297.167 213.555 297.81 213.243 298.494 213.176C299.179 213.108 299.865 213.289 300.439 213.688C301.013 214.087 301.441 214.68 301.652 215.369C301.863 216.058 301.844 216.803 301.598 217.48C300.491 219.3 299.03 220.853 297.311 222.035C295.592 223.217 293.655 224.002 291.627 224.337C290.903 224.46 290.17 224.518 289.436 224.512Z" fill="#032100"></path><path d="M261.593 232.913C254.144 232.913 247.482 226.66 246.228 218.052C246.15 217.642 246.152 217.219 246.233 216.809C246.315 216.4 246.474 216.011 246.701 215.668C246.929 215.325 247.22 215.034 247.557 214.812C247.894 214.591 248.271 214.443 248.663 214.379C249.056 214.314 249.457 214.334 249.842 214.437C250.227 214.54 250.589 214.724 250.905 214.978C251.221 215.232 251.484 215.551 251.68 215.915C251.876 216.279 252 216.682 252.044 217.098C252.936 223.16 257.77 227.424 262.831 226.644C264.045 226.436 265.202 225.959 266.228 225.246C267.254 224.533 268.125 223.6 268.784 222.507C268.983 222.138 269.252 221.815 269.574 221.559C269.896 221.303 270.265 221.12 270.657 221.02C271.049 220.921 271.457 220.907 271.854 220.98C272.252 221.053 272.63 221.212 272.967 221.445C273.304 221.679 273.592 221.983 273.813 222.339C274.034 222.694 274.183 223.094 274.251 223.513C274.319 223.932 274.305 224.361 274.209 224.773C274.113 225.186 273.938 225.574 273.694 225.912C272.589 227.733 271.131 229.287 269.415 230.472C267.699 231.657 265.764 232.445 263.738 232.786C263.027 232.883 262.31 232.926 261.593 232.913Z" fill="#032100"></path><path d="M233.084 244.847C225.651 244.847 218.988 238.61 217.719 229.986C217.765 229.263 218.044 228.579 218.509 228.046C218.974 227.512 219.598 227.162 220.278 227.053C220.957 226.943 221.652 227.081 222.247 227.444C222.842 227.806 223.302 228.372 223.551 229.047C224.427 235.109 229.277 239.357 234.338 238.594C235.552 238.382 236.71 237.903 237.736 237.187C238.761 236.472 239.632 235.536 240.29 234.441C240.735 233.791 241.402 233.348 242.15 233.204C242.898 233.06 243.671 233.226 244.305 233.668C244.939 234.11 245.387 234.794 245.554 235.575C245.721 236.357 245.594 237.176 245.2 237.862C244.096 239.681 242.637 241.233 240.921 242.415C239.205 243.597 237.27 244.383 235.244 244.719C234.528 244.816 233.806 244.859 233.084 244.847Z" fill="#032100"></path><path d="M205.482 255.491C202.094 255.469 198.818 254.216 196.206 251.943C192.93 249.091 190.777 245.059 190.163 240.63C190.087 239.838 190.302 239.046 190.764 238.417C191.227 237.788 191.901 237.37 192.648 237.25C193.394 237.129 194.156 237.315 194.777 237.77C195.397 238.224 195.827 238.912 195.98 239.691C196.374 242.597 197.779 245.245 199.923 247.122C200.855 247.968 201.951 248.592 203.134 248.949C204.318 249.306 205.561 249.389 206.778 249.191C207.995 248.992 209.156 248.518 210.182 247.801C211.207 247.084 212.073 246.141 212.719 245.037C213.213 244.533 213.855 244.222 214.54 244.154C215.225 244.087 215.911 244.268 216.485 244.666C217.059 245.065 217.487 245.658 217.698 246.348C217.908 247.037 217.89 247.781 217.644 248.458C216.537 250.279 215.076 251.831 213.357 253.013C211.638 254.195 209.701 254.98 207.673 255.316C206.949 255.438 206.216 255.497 205.482 255.491Z" fill="#032100"></path><path d="M183.017 248.347V267.551L375.234 474.636L378.044 458.374L183.017 248.347Z" fill="#2CA700" stroke="#032100" stroke-linecap="round" stroke-linejoin="round"></path><path d="M185.872 263.415L300.012 383.608" stroke="#032100" stroke-linecap="round" stroke-linejoin="round"></path><path d="M239.792 315.031L358.812 443.339" stroke="#032100" stroke-linecap="round" stroke-linejoin="round"></path><path d="M183.017 248.347L378.044 458.375L569.536 382.16L371.064 181.838L183.017 248.347Z" fill="white" stroke="#032100" stroke-linecap="round" stroke-linejoin="round"></path><path d="M180.63 245.038L0 67.4846L185.026 6.71973L369.644 178.672L180.63 245.038Z" fill="#2CA700" stroke="#032100" stroke-linecap="round" stroke-linejoin="round"></path><path d="M27.6475 68.6621L80.525 51.3188" stroke="#032100" stroke-linecap="round" stroke-linejoin="round"></path><path d="M35.458 75.058L88.3356 57.7148" stroke="#032100" stroke-linecap="round" stroke-linejoin="round"></path><path d="M215.167 249.843C214.592 249.847 214.029 249.67 213.55 249.334C212.913 248.869 212.469 248.164 212.312 247.364C212.154 246.565 212.295 245.732 212.704 245.038C214.214 242.569 214.795 239.597 214.336 236.701C214.079 234.505 213.208 232.44 211.833 230.768C210.459 229.097 208.642 227.894 206.616 227.313C205.884 227.102 205.258 226.602 204.868 225.917C204.477 225.232 204.353 224.415 204.52 223.636C204.688 222.856 205.134 222.175 205.767 221.734C206.399 221.293 207.168 221.125 207.915 221.267C211.095 222.125 213.959 223.963 216.142 226.545C218.324 229.127 219.726 232.336 220.167 235.762C220.858 240.19 219.953 244.729 217.629 248.491C217.351 248.907 216.983 249.247 216.554 249.483C216.126 249.718 215.65 249.842 215.167 249.843Z" fill="#032100"></path><path d="M242.738 239.198C242.163 239.202 241.6 239.024 241.121 238.689C240.798 238.465 240.519 238.176 240.302 237.839C240.085 237.502 239.933 237.122 239.856 236.723C239.779 236.324 239.777 235.912 239.852 235.512C239.926 235.112 240.075 234.732 240.29 234.393C241.793 231.921 242.374 228.951 241.922 226.055C241.666 223.86 240.795 221.795 239.42 220.123C238.045 218.451 236.228 217.248 234.202 216.668C233.807 216.599 233.429 216.445 233.092 216.217C232.754 215.989 232.465 215.691 232.241 215.341C232.017 214.991 231.863 214.597 231.788 214.182C231.714 213.768 231.721 213.341 231.808 212.929C231.896 212.517 232.062 212.129 232.297 211.787C232.532 211.445 232.831 211.157 233.175 210.941C233.52 210.725 233.902 210.585 234.299 210.53C234.697 210.475 235.101 210.506 235.486 210.621C238.666 211.48 241.53 213.317 243.713 215.899C245.896 218.482 247.297 221.691 247.739 225.116C248.429 229.544 247.524 234.084 245.2 237.845C244.923 238.262 244.554 238.602 244.125 238.837C243.697 239.073 243.221 239.196 242.738 239.198Z" fill="#032100"></path><path d="M352.437 199.516C351.919 199.488 351.417 199.321 350.979 199.031C350.541 198.74 350.181 198.336 349.933 197.857C349.686 197.377 349.56 196.839 349.567 196.294C349.574 195.748 349.714 195.214 349.974 194.742C351.485 192.28 352.067 189.312 351.606 186.421C351.352 184.223 350.482 182.154 349.107 180.479C347.732 178.804 345.914 177.599 343.885 177.017C343.508 176.931 343.151 176.766 342.835 176.533C342.519 176.3 342.249 176.004 342.043 175.66C341.836 175.317 341.696 174.934 341.631 174.533C341.566 174.132 341.578 173.722 341.665 173.326C341.852 172.532 342.322 171.845 342.977 171.406C343.633 170.968 344.423 170.812 345.185 170.971C348.365 171.829 351.229 173.667 353.412 176.249C355.594 178.831 356.996 182.04 357.437 185.466C358.129 189.896 357.218 194.438 354.884 198.195C354.611 198.61 354.244 198.948 353.817 199.178C353.39 199.409 352.916 199.524 352.437 199.516Z" fill="#032100"></path><path d="M324.547 208.537C323.972 208.541 323.41 208.364 322.931 208.028C322.607 207.805 322.329 207.516 322.111 207.178C321.894 206.841 321.743 206.462 321.665 206.062C321.588 205.663 321.587 205.251 321.661 204.851C321.736 204.451 321.885 204.071 322.1 203.732C323.604 201.261 324.185 198.291 323.732 195.395C323.475 193.199 322.604 191.134 321.229 189.462C319.854 187.79 318.038 186.588 316.011 186.007C315.616 185.938 315.238 185.785 314.901 185.557C314.564 185.329 314.274 185.031 314.05 184.681C313.826 184.331 313.672 183.936 313.598 183.522C313.524 183.107 313.53 182.681 313.618 182.269C313.705 181.857 313.872 181.468 314.107 181.126C314.342 180.784 314.641 180.497 314.985 180.281C315.329 180.065 315.712 179.925 316.109 179.87C316.506 179.815 316.91 179.846 317.296 179.961C320.477 180.815 323.344 182.652 325.527 185.234C327.71 187.817 329.111 191.028 329.548 194.456C330.239 198.884 329.333 203.423 327.01 207.185C326.732 207.601 326.363 207.941 325.935 208.177C325.507 208.412 325.031 208.536 324.547 208.537Z" fill="#032100"></path><path d="M299.075 218.88C298.499 218.878 297.936 218.695 297.459 218.355C296.821 217.89 296.378 217.184 296.22 216.385C296.063 215.585 296.203 214.752 296.613 214.059C298.13 211.593 298.717 208.619 298.259 205.721C298.003 203.526 297.132 201.461 295.757 199.789C294.382 198.117 292.566 196.914 290.539 196.334C290.144 196.265 289.766 196.111 289.429 195.883C289.092 195.655 288.802 195.357 288.578 195.007C288.354 194.657 288.2 194.263 288.126 193.848C288.052 193.434 288.058 193.007 288.146 192.595C288.233 192.183 288.4 191.795 288.635 191.453C288.87 191.111 289.168 190.823 289.513 190.607C289.857 190.391 290.239 190.251 290.637 190.196C291.034 190.141 291.438 190.172 291.823 190.287C295.003 191.146 297.868 192.983 300.05 195.565C302.233 198.148 303.635 201.357 304.076 204.782C304.766 209.21 303.861 213.75 301.538 217.511C301.262 217.931 300.894 218.274 300.465 218.512C300.037 218.75 299.56 218.876 299.075 218.88Z" fill="#032100"></path><path d="M271.232 227.265C270.658 227.26 270.097 227.084 269.615 226.756C269.291 226.532 269.013 226.244 268.796 225.906C268.578 225.569 268.427 225.189 268.35 224.79C268.272 224.391 268.271 223.979 268.346 223.579C268.42 223.179 268.569 222.799 268.784 222.46C270.287 219.988 270.868 217.018 270.416 214.122C270.159 211.927 269.288 209.862 267.913 208.19C266.539 206.518 264.722 205.315 262.696 204.735C262.243 204.735 261.796 204.628 261.388 204.422C260.979 204.215 260.62 203.915 260.337 203.543C260.054 203.171 259.854 202.737 259.751 202.272C259.649 201.808 259.647 201.325 259.745 200.859C259.844 200.394 260.041 199.958 260.321 199.583C260.601 199.209 260.957 198.905 261.364 198.695C261.771 198.485 262.217 198.374 262.669 198.37C263.122 198.366 263.57 198.47 263.98 198.672C267.163 199.525 270.03 201.361 272.214 203.944C274.397 206.527 275.797 209.74 276.232 213.168C276.924 217.595 276.019 222.136 273.694 225.896C273.418 226.316 273.05 226.659 272.621 226.897C272.193 227.135 271.716 227.261 271.232 227.265Z" fill="#032100"></path><path d="M532.674 377.307L540.107 374.427" stroke="#032100" stroke-linecap="round" stroke-linejoin="round"></path><path d="M385.931 434.397L525.92 379.949" stroke="#032100" stroke-linecap="round" stroke-linejoin="round"></path><path d="M389.859 409.782L523.458 357.816" stroke="#032100" stroke-linecap="round" stroke-linejoin="round"></path><path d="M352.633 401.174L506.824 341.205" stroke="#032100" stroke-linecap="round" stroke-linejoin="round"></path><path d="M335.999 384.579L490.175 324.609" stroke="#032100" stroke-linecap="round" stroke-linejoin="round"></path><path d="M467.06 310.512L473.526 307.999" stroke="#032100" stroke-linecap="round" stroke-linejoin="round"></path><path d="M319.35 367.968L457.814 314.108" stroke="#032100" stroke-linecap="round" stroke-linejoin="round"></path><path d="M302.701 351.356L456.892 291.387" stroke="#032100" stroke-linecap="round" stroke-linejoin="round"></path><path d="M286.052 334.761L440.243 274.792" stroke="#032100" stroke-linecap="round" stroke-linejoin="round"></path><path d="M269.419 318.149L423.595 258.18" stroke="#032100" stroke-linecap="round" stroke-linejoin="round"></path><path d="M252.77 301.538L406.946 241.569" stroke="#032100" stroke-linecap="round" stroke-linejoin="round"></path><path d="M384.843 227.09L390.312 224.958" stroke="#032100" stroke-linecap="round" stroke-linejoin="round"></path><path d="M236.121 284.927L380.099 228.936" stroke="#032100" stroke-linecap="round" stroke-linejoin="round"></path><path d="M265.506 250.416L373.663 208.362" stroke="#032100" stroke-linecap="round" stroke-linejoin="round"></path><path d="M219.487 268.331L249.264 256.748" stroke="#032100" stroke-linecap="round" stroke-linejoin="round"></path><g style="mix-blend-mode:multiply"><path d="M272.969 311.276C288.575 313.424 287.2 285.293 283.242 275.858C280.354 279.343 278.202 283.435 276.929 287.862C275.655 292.289 275.289 296.951 275.854 301.538C276.019 303.68 276.728 305.736 277.909 307.489C278.507 308.357 279.335 309.019 280.289 309.392C281.244 309.766 282.281 309.835 283.272 309.589C284.693 308.955 285.895 307.878 286.717 306.503C289.587 302.493 291.491 297.529 294.513 293.853C298.697 296.828 313.564 301.92 311.418 290.973C310.24 284.927 313.095 285.611 316.162 288.571C317.431 289.78 319.425 289.127 320.997 288.396L336.105 281.395C338.027 280.362 340.11 279.699 342.253 279.438C349.505 279.056 354.249 286.152 361.365 281.14C364.387 279.04 365.081 273.344 368.919 271.18C371.653 269.589 374.871 269.493 377.984 269.048C388.68 267.552 394.149 261.601 404.03 256.223" stroke="#3BC90C" stroke-linecap="round" stroke-linejoin="round"></path></g><g style="mix-blend-mode:multiply"><path d="M285.085 328.858C290.932 329.908 295.933 324.291 301.1 322.494C307.702 320.17 310.572 317.338 316.918 314.458C325.303 310.672 335.153 308.921 333.4 295.572C332.207 300.345 332.071 305.596 331.149 310.592C337.948 314.14 339.776 308.046 340.471 302.636C342.753 302.576 345.008 302.096 347.133 301.22C347.133 302.223 347.436 303.352 347.421 304.307C350.684 305.691 351.953 304.753 352.633 301.713C356.244 300.997 357.528 297.433 360.579 296.558C361.35 305.484 363.51 313.297 363.012 322.43C357.226 324.021 356.319 313.504 357.785 309.144C359.295 304.53 363.646 302.064 365.248 297.242C365.58 297.831 365.323 298.515 365.505 299.152C372.787 294.569 382.123 295.81 389.345 290.448C391.611 288.762 393.228 285.389 395.63 284.211C400.857 281.665 402.413 284.657 406.311 278.658" stroke="#3BC90C" stroke-linecap="round" stroke-linejoin="round"></path></g><g style="mix-blend-mode:multiply"><path d="M337.722 381.285C348.222 378.103 352.83 350.624 349.808 340.536C346.273 328.333 341.408 341.714 340.275 348.269C339.368 353.52 337.918 367.363 342.571 371.356C352.89 380.171 359.19 362.048 360.459 353.854C360.912 358.977 357.981 365.294 359.175 370.815C367.53 371.85 371.669 364.53 371.14 356.973C372.178 358.018 372.881 359.378 373.151 360.864C373.422 362.349 373.247 363.886 372.651 365.262C380.628 364.674 379.314 350.497 380.205 344.785C379.752 348.778 380.099 353.456 382.653 356.686C384.783 359.359 388.847 360.537 391.521 358.468C394.195 356.4 393.666 350.958 390.418 350.242V384.69C390.52 385.686 390.331 386.691 389.874 387.57C388.801 389.161 386.173 388.827 384.949 387.299C383.871 385.633 383.365 383.629 383.514 381.619C383.363 370.338 386.671 354.888 394.965 347.187C395.391 348.285 395.532 349.482 395.373 350.656C396.167 350.33 396.885 349.827 397.477 349.182C398.069 348.536 398.521 347.764 398.803 346.917C399.347 349.447 400.767 352.629 403.199 352.183C404.006 351.961 404.745 351.522 405.345 350.91C409.333 347.442 413.654 345.151 416.328 340.218C416.706 341.459 417.098 342.7 417.491 343.957C418.126 341.555 420.301 339.979 422.432 338.898C425.681 337.289 429.195 336.354 432.78 336.145C435.802 335.986 439.096 336.32 441.845 334.952C443.063 334.266 444.23 333.484 445.335 332.613C448.466 330.44 452.091 329.187 455.835 328.985" stroke="#3BC90C" stroke-linecap="round" stroke-linejoin="round"></path></g><path d="M213.248 79.1157C213.248 79.1157 237.345 47.1343 245.503 35.6941C253.661 24.254 259.569 15.4551 259.569 15.4551C259.569 15.4551 263.92 19.0669 262.59 23.172C261.261 27.2771 232.601 68.503 226.225 78.9725C219.85 89.4421 220.741 102.696 221.21 107.263C221.678 111.829 209.033 96.9044 213.248 79.1157Z" fill="white" stroke="#032100" stroke-linecap="round" stroke-linejoin="round"></path><path d="M259.569 15.4552C259.569 15.4552 274.571 -6.51817 285.706 -24.816C296.84 -43.1139 313.096 -70.5925 316.964 -74.2521C320.831 -77.9117 321.768 -68.365 320.514 -61.9687C319.26 -55.5724 305.95 -37.72 296.961 -23.0817C287.972 -8.44342 282.412 2.08979 274.677 11.7001C266.942 21.3105 267.395 21.7719 262.59 23.1721C257.786 24.5723 258.723 19.5603 259.569 15.4552Z" fill="#032100" stroke="#032100" stroke-linecap="round" stroke-linejoin="round"></path><path d="M208.066 82.3295C209.728 70.4757 213.49 48.5819 222.086 41.6924C230.682 34.8028 256.698 40.1012 258.858 40.5149C261.019 40.9286 295.253 48.916 305.693 55.6783C316.132 62.4405 323.142 81.9795 325.817 93.2923C328.491 104.605 334.232 123.762 335.093 125.115C335.093 125.115 343.78 129.14 348.539 128.663C353.298 128.186 359.628 104.892 372.953 91.1284C386.278 77.3652 393.198 75.4877 407.913 76.8083C422.628 78.129 478.527 94.0879 484.192 99.9591C489.858 105.83 493.393 119.053 492.169 128.599C490.946 138.146 492.728 148.647 492.728 150.461C492.728 152.275 497.971 158.178 496.702 163.19C495.433 168.202 494.647 179.101 490.764 180.549C486.882 181.997 458.313 181.233 437.101 178.194C415.89 175.155 386.384 161.679 366.85 152.259C347.315 142.84 337.782 138.782 323.505 138.894C309.228 139.005 281.55 139.642 255.988 133.436C230.425 127.231 213.051 115.934 208.247 110.986C203.443 106.037 206.419 94.1993 208.066 82.3295ZM361.139 138.21C368.134 149.109 396.325 159.849 411.493 164.288C426.662 168.727 463.041 176.683 472.529 171.162C482.017 165.641 487.002 132.784 486.126 121.392C485.25 109.999 480.823 103.666 480.823 103.666C462.135 91.4944 403.652 78.6859 391.566 83.7934C379.48 88.9008 367.922 105.369 363.677 118.607C359.432 131.845 361.139 138.21 361.139 138.21ZM239.022 119.482C257.695 131.193 287.14 134.63 298.819 135.011C310.497 135.393 321.707 128.933 322.055 114.804C322.402 100.675 315.332 77.0311 312.688 70.2529C310.044 63.4748 301.372 59.4015 301.372 59.4015C289.663 53.5621 241.122 40.6899 232.903 42.122C224.684 43.554 217.493 56.6966 215.816 75.9014C214.139 95.1062 220.349 107.772 239.022 119.482Z" fill="#032100" stroke="#032100" stroke-linecap="round" stroke-linejoin="round"></path><path d="M491.429 150.064C491.429 150.064 496.233 157.781 499.663 152.291C503.092 146.802 547.328 94.5497 547.328 94.5497C547.328 94.5497 549.05 94.0724 548.642 97.732C548.234 101.392 501.929 166.866 500.206 170.064C498.484 173.262 491.142 174.233 489.419 172.881C487.697 171.528 491.429 150.064 491.429 150.064Z" fill="white" stroke="#032100" stroke-linecap="round" stroke-linejoin="round"></path><path d="M544.306 96.3792C546.834 91.6397 549.113 86.7583 551.135 81.7568C555.818 70.794 558.689 49.3616 559.444 27.0223C560.2 4.683 560.955 -8.52328 564.868 -4.45002C568.781 -0.376755 565.427 21.5329 564.702 38.8284C563.977 56.1239 558.87 73.4989 557.631 82.6319C556.695 89.5214 551.679 100.437 548.219 100.452C544.759 100.468 545.198 99.5614 544.306 96.3792Z" fill="#032100" stroke="#032100" stroke-linecap="round" stroke-linejoin="round"></path><path d="M258.858 381.985L277.879 404.658L249.597 397.944L48.3604 268.284L57.6366 252.325L258.858 381.985Z" fill="#3BC90C" stroke="#032100" stroke-linecap="round" stroke-linejoin="round"></path><path d="M55.5303 255.958L50.4761 264.658L251.708 394.326L256.762 385.626L55.5303 255.958Z" stroke="#032100" stroke-linecap="round" stroke-linejoin="round"></path><path d="M263.753 401.301L277.879 404.659L268.392 393.346L263.753 401.301Z" fill="#2CA700" stroke="#032100" stroke-linecap="round" stroke-linejoin="round"></path><path d="M30.4725 245.785C29.8622 246.832 29.4539 247.995 29.271 249.208C29.088 250.421 29.134 251.66 29.4062 252.854C29.6784 254.048 30.1716 255.174 30.8575 256.167C31.5434 257.16 32.4085 258.001 33.4034 258.642L48.3602 268.284L57.6364 252.373L42.6796 242.731C40.6754 241.434 38.2648 241.027 35.9764 241.6C33.688 242.173 31.7086 243.678 30.4725 245.785Z" fill="white" stroke="#032100" stroke-linecap="round" stroke-linejoin="round"></path><path d="M30.4725 245.785C29.8622 246.832 29.4539 247.995 29.271 249.208C29.088 250.421 29.134 251.66 29.4062 252.854C29.6784 254.048 30.1716 255.174 30.8575 256.167C31.5434 257.16 32.4085 258.001 33.4034 258.642L40.5645 263.256L49.8408 247.345L42.6796 242.731C40.6754 241.434 38.2648 241.027 35.9764 241.6C33.688 242.173 31.7086 243.678 30.4725 245.785Z" fill="#032100" stroke="#032100" stroke-linecap="round" stroke-linejoin="round"></path><path d="M436.557 169.809L431.254 165.879C430.434 165.273 429.495 164.87 428.506 164.699C427.517 164.528 426.505 164.594 425.544 164.893C419.939 166.611 409.363 170.987 406.341 174.44C402.413 178.704 401.175 186.421 403.063 190.048C404.952 193.676 412.702 198.306 412.702 198.306L445.169 177.494L436.557 169.809Z" fill="#3BC90C" stroke="#032100" stroke-miterlimit="10"></path><path d="M439.866 168.202L414.183 180.565C414.183 180.565 405.496 185.736 408.245 201.568L558.644 318.197C558.644 318.197 563.872 322.207 573.314 318.817C582.756 315.428 592.425 303.702 594.465 293.789C596.505 283.877 589.933 280.758 588.709 279.66C587.485 278.562 444.942 169.38 444.942 169.38C443.436 168.367 441.637 167.95 439.866 168.202Z" fill="#3BC90C" stroke="#032100" stroke-miterlimit="10"></path><path d="M584.343 310.592C574.87 319.9 563.403 323.177 558.659 317.895C553.915 312.612 557.828 300.758 567.301 291.434C576.774 282.11 588.24 278.849 592.984 284.131C597.728 289.414 593.8 301.268 584.343 310.592Z" fill="white" stroke="#032100" stroke-miterlimit="10"></path><g style="mix-blend-mode:multiply"><path d="M584.343 310.592C574.87 319.9 563.403 323.177 558.659 317.895C553.915 312.612 557.828 300.758 567.301 291.434C576.774 282.11 588.24 278.849 592.984 284.131C597.728 289.414 593.8 301.268 584.343 310.592Z" fill="#3BC90C"></path><path d="M584.343 310.592C574.87 319.9 563.403 323.177 558.659 317.895C553.915 312.612 557.828 300.758 567.301 291.434C576.774 282.11 588.24 278.849 592.984 284.131C597.728 289.414 593.8 301.268 584.343 310.592Z" stroke="#032100" stroke-miterlimit="10"></path></g><path d="M444.927 169.38C443.425 168.371 441.632 167.954 439.866 168.202L414.183 180.565C414.183 180.565 405.496 185.736 408.245 201.568L512.248 282.222C511.508 278.499 511.644 273.057 515.617 266.597C519.303 260.567 535.862 250.845 544.805 245.913C502.473 213.47 444.927 169.38 444.927 169.38Z" fill="#032100" stroke="#032100" stroke-linecap="round" stroke-linejoin="round"></path><path d="M564.264 291.148L509.332 249.222C508.51 248.596 507.851 247.761 507.416 246.796C506.981 245.83 506.783 244.765 506.842 243.698C506.901 242.631 507.214 241.597 507.752 240.691C508.29 239.785 509.036 239.036 509.921 238.514L518.427 233.629C519.425 233.06 520.556 232.798 521.689 232.874C522.821 232.95 523.911 233.361 524.833 234.059L582.907 278.355" fill="#3BC90C"></path><path d="M564.264 291.148L509.332 249.222C508.51 248.596 507.851 247.761 507.416 246.796C506.981 245.83 506.783 244.765 506.842 243.698C506.901 242.631 507.214 241.597 507.752 240.691C508.29 239.785 509.036 239.036 509.921 238.514L518.427 233.629C519.425 233.06 520.556 232.798 521.689 232.874C522.821 232.95 523.911 233.361 524.833 234.059L582.907 278.355" stroke="#032100" stroke-miterlimit="10"></path></g><defs><clipPath id="clip0_1252_5790"><rect width="595" height="400" fill="white"></rect></clipPath></defs></svg>