<svg xmlns="http://www.w3.org/2000/svg" width="620" height="327" viewBox="0 0 620 327" fill="none"><path d="M437.084 202.365C433.97 210.149 430.67 203.922 431.183 171.138C431.432 155.788 432.507 124.436 449.492 131.332C465.792 137.964 444.307 184.338 444.307 184.338L437.084 202.365ZM460.436 207.035C460.436 207.035 495.823 170.157 482.543 158.59C468.734 146.542 457.525 175.854 452.309 190.301C441.194 221.108 442.221 228.098 447.748 221.731L460.436 207.035ZM467.893 240.131C467.893 240.131 500.291 217.061 491.822 206.288C483.01 195.08 470.197 215.878 464.11 226.152C451.142 248.101 450.924 253.597 456.061 249.503L467.893 240.131ZM476.658 273.133C476.658 273.133 509.071 250.063 500.602 239.29C491.775 228.082 478.962 248.864 472.891 259.154C459.922 281.088 459.689 286.599 464.842 282.505L476.658 273.133ZM420.083 206.786C420.083 206.786 374.733 183.187 367.369 199.174C359.694 215.815 390.97 218.337 406.29 219.271C438.983 221.295 445.413 218.337 437.753 214.819L420.083 206.786ZM426.466 232.752C426.466 232.752 377.333 218.648 373.285 235.788C369.081 253.612 400.234 249.798 415.444 247.743C447.888 243.229 453.586 239.057 445.382 237.127L426.466 232.752ZM437.706 261.084C437.706 261.084 395.843 250.281 392.807 264.867C389.694 280.045 415.926 276.153 428.739 274.005C456.061 269.428 460.794 265.77 453.82 264.338L437.706 261.084ZM444.261 284.435C444.261 284.435 403.783 269.242 399.222 283.423C394.473 298.197 421.017 297.107 433.97 296.328C461.635 294.678 466.663 291.549 459.922 289.37L444.261 284.435ZM417.125 165.923C417.125 165.923 398.646 108.48 377.66 118.925C355.864 129.822 381.053 155.679 393.679 168.086C420.597 194.551 428.926 196.387 425.392 187.156L417.125 165.923Z" fill="#56E22F"></path><path d="M386.44 139.458C386.44 139.458 432.865 196.092 443.965 224.439C456.731 257.021 465.418 293.713 467.146 324.069" fill="#56E22F"></path><path d="M386.44 139.458C386.44 139.458 432.865 196.092 443.965 224.439C456.731 257.021 465.418 293.713 467.146 324.069" stroke="#2CA700" stroke-linecap="round" stroke-linejoin="round"></path><path d="M434.717 205.93L441.178 151.928" stroke="#2CA700" stroke-linecap="round" stroke-linejoin="round"></path><path d="M443.965 224.424L467.317 179.03" stroke="#2CA700" stroke-linecap="round" stroke-linejoin="round"></path><path d="M440.556 217.699L391.64 207.736" stroke="#2CA700" stroke-linecap="round" stroke-linejoin="round"></path><path d="M453.15 250.187L481.905 217.434" stroke="#2CA700" stroke-linecap="round" stroke-linejoin="round"></path><path d="M449.134 239.399L412.221 239.073" stroke="#2CA700" stroke-linecap="round" stroke-linejoin="round"></path><path d="M456.248 266.206L427.93 267.311" stroke="#2CA700" stroke-linecap="round" stroke-linejoin="round"></path><path d="M462.055 283.299L477.219 263.093" stroke="#2CA700" stroke-linecap="round" stroke-linejoin="round"></path><path d="M463.176 290.818L430.047 289.168" stroke="#2CA700" stroke-linecap="round" stroke-linejoin="round"></path><path d="M555.434 247.09C549.72 249.238 551.464 244.428 569.134 228.611C577.416 221.186 594.635 206.35 599.305 218.773C603.804 230.713 568.573 242.124 568.573 242.124L555.434 247.09ZM564.417 261.769C564.417 261.769 601.438 262.47 601.064 249.72C600.675 236.457 579.58 244.895 569.336 249.222C547.541 258.454 544.256 262.439 550.358 262.252L564.417 261.769ZM550.483 282.007C550.483 282.007 578.677 287.907 580.25 278.099C581.806 267.903 564.51 271.312 556.056 273.133C538.013 277.01 534.977 279.594 539.663 280.341L550.483 282.007ZM537.297 302.913C537.297 302.913 565.506 308.813 567.063 299.006C568.698 288.809 551.339 292.203 542.87 294.025C524.842 297.901 521.728 300.485 526.399 301.232L537.297 302.913ZM544.785 240.209C544.785 240.209 535.039 204.482 522.989 208.421C510.364 212.515 524.406 230.402 531.443 239.01C546.435 257.395 551.168 259.357 549.269 253.55L544.785 240.209ZM534.105 256.368C534.105 256.368 517.463 223.303 506.363 229.561C494.795 236.099 512.107 250.826 520.701 257.862C539.056 272.9 544.053 273.881 541.08 268.572L534.105 256.368ZM524.562 276.262C524.562 276.262 509.725 248.693 500.478 254.25C490.857 260.041 505.833 272.09 513.275 277.85C529.139 290.133 533.405 290.849 530.742 286.428L524.562 276.262ZM515.345 291.254C515.345 291.254 503.513 262.252 493.737 266.798C483.555 271.468 497.162 285.105 503.949 291.627C518.428 305.529 522.631 306.696 520.421 302.01L515.345 291.254ZM565.024 218.602C565.024 218.602 586.492 180.54 570.628 174.516C554.126 168.289 552.74 194.395 552.351 207.207C551.511 234.542 554.624 239.898 557.8 233.453L565.024 218.602Z" fill="#56E22F"></path><path d="M563.996 189.273C563.996 189.273 556.695 241.797 547.074 261.645C536.02 284.435 519.331 308.704 504.012 324.552" stroke="#2CA700" stroke-linecap="round" stroke-linejoin="round"></path><path d="M552.367 247.588L584.267 224.486" stroke="#2CA700" stroke-linecap="round" stroke-linejoin="round"></path><path d="M547.074 261.598L582.694 251.697" stroke="#2CA700" stroke-linecap="round" stroke-linejoin="round"></path><path d="M548.973 256.477L530.229 225.56" stroke="#2CA700" stroke-linecap="round" stroke-linejoin="round"></path><path d="M537.888 279.142L569.445 278.333" stroke="#2CA700" stroke-linecap="round" stroke-linejoin="round"></path><path d="M541.656 271.701L523.675 251.9" stroke="#2CA700" stroke-linecap="round" stroke-linejoin="round"></path><path d="M530.883 288.654L516.373 274.145" stroke="#2CA700" stroke-linecap="round" stroke-linejoin="round"></path><path d="M524.64 300.158L542.855 298.29" stroke="#2CA700" stroke-linecap="round" stroke-linejoin="round"></path><path d="M521.184 304.439L505.787 286.023" stroke="#2CA700" stroke-linecap="round" stroke-linejoin="round"></path><path d="M77.939 202.648C74.8254 210.432 71.5249 204.205 72.0387 171.421C72.2878 156.072 73.362 124.719 90.347 131.616C106.663 138.247 85.1627 184.622 85.1627 184.622L77.939 202.648ZM101.291 207.318C101.291 207.318 136.678 170.44 123.414 158.874C109.589 146.825 98.3802 176.138 93.1648 190.584C82.0491 221.391 83.0766 228.381 88.6033 222.014L101.291 207.318ZM108.749 240.383C108.749 240.383 141.162 217.313 132.677 206.54C123.865 195.332 111.053 216.13 104.966 226.404C91.9972 248.353 91.7792 253.849 96.9323 249.755L108.749 240.383ZM117.529 273.385C117.529 273.385 149.896 250.268 141.442 239.542C132.615 228.334 119.802 249.116 113.731 259.406C100.762 281.34 100.529 286.851 105.682 282.757L117.529 273.385ZM60.9073 207.038C60.9073 207.038 15.5725 183.439 8.19314 199.426C0.517975 216.067 31.7947 218.589 47.1138 219.523C79.8072 221.547 86.2214 218.589 78.5618 215.071L60.9073 207.038ZM67.2903 233.004C67.2903 233.004 18.1724 218.9 14.1091 236.04C9.90565 253.864 41.0578 250.05 56.268 247.995C88.7123 243.481 94.4258 239.309 86.2214 237.379L67.2903 233.004ZM78.5306 261.336C78.5306 261.336 36.6675 250.533 33.6317 265.119C30.5181 280.297 56.7506 276.405 69.5633 274.257C96.8856 269.68 101.618 266.022 94.6438 264.59L78.5306 261.336ZM85.0849 284.687C85.0849 284.687 44.6074 269.494 40.0458 283.675C35.2975 298.448 61.8414 297.359 74.7943 296.58C102.459 294.93 107.488 291.801 100.762 289.622L85.0849 284.687ZM57.9805 166.206C57.9805 166.206 39.501 108.825 18.4526 119.271C-3.34296 130.168 21.8465 156.025 34.4724 168.432C61.4055 194.896 69.7346 196.733 66.185 187.502L57.9805 166.206Z" fill="#56E22F"></path><path d="M27.7158 139.458C27.7158 139.458 74.1404 196.092 85.2406 224.439C98.0066 257.021 106.694 293.713 108.422 324.069" stroke="#2CA700" stroke-linecap="round" stroke-linejoin="round"></path><path d="M76.0088 205.93L82.4541 151.928" stroke="#2CA700" stroke-linecap="round" stroke-linejoin="round"></path><path d="M85.2407 224.424L108.593 179.03" stroke="#2CA700" stroke-linecap="round" stroke-linejoin="round"></path><path d="M81.8311 217.699L32.9312 207.736" stroke="#2CA700" stroke-linecap="round" stroke-linejoin="round"></path><path d="M94.4258 250.187L123.18 217.434" stroke="#2CA700" stroke-linecap="round" stroke-linejoin="round"></path><path d="M90.4095 239.399L53.4971 239.073" stroke="#2CA700" stroke-linecap="round" stroke-linejoin="round"></path><path d="M97.5238 266.206L69.2051 267.311" stroke="#2CA700" stroke-linecap="round" stroke-linejoin="round"></path><path d="M103.347 283.299L118.51 263.093" stroke="#2CA700" stroke-linecap="round" stroke-linejoin="round"></path><path d="M104.452 290.818L71.3228 289.168" stroke="#2CA700" stroke-linecap="round" stroke-linejoin="round"></path><path d="M196.71 247.09C190.996 249.238 192.74 244.428 210.41 228.611C218.708 221.186 235.91 206.35 240.581 218.773C245.08 230.713 209.849 242.124 209.849 242.124L196.71 247.09ZM205.692 261.769C205.692 261.769 242.714 262.47 242.34 249.72C241.951 236.457 220.856 244.895 210.612 249.222C188.816 258.454 185.532 262.439 191.634 262.252L205.692 261.769ZM191.759 282.007C191.759 282.007 219.953 287.907 221.525 278.099C223.082 267.903 205.786 271.312 197.332 273.133C179.226 277.01 176.253 279.563 180.939 280.341L191.759 282.007ZM178.51 302.913C178.51 302.913 206.72 308.813 208.277 299.006C209.911 288.809 192.553 292.203 184.099 294.025C166.04 297.916 163.004 300.5 167.706 301.248L178.51 302.913ZM185.999 240.209C185.999 240.209 176.268 204.482 164.203 208.421C151.577 212.515 165.604 230.402 172.641 239.01C187.633 257.395 192.366 259.357 190.467 253.55L185.999 240.209ZM175.319 256.368C175.319 256.368 158.676 223.303 147.576 229.561C136.009 236.099 153.321 250.826 161.93 257.862C180.285 272.9 185.282 273.881 182.293 268.572L175.319 256.368ZM165.775 276.262C165.775 276.262 150.939 248.693 141.691 254.25C132.07 260.041 147.047 272.09 154.488 277.85C170.352 290.133 174.634 290.849 171.956 286.428L165.775 276.262ZM156.559 291.254C156.559 291.254 144.743 262.252 134.95 266.798C124.768 271.468 138.391 285.105 145.163 291.627C159.641 305.529 163.845 306.696 161.634 302.01L156.559 291.254ZM206.237 218.602C206.237 218.602 227.722 180.54 211.857 174.516C195.34 168.289 193.97 194.395 193.565 207.207C192.74 234.542 195.838 239.898 199.014 233.453L206.237 218.602Z" fill="#56E22F"></path><path d="M205.272 189.273C205.272 189.273 197.971 241.797 188.349 261.645C177.296 284.435 160.607 308.704 145.288 324.552" fill="#56E22F"></path><path d="M205.272 189.273C205.272 189.273 197.971 241.797 188.349 261.645C177.296 284.435 160.607 308.704 145.288 324.552" stroke="#2CA700" stroke-linecap="round" stroke-linejoin="round"></path><path d="M193.643 247.588L225.542 224.486" stroke="#2CA700" stroke-linecap="round" stroke-linejoin="round"></path><path d="M188.349 261.598L223.969 251.697" stroke="#2CA700" stroke-linecap="round" stroke-linejoin="round"></path><path d="M190.249 256.477L171.504 225.56" stroke="#2CA700" stroke-linecap="round" stroke-linejoin="round"></path><path d="M179.164 279.142L210.721 278.333" stroke="#2CA700" stroke-linecap="round" stroke-linejoin="round"></path><path d="M182.932 271.701L164.95 251.9" stroke="#2CA700" stroke-linecap="round" stroke-linejoin="round"></path><path d="M172.159 288.654L157.649 274.145" stroke="#2CA700" stroke-linecap="round" stroke-linejoin="round"></path><path d="M165.916 300.158L184.13 298.29" stroke="#2CA700" stroke-linecap="round" stroke-linejoin="round"></path><path d="M162.475 304.439L147.062 286.023" stroke="#2CA700" stroke-linecap="round" stroke-linejoin="round"></path><path d="M285.822 3.55738C285.822 3.55738 265.895 -2.79401 250.654 12.8977C235.412 28.5893 243.445 59.926 243.445 70.9319C243.445 81.9379 229.434 151.881 229.434 151.881C229.434 151.881 222.646 177.302 241.297 193.414C259.948 209.526 294.416 208.125 309.128 177.115C323.84 146.106 308.241 101.895 308.241 79.0424C308.241 56.1899 311.635 40.9185 306.544 24.4018C304.998 19.5291 302.312 15.0957 298.708 11.4703C295.104 7.8448 290.686 5.13199 285.822 3.55738Z" fill="#032100" stroke="#032100" stroke-linecap="round" stroke-linejoin="round"></path><path d="M279.906 15.4351C279.906 15.4351 260.695 39.3151 247.727 46.0557" stroke="white" stroke-linecap="round" stroke-linejoin="round"></path><path d="M263.295 13.3647C263.295 13.3647 253.44 37.2291 244.613 43.9852" stroke="white" stroke-linecap="round" stroke-linejoin="round"></path><path d="M318.578 95.4501C320.419 96.7404 321.964 98.4067 323.113 100.339C324.262 102.271 324.987 104.425 325.241 106.658C326.378 114.598 317.908 132.951 316.211 142.027C314.608 153.045 313.574 164.138 313.113 175.263C313.113 178.096 322.766 220.065 324.463 230.277C326.16 240.489 323.606 264.525 322.19 266.284C320.773 268.043 316.803 259.761 316.523 254.375C316.243 248.989 305.75 207.58 301.78 195.111C297.81 182.642 298.931 166.187 298.931 166.187C298.931 166.187 304.333 128.468 304.333 114.006C304.333 99.5443 304.769 88.7252 304.769 88.7252L318.578 95.4501Z" fill="#3BC90C" stroke="#032100" stroke-linecap="round" stroke-linejoin="round"></path><path d="M322.158 266.222C323.575 264.525 326.128 240.411 324.431 230.215C322.734 220.018 313.113 178.034 313.113 175.263C313.581 164.159 314.62 153.086 316.227 142.089C316.85 139.179 317.651 136.309 318.624 133.496C315.288 135.102 311.632 135.933 307.929 135.925C305.952 135.925 304.021 137.746 302.169 140.844C300.612 154.014 298.915 166.187 298.915 166.187C298.915 166.187 297.794 182.626 301.764 195.111C305.734 207.596 316.227 248.989 316.507 254.375C316.787 259.761 320.742 267.918 322.158 266.222Z" fill="white" stroke="#032100" stroke-linecap="round" stroke-linejoin="round"></path><path d="M265.225 325.766C265.848 318.792 267.156 304.595 267.997 299.115C269.133 291.752 271.39 276.714 271.39 276.714L277.135 325.766H316.492C317.908 315.071 321.474 286.397 322.159 266.222C323.015 240.987 304.006 188.806 303.477 184.837C302.947 180.867 304.037 169.27 304.037 165.845C304.037 162.42 313.939 140.688 314.779 129.62C315.62 118.552 318.189 115.158 318.189 115.158L319.605 96.4776C318.749 96.1974 306.03 86.1877 293.264 82.4672C285.5 80.2639 277.303 80.0711 269.444 81.9067C269.444 81.9067 251.012 90.1262 241.655 94.0958C232.298 98.0654 224.608 105.724 224.374 115.641C224.141 125.557 242.511 167.822 244.224 170.951C245.936 174.08 240.534 185.117 238.261 190.799C235.988 196.481 226.632 216.889 220.404 239.571C215.064 258.936 218.63 310.977 219.797 325.766H265.225Z" fill="#3BC90C" stroke="#032100" stroke-linecap="round" stroke-linejoin="round"></path><path d="M274.068 163.121C274.068 163.121 288.609 164.864 303.165 150.9" stroke="#032100" stroke-linecap="round" stroke-linejoin="round"></path><path d="M284.156 122.459C288.406 121.323 293.809 103.779 294.369 94.6718C294.68 89.5813 294.992 85.783 294.852 82.9809C294.322 82.8096 293.777 82.6228 293.295 82.4672C285.531 80.2639 277.334 80.0711 269.475 81.9067L261.971 85.2381C261.345 89.2703 261.779 93.3961 263.233 97.2092C266.299 105.724 279.906 123.596 284.156 122.459Z" fill="white"></path><path d="M265.163 73.2047C265.163 73.2047 266.595 89.9083 267.452 94.0024C268.308 98.0966 276.917 114.24 281.79 113.352C286.663 112.465 289.761 91.3716 289.761 89.3167C289.761 87.2618 290.337 70.6361 290.337 70.6361C290.337 70.6361 280.077 79.058 265.163 73.2047Z" fill="white" stroke="#032100" stroke-linecap="round" stroke-linejoin="round"></path><path d="M237.078 96.929C237.078 96.929 225.464 97.505 218.941 110.55C212.418 123.596 220.062 132.344 222.615 137.481C225.168 142.619 232.267 163.572 234.525 169.814C236.782 176.057 241.344 183.42 249.284 193.632C257.223 203.844 273.944 225.669 273.944 225.669L278.49 233.608C278.49 233.608 286.149 242.404 286.99 242.684C287.831 242.964 292.953 249.487 294.93 245.517C296.907 241.548 294.93 227.382 294.93 227.382C294.93 227.382 298.043 233.608 299.196 232.192C300.348 230.775 298.9 227.662 297.779 224.253C296.658 220.843 286.165 214.336 283.876 214.041C281.588 213.745 278.77 210.927 275.376 204.124C271.982 197.321 269.413 185.444 264.027 178.314C258.64 171.184 251.572 160.739 251.572 160.739C251.572 160.739 243.632 132.375 243.632 131.239C244.212 125.942 243.435 120.586 241.375 115.672" fill="#3BC90C"></path><path d="M237.078 96.929C237.078 96.929 225.464 97.505 218.941 110.55C212.418 123.596 220.062 132.344 222.615 137.481C225.168 142.619 232.267 163.572 234.525 169.814C236.782 176.057 241.344 183.42 249.284 193.632C257.223 203.844 273.944 225.669 273.944 225.669L278.49 233.608C278.49 233.608 286.149 242.404 286.99 242.684C287.831 242.964 292.953 249.487 294.93 245.517C296.907 241.548 294.93 227.382 294.93 227.382C294.93 227.382 298.043 233.608 299.196 232.192C300.348 230.775 298.9 227.662 297.779 224.253C296.658 220.843 286.165 214.336 283.876 214.041C281.588 213.745 278.77 210.927 275.376 204.124C271.982 197.321 269.413 185.444 264.027 178.314C258.64 171.184 251.572 160.739 251.572 160.739C251.572 160.739 243.632 132.375 243.632 131.239C244.212 125.942 243.435 120.586 241.375 115.672" stroke="#032100" stroke-linecap="round" stroke-linejoin="round"></path><path d="M283.876 214.041C281.603 213.76 278.77 210.927 275.376 204.124C271.982 197.321 269.413 185.444 264.026 178.314C258.64 171.184 251.572 160.739 251.572 160.739C251.572 160.739 246.201 141.529 244.301 134.103C233.871 132.64 226.989 134.742 222.615 137.419C225.168 142.525 232.267 163.51 234.524 169.752C236.782 175.994 241.343 183.358 249.283 193.57C257.223 203.782 273.943 225.607 273.943 225.607L278.489 233.546C278.489 233.546 286.149 242.342 286.99 242.622C287.83 242.902 292.952 249.425 294.929 245.455C296.907 241.485 294.929 227.319 294.929 227.319C294.929 227.319 298.043 233.546 299.195 232.13C300.347 230.713 298.899 227.6 297.778 224.19C296.657 220.781 286.164 214.336 283.876 214.041Z" fill="white" stroke="#032100" stroke-linecap="round" stroke-linejoin="round"></path><path d="M265.225 325.766C265.848 318.792 267.156 304.595 267.997 299.115C269.133 291.752 271.39 276.714 271.39 276.714L277.135 325.766H316.492C317.908 315.071 321.474 286.397 322.159 266.222C322.517 255.714 319.419 240.52 315.651 226.09C282.382 233.375 244.66 228.098 225.075 224.299C223.425 229.172 221.805 234.293 220.404 239.571C215.064 258.936 218.63 310.977 219.797 325.766H265.225Z" fill="#032100" stroke="#032100" stroke-linecap="round" stroke-linejoin="round"></path><path d="M255.309 48.3285C255.309 48.3285 252.771 47.192 252.771 52.2825C252.771 57.373 258.422 60.751 258.422 60.751L255.309 48.3285Z" fill="white" stroke="#032100" stroke-linecap="round" stroke-linejoin="round"></path><path d="M284.437 20.3699C284.437 20.3699 275.376 33.1349 267.421 38.241C263.316 40.9394 259.059 43.398 254.67 45.6042C254.67 45.6042 258.64 62.0587 260.337 67.3982C262.034 72.7377 267.125 82.1714 277.338 82.7318C287.551 83.2922 292.097 72.5042 294.089 67.3982C295.224 64.7599 295.832 61.9256 295.88 59.0542C297.313 58.1486 298.535 56.9463 299.464 55.5285C300.393 54.1106 301.008 52.5101 301.266 50.8348C301.827 45.4486 300.41 45.7288 300.41 45.7288C300.41 45.7288 298.853 47.4878 295.475 44.8414C292.735 42.8021 283.534 28.0289 284.437 20.3699Z" fill="white" stroke="#032100" stroke-linecap="round" stroke-linejoin="round"></path><path d="M262.812 52.6094C262.812 52.6094 266.814 49.6828 272.667 52.6094" stroke="#032100" stroke-linecap="round" stroke-linejoin="round"></path><path d="M280.918 53.1387C280.918 53.1387 285.713 48.8733 290.773 52.3448" stroke="#032100" stroke-linecap="round" stroke-linejoin="round"></path><path d="M262.019 46.2113C262.019 46.2113 264.151 42.2261 271.36 44.0942" stroke="#032100" stroke-linecap="round" stroke-linejoin="round"></path><path d="M280.918 44.3588C282.549 43.1693 284.56 42.6199 286.569 42.815C288.578 43.0102 290.445 43.9362 291.816 45.4174" stroke="#032100" stroke-linecap="round" stroke-linejoin="round"></path><path d="M280.124 61.9185C280.124 61.9185 275.858 64.8452 274.006 61.9185" stroke="#032100" stroke-linecap="round" stroke-linejoin="round"></path><path d="M272.402 68.052C272.402 68.052 277.727 70.1692 280.389 67.7874" stroke="#032100" stroke-linecap="round" stroke-linejoin="round"></path><path d="M182.418 221.077C182.418 221.077 194.873 248.724 197.846 254.297C200.82 259.87 204.276 275.733 204.696 285.151C205.116 294.569 204.696 296.515 202.563 296.297C200.43 296.079 199.559 284.295 199.559 282.365V279.376C199.559 279.376 198.484 290.506 196.772 292.655C195.059 294.803 192.693 297.154 192.491 295.877C192.288 294.601 192.911 292.437 193.767 289.23C194.284 286.764 194.431 284.235 194.203 281.727C194.203 281.727 192.911 287.72 189.922 289.868C186.933 292.016 183.695 292.873 184.769 291.16C185.843 289.448 188.63 287.517 189.268 285.369C189.709 283.402 189.929 281.392 189.922 279.376C189.922 279.376 185.843 286.007 184.13 287.082C182.418 288.156 182.418 285.805 183.492 284.731C184.566 283.657 186.917 276.371 186.917 276.371C186.917 276.371 186.263 275.936 183.274 269.304C180.285 262.672 178.604 251.075 177.701 246.576C176.798 242.077 175.132 236.084 175.132 236.084L158.63 208.436C158.63 208.436 157.337 201.789 163.549 200.653C169.761 199.516 182.418 221.077 182.418 221.077Z" fill="white"></path><path d="M182.418 221.077C182.418 221.077 194.873 248.724 197.846 254.297C200.82 259.87 204.276 275.733 204.696 285.151C205.116 294.569 204.696 296.515 202.563 296.297C200.43 296.079 199.559 284.295 199.559 282.365V279.376C199.559 279.376 198.484 290.506 196.772 292.655C195.059 294.803 192.693 297.154 192.491 295.877C192.288 294.601 192.911 292.437 193.767 289.23C194.284 286.764 194.431 284.235 194.203 281.727C194.203 281.727 192.911 287.72 189.922 289.868C186.933 292.016 183.695 292.873 184.769 291.16C185.843 289.448 188.63 287.517 189.268 285.369C189.709 283.402 189.929 281.392 189.922 279.376C189.922 279.376 185.843 286.007 184.13 287.082C182.418 288.156 182.418 285.805 183.492 284.731C184.566 283.657 186.917 276.371 186.917 276.371C186.917 276.371 186.263 275.936 183.274 269.304C180.285 262.672 178.604 251.075 177.701 246.576C176.798 242.077 175.132 236.084 175.132 236.084L158.63 208.436C158.63 208.436 157.337 201.789 163.549 200.653C169.761 199.516 182.418 221.077 182.418 221.077Z" stroke="#032100" stroke-linecap="round" stroke-linejoin="round"></path><path d="M197.908 262.439C197.908 262.439 200.057 272.947 199.839 277.648C199.621 282.349 200.695 284.731 199.185 284.731C197.675 284.731 197.27 283.657 195.76 278.94C194.766 275.442 194.119 271.855 193.829 268.23C193.829 268.23 188.474 268.23 186.543 260.291" fill="white"></path><path d="M197.908 262.439C197.908 262.439 200.057 272.947 199.839 277.648C199.621 282.349 200.695 284.731 199.185 284.731C197.675 284.731 197.27 283.657 195.76 278.94C194.766 275.442 194.119 271.855 193.829 268.23C193.829 268.23 188.474 268.23 186.543 260.291" stroke="#032100" stroke-linecap="round" stroke-linejoin="round"></path><path d="M102.241 325.766H181.141C181.53 311.008 184.115 214.617 184.893 210.304C185.749 205.634 189.984 161.579 190.404 144.222C190.825 126.865 183.196 101.848 183.196 100.151C183.196 98.4546 181.935 87.8689 170.072 78.9645C158.209 70.0601 148.884 70.0757 146.346 71.3367C146.346 71.3367 137.005 77.7036 122.184 93.3797C107.363 109.056 102.272 121.759 102.272 145.903C102.284 160.515 103.56 175.099 106.086 189.491C106.086 189.491 101.416 264.898 101.416 266.595C101.416 268.292 102.101 315.694 102.241 325.766Z" fill="white" stroke="#032100" stroke-linecap="round" stroke-linejoin="round"></path><path d="M138.048 155.306C139.723 155.302 141.397 155.209 143.061 155.026C161.214 153.049 177 134.493 187.415 118.458C186.933 116.139 186.45 113.913 185.967 111.873C176.144 127.892 160.264 148.456 142.563 150.387C117.919 153.064 106.756 133.652 103.642 127.378C103.207 129.776 102.88 132.298 102.662 134.96C108.173 143.304 119.304 155.306 138.048 155.306Z" fill="#3BC90C"></path><path d="M132.132 117.851L136.647 119.05C141.301 102.107 150.445 86.7352 163.113 74.5591C161.605 73.7642 160.045 73.0725 158.443 72.4886C145.838 85.0349 136.764 100.681 132.132 117.851Z" fill="#3BC90C"></path><path d="M136.569 140.19C137.628 139.645 159.688 128.157 182.978 98.1588C182.617 96.2784 182.042 94.4452 181.265 92.6948C157.82 123.829 134.701 135.878 134.452 136.003L136.569 140.19Z" fill="#3BC90C"></path><path d="M113.543 123.3L118.214 122.599C118.214 122.475 116.86 111.438 127.726 87.7444C125.983 89.4724 124.161 91.3404 122.231 93.3797C120.985 94.6874 119.833 95.9794 118.728 97.2715C112.36 114.551 113.481 122.833 113.543 123.3Z" fill="#3BC90C"></path><path d="M152.06 192.496C125.22 195.983 111.582 190.347 105.479 186.02C105.838 188.293 106.087 189.553 106.087 189.553C106.087 189.553 106.087 190.379 105.947 191.873C111.925 195.158 121.515 198.271 136.196 198.271C141.705 198.247 147.207 197.868 152.667 197.135C165.039 195.544 176.931 191.341 187.555 184.806C187.742 182.844 187.914 180.836 188.085 178.797C177.315 186.121 164.975 190.814 152.06 192.496Z" fill="#3BC90C"></path><path d="M150.674 221.233C163.012 218.095 174.758 212.974 185.454 206.07C185.64 204.389 185.858 202.334 186.108 199.983C174.997 207.653 162.624 213.307 149.553 216.687C131.478 221.124 113.933 216.173 104.67 212.608C104.576 214.165 104.467 215.846 104.374 217.528C113.975 221.136 124.133 223.038 134.39 223.147C139.875 223.159 145.341 222.516 150.674 221.233Z" fill="#3BC90C"></path><path d="M102.288 251.744C102.179 253.425 102.086 255.013 102.008 256.414C114.044 259.303 126.371 260.802 138.749 260.882C153.968 261.048 169.08 258.311 183.274 252.818C183.274 251.106 183.383 249.393 183.43 247.728C152.169 260.882 118.728 255.745 102.288 251.744Z" fill="#3BC90C"></path><path d="M154.083 236.333C137.329 240.393 119.789 239.856 103.315 234.776C103.222 236.411 103.113 238.03 103.02 239.633C112.099 242.409 121.548 243.789 131.042 243.727C139.17 243.718 147.27 242.788 155.189 240.956C165.222 238.632 174.913 235.021 184.021 230.215C184.021 228.284 184.161 226.448 184.224 224.735C174.773 230 164.626 233.905 154.083 236.333Z" fill="#3BC90C"></path><path d="M141.006 170.593C121.857 171.558 109.48 164.49 102.615 158.668C102.724 160.817 102.864 162.903 103.02 164.895C113.102 171.951 125.168 175.615 137.472 175.356C138.702 175.356 139.963 175.356 141.24 175.263C160.031 174.313 176.657 166.094 190.093 151.523C190.249 148.799 190.358 146.308 190.404 144.238V143.926C179.429 157.547 163.502 169.441 141.006 170.593Z" fill="#3BC90C"></path><path d="M172.812 81.2374C171.956 80.4746 171.068 79.6806 170.072 78.9646C158.209 70.0757 148.884 70.0757 146.346 71.3367C141.402 74.9551 136.719 78.9191 132.335 83.1988C131.889 85.1088 131.888 87.0956 132.33 89.0063C132.773 90.9169 133.648 92.7007 134.888 94.2204C142.937 104.386 169.138 143.366 175.988 134.897C182.838 126.429 181.063 103.125 173.435 82.7785C173.248 82.2492 172.999 81.7355 172.812 81.2374Z" fill="#3BC90C" stroke="#032100" stroke-linecap="round" stroke-linejoin="round"></path><path d="M148.09 125.993C148.09 125.993 170.975 174.718 175.63 182.346C177.681 185.97 180.097 189.376 182.838 192.511C182.838 192.511 203.077 199.314 220.436 205.681C237.794 212.048 267.966 220.408 274.302 222.167C280.638 223.926 291.24 223.863 292.984 223.863C294.727 223.863 315.013 228.534 316.336 229.374C317.66 230.215 315.916 231.912 312.942 232.768C309.969 233.624 300.239 234.449 295.568 236.146C290.898 237.843 287.099 237.422 280.327 235.726C274.989 234.084 269.867 231.811 265.07 228.954C265.07 228.954 209.475 225.078 196.351 223.521C183.227 221.964 168.329 220.127 162.459 213.356C150.681 200.06 139.81 185.986 129.922 171.231C121.951 159.182 107.363 142.261 112.89 126.927" fill="white"></path><path d="M148.09 125.993C148.09 125.993 170.975 174.718 175.63 182.346C177.681 185.97 180.097 189.376 182.838 192.511C182.838 192.511 203.077 199.314 220.436 205.681C237.794 212.048 267.966 220.408 274.302 222.167C280.638 223.926 291.24 223.863 292.984 223.863C294.727 223.863 315.013 228.534 316.336 229.374C317.66 230.215 315.916 231.912 312.942 232.768C309.969 233.624 300.239 234.449 295.568 236.146C290.898 237.843 287.099 237.422 280.327 235.726C274.989 234.084 269.867 231.811 265.07 228.954C265.07 228.954 209.475 225.078 196.351 223.521C183.227 221.964 168.329 220.127 162.459 213.356C150.681 200.06 139.81 185.986 129.922 171.231C121.951 159.182 107.363 142.261 112.89 126.927" stroke="#032100" stroke-linecap="round" stroke-linejoin="round"></path><path d="M292.875 223.863C291.178 223.863 280.591 223.863 274.193 222.167C267.794 220.47 237.623 212.032 220.264 205.681C202.906 199.33 182.667 192.511 182.667 192.511C179.925 189.376 177.51 185.97 175.459 182.346C173.544 179.232 168.531 169.067 163.284 158.248C146.393 162.669 137.892 170.702 133.705 176.929C142.551 189.583 152.11 201.724 162.335 213.293C168.266 220.065 183.087 221.762 196.227 223.459C209.366 225.155 264.867 228.969 264.867 228.969C269.665 231.827 274.787 234.1 280.124 235.741C286.896 237.438 290.711 237.858 295.366 236.161C300.021 234.465 309.782 233.624 312.74 232.783C315.698 231.943 317.41 230.23 316.134 229.39C314.857 228.549 294.634 223.863 292.875 223.863Z" fill="white"></path><path d="M292.875 223.863C291.178 223.863 280.591 223.863 274.193 222.167C267.794 220.47 237.623 212.032 220.264 205.681C202.906 199.33 182.667 192.511 182.667 192.511C179.925 189.376 177.51 185.97 175.459 182.346C173.544 179.232 168.531 169.067 163.284 158.248C146.393 162.669 137.892 170.702 133.705 176.929C142.551 189.583 152.11 201.724 162.335 213.293C168.266 220.065 183.087 221.762 196.227 223.459C209.366 225.155 264.867 228.969 264.867 228.969C269.665 231.827 274.787 234.1 280.124 235.741C286.896 237.438 290.711 237.858 295.366 236.161C300.021 234.465 309.782 233.624 312.74 232.783C315.698 231.943 317.41 230.23 316.134 229.39C314.857 228.549 294.634 223.863 292.875 223.863Z" stroke="#032100" stroke-linecap="round" stroke-linejoin="round"></path><path d="M181.141 325.766C181.328 318.418 182.075 290.662 182.869 264.182C171.646 268.564 159.876 271.392 147.887 272.589C122.978 275.5 108.624 269.475 101.525 264.805C101.525 265.848 101.432 266.502 101.432 266.642C101.432 268.199 102.101 315.678 102.241 325.797L181.141 325.766Z" fill="#032100"></path><path d="M161.292 322.232C157.431 307.583 166.772 288.903 153.29 279.205" stroke="#56E22F" stroke-linecap="round" stroke-linejoin="round"></path><path d="M161.292 288.529L178.635 271.872" stroke="#56E22F" stroke-linecap="round" stroke-linejoin="round"></path><path d="M117.809 288.638L117.358 322.232" stroke="#56E22F" stroke-linecap="round" stroke-linejoin="round"></path><path d="M117.965 276.543L117.887 282.676" stroke="#56E22F" stroke-linecap="round" stroke-linejoin="round"></path><path d="M187.477 3.02808C194.368 4.85461 200.458 8.91746 204.789 14.5789C207.727 18.3381 209.719 22.7479 210.596 27.4373C212.667 40.0467 205.568 43.9385 207.856 49.6672C210.145 55.3959 212.433 58.3692 210.596 61.1246C208.759 63.88 203.046 64.3314 202.127 64.565C201.209 64.7985 199.372 75.3218 195.713 79.9141C192.054 84.5065 179.211 79.2292 179.211 79.2292C179.211 79.2292 173.949 88.1647 172.345 91.1381C170.741 94.1114 173.902 111.982 171.644 120C169.387 128.017 164.094 119.315 154.006 106.721C143.917 94.1269 139.34 83.8059 139.807 80.3656C140.274 76.9252 148.276 68.9082 149.662 65.9349C151.048 62.9615 151.717 61.5761 151.032 58.8363C150.347 56.0964 142.329 44.8258 142.329 30.4262C142.329 16.0266 153.772 2.24971 168.904 1.09774C175.16 0.687104 181.44 1.3398 187.477 3.02808Z" fill="white"></path><path d="M187.477 3.02808C194.368 4.85461 200.458 8.91746 204.789 14.5789C207.727 18.3381 209.719 22.7479 210.596 27.4373C212.667 40.0467 205.568 43.9385 207.856 49.6672C210.145 55.3959 212.433 58.3692 210.596 61.1246C208.759 63.88 203.046 64.3314 202.127 64.565C201.209 64.7985 199.372 75.3218 195.713 79.9141C192.054 84.5065 179.211 79.2292 179.211 79.2292C179.211 79.2292 173.949 88.1647 172.345 91.1381C170.741 94.1114 173.902 111.982 171.644 120C169.387 128.017 164.094 119.315 154.006 106.721C143.917 94.1269 139.34 83.8059 139.807 80.3656C140.274 76.9252 148.276 68.9082 149.662 65.9349C151.048 62.9615 151.717 61.5761 151.032 58.8363C150.347 56.0964 142.329 44.8258 142.329 30.4262C142.329 16.0266 153.772 2.24971 168.904 1.09774C175.16 0.687104 181.44 1.3398 187.477 3.02808Z" stroke="#032100" stroke-linecap="round" stroke-linejoin="round"></path><path d="M190.218 13.4736C195.729 10.765 199.636 10.8428 202.19 11.6056C198.134 7.49106 193.056 4.53049 187.478 3.02808C181.44 1.3398 175.16 0.687104 168.905 1.09774C153.772 2.24971 142.33 15.9955 142.33 30.4262C142.33 44.857 150.347 56.0809 151.032 58.8363C151.278 59.7439 151.336 60.6919 151.204 61.6228C162.101 63.7866 165.666 58.3381 165.666 58.3381C164.406 58.4965 163.126 58.3959 161.905 58.0426C160.684 57.6893 159.549 57.0906 158.567 56.2832C155.345 53.5279 155.345 42.9889 159.252 38.1787C163.16 33.3684 167.036 40.0156 167.036 43.9074C167.036 47.7991 168.874 51.006 170.711 50.5545C172.548 50.1031 172.081 45.7443 172.766 42.9889C173.451 40.2335 181.468 36.1238 183.305 33.8354C185.142 31.5471 182.387 29.4766 179.413 26.0519C176.44 22.6271 178.977 18.9688 190.218 13.4736Z" fill="#032100"></path><path d="M165.215 59.0542C165.215 59.0542 165.215 65.4834 169.122 69.5931" stroke="#032100" stroke-linecap="round" stroke-linejoin="round"></path><path d="M200.898 47.4567C198.958 46.6356 196.843 46.3196 194.748 46.5382" stroke="#032100" stroke-linecap="round" stroke-linejoin="round"></path><path d="M204.276 41.9304C204.276 41.9304 200.897 36.0927 194.437 40.7006" stroke="#032100" stroke-linecap="round" stroke-linejoin="round"></path><path d="M196.351 67.7407C194.947 67.8613 193.544 67.502 192.37 66.7216C191.196 65.9411 190.322 64.7857 189.891 63.4442" stroke="#032100" stroke-linecap="round" stroke-linejoin="round"></path><path d="M151.904 134.212L148.977 127.985C130.155 128.312 119.133 135.333 112.905 141.996C113.577 144.211 114.421 146.371 115.427 148.456C120.331 142.089 130.84 133.761 151.904 134.212Z" fill="#3BC90C"></path><path d="M158.427 147.896L155.5 141.762C138.017 142.696 126.263 149.141 119.055 155.057C120.144 156.862 121.312 158.637 122.48 160.365C129.127 154.761 140.695 148.223 158.427 147.896Z" fill="#3BC90C"></path><path d="M361.08 189.491C363.041 195.36 364.349 216.236 364.349 227.335C364.349 236.582 358.433 303.832 356.471 325.766H444.93C445.989 304.361 449.149 240.038 449.149 231.896C449.149 222.104 445.88 181.988 450.13 167.962C454.38 153.936 459.253 117.088 451.687 105.693C444.121 94.2982 415.88 87.76 407.333 84.8178C398.786 81.8756 386.129 80.2566 379.933 83.2611C379.933 83.2611 362.979 92.7259 352.533 102.502C342.086 112.278 337.54 127.301 339.486 139.365C341.432 151.43 359.118 183.622 361.08 189.491Z" fill="white" stroke="#032100" stroke-linecap="round" stroke-linejoin="round"></path><path d="M437.94 95.419C434.127 93.6584 430.225 92.0995 426.248 90.7489C411.847 127.479 389.193 160.406 360.036 186.985C360.519 188.059 360.877 188.931 361.079 189.522C362.06 193.339 362.695 197.236 362.979 201.167C396.287 172.623 422.036 136.299 437.94 95.419Z" fill="#3BC90C"></path><path d="M455.19 137.902C455.954 130.128 455.808 122.291 454.754 114.551C436.586 145.234 405.169 192.029 364.318 228.658C364.209 231.88 363.804 238.17 363.197 246.14C402.958 213.231 434.406 170.686 455.19 137.902Z" fill="#3BC90C"></path><path d="M444.93 325.766C445.677 310.526 447.499 273.554 448.48 250.561C405.433 258.796 375.169 250.966 363.15 246.747C361.313 270.985 357.872 310.027 356.471 325.766H444.93Z" fill="#032100" stroke="#032100" stroke-linecap="round" stroke-linejoin="round"></path><path d="M391.079 122.086C402.893 122.086 412.47 112.823 412.47 101.397C412.47 89.9707 402.893 80.7081 391.079 80.7081C379.265 80.7081 369.688 89.9707 369.688 101.397C369.688 112.823 379.265 122.086 391.079 122.086Z" fill="#3BC90C"></path><path d="M371.526 75.3374C371.526 75.3374 375.107 88.0558 375.107 95.5747C375.107 103.094 383.264 120.373 396.638 112.543C410.011 104.713 403.161 86.7792 400.872 81.2218C399.248 76.9762 397.942 72.6158 396.964 68.1765C396.964 68.1765 392.714 75.9601 384.51 76.3337C380.157 76.5933 375.788 76.2581 371.526 75.3374Z" fill="white" stroke="#032100" stroke-linecap="round" stroke-linejoin="round"></path><path d="M349.466 29.1653C349.466 29.1653 347.208 34.785 350.026 39.2839C352.844 43.7828 356.705 49.9474 356.705 49.9474L356.144 25.2424C356.144 25.2424 350.587 20.7435 349.466 29.1653Z" fill="#032100" stroke="#032100" stroke-linecap="round" stroke-linejoin="round"></path><path d="M356.705 44.3277C356.705 44.3277 352.206 46.0245 354.447 53.3099C356.689 60.5954 360.068 58.3693 360.068 58.3693L356.705 44.3277Z" fill="white" stroke="#032100" stroke-linecap="round" stroke-linejoin="round"></path><path d="M352.595 31.6405C352.595 31.6405 356.518 51.8778 358.822 61.9653C361.126 72.0528 373.503 81.2062 380.026 83.1677C386.549 85.1291 395.034 77.9527 396.995 73.7184C398.957 69.4842 399.922 60.0194 399.922 60.0194C399.922 60.0194 407.099 57.0772 407.706 49.5738C408.314 42.0704 406.399 39.7977 402.491 38.8169L399.549 37.5093C399.549 37.5093 401.183 25.4448 396.949 17.9414C392.714 10.438 377.706 20.2298 369.875 22.5026C362.045 24.7754 351.614 24.1371 352.595 31.6405Z" fill="white" stroke="#032100" stroke-linecap="round" stroke-linejoin="round"></path><path d="M371.526 46.3203C371.526 46.3203 369.969 58.0579 372.164 59.0386C374.359 60.0194 378.687 57.731 379.668 57.4041" stroke="#032100" stroke-linecap="round" stroke-linejoin="round"></path><path d="M377.722 66.2929C377.722 66.2929 386.845 67.6006 390.441 57.155" stroke="#032100" stroke-linecap="round" stroke-linejoin="round"></path><path d="M360.426 43.705C361.152 42.5798 362.178 41.6794 363.388 41.1047C364.598 40.53 365.944 40.3038 367.276 40.4515" stroke="#032100" stroke-linecap="round" stroke-linejoin="round"></path><path d="M376.087 38.817C376.087 38.817 382.61 35.5478 386.518 39.1439" stroke="#032100" stroke-linecap="round" stroke-linejoin="round"></path><path d="M366.502 52.1743C367.391 52.0198 367.862 50.4524 367.552 48.6736C367.243 46.8948 366.272 45.5781 365.382 45.7327C364.493 45.8873 364.022 47.4546 364.331 49.2334C364.641 51.0122 365.612 52.3289 366.502 52.1743Z" fill="#032100"></path><path d="M380.859 49.2461C381.748 49.0915 382.219 47.5242 381.909 45.7454C381.6 43.9666 380.628 42.6499 379.739 42.8044C378.85 42.959 378.379 44.5264 378.688 46.3052C378.997 48.084 379.969 49.4006 380.859 49.2461Z" fill="#032100"></path><path d="M389.787 22.8295C381.131 26.8921 372.051 29.9829 362.714 32.0452C348.36 34.9719 341.837 31.7183 342.475 24.5419C343.114 17.3654 361.718 1.7049 378.671 1.7049C395.625 1.7049 401.51 9.48847 402.491 17.6923C403.026 24.7497 403.026 31.8374 402.491 38.8948L399.549 43.129C399.549 43.129 400.296 39.8288 395.625 37.1824C390.955 34.536 387.499 29.679 389.787 22.8295Z" fill="#032100" stroke="#032100" stroke-linecap="round" stroke-linejoin="round"></path><path d="M480.566 46.1491C483.757 48.5931 480.006 58.8051 490.53 66.9934C514.754 85.8297 528.765 98.5792 531.35 126.569C534.183 157.08 517.79 168.943 522.881 179.108C527.971 189.273 534.744 201.135 524.001 210.242C513.259 219.349 495.761 227.195 481.08 205.728C466.399 184.261 458.475 136.812 452.263 110.768C446.051 84.7244 435.885 72.3641 437.566 61.0624C439.217 50.1654 448.106 42.3818 458.739 40.4982C462.57 39.8289 466.5 39.9868 470.264 40.9615C474.029 41.9361 477.541 43.7049 480.566 46.1491Z" fill="#032100" stroke="#032100" stroke-linecap="round" stroke-linejoin="round"></path><path d="M451.391 154.605L406.118 187.717C406.118 187.717 333.617 213.62 329.351 214.943C325.086 216.267 304.753 219.863 300.488 222.151C296.222 224.439 288.033 239.539 286.71 243.151C286.434 243.656 286.33 244.236 286.412 244.805C286.494 245.374 286.758 245.901 287.165 246.308C287.571 246.714 288.098 246.978 288.667 247.06C289.236 247.142 289.817 247.038 290.322 246.763C291.302 245.766 300.815 236.582 303.773 236.255C306.731 235.928 309.346 235.601 309.346 235.601C309.346 235.601 301.795 242.17 301.469 244.132C301.142 246.093 302.792 245.439 304.753 244.459C306.715 243.478 314.266 240.847 317.208 235.601C320.15 230.355 322.781 227.397 327.701 225.436C332.621 223.474 396.824 209.557 408.314 207.596C419.803 205.634 461.137 180.805 463.114 180.478C465.091 180.151 457.634 154.605 451.391 154.605Z" fill="white" stroke="#032100" stroke-linecap="round" stroke-linejoin="round"></path><path d="M442.548 196.948C442.953 198.162 441.739 215.239 440.914 244.926C440.291 267.701 434.889 308.175 432.398 325.766H518.942C519.565 307.926 520.343 267.125 515.33 250.203C508.823 228.253 501.505 223.739 499.077 214.025C496.648 204.311 492.974 150.589 486.871 130.258C480.768 109.928 462.476 97.723 459.627 93.2552C456.778 88.7875 447.826 62.7592 447.826 62.7592L432.382 75.7733C432.382 75.7733 443.763 94.0647 445.397 99.7623C447.032 105.46 434.406 118.863 427.914 132.702C421.422 146.542 420.13 157.501 425.875 166.032C431.619 174.562 442.144 195.718 442.548 196.948Z" fill="#3BC90C"></path><mask id="mask0_617_86" style="mask-type:luminance" maskUnits="userSpaceOnUse" x="421" y="61" width="100" height="266"><path d="M442.073 197.104L442.074 197.106C442.073 197.102 442.079 197.12 442.086 197.177C442.094 197.23 442.101 197.301 442.107 197.394C442.119 197.578 442.126 197.827 442.128 198.143C442.132 198.775 442.115 199.65 442.08 200.766C442.012 202.958 441.876 206.056 441.702 210.019L441.693 210.238C441.337 218.37 440.827 230.064 440.414 244.912L440.414 244.912C439.792 267.653 434.395 308.098 431.903 325.696L431.822 326.266H432.398H518.942H519.425L519.442 325.783C519.753 316.859 520.104 302.187 519.749 287.628C519.395 273.088 518.337 258.594 515.809 250.061L515.33 250.203L515.809 250.061C512.542 239.04 509.068 232.387 506.106 227.275C505.612 226.422 505.134 225.614 504.675 224.839C502.377 220.955 500.556 217.879 499.562 213.904C498.964 211.514 498.283 206.373 497.5 199.64C497.117 196.349 496.713 192.705 496.284 188.834C495.835 184.779 495.358 180.474 494.848 176.066C492.865 158.893 490.417 140.331 487.35 130.114C484.268 119.846 478.113 111.646 472.396 105.469C469.638 102.489 466.976 99.9727 464.808 97.9236C464.728 97.8483 464.649 97.7735 464.571 97.6994C463.464 96.6529 462.499 95.737 461.722 94.9441C460.94 94.146 460.375 93.4979 460.048 92.9864C459.366 91.9157 458.289 89.497 457.045 86.418C455.808 83.3568 454.424 79.6901 453.127 76.1594C451.831 72.6294 450.624 69.2385 449.741 66.7298C449.299 65.4756 448.939 64.442 448.688 63.7222C448.563 63.3622 448.466 63.0807 448.4 62.8892L448.324 62.671L448.305 62.6153L448.3 62.6012L448.299 62.5977L448.299 62.5968C448.299 62.5966 448.299 62.5965 447.826 62.7592L448.299 62.5965L448.062 61.9068L447.504 62.3768L432.06 75.3909L431.729 75.6699L431.958 76.0374L432.382 75.7733C431.958 76.0374 431.958 76.0375 431.958 76.0376L431.958 76.0382L431.96 76.0406L431.966 76.0504L431.99 76.0895L432.085 76.2432C432.169 76.3782 432.292 76.577 432.448 76.8323C432.762 77.3427 433.213 78.0785 433.758 78.9793C434.85 80.7812 436.321 83.2425 437.844 85.8811C439.367 88.5203 440.938 91.3333 442.23 93.8394C443.527 96.3574 444.523 98.5289 444.917 99.9001C445.271 101.134 444.866 102.89 443.815 105.156C442.776 107.395 441.166 110.01 439.284 112.907C438.624 113.923 437.931 114.972 437.22 116.049C433.89 121.093 430.152 126.755 427.461 132.49C420.951 146.369 419.561 157.551 425.46 166.311C428.315 170.55 432.37 177.949 435.771 184.459C437.469 187.71 439 190.734 440.132 193.02C440.698 194.163 441.163 195.121 441.499 195.83C441.844 196.558 442.035 196.988 442.073 197.104Z" fill="white" stroke="white"></path></mask><g mask="url(#mask0_617_86)"><path d="M455.781 280.497L469.964 283.61L484.147 280.497L498.33 283.61L512.512 280.497L519.082 281.929L518.942 278.722L512.512 277.305L498.33 280.419L484.147 277.305L469.964 280.419L455.781 277.305L441.614 280.419L438.205 279.672C438.096 280.715 437.987 281.742 437.862 282.785L441.614 283.61L455.781 280.497Z" fill="white"></path><path d="M471.443 173.955L457.26 177.069L443.078 173.955L431.993 176.384L433.55 179.232L443.093 177.146L457.276 180.26L471.459 177.146L485.641 180.26L494.609 178.283C494.484 177.255 494.375 176.212 494.251 175.169L485.641 177.069L471.443 173.955Z" fill="white"></path><path d="M455.782 304.205L469.964 307.319L484.147 304.205L498.33 307.319L512.512 304.205L519.378 305.762C519.378 304.719 519.378 303.66 519.378 302.649L512.497 301.092L498.314 304.205L484.131 301.092L469.949 304.205L455.766 301.092L441.599 304.205L435.465 302.851C435.34 303.91 435.2 304.937 435.076 305.964L441.599 307.397L455.782 304.205Z" fill="white"></path><path d="M519.254 314.371L512.513 312.892L498.33 316.005L484.147 312.892L469.965 316.005L455.782 312.892L441.615 316.005L433.971 314.324C433.831 315.383 433.69 316.426 433.566 317.437L441.615 319.196L455.782 316.083L469.965 319.196L484.147 316.083L498.33 319.196L512.513 316.083L519.191 317.562C519.207 316.519 519.238 315.46 519.254 314.371Z" fill="white"></path><path d="M423.758 143.553L428.895 144.673L443.078 141.56L457.261 144.673L471.443 141.56L485.626 144.673L489.876 143.739C489.689 142.696 489.503 141.669 489.316 140.626L485.626 141.435L471.443 138.322L457.261 141.435L443.078 138.322L428.895 141.435L424.692 140.517C424.349 141.565 424.038 142.577 423.758 143.553Z" fill="white"></path><path d="M471.443 150.231L457.261 153.344L443.078 150.231L428.895 153.344L422.294 151.897C422.232 152.959 422.232 154.025 422.294 155.088L428.895 156.536L443.078 153.422L457.261 156.536L471.443 153.422L485.626 156.536L491.698 155.197C491.542 154.154 491.402 153.126 491.246 152.083L485.626 153.313L471.443 150.231Z" fill="white"></path><path d="M471.444 162.093L457.261 165.206L443.078 162.093L428.895 165.206L424.848 164.319C425.159 164.895 425.502 165.471 425.875 166.032C426.249 166.592 426.7 167.292 427.136 168.009L428.895 168.398L443.078 165.284L457.261 168.398L471.444 165.284L485.626 168.398L493.224 166.732C493.099 165.689 492.959 164.662 492.834 163.619L485.626 165.175L471.444 162.093Z" fill="white"></path><path d="M455.782 292.359L469.964 295.472L484.147 292.359L498.33 295.472L512.513 292.359L519.363 293.916V290.724L512.559 289.168L498.377 292.281L484.194 289.168L470.011 292.281L455.828 289.168L441.661 292.281L436.991 291.238L436.617 294.351L441.708 295.472L455.782 292.359Z" fill="white"></path></g><path d="M442.548 196.948C442.953 198.162 441.739 215.239 440.914 244.926C440.291 267.7 434.889 308.175 432.398 325.766C432.398 325.766 459.582 325.766 477 325.766C493.379 325.766 518.942 325.766 518.942 325.766C519.565 307.926 520.343 267.125 515.33 250.203C508.823 228.253 501.505 223.739 499.077 214.025C496.648 204.311 492.974 150.589 486.871 130.258C480.768 109.928 462.476 97.723 459.627 93.2552C456.778 88.7875 447.826 62.7592 447.826 62.7592L432.382 75.7733C432.382 75.7733 443.763 94.0647 445.397 99.7623C447.032 105.46 434.406 118.863 427.914 132.702C421.422 146.542 420.13 157.501 425.875 166.032C431.619 174.562 442.144 195.718 442.548 196.948Z" stroke="#032100" stroke-linecap="round" stroke-linejoin="round"></path><path d="M432.367 170.686C432.367 170.686 437.598 181.163 455.065 177.084" stroke="#032100" stroke-linecap="round" stroke-linejoin="round"></path><path d="M480.083 238.185C480.083 238.185 453.898 270.191 442.252 295.784" stroke="#032100" stroke-linecap="round" stroke-linejoin="round"></path><path d="M452.154 264.385C452.154 264.385 441.085 284.746 438.143 297.543" stroke="#032100" stroke-linecap="round" stroke-linejoin="round"></path><path d="M437.364 129.542C445.817 124.872 456.606 104.635 461.308 100.899L464.515 98.3301C462.723 96.8023 461.086 95.1026 459.626 93.2552C456.777 88.7874 447.826 62.7592 447.826 62.7592L432.382 75.7733C432.382 75.7733 443.762 94.0647 445.397 99.7622C446.829 104.79 437.161 115.859 430.405 127.892C431.199 130.118 433.067 131.924 437.364 129.542Z" fill="white" stroke="#032100" stroke-linecap="round" stroke-linejoin="round"></path><path d="M418.744 31.4537C416.941 35.7275 416.04 40.3277 416.098 44.966C416.378 49.0757 417.265 52.3292 415.615 56.3922C414.65 58.7273 411.381 61.7006 411.832 64.3937C412.237 66.8222 418.34 67.6473 418.34 67.6473C418.34 67.6473 424.442 86.7481 427.681 87.1529C430.919 87.5576 438.251 85.5962 447.592 77.8126C456.933 70.029 445.569 42.0082 437.426 34.7072C429.284 27.4062 422.808 26.5656 418.744 31.4537Z" fill="white" stroke="#032100" stroke-linecap="round" stroke-linejoin="round"></path><path d="M421.516 56.9371C422.1 56.9371 422.574 55.5989 422.574 53.9482C422.574 52.2975 422.1 50.9593 421.516 50.9593C420.931 50.9593 420.457 52.2975 420.457 53.9482C420.457 55.5989 420.931 56.9371 421.516 56.9371Z" fill="#032100"></path><path d="M418.698 47.0831C418.698 47.0831 419.756 42.8488 423.991 46.0245" stroke="#032100" stroke-linecap="round" stroke-linejoin="round"></path><path d="M420.815 71.7414C420.815 71.7414 423.633 72.4575 426.809 68.628" stroke="#032100" stroke-linecap="round" stroke-linejoin="round"></path><path d="M427.696 9.89319C427.696 9.89319 412.642 10.3135 410.197 20.0585C407.753 29.8036 418.744 38.3655 426.466 42.4285C434.188 46.4915 441.1 52.9986 441.1 59.9104C441.1 66.8222 441.521 74.9638 447.203 82.2804C452.886 89.5969 465.885 95.6992 476.082 95.2945C486.28 94.8897 475.273 70.963 480.955 53.8392C486.638 36.7154 479.398 19.6849 467.94 12.3684C456.482 5.05181 427.696 9.89319 427.696 9.89319Z" fill="#032100" stroke="#032100" stroke-linecap="round" stroke-linejoin="round"></path><path d="M519.611 157.532C519.475 159.665 519.142 161.781 518.615 163.852" stroke="white" stroke-linecap="round" stroke-linejoin="round"></path><path d="M424.24 35.1587C427.042 39.8288 432.351 44.8103 442.33 47.6124C464.126 53.8392 472.424 68.8926 472.424 81.8601C472.424 94.8275 473.467 104.168 494.219 114.551C500.337 117.611 505.7 121.991 509.918 127.375C514.137 132.759 517.108 139.013 518.615 145.685" stroke="white" stroke-linecap="round" stroke-linejoin="round"></path><path d="M421.048 24.7754C421.052 25.6794 421.141 26.581 421.313 27.4685" stroke="white" stroke-linecap="round" stroke-linejoin="round"></path><path d="M450.114 24.7754C450.114 24.7754 476.067 37.7584 475.537 55.3959C475.008 73.0335 476.58 89.6436 492.662 99.4976C508.744 109.352 525.356 115.594 531.069 135.302" stroke="white" stroke-linecap="round" stroke-linejoin="round"></path><path d="M464.593 119.221C464.593 119.221 457.696 121.836 454.1 135.286C450.504 148.736 465.247 172.352 467.551 182.86C469.855 193.367 472.143 209.417 472.143 209.417C472.143 209.417 420.628 251.448 413.093 257.971C405.558 264.494 401.604 268.79 401.604 268.79C401.604 268.79 382.922 285.198 381.271 288.483C379.621 291.767 375.044 308.813 376.679 309.467C378.313 310.121 381.271 302.913 381.271 301.606C381.271 300.298 384.541 293.075 384.541 293.075C384.541 293.075 381.925 309.763 381.925 310.697C381.925 311.631 384.541 310.697 384.868 309.374C385.195 308.05 388.806 294.289 388.806 294.289C388.806 294.289 386.845 309.701 388.153 311.413C389.46 313.125 391.764 301.575 391.764 301.575L394.38 292.39C394.38 292.39 393.726 308.455 395.049 309.109C396.373 309.763 399.315 293.371 399.315 293.371C399.315 293.371 405.215 281.555 407.504 277.617C408.809 275.474 409.805 273.158 410.462 270.736C410.462 270.736 440.976 254.001 460 244.817C479.025 235.632 495.107 218.571 497.068 215.628C499.03 212.686 494.764 171.34 491.495 153.625C488.226 135.909 481.329 114.551 464.593 119.221Z" fill="white" stroke="#032100" stroke-linecap="round" stroke-linejoin="round"></path><path d="M358.012 98.081C358.012 98.081 346.274 106.067 336.886 113.648C327.498 121.229 328.9 136.189 328.9 139.474C328.9 142.759 328.433 157.781 328.433 157.781L321.38 172.803C321.38 172.803 310.591 182.673 308.24 185.023C305.89 187.374 292.283 214.118 292.283 214.118L288.998 218.789L306.886 221.092C313.564 213.646 320.953 206.868 328.946 200.855C340.638 192.387 350.477 169.036 350.96 166.156C352.944 158.289 354.343 150.287 355.148 142.214" fill="white"></path><path d="M358.012 98.081C358.012 98.081 346.274 106.067 336.886 113.648C327.498 121.229 328.9 136.189 328.9 139.474C328.9 142.759 328.433 157.781 328.433 157.781L321.38 172.803C321.38 172.803 310.591 182.673 308.24 185.023C305.89 187.374 292.283 214.118 292.283 214.118L288.998 218.789L306.886 221.092C313.564 213.646 320.953 206.868 328.946 200.855C340.638 192.387 350.477 169.036 350.96 166.156C352.944 158.289 354.343 150.287 355.148 142.214" stroke="#032100" stroke-linecap="round" stroke-linejoin="round"></path><path d="M352.034 161.143C344.141 148.192 333.352 149.873 328.557 151.492C328.448 154.917 328.37 157.719 328.37 157.719L321.318 172.741C321.318 172.741 310.529 182.611 308.178 184.961C305.827 187.312 292.22 214.056 292.22 214.056L288.936 218.726L306.886 221.092C313.564 213.646 320.953 206.868 328.946 200.855C340.638 192.387 350.477 169.036 350.96 166.156C351.131 165.206 351.567 163.463 352.034 161.143Z" fill="white" stroke="#032100" stroke-linecap="round" stroke-linejoin="round"></path><path d="M298.977 207.954C298.977 207.954 287.317 217.481 284.966 220.501C282.615 223.521 280.778 241.283 281.712 242.575C282.646 243.867 289.169 247.339 291.972 244.303C294.774 241.267 305.033 226.634 305.033 226.634C305.033 226.634 297.249 237.158 302.807 236.566C308.365 235.975 311.557 227.413 314.826 223.521C318.095 219.629 317.628 219.193 314.826 213.574L312.039 207.954" fill="white"></path><path d="M298.977 207.954C298.977 207.954 287.317 217.481 284.966 220.501C282.615 223.521 280.778 241.283 281.712 242.575C282.646 243.867 289.169 247.339 291.972 244.303C294.774 241.267 305.033 226.634 305.033 226.634C305.033 226.634 297.249 237.158 302.807 236.566C308.365 235.975 311.557 227.413 314.826 223.521C318.095 219.629 317.628 219.193 314.826 213.574L312.039 207.954" stroke="#032100" stroke-linecap="round" stroke-linejoin="round"></path><path d="M281.728 242.56C281.728 242.56 287.66 222.322 290.026 220.766" stroke="#032100" stroke-linecap="round" stroke-linejoin="round"></path><path d="M284.515 244.038C284.515 244.038 291.396 225.015 294.945 221.077" stroke="#032100" stroke-linecap="round" stroke-linejoin="round"></path><path d="M288.205 245.393C288.205 245.393 295.662 226.712 300.55 222.182" stroke="#032100" stroke-linecap="round" stroke-linejoin="round"></path><path d="M305.034 226.634C305.034 226.634 309.004 223.116 309.611 220.999Z" fill="white"></path><path d="M305.034 226.634C305.034 226.634 309.004 223.116 309.611 220.999" stroke="#032100" stroke-linecap="round" stroke-linejoin="round"></path><line y1="325.5" x2="620" y2="325.5" stroke="#032100"></line></svg>