<svg xmlns="http://www.w3.org/2000/svg" width="621" height="318" viewBox="0 0 621 318" fill="none"><path d="M512 254H84V313H512V254Z" fill="#56E22F"></path><path d="M84 254H512" stroke="#032100" stroke-linejoin="round"></path><path d="M556.243 179.296C556.255 179.282 556.262 179.264 556.262 179.246C556.262 179.228 556.255 179.21 556.243 179.196C556.234 179.191 556.223 179.188 556.212 179.187C556.201 179.186 556.19 179.188 556.18 179.191C556.169 179.195 556.16 179.202 556.153 179.21C556.145 179.218 556.139 179.227 556.136 179.238C553.76 184.952 551.882 190.862 550.524 196.902C549.131 202.942 548.079 209.055 547.371 215.213L546.925 219.845C546.859 220.615 546.777 221.386 546.719 222.164L546.595 224.484C546.529 226.034 546.438 227.583 546.389 229.132V233.789L546.446 236.109C546.446 236.888 546.537 237.658 546.587 238.437C546.702 239.978 546.793 267.295 546.933 268.836C547.23 271.918 547.693 274.992 548.171 278.041C548.167 278.054 548.166 278.067 548.168 278.08C548.17 278.093 548.175 278.105 548.183 278.116C548.191 278.126 548.201 278.135 548.212 278.141C548.224 278.147 548.237 278.15 548.25 278.15C548.263 278.15 548.276 278.147 548.287 278.141C548.299 278.135 548.309 278.126 548.317 278.116C548.324 278.105 548.329 278.093 548.331 278.08C548.333 278.067 548.332 278.054 548.328 278.041C548.328 276.492 548.262 274.951 548.221 273.401C548.18 271.852 548.048 270.328 548.064 268.786C548.081 267.245 548.064 239.937 548.015 238.404L547.973 236.092L548.015 233.789V229.182L548.138 224.567L548.18 222.264C548.18 221.493 548.27 220.731 548.312 219.961L548.592 215.354C549.118 209.234 549.986 203.148 551.192 197.126C552.362 191.048 554.052 185.082 556.243 179.296Z" fill="#2CA700"></path><path d="M556.903 203.406C556.907 203.396 556.909 203.385 556.908 203.374C556.908 203.363 556.905 203.352 556.901 203.342C556.896 203.332 556.89 203.323 556.881 203.316C556.873 203.308 556.864 203.302 556.854 203.299C556.843 203.295 556.832 203.293 556.821 203.293C556.811 203.294 556.8 203.296 556.79 203.301C556.78 203.306 556.771 203.312 556.763 203.32C556.756 203.328 556.75 203.338 556.746 203.348C554.125 211.041 552.38 219.007 551.547 227.094C551.142 231.129 550.721 235.173 550.639 239.224C550.556 243.276 550.639 273.103 551.068 277.155C551.068 277.174 551.076 277.193 551.09 277.207C551.104 277.221 551.123 277.229 551.142 277.229C551.153 277.23 551.163 277.229 551.173 277.226C551.183 277.223 551.193 277.218 551.2 277.211C551.208 277.204 551.214 277.195 551.219 277.185C551.223 277.176 551.225 277.165 551.225 277.155C551.695 273.12 551.984 243.325 552.257 239.299C552.529 235.272 552.578 231.229 552.843 227.202C553.405 219.154 554.765 211.183 556.903 203.406Z" fill="#2CA700"></path><path d="M570.215 211.899C570.2 211.886 570.181 211.879 570.162 211.879C570.142 211.879 570.123 211.886 570.108 211.899C566.778 214.049 563.778 216.676 561.203 219.695C559.906 221.211 558.741 222.836 557.72 224.551L557.002 225.909L556.449 227.318C556.256 227.783 556.09 228.259 555.954 228.743C555.813 229.224 555.657 229.704 555.524 230.185C554.526 234.054 553.874 263.774 553.684 267.734C553.483 271.7 553.629 275.676 554.121 279.616C554.126 279.633 554.136 279.648 554.149 279.66C554.162 279.672 554.178 279.679 554.196 279.682C554.207 279.684 554.218 279.684 554.229 279.682C554.24 279.679 554.251 279.674 554.259 279.667C554.268 279.66 554.275 279.65 554.28 279.64C554.284 279.63 554.287 279.619 554.286 279.607L555.302 267.85C555.706 263.964 555.954 234.294 556.787 230.5C556.886 230.027 557.027 229.563 557.142 229.091C557.255 228.623 557.392 228.161 557.555 227.707L558.033 226.349L558.644 225.064C559.57 223.36 560.636 221.736 561.83 220.209C564.205 217.091 567.022 214.339 570.191 212.04C570.207 212.038 570.222 212.031 570.233 212.02C570.245 212.009 570.253 211.994 570.255 211.979C570.258 211.963 570.256 211.946 570.249 211.932C570.241 211.918 570.23 211.906 570.215 211.899Z" fill="#2CA700"></path><path d="M563.77 226.987C562.042 228.257 560.653 229.936 559.726 231.875C558.749 233.777 557.987 235.784 557.457 237.857C557.3 238.371 557.168 238.884 557.06 239.406L556.697 240.972C556.507 242.025 556.359 268.844 556.301 269.913C556.243 270.982 556.26 272.043 556.301 273.103C556.383 274.168 556.523 275.227 556.722 276.277C556.722 276.277 556.722 276.343 556.788 276.343C556.798 276.345 556.809 276.345 556.82 276.343C556.83 276.341 556.84 276.337 556.848 276.33C556.857 276.324 556.864 276.316 556.869 276.307C556.875 276.297 556.878 276.287 556.879 276.277C557.129 275.248 557.316 274.205 557.44 273.153C557.605 272.117 557.77 271.09 557.894 270.062C558.018 269.035 558.175 268.016 558.257 266.98C558.34 265.945 558.472 239.158 558.695 238.155C559.054 236.119 559.638 234.129 560.436 232.223C561.147 230.278 562.31 228.531 563.828 227.127C563.841 227.112 563.848 227.093 563.848 227.074C563.848 227.054 563.841 227.035 563.828 227.02C563.821 227.01 563.813 227.003 563.803 226.997C563.793 226.991 563.782 226.988 563.77 226.987Z" fill="#2CA700"></path><path d="M545.101 238.76C544.663 233.54 543.805 228.378 542.996 223.208C542.187 218.038 541.287 212.901 540.347 207.764C539.406 202.627 538.349 197.507 537.252 192.403C537.25 192.392 537.246 192.382 537.239 192.372C537.233 192.363 537.225 192.355 537.216 192.349C537.207 192.343 537.196 192.338 537.186 192.336C537.175 192.334 537.163 192.335 537.153 192.337C537.132 192.341 537.114 192.353 537.102 192.369C537.089 192.386 537.084 192.407 537.087 192.428C537.978 197.573 538.787 202.735 539.563 207.897C540.338 213.059 541.073 218.221 541.725 223.399C542.377 228.577 542.856 233.764 543.499 238.934L545.406 280.229C545.406 280.238 545.408 280.248 545.412 280.257C545.415 280.266 545.421 280.274 545.428 280.281C545.435 280.288 545.443 280.294 545.452 280.298C545.461 280.301 545.47 280.303 545.48 280.303C545.491 280.305 545.503 280.303 545.513 280.3C545.524 280.296 545.534 280.29 545.541 280.282C545.549 280.274 545.555 280.264 545.559 280.254C545.563 280.243 545.564 280.232 545.563 280.22C545.629 278.911 545.629 277.602 545.662 276.293C545.695 274.984 545.604 273.675 545.579 272.366C545.521 269.748 545.299 241.37 545.101 238.76Z" fill="#2CA700"></path><path d="M541.981 238.686C541.709 236.614 541.329 234.543 540.933 232.513L540.207 229.472C539.968 228.453 539.736 227.434 539.439 226.431C538.406 222.385 537.079 218.419 535.469 214.567L534.85 213.133L534.157 211.725C533.712 210.78 533.183 209.877 532.672 208.966C531.651 207.147 530.39 205.475 528.925 203.995C528.908 203.981 528.888 203.974 528.867 203.974C528.846 203.974 528.825 203.981 528.809 203.995C528.802 204.001 528.796 204.01 528.792 204.019C528.788 204.028 528.786 204.038 528.786 204.048C528.786 204.058 528.788 204.068 528.792 204.078C528.796 204.087 528.802 204.095 528.809 204.102C530.176 205.644 531.331 207.364 532.242 209.214C532.696 210.142 533.175 211.054 533.555 212.007L534.165 213.432L534.71 214.882C536.147 218.751 537.306 222.719 538.177 226.755C538.647 228.76 539.002 230.806 539.349 232.828L539.835 235.885C540.009 236.904 540.232 237.915 540.372 238.934C540.694 240.981 541.065 268.762 541.42 270.816C541.775 272.871 542.113 274.909 542.543 276.956C542.547 276.973 542.557 276.988 542.57 277C542.583 277.012 542.599 277.02 542.617 277.022C542.639 277.022 542.66 277.013 542.675 276.998C542.691 276.982 542.699 276.961 542.699 276.939C542.699 274.851 542.699 272.797 542.559 270.684C542.419 268.571 542.196 240.757 541.981 238.686Z" fill="#2CA700"></path><path d="M537.681 238.951C536.716 236.216 535.602 233.532 534.38 230.906C533.155 228.285 531.777 225.74 530.254 223.283C530.237 223.271 530.216 223.264 530.196 223.264C530.175 223.264 530.155 223.271 530.138 223.283C530.125 223.299 530.117 223.32 530.117 223.341C530.117 223.362 530.125 223.383 530.138 223.399C531.471 225.944 532.651 228.567 533.67 231.254C534.727 233.921 535.676 236.631 536.476 239.382C537.277 242.132 537.871 270.7 538.598 273.459C539.324 276.218 539.943 279.011 540.768 281.77C540.774 281.787 540.785 281.803 540.8 281.815C540.815 281.827 540.832 281.834 540.851 281.836C540.872 281.834 540.892 281.825 540.907 281.81C540.922 281.794 540.931 281.774 540.933 281.753C540.961 278.838 540.684 275.928 540.108 273.07C539.646 270.195 538.639 241.726 537.681 238.951Z" fill="#2CA700"></path><path d="M537.466 273.832C536.94 272.125 536.17 270.504 535.18 269.018C534.248 267.502 533.158 240.309 531.879 239.1C531.218 238.505 530.508 237.968 529.758 237.492C529.016 237.013 528.206 236.647 527.356 236.407C527.338 236.405 527.32 236.409 527.304 236.419C527.289 236.428 527.277 236.442 527.27 236.459C527.264 236.476 527.263 236.495 527.268 236.513C527.273 236.53 527.284 236.545 527.298 236.556C528.83 237.298 530.189 238.357 531.285 239.663C532.407 240.923 533.307 268.14 534.058 269.648C534.809 271.156 535.255 272.805 535.94 274.346C536.245 275.175 536.542 275.937 536.897 276.724C537.192 277.549 537.539 278.355 537.937 279.135C537.942 279.148 537.951 279.159 537.963 279.166C537.975 279.174 537.989 279.177 538.003 279.176C538.024 279.177 538.045 279.169 538.062 279.156C538.079 279.142 538.09 279.123 538.094 279.102C538.119 278.211 538.085 277.32 537.995 276.434C537.896 275.572 537.714 274.702 537.466 273.832Z" fill="#2CA700"></path><path d="M537.821 199.868C535.227 199.141 532.879 197.717 531.032 195.749C529.185 193.78 527.908 191.343 527.34 188.7C525.375 179.486 531.714 183.43 526.036 168.964C520.357 154.497 521.661 151.208 523.626 147.041C525.59 142.873 526.688 144.19 528.437 149.667C530.187 155.144 536.517 163.703 538.919 179.71C541.321 195.717 537.821 199.868 537.821 199.868Z" fill="#56E22F"></path><path d="M554.642 184.3C554.642 184.3 548.963 182.328 548.749 171.59C548.534 160.852 552.876 163.04 553.552 149.659C554.229 136.278 555.079 126.857 557.481 126.642C559.883 126.426 566.213 133.187 568.4 148.101C570.587 163.015 565.561 172.875 561.195 177.266C556.829 181.657 554.642 184.3 554.642 184.3Z" fill="#56E22F"></path><path d="M534.768 212.802C534.768 212.802 533.456 204.914 530.839 201.202C528.223 197.49 522.536 194.185 518.822 186.951C515.108 179.718 510.965 176.18 511.18 186.512C511.394 196.844 515.983 202.081 521.662 205.569C527.34 209.057 534.768 212.802 534.768 212.802Z" fill="#56E22F"></path><path d="M532.366 226.398C532.366 226.398 527.125 216.315 519.482 208.858C511.84 201.401 505.724 197.673 507.928 201.401C510.131 205.13 512.731 204.914 516.445 211.493C520.159 218.071 519.07 222.894 524.31 226.614C529.551 230.334 532.366 226.398 532.366 226.398Z" fill="#56E22F"></path><path d="M531.69 239.332C531.467 238.677 531.252 233.855 523.824 229.903C516.396 225.951 509.406 227.492 510.28 229.464C511.155 231.436 515.744 234.733 520.325 236.705C524.905 238.677 531.69 239.332 531.69 239.332Z" fill="#56E22F"></path><path d="M554.204 213.241C554.204 213.241 550.903 209.098 552.677 200.308C554.452 191.517 558.356 193.729 562.722 189.122C567.088 184.516 566.213 183.861 570.587 179.039C574.961 174.217 578.84 171.582 580.631 173.562C582.422 175.542 579.757 181.674 577.14 185.162C574.524 188.65 570.364 190.423 568.4 194.814C566.436 199.206 567.31 206.215 562.284 209.496C557.258 212.777 554.204 213.241 554.204 213.241Z" fill="#56E22F"></path><path d="M565.123 215.652C565.123 215.652 572.988 206.662 578.667 200.092C584.345 193.522 586.524 188.493 586.747 192.851C586.97 197.209 588.711 200.747 584.122 206.447C579.533 212.147 565.123 215.652 565.123 215.652Z" fill="#56E22F"></path><path d="M560.972 230.127C560.972 230.127 560.757 226.614 573.203 218.527C585.649 210.441 590.899 208.883 589.586 212.172C588.274 215.462 582.818 218.751 576.917 224.667C571.016 230.582 560.972 230.127 560.972 230.127Z" fill="#56E22F"></path><path d="M538.342 198.932C538.342 198.932 535.42 183.19 532.366 172.021C529.312 160.852 527.34 154.05 527.34 154.05" stroke="#2CA700" stroke-width="0.7" stroke-linecap="round" stroke-linejoin="round"></path><path d="M554.139 184.466C554.139 184.466 559.446 167.423 561.195 157.124C562.945 146.825 560.972 139.145 560.106 134.538" stroke="#2CA700" stroke-width="0.7" stroke-linecap="round" stroke-linejoin="round"></path><path d="M534.083 212.479C531.732 208.417 529.04 204.564 526.036 200.962C521.224 195.262 517.51 192.196 515.307 186.711" stroke="#2CA700" stroke-width="0.7" stroke-linecap="round" stroke-linejoin="round"></path><path d="M554.204 213.241C554.204 213.241 555.954 202.719 560.105 197.242C564.257 191.765 572.551 183.206 575.828 177.721" stroke="#2CA700" stroke-width="0.7" stroke-linecap="round" stroke-linejoin="round"></path><path d="M531.194 239.092C531.194 239.092 523.848 234.294 518.607 231.635" stroke="#2CA700" stroke-width="0.7" stroke-linecap="round" stroke-linejoin="round"></path><path d="M551.431 313.329H541.816C540.983 313.329 540.17 313.082 539.477 312.619C538.784 312.156 538.242 311.498 537.92 310.727C534.776 303.171 531.441 267.03 531.441 267.03H561.797C561.797 267.03 558.496 303.171 555.327 310.727C555.004 311.497 554.462 312.155 553.769 312.617C553.076 313.08 552.263 313.328 551.431 313.329Z" fill="#2CA700"></path><path d="M552.108 212.727C552.108 212.727 547.981 217.094 544.68 215.81C541.378 214.525 539.026 211.866 535.461 214.608C531.895 217.351 534.206 222.67 538.291 228.354C542.377 234.037 545.051 236.639 548.063 233.772C551.076 230.906 558.496 227.069 558.751 219.621C559.007 212.172 559.527 209.604 552.108 212.727Z" fill="#56E22F"></path><path d="M557.992 234.269C556.481 236.035 554.397 237.208 552.108 237.584C548.072 238.412 543.31 234.609 543.483 238.926C543.656 243.243 547.502 247.087 553.387 246.83C559.272 246.573 563.357 247.858 564.381 250.144C565.404 252.431 568.507 250.401 567.195 243.466C565.883 236.531 563.357 233.225 557.992 234.269Z" fill="#56E22F"></path><path d="M540.594 245.554C538.979 245.255 537.316 245.343 535.741 245.811C532.927 246.582 532.159 248.636 533.183 251.462C534.206 254.287 536.765 256.847 537.788 254.776C538.812 252.705 539.059 251.462 541.915 250.675C544.771 249.887 543.92 245.554 540.594 245.554Z" fill="#56E22F"></path><path d="M70.8643 179.296C70.8684 179.286 70.8705 179.277 70.8706 179.266C70.8706 179.256 70.8687 179.246 70.8649 179.237C70.861 179.228 70.8553 179.219 70.8481 179.212C70.8409 179.205 70.8324 179.2 70.8231 179.196C70.8135 179.191 70.8029 179.188 70.7919 179.187C70.7809 179.186 70.7699 179.188 70.7596 179.191C70.7494 179.195 70.7401 179.202 70.7325 179.21C70.7249 179.218 70.7192 179.227 70.7158 179.238C68.34 184.952 66.4622 190.862 65.1035 196.902C63.7305 202.943 62.6972 209.056 62.0085 215.213L61.5628 219.845C61.4968 220.615 61.4143 221.386 61.3565 222.164L61.2327 224.484C61.1667 226.034 61.0676 227.583 61.0264 229.132V233.789L61.0841 236.109C61.0841 236.888 61.1667 237.658 61.2244 238.437C61.34 239.978 61.4308 267.295 61.5711 268.836C61.8682 271.918 62.3304 274.992 62.8091 278.041C62.8111 278.062 62.8207 278.081 62.836 278.095C62.8513 278.108 62.8711 278.116 62.8916 278.116C62.9114 278.112 62.9294 278.102 62.9428 278.087C62.9563 278.072 62.9644 278.053 62.9659 278.033C62.9659 276.484 62.8916 274.943 62.8586 273.393C62.8256 271.844 62.6853 270.319 62.7018 268.778C62.7183 267.237 62.7018 239.928 62.6523 238.396V236.084V233.781V229.174L62.7843 224.559V222.256C62.7843 221.485 62.8751 220.723 62.9164 219.952L63.197 215.346C63.723 209.226 64.5909 203.14 65.7968 197.118C66.9723 191.042 68.6678 185.079 70.8643 179.296Z" fill="#2CA700"></path><path d="M71.5245 203.406C71.5283 203.396 71.53 203.385 71.5296 203.374C71.5291 203.363 71.5265 203.352 71.5219 203.342C71.5174 203.332 71.5108 203.323 71.5028 203.316C71.4947 203.308 71.4853 203.302 71.475 203.299C71.4647 203.295 71.4537 203.293 71.4428 203.293C71.4318 203.294 71.421 203.296 71.4111 203.301C71.4011 203.306 71.3921 203.312 71.3847 203.32C71.3773 203.328 71.3715 203.338 71.3677 203.348C68.7572 211.042 67.0239 219.008 66.2011 227.094C65.7967 231.129 65.3758 235.173 65.2932 239.224C65.2107 243.276 65.2932 273.103 65.7224 277.155C65.7223 277.173 65.729 277.191 65.7412 277.205C65.7534 277.218 65.7702 277.227 65.7884 277.229C65.7995 277.232 65.8109 277.232 65.8219 277.229C65.833 277.227 65.8432 277.221 65.852 277.214C65.8607 277.207 65.8678 277.198 65.8725 277.188C65.8772 277.177 65.8795 277.166 65.8792 277.155C66.3497 273.12 66.6303 243.325 66.9109 239.299C67.1915 235.272 67.2328 231.229 67.4969 227.202C68.059 219.154 69.4193 211.183 71.5575 203.406H71.5245Z" fill="#2CA700"></path><path d="M84.8375 211.899C84.8212 211.885 84.8008 211.878 84.7797 211.878C84.7586 211.878 84.7382 211.885 84.722 211.899C81.3961 214.052 78.3992 216.678 75.8249 219.695C74.5282 221.211 73.363 222.836 72.342 224.551L71.6239 225.909L71.0709 227.318C70.8777 227.783 70.7123 228.259 70.5757 228.743C70.4354 229.224 70.2704 229.704 70.1466 230.185C69.1479 234.054 68.4959 263.774 68.3061 267.734C68.105 271.7 68.2514 275.676 68.7435 279.616C68.7481 279.633 68.7576 279.648 68.7708 279.66C68.784 279.672 68.8003 279.679 68.8178 279.682C68.8288 279.684 68.8403 279.684 68.8513 279.682C68.8623 279.679 68.8726 279.674 68.8813 279.667C68.8901 279.66 68.8971 279.651 68.9018 279.64C68.9065 279.63 68.9088 279.619 68.9086 279.607L69.9237 267.85C70.3281 263.964 70.5757 234.294 71.4011 230.5C71.5084 230.027 71.6487 229.563 71.7642 229.091C71.8766 228.623 72.0144 228.161 72.1769 227.707L72.6473 226.349L73.2663 225.064C74.1884 223.35 75.2542 221.717 76.4521 220.184C78.8273 217.066 81.644 214.314 84.8127 212.015C84.8231 212.01 84.8322 212.003 84.8393 211.994C84.8464 211.985 84.8513 211.974 84.8537 211.963C84.8561 211.952 84.8559 211.94 84.8531 211.929C84.8503 211.918 84.8449 211.908 84.8375 211.899Z" fill="#2CA700"></path><path d="M78.3914 226.987C76.6591 228.253 75.2691 229.933 74.3473 231.875C73.3697 233.777 72.6083 235.784 72.0776 237.857C71.9208 238.371 71.7887 238.884 71.6814 239.406L71.31 240.972C71.1285 242.025 70.9799 268.844 70.9221 269.913C70.8644 270.982 70.8726 272.043 70.9221 273.103C70.9999 274.168 71.1404 275.228 71.3431 276.277C71.3431 276.277 71.343 276.343 71.4091 276.343C71.4194 276.345 71.4302 276.345 71.4406 276.343C71.4511 276.341 71.4609 276.337 71.4695 276.33C71.4782 276.324 71.4853 276.316 71.4905 276.307C71.4958 276.297 71.499 276.287 71.4999 276.277C71.746 275.247 71.9334 274.204 72.0611 273.153C72.2262 272.117 72.3912 271.09 72.515 270.062C72.6388 269.035 72.7956 268.016 72.8782 266.98C72.9607 265.945 73.0928 239.158 73.3156 238.155C73.6713 236.118 74.2555 234.128 75.0571 232.223C75.7682 230.278 76.9311 228.531 78.4492 227.127C78.4606 227.112 78.4667 227.093 78.4667 227.074C78.4667 227.054 78.4606 227.035 78.4492 227.02C78.4424 227.01 78.4337 227.003 78.4238 226.997C78.4138 226.991 78.4028 226.988 78.3914 226.987Z" fill="#2CA700"></path><path d="M59.7226 238.76C59.2852 233.54 58.4268 228.379 57.618 223.208C56.8092 218.038 55.9095 212.901 54.9687 207.756C54.0278 202.611 52.9961 197.507 51.8737 192.403C51.8679 192.382 51.8547 192.364 51.8365 192.352C51.8183 192.339 51.7963 192.334 51.7746 192.337C51.7542 192.341 51.736 192.353 51.7238 192.37C51.7116 192.386 51.7061 192.407 51.7086 192.428C52.6 197.573 53.4088 202.735 54.1846 207.897C54.9604 213.059 55.695 218.221 56.347 223.399C56.999 228.577 57.4777 233.764 58.1214 238.934L60.028 280.229C60.028 280.248 60.0358 280.267 60.0497 280.281C60.0636 280.295 60.0825 280.303 60.1022 280.303C60.1131 280.303 60.1238 280.301 60.1338 280.297C60.1438 280.293 60.1529 280.287 60.1606 280.279C60.1683 280.271 60.1743 280.262 60.1785 280.252C60.1826 280.242 60.1848 280.231 60.1848 280.22C60.2508 278.911 60.2508 277.602 60.2838 276.293C60.3168 274.984 60.226 273.675 60.2013 272.366C60.1435 269.748 59.9207 241.37 59.7226 238.76Z" fill="#2CA700"></path><path d="M56.6025 238.686C56.3301 236.614 55.9504 234.543 55.5543 232.513L54.828 229.472C54.5886 228.453 54.3575 227.434 54.0604 226.431C53.0271 222.385 51.7003 218.419 50.0906 214.567L49.4633 213.133L48.7783 211.725C48.3326 210.78 47.8044 209.877 47.2927 208.966C46.2717 207.147 45.0113 205.475 43.5457 203.995C43.5294 203.981 43.509 203.974 43.4879 203.974C43.4668 203.974 43.4464 203.981 43.4301 203.995C43.4229 204.001 43.4171 204.01 43.4132 204.019C43.4093 204.028 43.4072 204.038 43.4072 204.048C43.4072 204.058 43.4093 204.068 43.4132 204.078C43.4171 204.087 43.4229 204.095 43.4301 204.102C44.7972 205.644 45.952 207.364 46.8635 209.214C47.3175 210.142 47.7961 211.054 48.1758 212.007L48.7865 213.432L49.3313 214.882C50.7682 218.751 51.9266 222.719 52.7977 226.755C53.2681 228.76 53.5817 230.806 53.9696 232.828L54.4566 235.885C54.6299 236.904 54.8445 237.915 54.993 238.934C55.3149 240.981 55.6863 268.762 56.0412 270.816C56.3961 272.871 56.7345 274.909 57.1637 276.956C57.1683 276.973 57.1778 276.988 57.191 277C57.2042 277.012 57.2205 277.02 57.238 277.022C57.2598 277.022 57.2808 277.013 57.2963 276.998C57.3118 276.982 57.3205 276.961 57.3205 276.939C57.3205 274.851 57.3205 272.797 57.1802 270.684C57.0399 268.571 56.817 240.757 56.6025 238.686Z" fill="#2CA700"></path><path d="M52.3026 238.951C51.3369 236.216 50.2227 233.532 49.0012 230.906C47.7761 228.285 46.3981 225.74 44.8746 223.283C44.8577 223.271 44.8375 223.264 44.8168 223.264C44.7961 223.264 44.7759 223.271 44.759 223.283C44.7456 223.299 44.7383 223.32 44.7383 223.341C44.7383 223.362 44.7456 223.383 44.759 223.399C46.092 225.944 47.2716 228.567 48.2915 231.254C49.3479 233.921 50.297 236.631 51.0976 239.382C51.8982 242.132 52.4924 270.7 53.2187 273.459C53.945 276.218 54.6053 279.002 55.4471 281.795C55.4532 281.812 55.4642 281.828 55.4788 281.84C55.4934 281.851 55.511 281.859 55.5296 281.861C55.5504 281.858 55.5695 281.848 55.5844 281.833C55.5992 281.818 55.6089 281.799 55.6122 281.778C55.6396 278.863 55.363 275.952 54.7868 273.095C54.2669 270.195 53.26 241.726 52.3026 238.951Z" fill="#2CA700"></path><path d="M52.1213 273.832C51.595 272.125 50.8249 270.504 49.8351 269.018C48.9025 267.502 47.813 240.309 46.5338 239.1C45.8727 238.505 45.1632 237.968 44.4127 237.492C43.6704 237.013 42.8609 236.647 42.0109 236.407C41.9922 236.402 41.9725 236.404 41.9547 236.412C41.9369 236.419 41.9219 236.432 41.9119 236.448C41.9035 236.468 41.9031 236.491 41.9108 236.511C41.9185 236.531 41.9337 236.547 41.9532 236.556C43.4841 237.296 44.8403 238.355 45.9313 239.663C47.062 240.923 47.9616 268.14 48.7126 269.648C49.4637 271.156 49.9094 272.805 50.5944 274.346C50.8998 275.174 51.1969 275.937 51.5518 276.724C51.8428 277.551 52.1902 278.356 52.5917 279.135C52.5998 279.147 52.6108 279.158 52.6237 279.165C52.6367 279.172 52.6512 279.176 52.666 279.176C52.6764 279.178 52.687 279.176 52.697 279.173C52.7069 279.17 52.7161 279.165 52.7239 279.158C52.7317 279.151 52.738 279.142 52.7422 279.132C52.7464 279.123 52.7486 279.112 52.7485 279.102C52.7816 278.211 52.7485 277.319 52.6495 276.434C52.5175 275.558 52.3411 274.69 52.1213 273.832Z" fill="#2CA700"></path><path d="M52.4431 199.868C49.8484 199.141 47.5008 197.717 45.6536 195.749C43.8063 193.78 42.5297 191.343 41.9614 188.7C39.9971 179.486 46.3274 183.43 40.6491 168.964C34.9708 154.497 36.2831 151.208 38.2474 147.041C40.2116 142.873 41.3093 144.19 43.0508 149.667C44.7922 155.144 51.1391 163.703 53.5408 179.71C55.9425 195.717 52.4431 199.868 52.4431 199.868Z" fill="#56E22F"></path><path d="M69.2629 184.3C69.2629 184.3 63.5846 182.328 63.3618 171.59C63.1389 160.852 67.4885 163.04 68.1735 149.659C68.8585 136.278 69.7003 126.857 72.1021 126.642C74.5038 126.426 80.8341 133.187 83.0212 148.101C85.2084 163.015 80.1821 172.875 75.8161 177.266C71.4501 181.657 69.2629 184.3 69.2629 184.3Z" fill="#56E22F"></path><path d="M49.389 212.802C49.389 212.802 48.0767 204.914 45.4604 201.202C42.8441 197.49 37.1576 194.185 33.4436 186.951C29.7296 179.718 25.5864 176.18 25.801 186.512C26.0156 196.844 30.6044 202.081 36.2827 205.569C41.961 209.057 49.389 212.802 49.389 212.802Z" fill="#56E22F"></path><path d="M46.9875 226.398C46.9875 226.398 41.7466 216.315 34.104 208.858C26.4614 201.401 20.3375 197.673 22.5494 201.401C24.7613 205.13 27.3528 204.914 31.0668 211.493C34.7808 218.071 33.6914 222.894 38.9322 226.614C44.1731 230.334 46.9875 226.398 46.9875 226.398Z" fill="#56E22F"></path><path d="M46.3276 239.332C46.113 238.677 45.8902 233.855 38.4704 229.903C31.0507 225.951 24.0518 227.492 24.935 229.464C25.8181 231.436 30.3987 234.733 34.9793 236.705C39.5599 238.677 46.3276 239.332 46.3276 239.332Z" fill="#56E22F"></path><path d="M68.8263 213.241C68.8263 213.241 65.5249 209.098 67.2994 200.308C69.0739 191.517 72.9777 193.729 77.3437 189.122C81.7097 184.516 80.8349 183.861 85.2091 179.039C89.5834 174.217 93.4625 171.582 95.2534 173.562C97.0444 175.542 94.3786 181.674 91.754 185.162C89.1295 188.65 84.9863 190.423 83.022 194.814C81.0577 199.206 81.9325 206.232 76.931 209.513C71.9295 212.794 68.8263 213.241 68.8263 213.241Z" fill="#56E22F"></path><path d="M79.7451 215.652C79.7451 215.652 87.6105 206.662 93.2888 200.092C98.9671 193.522 101.146 188.493 101.369 192.851C101.592 197.209 103.333 200.747 98.7443 206.447C94.1554 212.147 79.7451 215.652 79.7451 215.652Z" fill="#56E22F"></path><path d="M75.594 230.127C75.594 230.127 75.3794 226.614 87.8254 218.527C100.271 210.441 105.521 208.883 104.208 212.172C102.896 215.462 97.4406 218.751 91.5394 224.667C85.6383 230.582 75.594 230.127 75.594 230.127Z" fill="#56E22F"></path><path d="M52.9958 198.932C52.9958 198.932 50.0742 183.19 47.0204 172.021C43.9667 160.852 41.9941 154.05 41.9941 154.05" stroke="#2CA700" stroke-width="0.7" stroke-linecap="round" stroke-linejoin="round"></path><path d="M68.7598 184.466C68.7598 184.466 74.0667 167.423 75.8164 157.124C77.5661 146.825 75.5935 139.145 74.7187 134.538" stroke="#2CA700" stroke-width="0.7" stroke-linecap="round" stroke-linejoin="round"></path><path d="M48.6961 212.479C46.3377 208.414 43.6343 204.561 40.6161 200.962C35.8126 195.262 32.0986 192.196 29.8867 186.711" stroke="#2CA700" stroke-width="0.7" stroke-linecap="round" stroke-linejoin="round"></path><path d="M68.8262 213.241C68.8262 213.241 70.5759 202.719 74.7191 197.242C78.8622 191.765 87.1733 183.206 90.4499 177.721" stroke="#2CA700" stroke-width="0.7" stroke-linecap="round" stroke-linejoin="round"></path><path d="M45.8158 239.092C45.8158 239.092 38.4704 234.294 33.2295 231.635" stroke="#2CA700" stroke-width="0.7" stroke-linecap="round" stroke-linejoin="round"></path><path d="M66.053 313.329H56.4379C55.6055 313.329 54.7918 313.082 54.0987 312.619C53.4057 312.156 52.8642 311.498 52.5423 310.727C49.3978 303.171 46.0635 267.03 46.0635 267.03H76.4192C76.4192 267.03 73.1179 303.171 69.9486 310.727C69.6258 311.497 69.0842 312.155 68.3913 312.617C67.6985 313.08 66.8852 313.328 66.053 313.329Z" fill="#2CA700"></path><path d="M63.7256 216.762C63.7256 216.762 57.8162 218.328 54.6965 215.52C51.5767 212.711 46.9218 212.081 45.981 216.141C45.0401 220.201 46.2946 224.269 49.1007 230.226C51.9068 236.183 56.1821 232.032 56.2564 229.605C56.3306 227.177 59.2441 225.255 62.859 226.025C66.474 226.796 72.7548 218.013 63.7256 216.762Z" fill="#56E22F"></path><path d="M74.0003 232.703C74.0003 232.703 76.6909 236.134 69.5847 234.104C62.4786 232.074 59.4249 230.417 58.7729 234.684C58.1209 238.951 63.7249 239.887 67.4636 240.823C71.2024 241.759 74.3057 248.33 76.7982 252.423C79.2907 256.516 84.2262 251.793 81.4695 242.107C78.7129 232.422 79.1751 228.18 74.0003 232.703Z" fill="#56E22F"></path><path d="M0.791016 313.329H620.791" stroke="#032100" stroke-linejoin="round"></path><path d="M460.125 127.388C460.125 127.388 452.879 129.045 450.898 132.185C448.917 135.325 446.614 142.765 447.275 145.582C447.935 148.399 451.063 156.163 453.531 158.151C455.998 160.14 460.959 162.949 464.574 162.949C468.189 162.949 474.956 158.151 475.608 155.831C476.26 153.511 478.084 146.9 478.249 143.925C478.414 140.951 479.735 136.154 473.966 131.688C468.197 127.222 466.224 126.045 460.125 127.388Z" fill="white" stroke="#032100" stroke-width="0.7" stroke-linejoin="round"></path><path d="M475.608 155.815C476.268 153.503 478.084 146.883 478.249 143.909C478.373 141.663 479.149 138.382 477.044 134.985C476.854 136.427 476.062 140.189 474.791 141.763C473.305 143.577 466.711 147.049 458.144 145.234C451.979 143.925 449.404 139.965 448.446 137.844C447.497 140.818 446.895 143.95 447.274 145.566C447.935 148.375 451.063 156.146 453.53 158.135C455.998 160.123 460.958 162.932 464.573 162.932C468.188 162.932 474.956 158.135 475.608 155.815Z" fill="white" stroke="#032100" stroke-width="0.7" stroke-linejoin="round"></path><path d="M447.275 145.566C447.275 145.566 445.129 144.737 444.799 146.883C444.469 149.029 445.789 153.511 447.605 154.497C448.137 154.784 448.731 154.934 449.334 154.934C449.937 154.934 450.531 154.784 451.063 154.497L447.275 145.566Z" fill="white" stroke="#032100" stroke-width="0.7" stroke-linejoin="round"></path><path d="M478.249 145.234C478.249 145.234 481.551 142.583 481.212 146.717C480.874 150.852 476.434 154 476.434 154L478.249 145.234Z" fill="white" stroke="#032100" stroke-width="0.7" stroke-linejoin="round"></path><path d="M480.519 168.226C480.519 168.226 475.905 160.944 475.41 160.446C474.915 159.949 467.503 158.789 462.89 158.789C458.276 158.789 450.699 160.77 450.699 160.77L446.746 169.055C446.746 169.055 465.234 164.258 480.519 168.226Z" fill="#032100" stroke="#032100" stroke-width="0.7" stroke-linejoin="round"></path><path d="M424.041 218.179C424.041 218.179 422.746 224.957 423.571 226.813C424.396 228.668 427.524 230.45 429.175 230.45C430.897 230.311 432.606 230.034 434.284 229.621L434.944 220.027L424.041 218.179Z" fill="white" stroke="#032100" stroke-width="0.7" stroke-linejoin="round"></path><path d="M501.483 213.05C501.483 213.05 502.143 220.988 501.648 222.314C501.153 223.639 498.346 226.117 496.374 226.614C494.654 227.076 492.88 227.299 491.1 227.277C490.605 227.111 488.954 215.362 488.954 215.362L501.483 213.05Z" fill="white" stroke="#032100" stroke-width="0.7" stroke-linejoin="round"></path><path d="M459.63 298.399C459.63 298.399 459.3 310.305 460.125 311.465C460.95 312.625 464.904 314.108 469.204 313.611C473.504 313.113 475.303 311.796 475.303 310.968C475.303 310.139 475.138 299.55 475.138 299.55C475.138 299.55 461.776 298.73 459.63 298.399Z" fill="#032100" stroke="#032100" stroke-width="0.7" stroke-linejoin="round"></path><path d="M475.286 310.968C475.286 310.785 475.286 310.139 475.286 309.194C469.616 311.68 463.154 310.296 459.745 309.194C459.742 309.964 459.879 310.728 460.15 311.448C460.975 312.608 464.928 314.091 469.228 313.594C473.528 313.097 475.286 311.796 475.286 310.968Z" fill="white" stroke="#032100" stroke-width="0.7" stroke-linejoin="round"></path><path d="M455.842 254.892C455.842 254.892 459.63 281.521 459.465 285.167C459.337 286.985 459.392 288.812 459.63 290.619C459.63 290.619 458.145 291.447 458.145 292.773C458.145 294.098 459.63 298.399 459.63 298.399C459.63 298.399 459.465 299.061 463.757 299.882C468.048 300.702 473.974 300.379 475.13 299.55C476.285 298.722 476.277 294.919 476.112 292.441C475.947 289.964 473.974 284.835 473.974 282.847C473.974 280.858 476.607 253.243 476.607 253.243C476.607 253.243 461.776 256.052 455.842 254.892Z" fill="#3BC90C" stroke="#032100" stroke-width="0.7" stroke-linejoin="round"></path><path d="M484.184 290.13C484.184 290.13 486.66 298.415 487.312 299.882C487.964 301.348 490.613 303.03 491.925 303.03C493.238 303.03 500.327 300.71 501.318 300.213C502.308 299.716 504.115 296.741 503.29 294.098C502.465 291.455 498.338 283.013 498.338 283.013L484.184 290.13Z" fill="#032100" stroke="#032100" stroke-width="0.7" stroke-linejoin="round"></path><path d="M501.317 300.213C502.225 299.757 503.793 297.214 503.438 294.761C501.163 296.274 498.804 297.657 496.373 298.904C493.82 300.1 491.087 300.864 488.285 301.166C489.274 302.156 490.547 302.811 491.925 303.038C493.245 303.038 500.327 300.71 501.317 300.213Z" fill="white" stroke="#032100" stroke-width="0.7" stroke-linejoin="round"></path><path d="M472.48 262.672C472.48 262.672 478.91 275.572 480.057 277.586C481.204 279.599 482.038 281.065 482.038 281.065C481.471 281.925 481.226 282.958 481.344 283.982C481.674 285.473 484.15 290.105 484.15 290.105C484.15 290.105 487.939 290.933 490.902 289.939C493.865 288.945 497.331 286.128 497.661 285.473C497.95 284.665 498.169 283.834 498.313 282.988C497.756 280.79 497.042 278.636 496.175 276.542C494.69 272.896 493.048 270.087 492.387 266.947C491.727 263.807 488.104 250.376 488.104 250.376L469.121 254.519L472.48 262.672Z" fill="#3BC90C" stroke="#032100" stroke-width="0.7" stroke-linejoin="round"></path><path d="M431.453 236.043C431.453 236.043 430.628 241.842 430.958 244.477C431.288 247.112 431.783 250.426 440.036 253.591C448.29 256.756 456.543 258.877 463.146 258.388C469.749 257.899 481.93 254.908 484.604 253.591C487.279 252.274 489.433 249.755 491.207 248.031C492.982 246.308 493.485 240.028 493.163 237.542C492.988 236.128 492.656 234.739 492.173 233.399C492.173 233.399 464.409 240.674 431.453 236.043Z" fill="#3BC90C" stroke="#032100" stroke-width="0.7" stroke-linejoin="round"></path><path d="M446.779 169.047C446.779 169.047 438.873 176.329 435.225 179.138C431.577 181.947 427.978 185.427 427.978 186.421C427.978 187.415 418.256 217.351 418.256 217.351C418.256 217.351 422.044 222.148 430.289 222.968H432.65C432.65 222.968 431.494 234.883 431.494 236.042C431.494 237.202 446.986 242.671 465.11 241.163C483.234 239.655 491.801 235.048 492.131 233.391C492.462 231.734 491.801 228.42 491.801 225.934C491.801 223.449 491.306 218.651 491.306 218.651C491.306 218.651 495.92 219.149 499.378 217.823C502.836 216.497 507.904 211.899 507.904 211.899C507.904 211.899 498 190.564 496.539 185.767C495.078 180.969 480.519 168.226 480.519 168.226C480.519 168.226 467.041 163.926 446.779 169.047Z" fill="#032100" stroke="#032100" stroke-width="0.7" stroke-linejoin="round"></path><path d="M432.006 196.206L433.302 234.104C433.302 234.104 462.915 240.798 490.489 234.104L492.709 196.761C492.709 196.761 442.925 198.642 432.006 196.206Z" fill="#2CA700"></path><path d="M433.301 234.104L428.118 313.959" stroke="#032100" stroke-width="0.7" stroke-linecap="round" stroke-linejoin="round"></path><path d="M490.332 234.104L495.515 313.959" stroke="#032100" stroke-width="0.7" stroke-linecap="round" stroke-linejoin="round"></path><path d="M432.237 248.156C432.237 248.156 448.182 256.615 463.245 256.392C478.926 256.16 491.124 248.015 491.124 248.015L491.95 256.731C491.95 256.731 464.714 268.157 431.989 256.193L432.237 248.156Z" fill="#2CA700"></path><path d="M375.891 254.378C375.891 254.378 382.717 282.665 383.798 285.672C384.879 288.68 386.126 287.014 387.52 290.693C388.915 294.372 389.229 297.553 390.78 299.567C392.332 301.58 396.368 302.409 397.606 305.425C398.844 308.44 399.628 310.943 394.816 311.953C390.005 312.964 385.663 310.106 383.65 305.756C381.636 301.406 378.838 289.185 378.838 289.185C378.838 289.185 359.913 262.581 357.734 257.56L355.563 252.539L375.891 254.378Z" fill="white" stroke="#032100" stroke-width="0.7" stroke-linejoin="round"></path><path d="M385.507 288.183L385.969 288.249C386.711 288.912 387.25 289.775 387.52 290.735C388.923 294.422 389.229 297.595 390.78 299.608C392.332 301.622 396.368 302.45 397.606 305.466C398.844 308.482 399.628 310.984 394.816 311.995C390.005 313.006 385.663 310.147 383.65 305.797C381.636 301.448 378.838 289.227 378.838 289.227C381.784 284.504 385.507 288.183 385.507 288.183Z" fill="#032100" stroke="#032100" stroke-width="0.7" stroke-linejoin="round"></path><path d="M380.554 254.378C380.554 254.378 373.729 282.665 372.639 285.672C371.55 288.68 370.312 287.014 368.917 290.693C367.522 294.372 367.209 297.553 365.657 299.567C364.105 301.58 360.07 302.409 358.832 305.425C357.594 308.44 356.818 310.943 361.621 311.953C366.425 312.964 370.774 310.106 372.796 305.756C374.818 301.406 377.6 289.185 377.6 289.185C377.6 289.185 396.533 262.581 398.703 257.56L400.874 252.539L380.554 254.378Z" fill="white" stroke="#032100" stroke-width="0.7" stroke-linejoin="round"></path><path d="M370.931 288.183L370.469 288.249C369.726 288.912 369.188 289.775 368.917 290.735C367.522 294.422 367.209 297.595 365.657 299.608C364.105 301.622 360.07 302.45 358.832 305.466C357.594 308.482 356.818 310.984 361.621 311.995C366.425 313.006 370.774 310.147 372.796 305.797C374.818 301.448 377.6 289.227 377.6 289.227C374.653 284.504 370.931 288.183 370.931 288.183Z" fill="#032100" stroke="#032100" stroke-width="0.7" stroke-linejoin="round"></path><path d="M359.302 166.768C359.302 166.768 349.398 170.977 349.217 172.841C349.035 174.706 342.688 199.164 342.243 201.956C341.797 204.748 339.139 211.46 341.153 214.26C343.167 217.061 346.741 218.933 349.068 219.091C349.671 219.181 350.287 219.114 350.856 218.897C351.426 218.679 351.93 218.318 352.32 217.848L350.306 231.552C350.306 231.552 347.203 241.204 347.979 245.098C348.755 248.993 351.396 252.887 366.136 256.16C380.877 259.432 389.41 257.717 394.841 255.223C400.272 252.729 406.784 249.614 407.403 245.72C408.022 241.826 405.546 229.522 405.546 229.522L404.299 216.265C404.299 216.265 411.728 216.108 414.542 212.52C417.356 208.933 416.399 205.362 415.318 202.246C414.237 199.131 410.976 187.763 409.887 183.712C408.798 179.66 408.022 172.651 406.784 170.944C405.546 169.237 392.976 166.428 392.976 166.428C392.976 166.428 376.832 160.388 359.302 166.768Z" fill="white" stroke="#032100" stroke-width="0.7" stroke-linejoin="round"></path><path d="M353.566 187.018L356.975 203.058" stroke="#032100" stroke-width="0.7" stroke-linejoin="round"></path><path d="M404.91 188.103L402.583 202.279" stroke="#032100" stroke-width="0.7" stroke-linejoin="round"></path><path d="M407.394 245.728C407.906 242.513 406.305 233.54 405.744 230.533C387.273 235.736 361.126 232.322 350.446 230.533L350.298 231.535C350.298 231.535 347.194 241.188 347.97 245.082C348.746 248.976 351.387 252.87 366.128 256.143C380.868 259.416 389.402 257.701 394.833 255.207C400.263 252.713 406.775 249.622 407.394 245.728Z" fill="#3BC90C" stroke="#032100" stroke-width="0.7" stroke-linejoin="round"></path><path d="M370.163 123.319C370.163 123.319 364.576 121.14 363.8 128.291C363.024 135.441 366.441 144.033 366.598 145.889C366.755 147.745 356.042 163.802 358.526 169.088C361.011 174.374 366.441 181.392 374.208 182.486C381.974 183.579 388.015 182.171 393.752 177.034C399.488 171.897 400.734 170.803 400.577 168.003C400.42 165.202 394.527 148.689 393.908 144.638C393.289 140.586 397.012 132.798 392.514 125.325C388.015 117.851 378.549 116.136 374.827 118.315C371.104 120.494 370.163 123.319 370.163 123.319Z" fill="#032100" stroke="#032100" stroke-width="0.7" stroke-linejoin="round"></path><path d="M347.813 196.206L349.109 234.104C349.109 234.104 378.722 240.798 406.297 234.104L408.517 196.761C408.517 196.761 358.733 198.642 347.813 196.206Z" fill="#2CA700"></path><path d="M349.109 234.104L343.935 313.959" stroke="#032100" stroke-width="0.7" stroke-linecap="round" stroke-linejoin="round"></path><path d="M406.14 234.104L411.323 313.959" stroke="#032100" stroke-width="0.7" stroke-linecap="round" stroke-linejoin="round"></path><path d="M348.045 248.156C348.045 248.156 363.99 256.615 379.053 256.392C394.734 256.16 406.933 248.015 406.933 248.015L407.758 256.731C407.758 256.731 380.522 268.157 347.806 256.193L348.045 248.156Z" fill="#2CA700"></path><path d="M214.175 143.461L212.938 159.228L237.153 158.4L235.296 144.397L214.175 143.461Z" fill="white" stroke="#032100" stroke-width="0.7" stroke-linejoin="round"></path><path d="M241.997 120.95C240.866 117.536 236.343 117.354 234.833 116.401C233.323 115.448 233.702 112.996 229.551 111.48C225.4 109.963 222.948 110.154 220.868 112.051C219.17 113.74 217.598 115.551 216.164 117.47C213.952 118.58 211.74 119.956 210.874 121.331C208.893 124.471 208.249 131.903 208.909 134.712C209.57 137.521 212.698 145.301 215.174 147.281C217.65 149.261 222.602 152.078 226.208 152.078C229.815 152.078 236.591 147.281 237.251 144.969C237.912 142.658 239.727 136.038 239.884 133.055C240.144 131.761 240.537 130.498 241.056 129.285C241.394 128.332 243.086 124.355 241.997 120.95Z" fill="#032100" stroke="#032100" stroke-width="0.7" stroke-linejoin="round"></path><path d="M208.868 134.712C208.868 134.712 206.73 133.883 206.392 136.038C206.054 138.192 207.374 142.666 209.19 143.644C209.721 143.931 210.315 144.081 210.919 144.081C211.522 144.081 212.117 143.931 212.648 143.644L208.868 134.712Z" fill="white" stroke="#032100" stroke-width="0.7" stroke-linejoin="round"></path><path d="M239.843 134.38C239.843 134.38 243.144 131.737 242.814 135.872C242.484 140.006 238.035 143.13 238.035 143.13L239.843 134.38Z" fill="white" stroke="#032100" stroke-width="0.7" stroke-linejoin="round"></path><path d="M245.233 164.481C245.233 164.481 239.777 156.005 239.191 155.434C238.605 154.862 229.84 153.503 224.385 153.503C218.929 153.503 209.975 155.815 209.975 155.815L205.295 165.442C205.295 165.442 227.142 159.858 245.233 164.481Z" fill="#3BC90C" stroke="#032100" stroke-width="0.7" stroke-linejoin="round"></path><path d="M185.635 218.179C185.635 218.179 184.323 224.957 185.14 226.779C185.957 228.602 189.102 230.417 190.744 230.417C192.466 230.279 194.175 230.002 195.853 229.588L196.513 219.994L185.635 218.179Z" fill="white" stroke="#032100" stroke-width="0.7" stroke-linejoin="round"></path><path d="M263.076 213.05C263.076 213.05 263.736 220.988 263.241 222.314C262.746 223.639 259.94 226.117 257.967 226.614C256.248 227.076 254.473 227.299 252.693 227.277C252.198 227.111 250.556 215.362 250.556 215.362L263.076 213.05Z" fill="white" stroke="#032100" stroke-width="0.7" stroke-linejoin="round"></path><path d="M194.384 301.091L189.019 305.648C189.019 305.648 184.893 306.477 185.916 309.584C186.395 311.017 193.559 315.806 196.645 316.428C199.732 317.049 205.32 316.428 206.764 314.356C208.208 312.285 207.177 302.541 207.177 302.541L194.384 301.091Z" fill="white" stroke="#032100" stroke-width="0.7" stroke-linejoin="round"></path><path d="M206.772 314.356C207.022 313.937 207.188 313.473 207.259 312.989C204.576 313.776 200.111 314.522 197.066 313.942C194.02 313.362 188.812 309.6 186.064 307.496C185.89 307.812 185.786 308.163 185.76 308.523C185.735 308.884 185.788 309.246 185.916 309.584C186.394 311.017 193.558 315.806 196.645 316.428C199.732 317.049 205.327 316.428 206.772 314.356Z" fill="white" stroke="#032100" stroke-width="0.7" stroke-linejoin="round"></path><path d="M198.716 234.775C198.716 234.775 191.907 235.396 189.844 241.403C187.781 247.41 193.352 295.258 193.352 295.258C193.352 295.258 192.32 298.365 192.526 298.987C192.733 299.608 193.145 302.922 193.145 302.922C193.145 302.922 194.177 304.787 198.716 304.787C201.677 304.699 204.577 303.919 207.184 302.508C207.184 302.508 206.772 296.501 206.772 293.593C206.772 290.685 206.565 284.272 206.565 284.272L210.073 247.592C210.073 247.592 213.168 236.639 198.716 234.775Z" fill="#032100" stroke="#032100" stroke-width="0.7" stroke-linejoin="round"></path><path d="M252.298 301.091L257.671 305.648C257.671 305.648 261.797 306.477 260.766 309.584C260.287 311.017 253.123 315.806 250.036 316.428C246.95 317.049 241.37 316.428 239.918 314.356C238.465 312.285 239.505 302.541 239.505 302.541L252.298 301.091Z" fill="white" stroke="#032100" stroke-width="0.7" stroke-linejoin="round"></path><path d="M239.909 314.356C239.665 313.934 239.501 313.471 239.422 312.989C242.104 313.776 246.569 314.522 249.615 313.942C252.66 313.362 257.868 309.6 260.616 307.496C260.795 307.811 260.901 308.162 260.926 308.523C260.952 308.884 260.897 309.247 260.765 309.584C260.286 311.017 253.122 315.806 250.036 316.428C246.949 317.049 241.361 316.428 239.909 314.356Z" fill="white" stroke="#032100" stroke-width="0.7" stroke-linejoin="round"></path><path d="M247.964 234.775C247.964 234.775 254.773 235.396 256.845 241.403C258.916 247.41 253.329 295.258 253.329 295.258C253.329 295.258 254.36 298.365 254.154 298.987C253.948 299.608 253.535 302.922 253.535 302.922C253.535 302.922 252.503 304.787 247.964 304.787C245.014 304.706 242.124 303.937 239.521 302.541C239.521 302.541 239.934 296.534 239.934 293.626C239.934 290.718 240.148 284.305 240.148 284.305L236.632 247.625C236.632 247.625 233.513 236.639 247.964 234.775Z" fill="#032100" stroke="#032100" stroke-width="0.7" stroke-linejoin="round"></path><path d="M193.055 236.043C193.055 236.043 192.229 241.842 192.559 244.477C192.89 247.112 193.385 250.426 201.638 253.591C209.891 256.756 218.145 258.877 224.706 258.388C231.268 257.899 243.482 254.908 246.165 253.591C248.847 252.274 250.993 249.755 252.767 248.031C254.542 246.308 255.054 240.028 254.724 237.542C254.549 236.128 254.216 234.739 253.733 233.399C253.733 233.399 226.002 240.674 193.055 236.043Z" fill="#032100" stroke="#032100" stroke-width="0.7" stroke-linejoin="round"></path><path d="M208.373 163.761C208.373 163.761 200.466 166.984 196.818 169.792C193.17 172.601 189.564 176.081 189.564 177.075C189.564 178.069 179.85 217.351 179.85 217.351C179.85 217.351 183.638 222.148 191.875 222.968H194.177C194.177 222.968 193.03 234.883 193.03 236.042C193.03 237.202 208.513 242.671 226.638 241.163C244.762 239.655 253.329 235.048 253.659 233.391C253.989 231.734 253.329 228.42 253.329 225.934C253.329 223.449 252.834 218.651 252.834 218.651C252.834 218.651 257.447 219.149 260.914 217.823C264.38 216.497 269.506 211.899 269.506 211.899C269.506 211.899 259.602 181.243 258.132 176.421C256.663 171.599 242.154 162.94 242.154 162.94C242.154 162.94 228.643 158.632 208.373 163.761Z" fill="#3BC90C" stroke="#032100" stroke-width="0.7" stroke-linejoin="round"></path><path d="M193.715 184.308L197.693 200.979" stroke="#032100" stroke-width="0.7" stroke-linejoin="round"></path><path d="M252.999 190.879L250.49 200.979" stroke="#032100" stroke-width="0.7" stroke-linejoin="round"></path><path d="M254.468 184.979L253.742 187.904" stroke="#032100" stroke-width="0.7" stroke-linejoin="round"></path><path d="M194.054 196.206L195.349 234.104C195.349 234.104 224.954 240.798 252.537 234.104L254.757 196.761C254.757 196.761 204.973 198.642 194.054 196.206Z" fill="#2CA700"></path><path d="M195.349 234.104L190.166 313.959" stroke="#032100" stroke-width="0.7" stroke-linecap="round" stroke-linejoin="round"></path><path d="M252.372 234.104L257.555 313.959" stroke="#032100" stroke-width="0.7" stroke-linecap="round" stroke-linejoin="round"></path><path d="M194.276 248.156C194.276 248.156 210.222 256.64 225.284 256.391C240.966 256.159 253.164 248.015 253.164 248.015L253.989 256.731C253.989 256.731 226.753 268.157 194.037 256.193L194.276 248.156Z" fill="#2CA700"></path><path d="M129.257 307.272C127.607 308.043 123.777 311.415 120.699 312.086C117.62 312.757 111.463 312.086 110.44 310.371C109.524 308.838 113.741 305.938 115.92 303.378C116.165 303.089 116.391 302.785 116.597 302.467C118.305 299.716 119.329 294.223 119.329 294.223L112.833 248.197L129.257 250.6L128.572 291.132C128.572 291.132 131.502 296.369 132.336 300.404C133.103 304.14 132.658 305.731 129.257 307.272Z" fill="white" stroke="#032100" stroke-width="0.7" stroke-linejoin="round"></path><path d="M129.257 307.272C127.606 308.043 123.777 311.415 120.698 312.086C117.62 312.757 111.463 312.086 110.439 310.371C110.381 310.278 110.342 310.173 110.324 310.064C110.035 308.482 113.898 305.781 115.92 303.378L116.745 304.207C116.745 304.207 119.279 300.296 120.129 298.597C120.979 296.899 121.821 294.521 123.678 292.798C125.535 291.074 128.564 291.083 128.564 291.083C128.564 291.083 131.494 296.319 132.327 300.354C132.449 300.917 132.54 301.487 132.6 302.061C132.864 304.695 132.088 305.996 129.257 307.272Z" fill="white" stroke="#032100" stroke-width="0.7" stroke-linejoin="round"></path><path d="M129.257 307.272C127.607 308.043 123.777 311.415 120.699 312.086C117.62 312.757 111.463 312.086 110.44 310.371C110.381 310.278 110.342 310.173 110.324 310.064C112.451 311.199 114.875 311.647 117.265 311.349C121.994 310.661 122.506 306.087 128.762 303.063C129.928 302.388 131.264 302.068 132.608 302.144C132.864 304.695 132.088 305.996 129.257 307.272Z" fill="white" stroke="#032100" stroke-width="0.7" stroke-linejoin="round"></path><path d="M139.07 307.272C140.721 308.043 144.551 311.415 147.629 312.086C150.708 312.757 156.873 312.086 157.896 310.371C158.804 308.838 154.595 305.938 152.416 303.378C152.169 303.091 151.943 302.786 151.739 302.467C150.031 299.716 148.999 294.223 148.999 294.223L155.503 248.197L139.07 250.6L139.755 291.132C139.755 291.132 136.834 296.369 135.992 300.404C135.224 304.14 135.678 305.731 139.07 307.272Z" fill="white" stroke="#032100" stroke-width="0.7" stroke-linejoin="round"></path><path d="M139.07 307.272C140.721 308.043 144.55 311.415 147.629 312.086C150.707 312.757 156.872 312.086 157.896 310.371C157.954 310.278 157.994 310.173 158.011 310.064C158.292 308.482 154.438 305.781 152.416 303.378L151.59 304.207C151.59 304.207 149.056 300.296 148.215 298.597C147.373 296.899 146.514 294.521 144.657 292.798C142.8 291.074 139.771 291.083 139.771 291.083C139.771 291.083 136.85 296.319 136.008 300.354C135.888 300.917 135.8 301.487 135.744 302.061C135.463 304.695 136.247 305.996 139.07 307.272Z" fill="white" stroke="#032100" stroke-width="0.7" stroke-linejoin="round"></path><path d="M139.07 307.272C140.721 308.043 144.551 311.415 147.629 312.086C150.708 312.757 156.873 312.086 157.896 310.371C157.955 310.278 157.994 310.173 158.012 310.064C155.884 311.197 153.461 311.645 151.071 311.349C146.342 310.661 145.822 306.087 139.566 303.063C138.403 302.389 137.069 302.069 135.728 302.144C135.464 304.696 136.248 305.996 139.07 307.272Z" fill="white" stroke="#032100" stroke-width="0.7" stroke-linejoin="round"></path><path d="M117.265 166.768C117.265 166.768 107.361 170.977 107.179 172.841C106.998 174.706 100.667 199.164 100.205 201.965C99.7431 204.765 97.102 211.468 99.1158 214.268C101.13 217.069 104.703 218.941 107.031 219.099C107.634 219.189 108.249 219.123 108.819 218.905C109.388 218.687 109.892 218.326 110.283 217.856L108.294 231.56C108.294 231.56 105.19 241.213 105.966 245.107C106.742 249.001 109.383 252.895 124.123 256.168C138.864 259.441 147.398 257.725 152.829 255.232C158.259 252.738 164.771 249.622 165.39 245.728C166.009 241.834 163.533 229.53 163.533 229.53L162.287 216.274C162.287 216.274 169.715 216.116 172.529 212.529C175.344 208.941 174.386 205.37 173.305 202.255C172.224 199.139 168.964 187.772 167.874 183.72C166.785 179.669 166.009 172.659 164.771 170.952C163.533 169.246 150.963 166.437 150.963 166.437C150.963 166.437 134.795 160.388 117.265 166.768Z" fill="#3BC90C" stroke="#032100" stroke-width="0.7" stroke-linejoin="round"></path><path d="M112.989 193.886L114.937 203.058" stroke="#032100" stroke-width="0.7" stroke-linejoin="round"></path><path d="M111.529 187.018L112.239 190.365" stroke="#032100" stroke-width="0.7" stroke-linejoin="round"></path><path d="M162.881 188.103L160.554 202.279" stroke="#032100" stroke-width="0.7" stroke-linejoin="round"></path><path d="M165.357 245.728C165.869 242.513 164.268 233.54 163.706 230.533C145.235 235.736 119.089 232.322 108.409 230.533L108.261 231.535C108.261 231.535 105.157 241.188 105.933 245.082C106.709 248.976 109.35 252.87 124.09 256.143C138.831 259.416 147.365 257.701 152.796 255.207C158.226 252.713 164.738 249.622 165.357 245.728Z" fill="#032100" stroke="#032100" stroke-width="0.7" stroke-linejoin="round"></path><path d="M120.591 136.062C120.591 136.062 119.766 133.287 118.247 135.64C116.729 137.993 118.247 142.053 119.312 143.337C120.39 144.381 121.627 145.246 122.977 145.897L124.421 144.19L120.591 136.062Z" fill="white" stroke="#032100" stroke-width="0.7" stroke-linejoin="round"></path><path d="M150.212 136.062C150.212 136.062 151.037 133.287 152.556 135.64C154.074 137.993 152.556 142.053 151.491 143.337C150.414 144.381 149.176 145.246 147.827 145.897L146.374 144.19L150.212 136.062Z" fill="white" stroke="#032100" stroke-width="0.7" stroke-linejoin="round"></path><path d="M126.45 151.001L120.863 177.465C123.493 180.127 126.892 181.89 130.577 182.502C138.195 183.571 144.162 182.229 149.807 177.316C148.883 168.964 146.151 149.36 146.151 149.36L148.974 143.296C150.514 140.069 151.251 136.515 151.12 132.939C151.024 130.257 150.255 127.644 148.883 125.341C144.385 117.884 134.918 116.153 131.196 118.332C127.474 120.511 126.541 123.303 126.541 123.303C126.541 123.303 120.962 121.124 120.186 128.274C119.41 135.424 120.591 142.243 122.976 145.872L126.45 151.001Z" fill="#032100" stroke="#032100" stroke-width="0.7" stroke-linejoin="round"></path><path d="M135.712 123.444C135.023 123.459 134.345 123.619 133.722 123.914C133.099 124.21 132.545 124.634 132.097 125.159C131.339 126.286 131.044 127.663 131.271 129.003C132.329 127.868 133.778 127.181 135.324 127.081C135.982 127.069 136.63 127.243 137.195 127.583C137.76 127.923 138.218 128.415 138.518 129.003C138.518 129.003 140.399 125.159 135.712 123.444Z" fill="white" stroke="#032100" stroke-width="0.7" stroke-linejoin="round"></path><path d="M105.727 196.206L107.022 234.104C107.022 234.104 136.635 240.798 164.21 234.104L166.43 196.761C166.43 196.761 116.646 198.642 105.727 196.206Z" fill="#2CA700"></path><path d="M107.023 234.104L101.84 313.959" stroke="#032100" stroke-width="0.7" stroke-linecap="round" stroke-linejoin="round"></path><path d="M164.053 234.104L169.236 313.959" stroke="#032100" stroke-width="0.7" stroke-linecap="round" stroke-linejoin="round"></path><path d="M105.949 248.156C105.949 248.156 121.895 256.615 136.957 256.392C152.638 256.16 164.845 248.015 164.845 248.015L165.67 256.731C165.67 256.731 138.434 268.157 105.71 256.193L105.949 248.156Z" fill="#2CA700"></path><path d="M275.566 238.54C275.566 238.54 274.46 245.409 274.27 245.997C274.08 246.585 271.126 252.866 270.754 254.539C270.383 256.213 272.793 257.141 274.27 257.141C275.747 257.141 283.894 257.696 284.818 256.959C285.742 256.221 286.675 253.794 286.469 251.938C286.262 250.082 284.991 238.747 284.991 238.747L275.566 238.54Z" fill="white" stroke="#032100" stroke-width="0.7" stroke-linejoin="round"></path><path d="M324.244 239.659C324.244 239.659 326.464 243.188 327.545 244.116C328.626 245.044 335.32 251.921 337.54 252.659C339.76 253.396 339.389 255.078 338.093 256.379C336.797 257.68 329.765 257.307 326.068 256.934C322.37 256.561 318.112 256.934 317.559 256.727C317.006 256.52 313.49 256.545 311.823 255.608C310.156 254.672 310.898 247.812 310.898 247.812L324.244 239.659Z" fill="white" stroke="#032100" stroke-width="0.7" stroke-linejoin="round"></path><path d="M284.817 117.706C284.817 117.706 280.567 134.799 280.963 146.473C281.359 158.147 278.743 188.281 278.743 189.209C278.743 190.137 276.713 195.522 276.713 200.543C276.713 205.564 276.151 233.867 276.151 233.867C276.151 233.867 273.931 234.24 274.303 236.287C274.674 238.333 275.045 241.299 275.045 241.299C275.045 241.299 278.347 241.482 280.963 241.854C282.565 242.074 284.194 242.013 285.775 241.672C285.775 241.672 287.425 237.024 287.632 234.613C287.838 232.202 287.26 231.382 287.26 228.598C287.26 225.814 303.173 145.744 303.173 145.744L309.099 192.929C309.099 192.929 309.47 216.874 310.584 223.585C311.239 227.419 311.609 231.296 311.69 235.185C311.69 235.185 311.137 240.197 310.956 240.761C310.774 241.324 310.031 241.689 310.394 243.172C310.682 244.707 310.87 246.26 310.956 247.82C313.116 246.481 315.409 245.371 317.798 244.506C321.495 243.205 325.754 241.192 325.754 241.192C325.419 239.909 325.171 238.605 325.011 237.289C325.011 236.361 324.087 235.988 324.087 235.251C324.087 234.514 325.572 201.173 326.125 189.466C326.678 177.759 326.678 137.077 326.678 137.077L322.23 117.706L321.305 113.986L285.585 113.803L284.817 117.706Z" fill="#032100" stroke="#032100" stroke-width="0.7" stroke-linejoin="round"></path><path d="M289.439 117.54C289.439 117.54 299.401 120.573 306.35 119.968C313.299 119.363 316.312 117.996 316.312 117.996L318.103 93.5953L319.465 60.4039L319.613 54.9521C319.613 54.9521 310.411 52.2179 307.687 51.9196C304.964 51.6214 296.826 51.174 296.826 51.174L287.747 56.1452L289.439 117.54Z" fill="white" stroke="#032100" stroke-width="0.7" stroke-linejoin="round"></path><path d="M296.059 42.9051L296.843 51.1905C297.2 52.4333 297.757 53.6089 298.493 54.6704C299.616 56.1286 303.528 58.9374 303.528 58.9374L305.426 65.2177L307.324 58.7137C308.758 58.0773 309.967 57.0201 310.791 55.6812C311.652 53.948 312.256 52.0972 312.582 50.188L313.027 46.1447C313.027 46.1447 308.447 47.8018 304.98 46.9733C301.514 46.1447 296.059 42.9051 296.059 42.9051Z" fill="white" stroke="#032100" stroke-width="0.7" stroke-linejoin="round"></path><path d="M303.552 58.9208L300.003 66.9245L297.891 61.9201" stroke="#032100" stroke-width="0.7" stroke-linejoin="round"></path><path d="M307.349 58.6971L310.122 65.864L312.086 62.8315" stroke="#032100" stroke-width="0.7" stroke-linejoin="round"></path><path d="M292.741 33.3769C292.741 33.3769 290.62 31.3552 289.985 34.4457C289.349 37.5362 291.899 40.0881 292.642 40.5106C293.279 40.8197 293.958 41.0345 294.656 41.1486C295.429 43.3879 296.741 45.4003 298.477 47.0064C301.127 49.2435 305.369 51.5882 310.676 49.3512C315.983 47.1141 315.553 40.5106 315.24 35.3985C314.926 30.2864 313.754 21.131 312.054 17.7257C310.354 14.3204 303.669 13.3593 298.37 14.5276C293.071 15.6958 290.414 21.4459 290.199 24.6441C289.985 27.8422 292.741 33.3769 292.741 33.3769Z" fill="white" stroke="#032100" stroke-width="0.7" stroke-linejoin="round"></path><path d="M292.74 33.3769C292.376 33.0323 291.915 32.807 291.42 32.7306L292.74 33.3769Z" fill="white" stroke="#032100" stroke-width="0.7" stroke-linejoin="round"></path><path d="M298.477 47.0478C301.126 49.2849 305.368 51.6297 310.675 49.3926C315.982 47.1555 315.553 40.5521 315.239 35.44C315.173 34.4623 315.082 33.3355 314.958 32.1258L314.917 32.0346L313.753 40.3201C313.753 40.3201 313.432 39.4915 310.147 37.445C306.862 35.3985 303.775 37.445 302.083 38.5056C300.814 39.3745 299.638 40.3742 298.576 41.4883C297.26 40.7307 296.221 39.5689 295.613 38.1741C294.884 36.5892 294.416 34.8964 294.226 33.1615C294.226 33.1615 296.347 30.6096 295.712 28.795C295.076 26.9805 294.548 27.6268 294.127 25.4809C293.706 23.335 293.17 21.0068 294.655 19.7308C296.141 18.4548 299.962 18.3471 301.547 19.4077C303.131 20.4682 304.625 21.1145 306.433 20.0457C308.24 18.9768 308.975 17.8086 310.246 18.1317C311.184 18.5067 312.052 19.039 312.813 19.7059C312.612 19.0213 312.358 18.3536 312.053 17.7092C310.353 14.2956 303.668 13.3428 298.369 14.511C293.071 15.6792 290.413 21.4293 290.198 24.6275C289.984 27.8257 292.74 33.3603 292.74 33.3603L294.655 41.132C295.419 43.3921 296.733 45.4254 298.477 47.0478Z" fill="#032100" stroke="#032100" stroke-width="0.7" stroke-linejoin="round"></path><path d="M306.853 27.3037C306.853 27.3037 307.274 34.976 308.339 36.5751C309.404 38.1741 309.296 38.8121 307.596 38.489C305.896 38.1659 304.295 36.3596 304.295 35.2991" fill="white"></path><path d="M306.853 27.3037C306.853 27.3037 307.274 34.976 308.339 36.5751C309.404 38.1741 309.296 38.8121 307.596 38.489C305.896 38.1659 304.295 36.3596 304.295 35.2991" stroke="#032100" stroke-width="0.7" stroke-linejoin="round"></path><path d="M302.826 40.0881C302.826 40.0881 304.947 42.7477 309.718 41.2563" stroke="white" stroke-width="0.7" stroke-linecap="round" stroke-linejoin="round"></path><path d="M301.861 31.1398C301.985 31.9684 301.754 32.6726 301.333 32.7389C300.912 32.8052 300.507 32.1921 300.351 31.3801C300.194 30.5681 300.466 29.8473 300.879 29.781C301.291 29.7147 301.737 30.3279 301.861 31.1398Z" fill="#032100"></path><path d="M311.113 30.477C311.245 31.3055 311.006 32.0015 310.585 32.0678C310.164 32.1341 309.759 31.5209 309.603 30.709C309.446 29.897 309.718 29.1762 310.131 29.1099C310.543 29.0436 310.989 29.6484 311.113 30.477Z" fill="#032100"></path><path d="M298.584 27.8422C298.584 27.8422 299.731 26.6905 302.48 26.616" stroke="#032100" stroke-width="0.7" stroke-linecap="round" stroke-linejoin="round"></path><path d="M308.298 26.2266C308.298 26.2266 309.75 24.6192 312.425 26.6905" stroke="#032100" stroke-width="0.7" stroke-linecap="round" stroke-linejoin="round"></path><path d="M314.802 29.9136C314.802 29.9136 316.337 29.1513 316.56 31.6784C316.665 33.2858 316.295 34.8887 315.495 36.2851L314.802 29.9136Z" fill="white" stroke="#032100" stroke-width="0.7" stroke-linejoin="round"></path><path d="M265.43 72.7326C265.43 72.7326 263.639 67.4548 263.78 67.0074C263.754 65.4571 263.411 63.9286 262.773 62.5167C262.104 61.3982 262.212 61.7379 261.205 60.0311C260.198 58.3243 258.729 56.2198 258.415 55.325C258.101 54.4301 256.962 56.6672 257.631 58.0177C258.299 59.3682 259.868 61.7213 259.868 61.7213C259.479 61.7745 259.084 61.6957 258.745 61.4976C258.388 61.2818 258.016 61.0935 257.631 60.9342L255.733 59.9233C255.733 59.9233 252.828 57.3383 252.374 57.1146C251.92 56.8909 250.03 51.1657 249.023 51.8451C248.016 52.5245 249.138 53.9744 249.246 55.093C249.616 57.214 250.101 59.3132 250.698 61.3816C250.921 61.945 253.38 65.1929 254.726 66.9908C255.976 68.4393 257.404 69.7228 258.976 70.8104L260.982 77.6541L265.43 72.7326Z" fill="white" stroke="#032100" stroke-width="0.7" stroke-linejoin="round"></path><path d="M254.816 65.7148C254.816 65.7148 254.891 64.0578 255.039 63.1132C255.188 62.1687 257.515 56.3275 257.911 57.1229C258.306 58.0374 258.359 59.064 258.06 60.0145C257.771 60.5862 256.904 62.6824 256.904 62.6824L257.73 65.864C257.73 65.864 259.818 66.0794 260.751 66.9411C261.445 67.7637 261.959 68.7234 262.261 69.7581" fill="white"></path><path d="M254.816 65.7148C254.816 65.7148 254.891 64.0578 255.039 63.1132C255.188 62.1687 257.515 56.3275 257.911 57.1229C258.306 58.0374 258.359 59.064 258.06 60.0145C257.771 60.5862 256.904 62.6824 256.904 62.6824L257.73 65.864C257.73 65.864 259.818 66.0794 260.751 66.9411C261.445 67.7637 261.959 68.7234 262.261 69.7581" stroke="#032100" stroke-width="0.7" stroke-linejoin="round"></path><path d="M253.727 64.5632C253.727 64.5632 252.901 62.6078 253 61.6716C253.099 60.7353 254.585 54.9604 254.585 54.9604C254.585 54.9604 255.592 54.455 255.666 55.5321C255.583 57.0936 255.343 58.6426 254.948 60.1553C254.892 61.1417 254.917 62.131 255.023 63.1132" fill="white"></path><path d="M253.727 64.5632C253.727 64.5632 252.901 62.6078 253 61.6716C253.099 60.7353 254.585 54.9604 254.585 54.9604C254.585 54.9604 255.592 54.455 255.666 55.5321C255.583 57.0936 255.343 58.6426 254.948 60.1553C254.892 61.1417 254.917 62.131 255.023 63.1132" stroke="#032100" stroke-width="0.7" stroke-linejoin="round"></path><path d="M252.952 62.2515C252.952 62.2515 251.441 60.3045 251.441 59.2854C251.509 56.968 251.7 54.6559 252.011 52.3588C252.234 51.7042 252.836 51.8533 253.018 53.5104C253.107 55.0796 253.035 56.6538 252.803 58.2083L253.381 59.9399" fill="white"></path><path d="M252.952 62.2515C252.952 62.2515 251.441 60.3045 251.441 59.2854C251.509 56.968 251.7 54.6559 252.011 52.3588C252.234 51.7042 252.836 51.8533 253.018 53.5104C253.107 55.0796 253.035 56.6538 252.803 58.2083L253.381 59.9399" stroke="#032100" stroke-width="0.7" stroke-linejoin="round"></path><path d="M296.397 50.1714L296.958 71.2661C296.958 71.2661 298.856 97.7794 299.302 101.45C299.747 105.12 294.275 143.987 294.275 143.987C294.275 143.987 288.011 143.084 281.532 141.626C275.053 140.168 272.454 138.709 272.454 138.709L282.201 99.9916C282.201 99.9916 272.363 110.763 271.694 110.995C271.026 111.227 270.465 110.995 269.565 109.644C268.665 108.294 257.854 78.1098 257.854 78.1098L265.455 72.7243L272.949 84.9536C272.949 84.9536 277.414 60.1553 277.901 59.2688C278.388 58.3823 296.397 50.1714 296.397 50.1714Z" fill="#3BC90C" stroke="#032100" stroke-width="0.7" stroke-linejoin="round"></path><path d="M292.369 52.6322C292.369 52.6322 289.893 67.9022 291.593 75.8314C293.294 83.7605 297.965 98.724 297.965 98.724" stroke="#032100" stroke-width="0.7" stroke-linejoin="round"></path><path d="M282.201 99.9916L282.985 96.0643L280.188 68.0099" stroke="#032100" stroke-width="0.7" stroke-linejoin="round"></path><path d="M272.925 84.9536L275.046 91.5736" stroke="#032100" stroke-width="0.7" stroke-linejoin="round"></path><path d="M353.593 74.978C353.593 74.978 356.828 70.4541 356.853 70.0067C357.326 68.5317 358.096 67.1697 359.114 66.0049C360.08 65.1266 359.874 65.4166 361.326 64.0992C362.733 62.9367 364.08 61.7033 365.362 60.4039C365.948 59.6417 366.369 62.1107 365.362 63.2044C364.355 64.2981 362.151 66.096 362.151 66.096C362.503 66.2678 362.903 66.3089 363.282 66.212C363.686 66.1091 364.097 66.0371 364.512 65.9966L366.625 65.5823C366.625 65.5823 370.149 63.9666 370.644 63.8755C371.139 63.7844 374.614 58.9042 375.382 59.8074C376.149 60.7105 374.655 61.8207 374.226 62.8564C373.262 64.7798 372.19 66.647 371.016 68.4491C370.644 68.9213 367.343 71.3158 365.544 72.6415C363.93 73.6632 362.194 74.4761 360.377 75.0608L356.457 81.018L353.593 74.978Z" fill="white" stroke="#032100" stroke-width="0.7" stroke-linejoin="round"></path><path d="M365.782 71.3655C365.782 71.3655 366.195 69.7499 366.327 68.8136C366.459 67.8774 365.947 61.6053 365.312 62.2433C364.663 62.9967 364.316 63.9652 364.338 64.9609C364.445 65.5989 364.668 67.8525 364.668 67.8525L363.017 70.6613C361.954 70.4443 360.853 70.4984 359.815 70.8187C358.911 71.4005 358.14 72.1687 357.554 73.0723" fill="white"></path><path d="M365.782 71.3655C365.782 71.3655 366.195 69.7499 366.327 68.8136C366.459 67.8774 365.947 61.6053 365.312 62.2433C364.663 62.9967 364.316 63.9652 364.338 64.9609C364.445 65.5989 364.668 67.8525 364.668 67.8525L363.017 70.6613C361.954 70.4443 360.853 70.4984 359.815 70.8187C358.911 71.4005 358.14 72.1687 357.554 73.0723" stroke="#032100" stroke-width="0.7" stroke-linejoin="round"></path><path d="M367.152 70.5701C367.152 70.5701 368.539 68.9627 368.671 68.0182C368.803 67.0737 369.1 61.133 369.1 61.133C369.1 61.133 368.275 60.3542 367.904 61.3733C367.529 62.8907 367.31 64.4427 367.252 66.0049C367.02 66.9647 366.711 67.904 366.327 68.8136" fill="white"></path><path d="M367.152 70.5701C367.152 70.5701 368.539 68.9627 368.671 68.0182C368.803 67.0737 369.1 61.133 369.1 61.133C369.1 61.133 368.275 60.3542 367.904 61.3733C367.529 62.8907 367.31 64.4427 367.252 66.0049C367.02 66.9647 366.711 67.904 366.327 68.8136" stroke="#032100" stroke-width="0.7" stroke-linejoin="round"></path><path d="M368.572 68.5899C368.572 68.5899 370.586 67.1648 370.875 66.1954C371.484 63.9595 371.969 61.6913 372.328 59.4014C372.328 58.7137 371.717 58.6806 371.032 60.2299C370.499 61.7038 370.114 63.2276 369.885 64.7786L368.828 66.27" fill="white"></path><path d="M368.572 68.5899C368.572 68.5899 370.586 67.1648 370.875 66.1954C371.484 63.9595 371.969 61.6913 372.328 59.4014C372.328 58.7137 371.717 58.6806 371.032 60.2299C370.499 61.7038 370.114 63.2276 369.885 64.7786L368.828 66.27" stroke="#032100" stroke-width="0.7" stroke-linejoin="round"></path><path d="M312.606 50.1714C312.903 56.7656 312.829 63.3712 312.384 69.957C311.632 78.5904 308.612 100.572 308.917 101.176C309.222 101.781 313.44 143.432 313.44 143.432C313.44 143.432 322.048 143.739 326.876 142.678C329.821 142.029 332.702 141.116 335.485 139.952C335.485 139.952 324.466 99.2459 324.31 98.5997C324.153 97.9534 325.96 92.6839 325.96 92.6839C325.96 92.6839 336.69 104.963 338.489 104.665C340.288 104.366 359.188 79.3609 359.188 79.3609L353.304 72.9894L340.164 84.3322C340.164 84.3322 331.713 63.4198 330.805 61.597C329.849 59.983 328.68 58.5059 327.33 57.2057C326.876 56.7666 312.606 50.1714 312.606 50.1714Z" fill="#3BC90C" stroke="#032100" stroke-width="0.7" stroke-linejoin="round"></path><path d="M316.312 53.2784C317.348 59.0187 317.551 64.8792 316.915 70.6778C315.858 80.38 309.974 99.3205 309.974 99.3205" stroke="#032100" stroke-width="0.7" stroke-linejoin="round"></path><path d="M325.977 92.6839L329.443 71.0175" stroke="#032100" stroke-width="0.7" stroke-linejoin="round"></path><path d="M340.164 84.3488L340.016 90.4137" stroke="#032100" stroke-width="0.7" stroke-linejoin="round"></path><path d="M351.116 1.55191H329.145C327.692 1.55191 326.298 2.13153 325.27 3.16327C324.242 4.195 323.665 5.59433 323.665 7.05343V21.7683C323.665 23.2274 324.242 24.6267 325.27 25.6585C326.298 26.6902 327.692 27.2698 329.145 27.2698H331.968L328.328 34.5693L338.232 27.2698H351.116C352.569 27.2698 353.963 26.6902 354.991 25.6585C356.018 24.6267 356.596 23.2274 356.596 21.7683V7.05343C356.596 5.59433 356.018 4.195 354.991 3.16327C353.963 2.13153 352.569 1.55191 351.116 1.55191Z" fill="white" stroke="#032100" stroke-width="0.7" stroke-linejoin="round"></path><path d="M333.131 16.0182C334.016 16.0182 334.733 15.2986 334.733 14.4109C334.733 13.5231 334.016 12.8035 333.131 12.8035C332.247 12.8035 331.53 13.5231 331.53 14.4109C331.53 15.2986 332.247 16.0182 333.131 16.0182Z" fill="#032100" stroke="#032100" stroke-width="0.7" stroke-linejoin="round"></path><path d="M340.114 16.0182C340.998 16.0182 341.715 15.2986 341.715 14.4109C341.715 13.5231 340.998 12.8035 340.114 12.8035C339.23 12.8035 338.513 13.5231 338.513 14.4109C338.513 15.2986 339.23 16.0182 340.114 16.0182Z" fill="#032100" stroke="#032100" stroke-width="0.7" stroke-linejoin="round"></path><path d="M347.104 16.0182C347.988 16.0182 348.705 15.2986 348.705 14.4109C348.705 13.5231 347.988 12.8035 347.104 12.8035C346.22 12.8035 345.503 13.5231 345.503 14.4109C345.503 15.2986 346.22 16.0182 347.104 16.0182Z" fill="#032100" stroke="#032100" stroke-width="0.7" stroke-linejoin="round"></path></svg>