<svg xmlns="http://www.w3.org/2000/svg" width="620" height="377" viewBox="0 0 620 377" fill="none"><path d="M583.597 311H540.395L535 263H589L583.597 311Z" fill="#2CA700"></path><path d="M579.018 203.346C574.787 206.586 575.008 202.111 585.946 184.366C591.071 176.061 601.85 159.281 608.888 168.57C615.646 177.497 588.825 195.845 588.825 195.845L579.018 203.346ZM590.259 213.488C590.259 213.488 621.58 204.843 618.093 194.212C614.457 183.135 598.804 195.506 591.259 201.704C575.171 214.922 573.46 219.075 578.549 217.393L590.259 213.488ZM583.585 233.978C583.585 233.978 608.793 231.91 607.659 223.266C606.489 214.278 592.728 221.476 586.062 225.11C571.841 232.887 569.936 235.818 574.082 235.256L583.585 233.978ZM577.654 254.863C577.654 254.863 602.852 252.754 601.72 244.146C600.541 235.153 586.785 242.342 580.122 245.99C565.907 253.758 563.988 256.693 568.134 256.131L577.654 254.863ZM568.286 200.208C568.286 200.208 551.189 172.577 541.96 178.913C532.357 185.51 548.625 197.055 556.691 202.545C573.895 214.278 578.361 214.747 575.32 210.335L568.286 200.208ZM563.332 216.469C563.332 216.469 541.081 192.797 533.29 200.84C525.199 209.212 543.459 217.255 552.437 221.076C571.631 229.157 576.108 228.735 572.253 225.013L563.332 216.469ZM560.263 235.602C560.263 235.602 540.903 216.091 534.503 223.074C527.868 230.354 543.465 236.755 551.164 239.747C567.579 246.128 571.354 245.668 568.009 242.618L560.263 235.602ZM556.254 250.491C556.254 250.491 539.078 229.032 531.975 235.297C524.579 241.825 539.435 249.858 546.765 253.643C562.416 261.735 566.181 261.66 563.215 258.283L556.254 250.491ZM579.96 176.947C579.96 176.947 588.517 139.59 573.621 138.455C558.171 137.323 563.528 159.639 566.393 170.522C572.505 193.736 576.459 197.447 577.52 191.249L579.96 176.947Z" fill="#56E22F"></path><path d="M572.121 152.496C572.121 152.496 579.075 198.529 575.925 217.625C572.308 239.576 565.127 262.446 556.203 279.593" stroke="#2CA700" stroke-linecap="round" stroke-linejoin="round"></path><path d="M576.895 204.511L597.972 177.102" stroke="#2CA700" stroke-linecap="round" stroke-linejoin="round"></path><path d="M575.928 217.616L603.443 200.406" stroke="#2CA700" stroke-linecap="round" stroke-linejoin="round"></path><path d="M576.252 212.834L552.774 191.495" stroke="#2CA700" stroke-linecap="round" stroke-linejoin="round"></path><path d="M572.573 234.678L598.93 226.131" stroke="#2CA700" stroke-linecap="round" stroke-linejoin="round"></path><path d="M573.884 227.478L553.823 215.301" stroke="#2CA700" stroke-linecap="round" stroke-linejoin="round"></path><path d="M569.058 244.437L553.227 235.835" stroke="#2CA700" stroke-linecap="round" stroke-linejoin="round"></path><path d="M566.683 255.668L581.537 249.558" stroke="#2CA700" stroke-linecap="round" stroke-linejoin="round"></path><path d="M564.843 260.136L547.279 248.465" stroke="#2CA700" stroke-linecap="round" stroke-linejoin="round"></path><path d="M0 311L615 311" stroke="#032100" stroke-linejoin="round"></path><path d="M101.07 5.54631H519.92C522.472 5.54875 524.92 6.56378 526.724 8.36861C528.529 10.1734 529.544 12.6206 529.547 15.173V289.917H91.3877V15.173C91.3889 13.9045 91.6405 12.6487 92.1282 11.4777C92.6159 10.3067 93.33 9.24344 94.2295 8.34903C95.1291 7.45462 96.1964 6.74663 97.3702 6.26567C98.544 5.78471 99.8012 5.54025 101.07 5.54631Z" fill="#3BC90C" stroke="#032100" stroke-width="0.7" stroke-linecap="round" stroke-linejoin="round"></path><path d="M462.049 276.228H160.949V291.06H462.049V276.228Z" fill="#032100" stroke="#032100" stroke-width="0.7" stroke-linecap="round" stroke-linejoin="round"></path><path d="M462.049 283.367H160.949V291.059H462.049V283.367Z" fill="white" stroke="#032100" stroke-width="0.7" stroke-linecap="round" stroke-linejoin="round"></path><path d="M56.0039 299.857C56.0039 299.857 60.9508 305.9 75.7825 310.847H547.207C547.207 310.847 558.197 308.084 563.144 300.401L56.0039 299.857Z" fill="#032100" stroke="#032100" stroke-width="0.7" stroke-linecap="round" stroke-linejoin="round"></path><path d="M562.471 289.033H56.7411C55.7795 289.033 55 289.812 55 290.774V298.844C55 299.805 55.7795 300.585 56.7411 300.585H562.471C563.433 300.585 564.213 299.805 564.213 298.844V290.774C564.213 289.812 563.433 289.033 562.471 289.033Z" fill="#3BC90C" stroke="#032100" stroke-width="0.7" stroke-linecap="round" stroke-linejoin="round"></path><path d="M310.399 17.9828C312.521 17.9828 314.241 16.2629 314.241 14.1413C314.241 12.0197 312.521 10.2998 310.399 10.2998C308.277 10.2998 306.558 12.0197 306.558 14.1413C306.558 16.2629 308.277 17.9828 310.399 17.9828Z" fill="#032100"></path><path d="M511.777 27.7569H109.205V255.261H511.777V27.7569Z" fill="white" stroke="#032100" stroke-width="0.7" stroke-linecap="round" stroke-linejoin="round"></path><path d="M511.777 27.7569H109.205V41.5291H511.777V27.7569Z" fill="#2CA700" stroke="#032100" stroke-width="0.7" stroke-linecap="round" stroke-linejoin="round"></path><path d="M479.542 146.023H313.271V239.969H479.542V146.023Z" stroke="#032100" stroke-width="0.7" stroke-linecap="round" stroke-linejoin="round"></path><path d="M479.542 228.675H313.271V239.969H479.542V228.675Z" stroke="#032100" stroke-width="0.7" stroke-linecap="round" stroke-linejoin="round"></path><path d="M479.542 232.811H313.271V235.832H479.542V232.811Z" stroke="#032100" stroke-width="0.7" stroke-linecap="round" stroke-linejoin="round"></path><path d="M397.296 205.727C407.003 205.727 414.872 197.858 414.872 188.15C414.872 178.443 407.003 170.573 397.296 170.573C387.588 170.573 379.719 178.443 379.719 188.15C379.719 197.858 387.588 205.727 397.296 205.727Z" stroke="#032100" stroke-width="0.7" stroke-linecap="round" stroke-linejoin="round"></path><path d="M410.801 188.224L388.186 175.17V201.287L410.801 188.224Z" stroke="#032100" stroke-width="0.7" stroke-linecap="round" stroke-linejoin="round"></path><path d="M479.394 58.0465H313.547V136.534H479.394V58.0465Z" stroke="#032100" stroke-width="0.7" stroke-linecap="round" stroke-linejoin="round"></path><path d="M313.547 136.534L373.408 89.8562L405.807 107.977L444.249 73.9283L479.394 96.4429" stroke="#032100" stroke-width="0.7" stroke-linecap="round" stroke-linejoin="round"></path><path d="M335.519 92.0487C342.189 92.0487 347.596 86.6415 347.596 79.9715C347.596 73.3015 342.189 67.8943 335.519 67.8943C328.849 67.8943 323.441 73.3015 323.441 79.9715C323.441 86.6415 328.849 92.0487 335.519 92.0487Z" stroke="#032100" stroke-width="0.7" stroke-linecap="round" stroke-linejoin="round"></path><path d="M154.842 149.708H142.765V237.574H154.842V149.708Z" stroke="#032100" stroke-width="0.7" stroke-linecap="round" stroke-linejoin="round"></path><path d="M172.419 189.256H160.342V237.583H172.419V189.256Z" stroke="#032100" stroke-width="0.7" stroke-linecap="round" stroke-linejoin="round"></path><path d="M189.985 202.982H177.908V237.583H189.985V202.982Z" stroke="#032100" stroke-width="0.7" stroke-linecap="round" stroke-linejoin="round"></path><path d="M207.563 175.52H195.485V237.574H207.563V175.52Z" stroke="#032100" stroke-width="0.7" stroke-linecap="round" stroke-linejoin="round"></path><path d="M225.131 181.563H213.054V237.574H225.131V181.563Z" stroke="#032100" stroke-width="0.7" stroke-linecap="round" stroke-linejoin="round"></path><path d="M242.707 225.496H230.63V237.574H242.707V225.496Z" stroke="#032100" stroke-width="0.7" stroke-linecap="round" stroke-linejoin="round"></path><path d="M250.4 156.304H285.001" stroke="#032100" stroke-width="0.7" stroke-linecap="round" stroke-linejoin="round"></path><path d="M250.4 167.837H285.001" stroke="#032100" stroke-width="0.7" stroke-linecap="round" stroke-linejoin="round"></path><path d="M250.4 179.362H285.001" stroke="#032100" stroke-width="0.7" stroke-linecap="round" stroke-linejoin="round"></path><path d="M250.4 190.895H285.001" stroke="#032100" stroke-width="0.7" stroke-linecap="round" stroke-linejoin="round"></path><path d="M250.4 202.429H285.001" stroke="#032100" stroke-width="0.7" stroke-linecap="round" stroke-linejoin="round"></path><path d="M250.4 213.963H285.001" stroke="#032100" stroke-width="0.7" stroke-linecap="round" stroke-linejoin="round"></path><path d="M250.4 225.496H285.001" stroke="#032100" stroke-width="0.7" stroke-linecap="round" stroke-linejoin="round"></path><path d="M250.4 237.03H285.001" stroke="#032100" stroke-width="0.7" stroke-linecap="round" stroke-linejoin="round"></path><path d="M148.972 109.579L141.437 63.3251H146.798L151.773 96.5627L157.991 63.5001H162.597L168.88 96.7377L173.734 63.3251H178.985L171.533 109.579H166.853L160.404 75.3194L153.891 109.579H148.972Z" fill="#032100"></path><path d="M191.635 65.7295H287.441" stroke="#032100" stroke-width="0.7" stroke-linecap="round" stroke-linejoin="round"></path><path d="M191.635 75.8905H287.441" stroke="#032100" stroke-width="0.7" stroke-linecap="round" stroke-linejoin="round"></path><path d="M191.635 86.0516H287.441" stroke="#032100" stroke-width="0.7" stroke-linecap="round" stroke-linejoin="round"></path><path d="M191.635 96.2126H287.441" stroke="#032100" stroke-width="0.7" stroke-linecap="round" stroke-linejoin="round"></path><path d="M191.635 106.374H287.441" stroke="#032100" stroke-width="0.7" stroke-linecap="round" stroke-linejoin="round"></path><path d="M492.41 125.535H436.732C433.618 125.535 431.066 128.667 431.066 132.499V169.661C431.066 173.484 433.618 176.617 436.732 176.617H450.071L441.347 195.842L464.608 176.617H492.41C495.524 176.617 498.067 173.484 498.067 169.661V132.509C498.067 128.676 495.524 125.535 492.41 125.535Z" fill="#032100" stroke="#032100" stroke-width="0.7" stroke-linecap="round" stroke-linejoin="round"></path><path d="M454.918 162.863L443.209 154.572V150.187L454.918 141.831V146.262L446.525 152.361L454.918 158.459V162.863Z" fill="#3BC90C"></path><path d="M458.482 164.337L467.409 131.173H471.214L462.25 164.337H458.482Z" fill="#3BC90C"></path><path d="M474.779 162.863V158.478L483.218 152.342L474.779 146.281V141.85L486.534 150.141V154.526L474.779 162.863Z" fill="#3BC90C"></path><path d="M488.781 1.03232H433.158C430.044 1.03232 427.492 4.16446 427.492 7.98752V45.1402C427.492 48.9725 430.044 52.1046 433.158 52.1046H446.488L437.764 71.3213L461.034 52.1046H488.827C491.941 52.1046 494.492 48.9725 494.492 45.1402V7.98752C494.446 4.16446 491.895 1.03232 488.781 1.03232Z" fill="#032100" stroke="#032100" stroke-width="0.7" stroke-linecap="round" stroke-linejoin="round"></path><path d="M451.296 38.3416L439.578 30.0507V25.6749L451.296 17.3194V21.7413L442.904 27.8858L451.296 33.9935V38.3416Z" fill="#3BC90C"></path><path d="M454.862 39.8617L463.789 6.69781H467.594L458.63 39.8617H454.862Z" fill="#3BC90C"></path><path d="M471.159 38.3417V33.9659L479.598 27.8214L471.159 21.7597V17.3379L482.914 25.6289V30.0138L471.159 38.3417Z" fill="#3BC90C"></path><path d="M270.002 96.9772H214.324C211.21 96.9772 208.658 100.109 208.658 103.932V141.104C208.658 144.936 211.21 148.068 214.324 148.068H227.663L218.939 167.285L242.2 148.068H270.002C273.116 148.068 275.658 144.936 275.658 141.104V103.951C275.631 100.128 273.116 96.9772 270.002 96.9772Z" fill="#032100" stroke="#032100" stroke-width="0.7" stroke-linecap="round" stroke-linejoin="round"></path><path d="M232.508 134.305L220.799 126.014V121.638L232.508 113.283V117.705L224.115 123.803L232.508 129.911V134.305Z" fill="#3BC90C"></path><path d="M236.074 135.779L245.001 102.615H248.815L239.842 135.779H236.074Z" fill="#3BC90C"></path><path d="M252.369 134.305V129.929L260.808 123.785L252.369 117.723V113.301L264.124 121.592V125.977L252.369 134.305Z" fill="#3BC90C"></path><path d="M124.101 285.901H123.973C123.438 285.855 118.722 285.339 117.681 282.216C116.879 279.793 116.861 273.004 118.74 270.857C120.463 268.895 123.116 269.844 124.267 270.618C124.573 270.82 124.785 271.136 124.858 271.496C124.93 271.855 124.857 272.228 124.654 272.534C124.451 272.839 124.136 273.051 123.776 273.124C123.417 273.197 123.043 273.123 122.738 272.921C122.738 272.921 121.347 272.064 120.813 272.672C119.891 273.704 119.587 279.213 120.297 281.341C120.638 282.354 122.839 283.017 124.221 283.183C124.588 283.2 124.932 283.362 125.179 283.633C125.426 283.905 125.556 284.263 125.539 284.629C125.521 284.996 125.359 285.34 125.088 285.588C124.817 285.835 124.459 285.964 124.092 285.947L124.101 285.901Z" fill="#032100"></path><path d="M139.9 268.37H123.318V288.738H139.9V268.37Z" fill="#032100" stroke="#032100" stroke-width="0.7" stroke-linecap="round" stroke-linejoin="round"></path><path d="M127.417 265.56C126.878 263.35 127.232 261.016 128.403 259.066C130.365 255.915 134.299 255.325 134.105 249.853" stroke="#032100" stroke-width="0.7" stroke-linecap="round" stroke-linejoin="round"></path><path d="M137.652 257.094C136.893 258.4 136.037 259.648 135.091 260.825C134.118 262.203 133.632 263.866 133.709 265.551" stroke="#032100" stroke-width="0.7" stroke-linecap="round" stroke-linejoin="round"></path><path d="M139.421 253.584C140.185 251.648 140.454 249.552 140.204 247.486" stroke="#032100" stroke-width="0.7" stroke-linecap="round" stroke-linejoin="round"></path><path d="M65.0329 143.849C65.0329 143.849 64.2223 140.321 62.1495 140.569C60.0768 140.818 60.7401 141.49 58.7687 140.975C56.7973 140.459 56.4011 138.782 55.4339 140.238C54.4666 141.693 56.2906 142.614 54.5126 142.439C52.7347 142.264 52.0714 141.205 51.3897 141.859C50.9933 142.224 50.6574 142.65 50.3948 143.121L50.1092 143.922C50.2231 143.674 50.3909 143.454 50.6004 143.278C50.8099 143.103 51.0559 142.976 51.3205 142.907C51.585 142.838 51.8616 142.829 52.1301 142.881C52.3986 142.932 52.6523 143.042 52.8729 143.204C54.7153 144.319 56.0879 144.54 56.3551 143.554C56.6222 142.568 58.9161 142.633 58.9805 143.232C59.1151 143.703 59.3653 144.134 59.7083 144.484C59.7083 144.484 54.6048 144.908 53.1032 145.083C51.6016 145.258 50.4961 144.061 48.3313 145.083C46.1664 146.106 44.37 147.082 43.5686 148.326C42.7671 149.57 44.6648 151.09 44.3977 152.011C44.1305 152.932 40.2706 154.231 40.4364 155.539C40.6022 156.847 42.3341 157.031 40.5654 158.201C38.7967 159.371 37.2398 160.698 37.7465 161.785C38.2531 162.872 39.5889 164.042 39.3033 165.221C39.0177 166.4 37.0371 168.547 38.115 169.56C39.1928 170.573 39.8468 169.735 39.6534 171.283C39.4599 172.83 38.5019 175.999 39.6534 176.432C40.8049 176.865 42.2604 177.455 42.2512 178.984C42.242 180.513 42.0025 181.683 43.0619 182.512C44.1213 183.341 46.5809 183.231 46.8481 185.488C47.1153 187.745 47.4008 188.473 48.4142 188.924C49.4275 189.375 51.0028 188.233 51.7858 190.048C52.5689 191.863 54.8627 191.78 55.9405 191.264C57.0184 190.748 57.8751 189.891 58.8792 191.863C59.8833 193.834 61.0533 194.083 62.5088 193.53C63.9643 192.977 66.1108 193.281 66.9951 194.322C67.8795 195.363 69.9523 195.115 70.9932 194.221C72.0342 193.327 72.7712 191.531 73.7016 192.94C74.632 194.35 76.889 195.612 77.6905 194.368C78.492 193.125 79.017 191.163 80.2883 192.148C80.5751 192.354 80.8997 192.5 81.2434 192.579C81.5871 192.658 81.9431 192.669 82.2908 192.61C82.6385 192.55 82.9711 192.423 83.2693 192.235C83.5676 192.047 83.8256 191.801 84.0285 191.513C84.3889 190.891 84.9123 190.379 85.5423 190.034C86.1722 189.688 86.8848 189.521 87.6028 189.55C89.1597 189.753 91.0574 189.707 91.0205 187.809C90.9837 185.912 90.827 184.585 92.3747 184.778C93.9223 184.972 96.2715 185.46 96.2346 183.553C96.1978 181.646 96.0596 180.522 97.1558 180.384C98.2521 180.246 100.002 178.708 99.68 177.621C99.3575 176.534 98.5008 172.609 99.072 172.545C99.6431 172.48 100.389 170.859 99.5971 169.044C98.8048 167.229 98.6758 165.728 99.1733 165.47C99.6707 165.212 100.214 163.056 98.9061 161.684C97.598 160.311 97.0637 159.233 98.1231 158.34C98.3916 158.098 98.605 157.802 98.7488 157.471C98.8926 157.14 98.9634 156.781 98.9564 156.42C98.9494 156.059 98.8648 155.704 98.7083 155.379C98.5518 155.053 98.3271 154.766 98.0494 154.535C96.7597 153.356 96.078 152.481 95.9675 151.541C95.8569 150.601 93.3236 148.611 92.5037 148.142C91.9115 147.703 91.4259 147.136 91.0829 146.484C90.74 145.832 90.5487 145.11 90.5231 144.374C90.2743 142.301 89.8782 142.163 86.3131 141.067C84.1795 140.486 82.1798 139.494 80.4265 138.146C78.971 137.179 75.3966 137.603 73.978 138.543C72.5593 139.482 67.1333 139.206 65.0329 143.849Z" fill="#032100" stroke="#032100" stroke-width="0.7" stroke-linecap="round" stroke-linejoin="round"></path><path d="M27.0519 240.227C33.1411 235.51 46.0198 214.129 46.0198 214.129C46.0198 214.129 47.5674 225.045 49.373 230.259C51.1786 235.473 53.6383 238.891 53.0579 244.879L53.0026 243.958L86.0283 244.925C85.0149 243.082 84.3701 242.769 84.1858 241.968C83.6423 239.158 86.5257 232.921 86.5626 230.075C86.5994 227.228 88.7551 221.784 88.7551 221.784C88.7551 221.784 98.2805 242.889 100.464 244.667C102.647 246.445 108.755 247.431 108.414 240.816C108.073 234.202 96.9447 208.62 94.9917 204.17C93.0387 199.721 90.5883 196.635 85.8717 197.086C81.155 197.537 80.0588 198.357 76.8437 198.532C73.6287 198.707 75.0474 183.268 75.0474 183.268C73.432 184.568 71.5016 185.418 69.4519 185.732C67.4022 186.046 65.3059 185.812 63.3755 185.055C63.3755 185.055 64.2046 193.162 62.832 195.704C61.4594 198.247 60.7408 199.048 57.4521 197.906C54.1634 196.764 49.0137 192.867 45.8724 194.368C42.731 195.87 20.6679 232.581 18.9452 235.713C17.8029 237.785 14.726 243.082 15.6472 244.51L27.0519 240.227Z" fill="white" stroke="#032100" stroke-width="0.7" stroke-linecap="round" stroke-linejoin="round"></path><path d="M53.0201 244.879C53.0201 244.566 53.0754 244.271 53.0846 243.958H52.9648C52.9648 243.958 53.0201 244.897 53.0201 244.879Z" fill="#3BC90C" stroke="#032100" stroke-width="0.7" stroke-linecap="round" stroke-linejoin="round"></path><path d="M45.8724 194.396C42.731 195.898 20.6679 232.608 18.9452 235.74C17.8029 237.813 14.726 243.11 15.6472 244.538L27.0519 240.227C33.1412 235.51 46.0198 214.128 46.0198 214.128C46.0198 214.128 47.5674 225.045 49.373 230.259C51.0865 235.197 53.3803 238.55 53.0579 243.976L85.9638 244.943C84.9505 243.101 84.3056 242.788 84.1214 241.986C83.5779 239.176 86.4613 232.94 86.4981 230.093C86.535 227.247 88.6906 221.802 88.6906 221.802C88.6906 221.802 98.216 242.907 100.399 244.685C102.583 246.463 108.69 247.449 108.349 240.835C108.009 234.22 96.8802 208.638 94.9273 204.189C92.9743 199.739 90.5238 196.653 85.8072 197.104C84.1202 197.26 82.4459 197.531 80.7958 197.915L67.1249 214.561L57.3876 197.924C54.1634 196.782 49.0137 192.894 45.8724 194.396Z" fill="#032100" stroke="#032100" stroke-width="0.7" stroke-linecap="round" stroke-linejoin="round"></path><path d="M53.3889 242.336C53.3889 242.336 35.9686 257.398 35.5725 271.576C35.4343 276.495 36.374 287.485 44.7847 288.646C53.1954 289.807 90.4495 288.646 90.4495 288.646C90.4495 288.646 93.3513 287.771 95.0556 277.932C96.7598 268.093 84.0562 242.926 84.0562 242.926L53.3889 242.336Z" fill="#032100" stroke="#032100" stroke-width="0.7" stroke-linecap="round" stroke-linejoin="round"></path><path d="M66.211 248.333C66.211 248.333 63.0328 252.276 62.5262 252.47C62.0195 252.663 61.4668 254.202 60.4074 256.505C59.348 258.808 59.6428 259.01 60.8956 258.43C62.1485 257.85 63.3921 255.261 63.3921 255.261L65.7965 253.722C65.7965 253.722 68.2009 247.661 66.211 248.333Z" fill="white" stroke="#032100" stroke-width="0.7" stroke-linecap="round" stroke-linejoin="round"></path><path d="M98.8046 237.767C98.8046 237.767 95.8291 241.793 88.9107 244.87C81.9924 247.946 75.2767 247.025 71.4905 247.2C67.7043 247.375 67.1331 246.519 65.521 249.549C63.9089 252.58 65.346 260.899 66.129 261.433C66.912 261.967 67.0502 258.126 67.0502 258.126C67.0502 258.126 67.7411 261.811 68.8466 261.884C69.9521 261.958 70.3021 258.743 70.3021 258.743C70.3021 258.743 71.2786 261.009 72.1446 260.705C73.0105 260.401 72.8539 257.942 72.8539 257.942C72.8539 257.942 73.9409 259.37 74.4752 258.586C75.0095 257.803 73.7291 253.059 73.7291 253.059C73.7291 253.059 78.6299 253.861 80.4263 253.253C81.5253 252.861 82.4859 252.156 83.19 251.226C87.9843 251.25 92.7752 250.966 97.5333 250.378C102.959 249.457 110.476 243.847 108.735 240.356C106.994 236.864 101.218 236.081 101.218 236.081" fill="white"></path><path d="M98.8046 237.767C98.8046 237.767 95.8291 241.793 88.9107 244.87C81.9924 247.946 75.2767 247.025 71.4905 247.2C67.7043 247.375 67.1331 246.519 65.521 249.549C63.9089 252.58 65.346 260.899 66.129 261.433C66.912 261.967 67.0502 258.126 67.0502 258.126C67.0502 258.126 67.7411 261.811 68.8466 261.884C69.9521 261.958 70.3021 258.743 70.3021 258.743C70.3021 258.743 71.2786 261.009 72.1446 260.705C73.0105 260.401 72.8539 257.942 72.8539 257.942C72.8539 257.942 73.9409 259.37 74.4752 258.586C75.0095 257.803 73.7291 253.059 73.7291 253.059C73.7291 253.059 78.6299 253.861 80.4263 253.253C81.5253 252.861 82.4859 252.156 83.19 251.226C87.9843 251.25 92.7752 250.966 97.5333 250.378C102.959 249.457 110.476 243.847 108.735 240.356C106.994 236.864 101.218 236.081 101.218 236.081" stroke="#032100" stroke-width="0.7" stroke-linecap="round" stroke-linejoin="round"></path><path d="M72.8358 257.988C72.8358 257.988 71.0579 252.866 71.758 250.821" stroke="#032100" stroke-width="0.7" stroke-linecap="round" stroke-linejoin="round"></path><path d="M70.255 258.743C70.255 258.743 69.0482 253.787 69.3338 250.747" stroke="#032100" stroke-width="0.7" stroke-linecap="round" stroke-linejoin="round"></path><path d="M67.0033 258.126C67.0033 258.126 66.0821 252.709 66.7085 251.502" stroke="#032100" stroke-width="0.7" stroke-linecap="round" stroke-linejoin="round"></path><path d="M98.8046 237.767C97.3578 239.499 95.6518 240.997 93.7471 242.207C95.5895 243.598 97.5056 246.03 98.1505 250.286C103.503 249.089 110.384 243.746 108.708 240.392C107.031 237.039 101.218 236.081 101.218 236.081" fill="#032100"></path><path d="M98.8046 237.767C97.3578 239.499 95.6518 240.997 93.7471 242.207C95.5895 243.598 97.5056 246.03 98.1505 250.286C103.503 249.089 110.384 243.746 108.708 240.392C107.031 237.039 101.218 236.081 101.218 236.081" stroke="#032100" stroke-width="0.7" stroke-linecap="round" stroke-linejoin="round"></path><path d="M44.4341 226.482C45.8033 226.145 47.1386 225.682 48.423 225.1C50.4773 224.179 51.896 222.097 52.5224 222.889C53.1488 223.682 52.6974 225.119 51.509 226.132C50.0301 227.174 48.4715 228.098 46.8477 228.896C46.8477 228.896 43.1075 228.159 44.4341 226.482Z" fill="white" stroke="#032100" stroke-width="0.7" stroke-linecap="round" stroke-linejoin="round"></path><path d="M35.8121 234.589C35.8121 234.589 40.5103 222.125 42.6476 222.088C44.7848 222.051 54.9182 223.847 54.4392 224.851C53.9601 225.856 52.7441 226.169 51.5281 226.123C49.5877 225.797 47.6683 225.357 45.7797 224.805L44.4532 226.473C44.4532 226.473 49.1329 227.818 49.8515 228.159C50.57 228.5 53.3429 231.236 52.6152 232.323C51.8874 233.41 51.6202 232.912 51.6202 232.912C51.8461 233.537 51.8461 234.222 51.6202 234.847C51.2057 235.713 50.7727 235.51 50.7727 235.51C50.7526 235.734 50.6806 235.95 50.5623 236.141C50.4441 236.333 50.2829 236.494 50.0915 236.612C49.9001 236.73 49.6839 236.801 49.4599 236.821C49.236 236.841 49.0105 236.809 48.8013 236.726C47.7511 236.321 47.7327 234.322 46.443 234.487C44.9783 234.662 44.7387 234.405 44.7387 234.405C43.3422 235.744 41.8622 236.993 40.3077 238.145C39.0693 238.921 37.6422 239.345 36.1806 239.37C36.1806 239.37 27.558 246.638 20.2528 247.55C12.1184 248.564 14.8821 239.812 18.9538 235.731C23.0256 231.65 35.8121 234.589 35.8121 234.589Z" fill="white" stroke="#032100" stroke-width="0.7" stroke-linecap="round" stroke-linejoin="round"></path><path d="M51.6389 232.921C51.6389 232.921 50.0912 230.37 49.0779 229.891C47.6715 229.442 46.2291 229.115 44.7666 228.914" stroke="#032100" stroke-width="0.7" stroke-linecap="round" stroke-linejoin="round"></path><path d="M50.7629 235.519C50.7629 235.519 48.377 232.028 47.6308 231.982C46.8846 231.936 44.4434 231.54 44.4434 231.54" stroke="#032100" stroke-width="0.7" stroke-linecap="round" stroke-linejoin="round"></path><path d="M22.2236 240.365C22.6668 237.794 23.9038 235.426 25.7611 233.594C22.9974 233.704 20.4088 234.257 18.9441 235.74C14.8723 239.821 12.1086 248.573 20.243 247.559C21.9209 247.314 23.5594 246.85 25.1162 246.178C23.4949 244.842 21.938 242.87 22.2236 240.365Z" fill="#032100" stroke="#032100" stroke-width="0.7" stroke-linecap="round" stroke-linejoin="round"></path><path d="M84.2677 183C84.9034 185.764 84.4243 188.224 83.2083 188.528C81.9923 188.832 80.4447 186.787 79.8459 184.023C79.2471 181.259 79.6893 178.8 80.9145 178.496C82.1397 178.192 83.6321 180.237 84.2677 183Z" stroke="white" stroke-width="0.7" stroke-linecap="round" stroke-linejoin="round"></path><path d="M59.0629 184.76C59.0629 187.432 58.0495 189.587 56.852 189.578C55.6544 189.569 54.7239 187.386 54.7516 184.714C54.7792 182.043 55.7649 179.887 56.9994 179.887C58.2338 179.887 59.0905 182.089 59.0629 184.76Z" stroke="white" stroke-width="0.7" stroke-linecap="round" stroke-linejoin="round"></path><path d="M67.5651 160.348C67.5651 160.348 64.8015 161.002 64.8015 163.111C64.8015 165.221 65.087 165.949 63.4657 166.603C61.8444 167.257 60.9784 167.791 61.2271 169.293C61.4759 170.794 62.1484 171.246 60.0848 171.596C58.0213 171.946 58.1779 170.573 57.7449 172.563C57.312 174.553 57.229 175.152 56.4736 175.281C55.7182 175.41 56.6487 181.978 58.4635 185.893C60.2783 189.808 64.5251 195.63 67.0769 195.971C69.6286 196.312 72.9082 193.208 75.1928 190.564C77.2471 188.178 80.2871 180.873 80.2871 180.873L80.9412 180.182C80.9412 180.182 82.0927 180.182 82.3967 178.588C82.3967 178.588 82.1756 176.128 80.932 175.576C79.7441 174.89 78.8199 173.826 78.3065 172.554C78.2144 171.992 78.8316 171.126 77.9933 170.712C77.155 170.297 75.7455 169.928 75.3402 168.657C74.9349 167.386 76.3259 165.415 74.6769 164.733C73.0279 164.051 72.1528 164.585 71.9133 163.277C71.6738 161.969 72.4107 160.514 71.1579 159.942C69.905 159.371 67.5651 160.348 67.5651 160.348Z" fill="white" stroke="#032100" stroke-width="0.7" stroke-linecap="round" stroke-linejoin="round"></path><path d="M63.9084 177.667C64.1019 178.827 63.9084 179.841 63.3926 179.924C62.8767 180.007 62.3608 179.122 62.1673 177.961C61.9739 176.801 62.1673 175.778 62.6832 175.704C63.1991 175.631 63.7058 176.497 63.9084 177.667Z" fill="#032100"></path><path d="M72.4661 177.786C72.4661 178.966 72.0516 179.924 71.5449 179.914C71.0382 179.905 70.6697 178.993 70.6882 177.768C70.7066 176.543 71.1027 175.631 71.6094 175.631C72.116 175.631 72.4845 176.598 72.4661 177.786Z" fill="#032100"></path><path d="M64.3691 186.649C64.3691 186.649 66.2116 189.081 71.4072 186.649" stroke="#032100" stroke-width="0.7" stroke-linecap="round" stroke-linejoin="round"></path><path d="M59.0361 174.525C59.0361 174.525 61.6432 171.762 64.7477 173.604" stroke="#032100" stroke-width="0.7" stroke-linecap="round" stroke-linejoin="round"></path><path d="M68.7998 173.438C68.7998 173.438 72.2359 171.071 75.9669 175.041" stroke="#032100" stroke-width="0.7" stroke-linecap="round" stroke-linejoin="round"></path><path d="M65.3654 180.854C65.1952 181.272 65.1076 181.72 65.1074 182.171C65.2206 182.692 65.5243 183.152 65.9588 183.46C66.3934 183.769 66.9276 183.904 67.4565 183.839C67.7731 183.811 68.0781 183.707 68.3453 183.535C68.6126 183.363 68.8341 183.129 68.9909 182.852C69.1477 182.576 69.235 182.266 69.2453 181.948C69.2557 181.63 69.1887 181.315 69.0502 181.029" stroke="#032100" stroke-width="0.7" stroke-linecap="round" stroke-linejoin="round"></path><path d="M71.8776 264.27C70.4275 264.485 69.0519 265.052 67.8703 265.919C62.472 269.871 63.863 278.816 63.6788 284.694C63.4515 292.131 63.212 299.559 62.9602 306.978C62.601 317.904 62.4351 328.857 61.735 339.764C61.2007 348.129 58.8424 361.155 60.6388 370.054C62.4351 378.953 67.0873 376.991 69.6022 368.783C72.1171 360.575 68.681 344.591 68.3678 340.98C68.1283 338.161 81.053 295.527 84.526 276.219C85.8064 269.079 78.4091 263.266 71.8776 264.27Z" fill="white" stroke="#032100" stroke-width="0.7" stroke-linecap="round" stroke-linejoin="round"></path><path d="M65.2904 359.81C62.9137 359.266 61.3476 356.337 60.3711 353.582C59.8736 359.358 59.6433 365.291 60.6014 370.054C62.4438 378.944 67.0499 376.991 69.5649 368.783C70.4861 365.687 70.6058 361.487 70.3479 357.258C69.1319 358.962 67.4461 360.289 65.2904 359.81Z" fill="#032100" stroke="#032100" stroke-width="0.7" stroke-linecap="round" stroke-linejoin="round"></path><path d="M50.0266 263.607C51.4893 263.551 52.9437 263.851 54.2642 264.482C60.289 267.375 60.5746 276.394 61.8459 282.17C63.4488 289.429 65.0548 296.685 66.6638 303.938C69.0314 314.606 71.2147 325.347 73.923 335.932C75.9958 344.048 80.7124 356.42 80.5835 365.494C80.4545 374.568 75.5075 373.509 71.5371 365.899C67.5666 358.29 68.0088 341.948 67.6311 338.346C67.3363 335.582 46.7655 296.016 39.7919 277.683C37.2125 270.903 43.4215 263.828 50.0266 263.607Z" fill="white" stroke="#032100" stroke-width="0.7" stroke-linecap="round" stroke-linejoin="round"></path><path d="M74.0891 356.3C76.3277 355.324 77.3226 352.155 77.774 349.271C79.3308 354.854 80.6482 360.648 80.5376 365.494C80.4179 374.568 75.4617 373.509 71.4913 365.899C69.9989 363.034 69.1237 358.926 68.5986 354.725C70.1923 356.162 72.0901 357.166 74.0891 356.3Z" fill="#032100" stroke="#032100" stroke-width="0.7" stroke-linecap="round" stroke-linejoin="round"></path><path d="M89.9241 228.417H33.2139V263.644H89.9241V228.417Z" fill="#56E22F" stroke="#032100" stroke-width="0.7" stroke-linecap="round" stroke-linejoin="round"></path><path d="M89.9241 262.843H33.2139V264.878H89.9241V262.843Z" fill="#56E22F" stroke="#032100" stroke-width="0.7" stroke-linecap="round" stroke-linejoin="round"></path></svg>