<svg xmlns="http://www.w3.org/2000/svg" width="507" height="362" viewBox="0 0 507 362" fill="none"><path d="M374.021 20.5269C373.546 20.5269 373.091 20.7155 372.755 21.0514C372.419 21.3872 372.231 21.8427 372.231 22.3176V31.4983H339.507V22.3176C339.507 21.8427 339.319 21.3872 338.983 21.0514C338.647 20.7155 338.191 20.5269 337.717 20.5269C337.242 20.5269 336.786 20.7155 336.45 21.0514C336.114 21.3872 335.926 21.8427 335.926 22.3176V253.565C335.926 254.04 336.114 254.495 336.45 254.831C336.786 255.167 337.242 255.356 337.717 255.356C338.191 255.356 338.647 255.167 338.983 254.831C339.319 254.495 339.507 254.04 339.507 253.565V201.836H372.231V253.565C372.231 254.04 372.419 254.495 372.755 254.831C373.091 255.167 373.546 255.356 374.021 255.356C374.496 255.356 374.952 255.167 375.288 254.831C375.623 254.495 375.812 254.04 375.812 253.565V22.2818C375.803 21.8131 375.61 21.3668 375.275 21.0386C374.94 20.7105 374.49 20.5268 374.021 20.5269ZM372.231 198.29H339.507V186.686H372.231V198.29ZM372.231 183.092H339.507V171.5H372.231V183.092ZM372.231 167.907H339.507V156.35H372.231V167.907ZM372.231 152.733H339.507V141.224H372.231V152.733ZM372.231 137.571H339.507V126.194H372.231V137.571ZM372.231 122.457H339.507V111.008H372.231V122.457ZM372.231 107.415H339.507V95.8583H372.231V107.415ZM372.231 92.229H339.507V80.6727H372.231V92.229ZM372.231 77.0792H339.507V65.487H372.231V77.0792ZM372.231 61.8935H339.507V50.2774H372.231V61.8935ZM372.231 46.6959H339.507V35.0798H372.231V46.6959Z" fill="white"></path><path d="M463.273 356.937L15.0308 291.257C13.6058 291.046 12.323 290.277 11.4644 289.12C10.6058 287.963 10.2416 286.513 10.4517 285.088L47.7834 30.4251C47.886 29.7202 48.1267 29.0425 48.4916 28.4307C48.8565 27.8189 49.3384 27.2851 49.9098 26.8598C50.4812 26.4345 51.1309 26.126 51.8217 25.9521C52.5124 25.7781 53.2307 25.7421 53.9354 25.846L62.4294 27.0869C63.5053 27.2484 64.6049 27.0812 65.5841 26.6072C66.5633 26.1331 67.3766 25.3744 67.9173 24.4304L79.1902 4.94311C79.5325 4.33128 79.9964 3.79596 80.5534 3.37014C83.1924 1.46186 86.4721 0.659182 89.6941 1.13304L202.685 17.7016C205.22 18.0655 207.581 19.2004 209.449 20.9524C209.947 21.4514 210.339 22.0459 210.602 22.7001L220.652 47.5879C221.004 48.4682 221.583 49.2401 222.328 49.8261C223.074 50.4121 223.96 50.7915 224.899 50.926L502.177 91.5784C503.602 91.7859 504.886 92.5503 505.748 93.7037C506.61 94.8571 506.979 96.3053 506.774 97.7304L469.442 352.376C469.226 353.797 468.456 355.076 467.3 355.931C466.143 356.786 464.695 357.148 463.273 356.937Z" fill="#032100" stroke="#032100" stroke-miterlimit="10"></path><path d="M468.045 355.697H23.7529C22.4631 355.697 21.1858 355.442 19.9941 354.949C18.8024 354.455 17.7196 353.732 16.8076 352.82C15.8955 351.908 15.172 350.825 14.6783 349.633C14.1847 348.441 13.9307 347.164 13.9307 345.874V97.2763C13.9307 94.6712 14.9655 92.1729 16.8076 90.3309C18.6496 88.4888 21.1479 87.454 23.7529 87.454H24.9589C26.9253 87.4501 28.8459 86.8592 30.4744 85.7569C32.1029 84.6546 33.3652 83.0912 34.0996 81.267L40.8633 64.2615C41.6193 62.2988 43.0015 60.6402 44.7957 59.5427C46.7231 58.4047 48.9192 57.8013 51.1574 57.7949H165.355C166.889 57.7933 168.411 58.0717 169.846 58.6164C171.839 59.4196 173.502 60.8732 174.565 62.741L186.188 82.5429C187.054 84.0219 188.292 85.2486 189.779 86.1009C191.266 86.9533 192.95 87.4017 194.664 87.4016H468.045C470.65 87.4016 473.148 88.4364 474.99 90.2785C476.832 92.1205 477.867 94.6188 477.867 97.2238V345.874C477.867 347.164 477.613 348.441 477.12 349.633C476.626 350.825 475.902 351.908 474.99 352.82C474.078 353.732 472.995 354.455 471.804 354.949C470.612 355.442 469.335 355.697 468.045 355.697Z" fill="#3BC90C"></path><mask id="mask0_1252_5762" style="mask-type:luminance" maskUnits="userSpaceOnUse" x="13" y="57" width="465" height="299"><path d="M468.043 355.697H23.751C22.4611 355.697 21.1839 355.443 19.9922 354.95C18.8005 354.456 17.7177 353.733 16.8056 352.821C15.8935 351.909 15.17 350.826 14.6764 349.634C14.1828 348.442 13.9287 347.165 13.9287 345.875V97.2772C13.9287 94.6722 14.9636 92.1739 16.8056 90.3319C18.6476 88.4898 21.1459 87.455 23.751 87.455H24.9569C26.9234 87.4511 28.8439 86.8601 30.4724 85.7579C32.1009 84.6556 33.3632 83.0922 34.0976 81.268L40.8613 64.2625C41.6173 62.2998 42.9995 60.6412 44.7937 59.5436C46.7211 58.4056 48.9172 57.8023 51.1555 57.7959H165.353C166.887 57.7943 168.409 58.0727 169.844 58.6173C171.837 59.4206 173.5 60.8742 174.563 62.742L186.186 82.5438C187.052 84.0229 188.29 85.2495 189.777 86.1019C191.264 86.9543 192.948 87.4027 194.662 87.4026H468.043C470.648 87.4026 473.146 88.4374 474.988 90.2794C476.83 92.1215 477.865 94.6198 477.865 97.2248V345.875C477.865 347.165 477.611 348.442 477.118 349.634C476.624 350.826 475.9 351.909 474.988 352.821C474.076 353.733 472.994 354.456 471.802 354.95C470.61 355.443 469.333 355.697 468.043 355.697Z" fill="white"></path></mask><g mask="url(#mask0_1252_5762)"><path opacity="0.1" d="M468.043 355.697H23.751C22.4611 355.697 21.1839 355.443 19.9922 354.95C18.8005 354.456 17.7177 353.733 16.8056 352.821C15.8935 351.909 15.17 350.826 14.6764 349.634C14.1828 348.442 13.9287 347.165 13.9287 345.875V97.2772C13.9287 94.6722 14.9636 92.1739 16.8056 90.3319C18.6476 88.4898 21.1459 87.455 23.751 87.455H24.9569C26.9234 87.4511 28.8439 86.8601 30.4724 85.7579C32.1009 84.6556 33.3632 83.0922 34.0976 81.268L40.8613 64.2625C41.6173 62.2998 42.9995 60.6412 44.7937 59.5436C46.7211 58.4056 48.9172 57.8023 51.1555 57.7959H165.353C166.887 57.7943 168.409 58.0727 169.844 58.6173C171.837 59.4206 173.5 60.8742 174.563 62.742L186.186 82.5438C187.052 84.0229 188.29 85.2495 189.777 86.1019C191.264 86.9543 192.948 87.4027 194.662 87.4026H468.043C470.648 87.4026 473.146 88.4374 474.988 90.2794C476.83 92.1215 477.865 94.6198 477.865 97.2248V345.875C477.865 347.165 477.611 348.442 477.118 349.634C476.624 350.826 475.9 351.909 474.988 352.821C474.076 353.733 472.994 354.456 471.802 354.95C470.61 355.443 469.333 355.697 468.043 355.697Z" fill="#032100"></path></g><path d="M468.045 355.696H23.7529C22.4631 355.696 21.1858 355.442 19.9941 354.949C18.8024 354.455 17.7196 353.732 16.8076 352.82C15.8955 351.908 15.172 350.825 14.6783 349.633C14.1847 348.441 13.9307 347.164 13.9307 345.874V97.2763C13.9307 94.6712 14.9655 92.1729 16.8076 90.3309C18.6496 88.4888 21.1479 87.454 23.7529 87.454H24.9589C26.9253 87.4501 28.8459 86.8592 30.4744 85.7569C32.1029 84.6546 33.3652 83.0912 34.0996 81.267L40.8633 64.2615C41.6193 62.2988 43.0015 60.6402 44.7957 59.5427C46.7231 58.4047 48.9192 57.8013 51.1574 57.7949H165.355C166.889 57.7933 168.411 58.0717 169.846 58.6164C171.839 59.4196 173.502 60.8732 174.565 62.741L186.188 82.5429C187.054 84.0219 188.292 85.2486 189.779 86.1009C191.266 86.9533 192.95 87.4017 194.664 87.4016H468.045C470.65 87.4016 473.148 88.4364 474.99 90.2784C476.832 92.1205 477.867 94.6188 477.867 97.2238V345.874C477.867 347.164 477.613 348.441 477.12 349.633C476.626 350.825 475.902 351.908 474.99 352.82C474.078 353.732 472.995 354.455 471.804 354.949C470.612 355.442 469.335 355.696 468.045 355.696Z" stroke="#032100" stroke-miterlimit="10"></path><path d="M139.47 86.6151H68.3723C66.6758 86.6151 65.0488 85.9412 63.8492 84.7415C62.6496 83.5419 61.9756 81.9149 61.9756 80.2184C61.9733 79.3769 62.1371 78.5432 62.4575 77.7651C62.7779 76.987 63.2488 76.2798 63.843 75.6839C64.4372 75.0881 65.1431 74.6153 65.9204 74.2928C66.6976 73.9702 67.5308 73.8042 68.3723 73.8042H139.47C141.171 73.8042 142.803 74.48 144.006 75.6829C145.209 76.8858 145.884 78.5172 145.884 80.2184C145.884 81.0599 145.718 81.8931 145.396 82.6704C145.073 83.4476 144.601 84.1535 144.005 84.7477C143.409 85.342 142.702 85.8128 141.924 86.1332C141.145 86.4536 140.312 86.6174 139.47 86.6151Z" fill="white"></path><path d="M468.045 399.075H23.7529C21.1479 399.075 18.6496 398.04 16.8076 396.198C14.9655 394.356 13.9307 391.858 13.9307 389.253V140.655C13.9307 138.05 14.9655 135.551 16.8076 133.709C18.6496 131.867 21.1479 130.833 23.7529 130.833H24.9589C26.9259 130.831 28.8475 130.241 30.4764 129.138C32.1053 128.036 33.3672 126.471 34.0996 124.646L40.8633 107.658C41.6147 105.692 42.998 104.032 44.7957 102.939C46.7201 101.794 48.9181 101.19 51.1574 101.191H165.355C166.889 101.189 168.411 101.468 169.846 102.012C171.844 102.816 173.509 104.277 174.565 106.154L186.188 125.974C187.054 127.453 188.292 128.68 189.779 129.532C191.266 130.384 192.95 130.833 194.664 130.833H468.045C470.65 130.833 473.148 131.867 474.99 133.709C476.832 135.551 477.867 138.05 477.867 140.655V389.253C477.867 391.858 476.832 394.356 474.99 396.198C473.148 398.04 470.65 399.075 468.045 399.075Z" fill="#032100" stroke="#032100" stroke-miterlimit="10"></path><path d="M173.533 35.354L102.994 26.6153C101.31 26.4013 99.7777 25.5297 98.7332 24.1905C97.6887 22.8513 97.2163 21.1533 97.4191 19.4671C97.6328 17.7801 98.5076 16.2469 99.8513 15.2047C101.195 14.1625 102.898 13.6966 104.585 13.9093L175.106 22.648C176.793 22.8576 178.327 23.7281 179.373 25.0684C180.418 26.4087 180.889 28.1092 180.681 29.7962C180.578 30.6308 180.31 31.4368 179.895 32.168C179.479 32.8992 178.924 33.5413 178.26 34.0575C177.596 34.5737 176.836 34.9539 176.025 35.1764C175.214 35.3989 174.367 35.4592 173.533 35.354Z" fill="#3BC90C"></path><path d="M139.47 130.012H68.3723C67.5308 130.012 66.6976 129.846 65.9204 129.523C65.1431 129.201 64.4372 128.728 63.843 128.132C63.2488 127.536 62.7779 126.829 62.4575 126.051C62.1371 125.273 61.9733 124.439 61.9756 123.598C61.9756 121.9 62.649 120.271 63.8481 119.068C65.0472 117.866 66.6742 117.188 68.3723 117.184H139.47C141.171 117.184 142.803 117.859 144.006 119.062C145.209 120.265 145.884 121.897 145.884 123.598C145.884 125.299 145.209 126.93 144.006 128.133C142.803 129.336 141.171 130.012 139.47 130.012Z" fill="#3BC90C"></path><path d="M482.567 205.602H9.21058C4.12372 205.602 0 209.725 0 214.812V501.249C0 506.335 4.12372 510.459 9.21058 510.459H482.567C487.654 510.459 491.778 506.335 491.778 501.249V214.812C491.778 209.725 487.654 205.602 482.567 205.602Z" fill="white"></path><path d="M482.567 205.602H9.21058C4.12372 205.602 0 209.725 0 214.812V501.249C0 506.335 4.12372 510.459 9.21058 510.459H482.567C487.654 510.459 491.778 506.335 491.778 501.249V214.812C491.778 209.725 487.654 205.602 482.567 205.602Z" stroke="#032100" stroke-miterlimit="10"></path><path d="M7.11426 232.376V220.142C7.11889 217.698 8.09317 215.355 9.82327 213.628C11.5534 211.901 13.8979 210.932 16.3423 210.932H36.3539" stroke="#032100" stroke-miterlimit="10"></path><path d="M7.11426 418.177V247.284" stroke="#032100" stroke-miterlimit="10"></path><path d="M484.647 228.077V462.099" stroke="#032100" stroke-miterlimit="10"></path><path d="M318.998 317.071H172.764C170.129 317.071 167.993 319.208 167.993 321.843V396.453C167.993 399.089 170.129 401.225 172.764 401.225H318.998C321.633 401.225 323.769 399.089 323.769 396.453V321.843C323.769 319.208 321.633 317.071 318.998 317.071Z" fill="#032100" stroke="#032100" stroke-miterlimit="10"></path><path d="M318.998 317.071H172.764C170.129 317.071 167.993 319.208 167.993 321.843V337.887C167.993 340.522 170.129 342.658 172.764 342.658H318.998C321.633 342.658 323.769 340.522 323.769 337.887V321.843C323.769 319.208 321.633 317.071 318.998 317.071Z" fill="white" stroke="#032100" stroke-miterlimit="10"></path></svg>